<?xml version="1.0" encoding="utf-8"?>
<!-- Generator: Adobe Illustrator 24.1.2, SVG Export Plug-In . SVG Version: 6.00 Build 0)  -->
<svg version="1.1" xmlns="http://www.w3.org/2000/svg" xmlns:xlink="http://www.w3.org/1999/xlink" x="0px" y="0px"
	 viewBox="0 0 360.99 108.47" style="enable-background:new 0 0 360.99 108.47;" xml:space="preserve">
<style type="text/css">
	.st0{fill:#424143;}
	.st1{fill:url(#SVGID_1_);}
	.st2{fill:url(#SVGID_2_);}
	.st3{fill:url(#SVGID_3_);}
	.st4{fill:url(#SVGID_4_);}
	.st5{opacity:0.54;fill:url(#SVGID_5_);}
	.st6{opacity:0.65;fill:url(#SVGID_6_);}
	.st7{opacity:0.65;fill:url(#SVGID_7_);}
	.st8{opacity:0.65;fill:url(#SVGID_8_);}
	.st9{fill:#F7941D;}
	.st10{fill:#FFFFFF;}
	.st11{fill:url(#SVGID_9_);}
	.st12{fill:url(#SVGID_10_);}
	.st13{fill:url(#SVGID_11_);}
	.st14{fill:url(#SVGID_12_);}
	.st15{fill:#EF4136;}
	.st16{font-family:'ATROX-normal';}
	.st17{font-size:60px;}
	.st18{fill:url(#SVGID_13_);}
	.st19{fill:url(#SVGID_14_);}
	.st20{fill:url(#SVGID_15_);}
	.st21{fill:url(#SVGID_16_);}
	.st22{opacity:0.24;fill:url(#SVGID_17_);}
	.st23{fill:url(#SVGID_18_);}
	.st24{fill:url(#SVGID_19_);}
	.st25{opacity:0.78;fill:url(#SVGID_20_);}
	.st26{opacity:0.54;fill:url(#SVGID_21_);}
	.st27{opacity:0.24;fill:url(#SVGID_22_);}
	.st28{fill:url(#SVGID_23_);}
	.st29{fill:url(#SVGID_24_);}
	.st30{fill:url(#SVGID_25_);}
	.st31{fill:url(#SVGID_26_);}
	.st32{fill:url(#SVGID_27_);}
	.st33{fill:url(#SVGID_28_);}
	.st34{fill:url(#SVGID_29_);}
	.st35{opacity:0.65;fill:url(#SVGID_30_);}
	.st36{opacity:0.24;fill:url(#SVGID_31_);}
	.st37{fill:url(#SVGID_32_);}
	.st38{fill:url(#SVGID_33_);}
	.st39{fill:url(#SVGID_34_);}
	.st40{opacity:0.24;fill:url(#SVGID_35_);}
	.st41{fill:url(#SVGID_36_);}
	.st42{fill:url(#SVGID_37_);}
	.st43{fill:url(#SVGID_38_);}
	.st44{fill:url(#SVGID_39_);}
	.st45{fill:url(#SVGID_40_);}
	.st46{fill:url(#SVGID_41_);}
	.st47{opacity:0.24;fill:url(#SVGID_42_);}
	.st48{fill:url(#SVGID_43_);}
	.st49{fill:url(#SVGID_44_);}
	.st50{opacity:0.24;fill:url(#SVGID_45_);}
	.st51{fill:url(#SVGID_46_);}
	.st52{opacity:0.24;fill:url(#SVGID_47_);}
	.st53{fill:url(#SVGID_48_);}
	.st54{fill:url(#SVGID_49_);}
	.st55{fill:url(#SVGID_50_);}
	.st56{fill:url(#SVGID_51_);}
	.st57{opacity:0.54;fill:url(#SVGID_52_);}
	.st58{opacity:0.54;fill:url(#SVGID_53_);}
	.st59{opacity:0.54;fill:url(#SVGID_54_);}
	.st60{opacity:0.54;fill:url(#SVGID_55_);}
	.st61{opacity:0.24;fill:url(#SVGID_56_);}
	.st62{fill:url(#SVGID_57_);}
	.st63{fill:url(#SVGID_58_);}
	.st64{fill:url(#SVGID_59_);}
	.st65{fill:url(#SVGID_60_);}
	.st66{fill:url(#SVGID_61_);}
	.st67{opacity:0.24;fill:url(#SVGID_62_);}
</style>
<g id="background">
	<g>
		<g>
			<g>
				<path class="st0" d="M-63.36,735.51v-0.19c-0.25,0.29-0.49,0.52-0.73,0.7c-0.24,0.18-0.5,0.31-0.79,0.41
					c-0.28,0.09-0.59,0.14-0.92,0.14c-0.44,0-0.85-0.09-1.23-0.28c-0.38-0.18-0.71-0.45-0.98-0.8c-0.28-0.34-0.49-0.75-0.63-1.22
					c-0.14-0.47-0.21-0.98-0.21-1.52c0-1.16,0.28-2.06,0.85-2.71c0.57-0.65,1.31-0.97,2.23-0.97c0.54,0,0.98,0.09,1.35,0.27
					c0.37,0.18,0.72,0.46,1.07,0.84v-2.72c0-0.38,0.08-0.66,0.23-0.86c0.15-0.2,0.37-0.29,0.64-0.29c0.28,0,0.5,0.09,0.65,0.27
					c0.15,0.18,0.23,0.44,0.23,0.79v8.16c0,0.35-0.08,0.62-0.24,0.79c-0.17,0.17-0.37,0.26-0.63,0.26c-0.25,0-0.46-0.09-0.62-0.27
					C-63.27,736.12-63.36,735.85-63.36,735.51z M-66.99,732.8c0,0.5,0.08,0.93,0.23,1.28c0.16,0.36,0.37,0.62,0.64,0.8
					c0.27,0.18,0.57,0.27,0.89,0.27c0.32,0,0.62-0.09,0.89-0.26c0.27-0.17,0.48-0.42,0.64-0.78c0.16-0.36,0.24-0.79,0.24-1.31
					c0-0.5-0.08-0.92-0.24-1.27c-0.16-0.36-0.38-0.63-0.65-0.82c-0.27-0.19-0.57-0.28-0.9-0.28c-0.34,0-0.64,0.1-0.91,0.29
					c-0.26,0.2-0.47,0.47-0.62,0.83C-66.92,731.91-66.99,732.32-66.99,732.8z"/>
				<path class="st0" d="M-54.59,733.26h-3.62c0,0.42,0.09,0.79,0.25,1.11c0.17,0.32,0.38,0.57,0.66,0.72
					c0.27,0.17,0.57,0.24,0.9,0.24c0.22,0,0.42-0.02,0.61-0.07c0.18-0.05,0.36-0.14,0.53-0.25c0.17-0.11,0.33-0.23,0.48-0.36
					c0.14-0.13,0.33-0.3,0.56-0.51c0.09-0.08,0.23-0.13,0.41-0.13c0.19,0,0.34,0.05,0.46,0.15c0.12,0.11,0.18,0.26,0.18,0.44
					c0,0.17-0.07,0.36-0.2,0.59c-0.13,0.23-0.33,0.44-0.6,0.64c-0.26,0.21-0.59,0.38-1,0.52c-0.4,0.13-0.86,0.2-1.38,0.2
					c-1.19,0-2.11-0.34-2.77-1.02c-0.66-0.68-0.99-1.59-0.99-2.76c0-0.55,0.08-1.06,0.24-1.52c0.17-0.47,0.4-0.87,0.71-1.2
					c0.31-0.34,0.7-0.59,1.15-0.77c0.46-0.18,0.96-0.26,1.52-0.26c0.72,0,1.34,0.15,1.85,0.46c0.52,0.3,0.91,0.7,1.17,1.18
					c0.26,0.48,0.38,0.98,0.38,1.48c0,0.46-0.13,0.77-0.4,0.9C-53.73,733.19-54.11,733.26-54.59,733.26z M-58.2,732.22h3.35
					c-0.04-0.64-0.21-1.1-0.51-1.42c-0.29-0.31-0.69-0.47-1.17-0.47c-0.46,0-0.84,0.16-1.13,0.47
					C-57.96,731.12-58.15,731.59-58.2,732.22z"/>
				<path class="st0" d="M-45.55,734.15c0,0.51-0.12,0.95-0.37,1.31c-0.25,0.37-0.62,0.64-1.1,0.83c-0.48,0.19-1.07,0.28-1.77,0.28
					c-0.66,0-1.23-0.1-1.71-0.3c-0.48-0.2-0.82-0.46-1.05-0.76c-0.22-0.31-0.34-0.62-0.34-0.92c0-0.2,0.07-0.38,0.22-0.52
					c0.15-0.15,0.33-0.22,0.55-0.22c0.19,0,0.34,0.05,0.44,0.14c0.11,0.09,0.21,0.23,0.3,0.4c0.19,0.33,0.42,0.57,0.68,0.74
					c0.26,0.16,0.63,0.25,1.08,0.25c0.37,0,0.67-0.08,0.91-0.25c0.24-0.17,0.35-0.36,0.35-0.56c0-0.33-0.12-0.57-0.37-0.72
					c-0.25-0.15-0.65-0.29-1.22-0.43c-0.63-0.16-1.15-0.32-1.55-0.49c-0.4-0.18-0.72-0.4-0.96-0.69c-0.24-0.29-0.36-0.64-0.36-1.05
					c0-0.37,0.11-0.72,0.33-1.05c0.22-0.33,0.55-0.59,0.98-0.79c0.44-0.2,0.95-0.29,1.56-0.29c0.48,0,0.91,0.05,1.29,0.15
					c0.38,0.1,0.7,0.23,0.96,0.4c0.26,0.16,0.45,0.35,0.58,0.55c0.13,0.2,0.2,0.4,0.2,0.6c0,0.21-0.07,0.39-0.21,0.52
					c-0.14,0.14-0.35,0.21-0.61,0.21c-0.19,0-0.35-0.05-0.49-0.16c-0.13-0.11-0.28-0.27-0.45-0.49c-0.14-0.18-0.31-0.32-0.5-0.43
					c-0.19-0.11-0.45-0.16-0.77-0.16c-0.33,0-0.61,0.08-0.83,0.22c-0.22,0.14-0.33,0.32-0.33,0.53c0,0.19,0.08,0.35,0.24,0.47
					c0.17,0.13,0.38,0.23,0.66,0.31c0.27,0.08,0.66,0.18,1.14,0.3c0.57,0.14,1.04,0.31,1.4,0.5c0.37,0.2,0.64,0.43,0.83,0.69
					C-45.64,733.51-45.55,733.82-45.55,734.15z"/>
				<path class="st0" d="M-43.04,728.19c-0.26,0-0.48-0.09-0.66-0.24c-0.18-0.16-0.28-0.38-0.28-0.67c0-0.26,0.09-0.48,0.28-0.65
					c0.19-0.17,0.4-0.25,0.65-0.25c0.24,0,0.45,0.08,0.63,0.23c0.19,0.16,0.28,0.38,0.28,0.67c0,0.28-0.09,0.51-0.27,0.67
					C-42.58,728.11-42.8,728.19-43.04,728.19z M-42.13,730.1v5.35c0,0.37-0.09,0.65-0.26,0.84c-0.18,0.19-0.4,0.29-0.67,0.29
					c-0.27,0-0.49-0.09-0.66-0.29c-0.17-0.19-0.25-0.47-0.25-0.83v-5.29c0-0.37,0.08-0.64,0.25-0.82c0.17-0.19,0.39-0.28,0.66-0.28
					c0.27,0,0.5,0.09,0.67,0.28C-42.22,729.51-42.13,729.77-42.13,730.1z"/>
				<path class="st0" d="M-33.42,730.4v5.38c0,0.61-0.06,1.14-0.2,1.58c-0.13,0.45-0.34,0.81-0.63,1.1
					c-0.29,0.28-0.67,0.5-1.14,0.64c-0.47,0.14-1.05,0.21-1.74,0.21c-0.64,0-1.21-0.09-1.71-0.26c-0.5-0.18-0.88-0.42-1.16-0.7
					c-0.27-0.28-0.4-0.57-0.4-0.87c0-0.23,0.08-0.41,0.23-0.55c0.15-0.14,0.34-0.22,0.56-0.22c0.27,0,0.51,0.12,0.71,0.36
					c0.1,0.12,0.2,0.24,0.31,0.37c0.11,0.12,0.22,0.23,0.35,0.32c0.13,0.09,0.28,0.15,0.46,0.2c0.18,0.04,0.39,0.06,0.62,0.06
					c0.48,0,0.85-0.06,1.12-0.2c0.26-0.13,0.45-0.32,0.56-0.56c0.1-0.24,0.16-0.5,0.18-0.77c0.02-0.28,0.03-0.71,0.04-1.32
					c-0.29,0.39-0.61,0.7-0.99,0.91c-0.37,0.21-0.81,0.32-1.33,0.32c-0.62,0-1.16-0.16-1.62-0.48c-0.46-0.31-0.82-0.76-1.07-1.33
					c-0.25-0.57-0.38-1.22-0.38-1.97c0-0.55,0.08-1.05,0.23-1.5c0.15-0.45,0.37-0.82,0.65-1.13c0.28-0.31,0.6-0.54,0.97-0.7
					c0.36-0.15,0.76-0.23,1.2-0.23c0.52,0,0.98,0.1,1.36,0.3c0.38,0.2,0.74,0.51,1.07,0.94v-0.24c0-0.32,0.08-0.57,0.24-0.75
					c0.16-0.18,0.36-0.26,0.61-0.26c0.36,0,0.59,0.12,0.71,0.35C-33.48,729.63-33.42,729.96-33.42,730.4z M-38.78,732.75
					c0,0.75,0.16,1.31,0.49,1.7c0.33,0.38,0.75,0.58,1.27,0.58c0.31,0,0.6-0.08,0.87-0.25c0.27-0.17,0.5-0.41,0.67-0.74
					c0.17-0.33,0.26-0.74,0.26-1.21c0-0.76-0.17-1.34-0.5-1.76c-0.33-0.42-0.77-0.63-1.31-0.63c-0.53,0-0.95,0.2-1.27,0.61
					C-38.62,731.44-38.78,732.01-38.78,732.75z"/>
				<path class="st0" d="M-29.87,730.07v0.22c0.33-0.43,0.68-0.75,1.07-0.94c0.39-0.2,0.83-0.3,1.33-0.3c0.49,0,0.92,0.11,1.31,0.31
					c0.38,0.21,0.67,0.51,0.86,0.9c0.12,0.22,0.2,0.47,0.24,0.73c0.04,0.27,0.06,0.6,0.06,1.01v3.44c0,0.37-0.09,0.65-0.25,0.84
					c-0.17,0.19-0.39,0.29-0.66,0.29c-0.28,0-0.5-0.09-0.67-0.29c-0.17-0.19-0.26-0.47-0.26-0.83v-3.08c0-0.61-0.08-1.08-0.25-1.4
					c-0.17-0.32-0.51-0.48-1.01-0.48c-0.33,0-0.63,0.09-0.9,0.29c-0.27,0.19-0.47,0.46-0.59,0.8c-0.09,0.28-0.14,0.8-0.14,1.55v2.32
					c0,0.38-0.09,0.66-0.26,0.84c-0.18,0.19-0.4,0.28-0.67,0.28c-0.27,0-0.49-0.09-0.66-0.29c-0.17-0.19-0.26-0.47-0.26-0.83v-5.35
					c0-0.35,0.08-0.62,0.23-0.79c0.15-0.18,0.36-0.26,0.63-0.26c0.16,0,0.31,0.04,0.44,0.11c0.13,0.08,0.24,0.2,0.31,0.35
					C-29.9,729.66-29.87,729.85-29.87,730.07z"/>
				<path class="st0" d="M-18,733.26h-3.62c0,0.42,0.09,0.79,0.25,1.11c0.16,0.32,0.38,0.57,0.66,0.72
					c0.28,0.17,0.58,0.24,0.91,0.24c0.22,0,0.42-0.02,0.61-0.07c0.18-0.05,0.36-0.14,0.54-0.25c0.17-0.11,0.33-0.23,0.47-0.36
					c0.15-0.13,0.33-0.3,0.56-0.51c0.1-0.08,0.23-0.13,0.41-0.13c0.19,0,0.34,0.05,0.46,0.15c0.12,0.11,0.18,0.26,0.18,0.44
					c0,0.17-0.06,0.36-0.19,0.59c-0.13,0.23-0.33,0.44-0.6,0.64c-0.26,0.21-0.59,0.38-1,0.52c-0.4,0.13-0.86,0.2-1.38,0.2
					c-1.19,0-2.11-0.34-2.77-1.02c-0.66-0.68-0.99-1.59-0.99-2.76c0-0.55,0.08-1.06,0.24-1.52c0.16-0.47,0.4-0.87,0.71-1.2
					c0.31-0.34,0.69-0.59,1.15-0.77c0.46-0.18,0.96-0.26,1.52-0.26c0.72,0,1.34,0.15,1.86,0.46c0.52,0.3,0.91,0.7,1.17,1.18
					c0.25,0.48,0.38,0.98,0.38,1.48c0,0.46-0.13,0.77-0.4,0.9C-17.14,733.19-17.51,733.26-18,733.26z M-21.62,732.22h3.35
					c-0.05-0.64-0.22-1.1-0.51-1.42c-0.29-0.31-0.69-0.47-1.17-0.47c-0.46,0-0.84,0.16-1.13,0.47
					C-21.37,731.12-21.55,731.59-21.62,732.22z"/>
				<path class="st0" d="M-9.85,735.51v-0.19c-0.25,0.29-0.49,0.52-0.74,0.7c-0.24,0.18-0.51,0.31-0.79,0.41
					c-0.28,0.09-0.59,0.14-0.93,0.14c-0.44,0-0.85-0.09-1.23-0.28c-0.38-0.18-0.7-0.45-0.98-0.8c-0.28-0.34-0.48-0.75-0.63-1.22
					c-0.14-0.47-0.21-0.98-0.21-1.52c0-1.16,0.28-2.06,0.85-2.71c0.57-0.65,1.31-0.97,2.23-0.97c0.53,0,0.98,0.09,1.35,0.27
					c0.37,0.18,0.73,0.46,1.07,0.84v-2.72c0-0.38,0.08-0.66,0.23-0.86c0.15-0.2,0.37-0.29,0.65-0.29c0.28,0,0.49,0.09,0.65,0.27
					c0.15,0.18,0.23,0.44,0.23,0.79v8.16c0,0.35-0.08,0.62-0.25,0.79c-0.16,0.17-0.38,0.26-0.63,0.26c-0.26,0-0.46-0.09-0.63-0.27
					C-9.76,736.12-9.85,735.85-9.85,735.51z M-13.48,732.8c0,0.5,0.08,0.93,0.23,1.28c0.16,0.36,0.37,0.62,0.64,0.8
					c0.27,0.18,0.57,0.27,0.89,0.27c0.33,0,0.62-0.09,0.89-0.26c0.26-0.17,0.48-0.42,0.64-0.78c0.16-0.36,0.24-0.79,0.24-1.31
					c0-0.5-0.08-0.92-0.24-1.27c-0.16-0.36-0.38-0.63-0.65-0.82c-0.27-0.19-0.57-0.28-0.9-0.28c-0.34,0-0.64,0.1-0.91,0.29
					c-0.27,0.2-0.47,0.47-0.62,0.83C-13.41,731.91-13.48,732.32-13.48,732.8z"/>
				<path class="st0" d="M-1.06,727.36v2.82c0.35-0.35,0.7-0.63,1.06-0.82c0.37-0.2,0.81-0.29,1.34-0.29c0.61,0,1.15,0.15,1.62,0.44
					c0.46,0.29,0.82,0.71,1.07,1.27c0.26,0.55,0.39,1.2,0.39,1.96c0,0.56-0.07,1.07-0.21,1.54c-0.14,0.47-0.35,0.88-0.62,1.22
					c-0.27,0.34-0.6,0.61-0.99,0.8c-0.39,0.19-0.81,0.28-1.28,0.28c-0.29,0-0.55-0.04-0.8-0.1c-0.25-0.06-0.46-0.16-0.64-0.27
					c-0.17-0.11-0.32-0.22-0.45-0.34c-0.12-0.12-0.29-0.3-0.49-0.53v0.19c0,0.35-0.08,0.61-0.25,0.79
					c-0.16,0.17-0.38,0.26-0.64,0.26c-0.26,0-0.47-0.09-0.63-0.26c-0.16-0.18-0.23-0.45-0.23-0.79v-8.08c0-0.37,0.07-0.65,0.23-0.85
					c0.15-0.2,0.36-0.29,0.63-0.29c0.29,0,0.51,0.09,0.66,0.28C-1.14,726.76-1.06,727.02-1.06,727.36z M-0.97,732.85
					c0,0.74,0.17,1.3,0.51,1.7c0.33,0.4,0.77,0.6,1.32,0.6c0.46,0,0.86-0.2,1.2-0.61c0.34-0.41,0.51-0.98,0.51-1.74
					c0-0.49-0.07-0.91-0.21-1.26c-0.14-0.35-0.34-0.62-0.6-0.82c-0.25-0.19-0.56-0.29-0.9-0.29c-0.35,0-0.66,0.1-0.94,0.29
					c-0.27,0.2-0.49,0.47-0.65,0.84C-0.9,731.92-0.97,732.35-0.97,732.85z"/>
				<path class="st0" d="M7.43,736.8l0.17-0.41l-2.28-5.73c-0.14-0.33-0.21-0.56-0.21-0.72s0.04-0.31,0.12-0.44
					c0.08-0.14,0.19-0.24,0.33-0.32c0.14-0.08,0.29-0.12,0.45-0.12c0.27,0,0.46,0.09,0.6,0.25c0.14,0.18,0.26,0.42,0.36,0.73
					l1.57,4.55l1.48-4.24c0.12-0.34,0.23-0.61,0.32-0.8c0.09-0.19,0.2-0.32,0.31-0.39c0.11-0.06,0.25-0.1,0.45-0.1
					c0.14,0,0.27,0.04,0.4,0.11c0.13,0.08,0.23,0.18,0.3,0.3c0.08,0.13,0.11,0.26,0.11,0.4c-0.02,0.08-0.05,0.2-0.09,0.37
					c-0.04,0.16-0.09,0.32-0.15,0.48l-2.41,6.31c-0.21,0.56-0.41,0.99-0.61,1.31c-0.19,0.32-0.46,0.56-0.79,0.73
					c-0.33,0.17-0.77,0.25-1.33,0.25c-0.54,0-0.95-0.06-1.22-0.17c-0.27-0.12-0.41-0.33-0.41-0.64c0-0.21,0.06-0.38,0.19-0.49
					s0.32-0.17,0.57-0.17c0.1,0,0.2,0.01,0.29,0.04c0.12,0.03,0.22,0.04,0.31,0.04c0.21,0,0.38-0.03,0.5-0.09
					c0.12-0.06,0.23-0.17,0.33-0.33C7.19,737.33,7.3,737.1,7.43,736.8z"/>
			</g>
			<g>
				<path class="st0" d="M41.66,729.21h0.44v-0.55c0-0.58,0.07-1.04,0.23-1.38c0.14-0.35,0.39-0.59,0.74-0.75
					c0.35-0.16,0.83-0.24,1.44-0.24c1.07,0,1.62,0.26,1.62,0.79c0,0.17-0.06,0.32-0.17,0.44c-0.11,0.12-0.24,0.18-0.4,0.18
					c-0.08,0-0.2-0.01-0.38-0.04c-0.17-0.02-0.32-0.04-0.44-0.04c-0.34,0-0.55,0.1-0.65,0.29c-0.09,0.2-0.14,0.48-0.14,0.84v0.44
					h0.46c0.71,0,1.06,0.21,1.06,0.64c0,0.3-0.09,0.49-0.28,0.57c-0.19,0.08-0.44,0.12-0.78,0.12h-0.46v4.9
					c0,0.36-0.09,0.64-0.26,0.84c-0.18,0.2-0.4,0.29-0.68,0.29c-0.26,0-0.48-0.09-0.66-0.29c-0.17-0.2-0.26-0.47-0.26-0.84v-4.9
					h-0.51c-0.28,0-0.48-0.06-0.63-0.19c-0.15-0.12-0.22-0.28-0.22-0.48C40.74,729.43,41.05,729.21,41.66,729.21z"/>
				<path class="st0" d="M48.27,733.9v1.55c0,0.38-0.09,0.66-0.26,0.84c-0.18,0.19-0.4,0.28-0.68,0.28c-0.26,0-0.48-0.09-0.65-0.29
					c-0.18-0.19-0.26-0.47-0.26-0.84v-5.15c0-0.83,0.3-1.25,0.9-1.25c0.3,0,0.53,0.1,0.66,0.29c0.14,0.19,0.21,0.48,0.23,0.86
					c0.22-0.38,0.45-0.67,0.68-0.86c0.23-0.2,0.54-0.29,0.93-0.29c0.39,0,0.76,0.1,1.13,0.29c0.37,0.19,0.55,0.45,0.55,0.77
					c0,0.23-0.07,0.41-0.23,0.57c-0.16,0.14-0.32,0.21-0.51,0.21c-0.07,0-0.23-0.04-0.49-0.12c-0.26-0.09-0.49-0.13-0.69-0.13
					c-0.27,0-0.49,0.07-0.66,0.22c-0.17,0.14-0.3,0.35-0.4,0.63c-0.09,0.28-0.16,0.62-0.2,1C48.29,732.87,48.27,733.35,48.27,733.9z
					"/>
				<path class="st0" d="M57.33,733.26h-3.62c0.01,0.42,0.09,0.79,0.26,1.11c0.16,0.32,0.38,0.57,0.66,0.72
					c0.27,0.17,0.57,0.24,0.9,0.24c0.22,0,0.43-0.02,0.61-0.07c0.19-0.05,0.36-0.14,0.53-0.25c0.18-0.11,0.33-0.23,0.47-0.36
					c0.15-0.13,0.34-0.3,0.57-0.51c0.09-0.08,0.23-0.13,0.41-0.13c0.19,0,0.34,0.05,0.46,0.15c0.12,0.11,0.18,0.26,0.18,0.44
					c0,0.17-0.06,0.36-0.2,0.59c-0.13,0.23-0.33,0.44-0.59,0.64c-0.27,0.21-0.6,0.38-1,0.52c-0.4,0.13-0.86,0.2-1.38,0.2
					c-1.19,0-2.12-0.34-2.77-1.02c-0.66-0.68-0.99-1.59-0.99-2.76c0-0.55,0.08-1.06,0.25-1.52c0.16-0.47,0.4-0.87,0.71-1.2
					c0.31-0.34,0.7-0.59,1.15-0.77c0.45-0.18,0.96-0.26,1.52-0.26c0.72,0,1.33,0.15,1.85,0.46c0.52,0.3,0.91,0.7,1.17,1.18
					c0.26,0.48,0.39,0.98,0.39,1.48c0,0.46-0.13,0.77-0.4,0.9C58.19,733.19,57.82,733.26,57.33,733.26z M53.71,732.22h3.36
					c-0.05-0.64-0.21-1.1-0.51-1.42c-0.3-0.31-0.69-0.47-1.17-0.47c-0.46,0-0.84,0.16-1.14,0.47
					C53.96,731.12,53.78,731.59,53.71,732.22z"/>
				<path class="st0" d="M65.58,733.26h-3.62c0.01,0.42,0.09,0.79,0.26,1.11c0.16,0.32,0.39,0.57,0.66,0.72
					c0.28,0.17,0.58,0.24,0.91,0.24c0.22,0,0.42-0.02,0.6-0.07c0.18-0.05,0.37-0.14,0.53-0.25c0.17-0.11,0.33-0.23,0.48-0.36
					c0.14-0.13,0.34-0.3,0.56-0.51c0.1-0.08,0.23-0.13,0.41-0.13c0.19,0,0.35,0.05,0.46,0.15c0.12,0.11,0.17,0.26,0.17,0.44
					c0,0.17-0.06,0.36-0.19,0.59c-0.13,0.23-0.33,0.44-0.6,0.64c-0.26,0.21-0.6,0.38-0.99,0.52c-0.4,0.13-0.86,0.2-1.38,0.2
					c-1.19,0-2.11-0.34-2.77-1.02c-0.66-0.68-0.99-1.59-0.99-2.76c0-0.55,0.08-1.06,0.24-1.52c0.16-0.47,0.4-0.87,0.71-1.2
					c0.31-0.34,0.7-0.59,1.15-0.77c0.46-0.18,0.96-0.26,1.52-0.26c0.72,0,1.34,0.15,1.86,0.46c0.51,0.3,0.9,0.7,1.16,1.18
					c0.26,0.48,0.38,0.98,0.38,1.48c0,0.46-0.13,0.77-0.4,0.9C66.44,733.19,66.07,733.26,65.58,733.26z M61.96,732.22h3.35
					c-0.04-0.64-0.21-1.1-0.51-1.42c-0.29-0.31-0.68-0.47-1.17-0.47c-0.46,0-0.84,0.16-1.14,0.47
					C62.21,731.12,62.02,731.59,61.96,732.22z"/>
				<path class="st0" d="M70.19,730.09v0.21c0.35-0.43,0.71-0.74,1.09-0.94c0.38-0.21,0.8-0.3,1.28-0.3c0.57,0,1.09,0.15,1.57,0.44
					c0.48,0.29,0.86,0.72,1.14,1.29c0.28,0.56,0.41,1.23,0.41,2.01c0,0.57-0.08,1.09-0.24,1.57c-0.16,0.48-0.38,0.88-0.66,1.2
					c-0.28,0.32-0.61,0.57-0.99,0.75c-0.38,0.17-0.79,0.26-1.23,0.26c-0.53,0-0.97-0.11-1.33-0.32c-0.36-0.21-0.71-0.53-1.03-0.93
					v2.78c0,0.81-0.3,1.22-0.88,1.22c-0.35,0-0.58-0.11-0.7-0.31c-0.11-0.21-0.17-0.52-0.17-0.92v-7.98c0-0.35,0.08-0.62,0.23-0.79
					c0.15-0.18,0.36-0.26,0.63-0.26c0.26,0,0.47,0.09,0.63,0.27C70.11,729.5,70.19,729.75,70.19,730.09z M73.81,732.78
					c0-0.49-0.07-0.91-0.22-1.26c-0.15-0.35-0.36-0.63-0.62-0.81c-0.26-0.19-0.56-0.28-0.88-0.28c-0.51,0-0.94,0.2-1.29,0.61
					c-0.35,0.4-0.53,0.99-0.53,1.77c0,0.73,0.18,1.31,0.53,1.71c0.34,0.41,0.78,0.62,1.29,0.62c0.31,0,0.59-0.09,0.85-0.27
					c0.27-0.18,0.47-0.44,0.63-0.8C73.73,733.71,73.81,733.28,73.81,732.78z"/>
				<path class="st0" d="M78.09,728.19c-0.26,0-0.49-0.09-0.67-0.24c-0.18-0.16-0.28-0.38-0.28-0.67c0-0.26,0.1-0.48,0.29-0.65
					c0.18-0.17,0.4-0.25,0.66-0.25c0.23,0,0.45,0.08,0.63,0.23c0.18,0.16,0.28,0.38,0.28,0.67c0,0.28-0.09,0.51-0.27,0.67
					C78.55,728.11,78.34,728.19,78.09,728.19z M79,730.1v5.35c0,0.37-0.09,0.65-0.27,0.84c-0.17,0.19-0.39,0.29-0.67,0.29
					c-0.27,0-0.49-0.09-0.66-0.29c-0.17-0.19-0.26-0.47-0.26-0.83v-5.29c0-0.37,0.09-0.64,0.26-0.82c0.17-0.19,0.39-0.28,0.66-0.28
					c0.28,0,0.5,0.09,0.67,0.28C78.92,729.51,79,729.77,79,730.1z"/>
				<path class="st0" d="M85.52,735.72l-1.63-2.68l-1,0.95v1.47c0,0.35-0.09,0.63-0.27,0.82c-0.19,0.2-0.41,0.29-0.65,0.29
					c-0.29,0-0.51-0.09-0.67-0.29c-0.17-0.19-0.25-0.47-0.25-0.84v-7.88c0-0.41,0.07-0.72,0.23-0.94c0.16-0.22,0.39-0.32,0.69-0.32
					c0.28,0,0.51,0.09,0.68,0.29c0.17,0.2,0.25,0.48,0.25,0.86v4.48l2.08-2.18c0.26-0.27,0.45-0.46,0.59-0.55
					c0.14-0.1,0.3-0.15,0.5-0.15c0.23,0,0.42,0.07,0.58,0.22c0.15,0.14,0.23,0.33,0.23,0.55c0,0.27-0.25,0.63-0.75,1.08l-0.99,0.9
					l1.9,2.98c0.14,0.22,0.24,0.39,0.3,0.5c0.06,0.11,0.09,0.23,0.09,0.33c0,0.29-0.08,0.53-0.24,0.7
					c-0.16,0.16-0.38,0.25-0.64,0.25c-0.23,0-0.4-0.06-0.52-0.19C85.9,736.27,85.73,736.04,85.52,735.72z"/>
				<path class="st0" d="M90.1,736.57c-0.28,0-0.52-0.09-0.72-0.27c-0.21-0.18-0.31-0.43-0.31-0.76c0-0.28,0.1-0.51,0.3-0.71
					c0.2-0.2,0.44-0.3,0.72-0.3c0.28,0,0.53,0.1,0.73,0.29c0.2,0.2,0.3,0.43,0.3,0.71c0,0.32-0.1,0.58-0.3,0.76
					C90.6,736.48,90.37,736.57,90.1,736.57z"/>
				<path class="st0" d="M99.85,734.28c0,0.23-0.07,0.47-0.21,0.74c-0.14,0.27-0.35,0.51-0.63,0.75c-0.28,0.24-0.64,0.43-1.07,0.57
					c-0.43,0.15-0.92,0.22-1.45,0.22c-1.14,0-2.04-0.33-2.68-1c-0.64-0.66-0.96-1.56-0.96-2.68c0-0.76,0.15-1.43,0.44-2.01
					c0.29-0.58,0.72-1.03,1.28-1.35c0.56-0.32,1.22-0.47,1.99-0.47c0.48,0,0.92,0.07,1.32,0.21c0.4,0.13,0.74,0.31,1.02,0.54
					c0.28,0.22,0.49,0.46,0.63,0.71c0.15,0.26,0.22,0.49,0.22,0.71c0,0.22-0.08,0.41-0.25,0.56c-0.16,0.15-0.36,0.23-0.6,0.23
					c-0.15,0-0.29-0.04-0.38-0.12c-0.11-0.08-0.21-0.21-0.34-0.38c-0.22-0.34-0.46-0.6-0.71-0.77c-0.25-0.17-0.56-0.26-0.94-0.26
					c-0.54,0-0.98,0.22-1.32,0.64c-0.33,0.43-0.5,1.01-0.5,1.75c0,0.35,0.04,0.67,0.13,0.96c0.08,0.29,0.21,0.54,0.37,0.75
					c0.16,0.2,0.36,0.36,0.59,0.46c0.23,0.11,0.49,0.16,0.76,0.16c0.37,0,0.69-0.09,0.95-0.25c0.26-0.18,0.5-0.43,0.7-0.79
					c0.12-0.21,0.24-0.37,0.37-0.48c0.13-0.12,0.29-0.18,0.48-0.18c0.23,0,0.41,0.08,0.56,0.25
					C99.77,733.91,99.85,734.09,99.85,734.28z"/>
				<path class="st0" d="M108.39,732.81c0,0.54-0.08,1.05-0.25,1.52c-0.17,0.47-0.42,0.87-0.75,1.2c-0.32,0.34-0.71,0.6-1.16,0.78
					c-0.45,0.17-0.96,0.26-1.53,0.26c-0.55,0-1.06-0.09-1.51-0.27c-0.44-0.18-0.84-0.44-1.17-0.77c-0.32-0.34-0.58-0.74-0.74-1.2
					c-0.17-0.46-0.25-0.97-0.25-1.52c0-0.56,0.09-1.07,0.26-1.54c0.17-0.46,0.41-0.86,0.73-1.19c0.32-0.33,0.71-0.58,1.17-0.76
					c0.46-0.18,0.96-0.27,1.51-0.27c0.57,0,1.07,0.09,1.53,0.27c0.46,0.18,0.85,0.44,1.17,0.77c0.33,0.33,0.57,0.73,0.74,1.19
					C108.31,731.75,108.39,732.26,108.39,732.81z M106.53,732.81c0-0.76-0.17-1.34-0.5-1.76c-0.33-0.42-0.77-0.63-1.34-0.63
					c-0.36,0-0.68,0.09-0.96,0.28c-0.27,0.19-0.49,0.47-0.64,0.83c-0.15,0.37-0.22,0.79-0.22,1.28c0,0.48,0.07,0.9,0.22,1.26
					c0.14,0.36,0.36,0.63,0.63,0.83c0.27,0.19,0.6,0.28,0.96,0.28c0.57,0,1.01-0.2,1.34-0.63
					C106.36,734.14,106.53,733.55,106.53,732.81z"/>
				<path class="st0" d="M116,732.94v2.46c0,0.39-0.09,0.68-0.26,0.87c-0.18,0.2-0.41,0.29-0.7,0.29c-0.28,0-0.51-0.09-0.68-0.29
					c-0.17-0.19-0.26-0.48-0.26-0.87v-2.95c0-0.47-0.01-0.82-0.04-1.09c-0.03-0.26-0.12-0.47-0.26-0.63
					c-0.14-0.17-0.36-0.25-0.66-0.25c-0.6,0-1,0.21-1.19,0.62c-0.19,0.42-0.29,1.01-0.29,1.79v2.5c0,0.38-0.09,0.67-0.26,0.87
					c-0.17,0.2-0.4,0.3-0.69,0.3c-0.28,0-0.51-0.1-0.69-0.3c-0.18-0.2-0.27-0.48-0.27-0.87v-5.29c0-0.34,0.08-0.61,0.24-0.79
					c0.16-0.18,0.38-0.27,0.63-0.27c0.26,0,0.47,0.09,0.63,0.25c0.18,0.18,0.26,0.41,0.26,0.71v0.17c0.32-0.38,0.66-0.66,1.03-0.84
					c0.36-0.18,0.77-0.27,1.22-0.27c0.47,0,0.87,0.09,1.2,0.28c0.34,0.18,0.61,0.46,0.83,0.83c0.31-0.37,0.65-0.65,1.01-0.84
					c0.35-0.18,0.75-0.27,1.18-0.27c0.51,0,0.94,0.1,1.31,0.29c0.37,0.21,0.64,0.49,0.82,0.85c0.16,0.34,0.24,0.86,0.24,1.58v3.61
					c0,0.39-0.09,0.68-0.27,0.87c-0.17,0.2-0.4,0.29-0.69,0.29c-0.28,0-0.51-0.1-0.69-0.3c-0.18-0.2-0.27-0.48-0.27-0.87v-3.11
					c0-0.39-0.01-0.71-0.05-0.96c-0.04-0.24-0.13-0.44-0.27-0.6c-0.15-0.16-0.38-0.24-0.68-0.24c-0.25,0-0.47,0.07-0.69,0.22
					c-0.22,0.14-0.39,0.34-0.52,0.59C116.07,731.6,116,732.16,116,732.94z"/>
			</g>
			<g>
				<path class="st0" d="M27.08,724.28c-0.03-0.12-0.07-0.24-0.11-0.35c0.62-0.06,1.04-0.8,0.73-1.36c-0.28-0.62-1.24-0.7-1.61-0.13
					c-0.39,0.51-0.09,1.3,0.52,1.46c0.04,0.12,0.07,0.26,0.11,0.38c-0.93,0.07-1.88,0.27-2.66,0.8c0.08,0.22,0.16,0.46,0.24,0.68
					c1.58-0.69,3.34-0.54,5.01-0.38c0.06-0.22,0.11-0.44,0.17-0.66C28.73,724.4,27.9,724.28,27.08,724.28z"/>
				<path class="st0" d="M36.46,726.82c-0.25,0.13-0.29,0.43-0.28,0.68c-0.28,0.27-0.14,0.68-0.17,1.01
					c-0.06,0.19-0.29,0.21-0.45,0.29c-0.22-0.34-0.45-0.65-0.75-0.93l0.01-0.02c-0.32-0.3-0.66-0.57-1.03-0.8
					c-0.29,0.31-0.6,0.62-0.88,0.94c0.55,0.61,1.07,1.27,1.52,1.96c0.31,0.53,0.56,1.08,0.78,1.66c0.47-0.24,0.93-0.49,1.4-0.74
					c-0.25-0.57-0.53-1.13-0.83-1.68c0.2-0.11,0.49-0.22,0.52-0.49c0.02-0.3-0.04-0.62,0.13-0.89c0.37,0.23,0.92-0.03,0.92-0.47
					C37.41,726.9,36.84,726.57,36.46,726.82z"/>
				<path class="st0" d="M33.92,730.23c-0.61-1.01-1.27-2.02-2.17-2.8c-1.03-0.91-2.38-1.53-3.78-1.52
					c-1.77-0.02-3.56,0.26-5.18,0.97c-1.53,0.67-2.87,1.88-3.54,3.43c-0.65,1.39-0.64,3-0.35,4.49c1.62,0.41,3.28,0.77,4.95,0.84
					c1.66,0.05,3.32,0.09,4.97-0.14c2.26-0.3,4.47-1.01,6.45-2.17C35.26,733.33,34.99,731.85,33.92,730.23z M25.94,732.23
					c-0.31,0.44-0.75,0.79-1.25,0.98c-0.95,0.36-2.11,0.11-2.79-0.64c-0.48-0.53-0.76-1.23-0.71-1.95c0.04-0.89,0.59-1.72,1.37-2.14
					c0.59-0.32,1.31-0.38,1.97-0.2c0.27,0.07,0.52,0.2,0.75,0.35c0.48,0.34,0.84,0.84,1.01,1.41
					C26.5,730.78,26.36,731.6,25.94,732.23z M32.79,730.62c-0.11,0.77-0.84,1.41-1.62,1.36c-0.45,0.04-0.88-0.17-1.19-0.49
					c-0.22-0.27-0.4-0.59-0.43-0.95c-0.11-0.77,0.44-1.57,1.2-1.75c0.33-0.09,0.68-0.04,1.01,0.04
					C32.46,729.07,32.93,729.88,32.79,730.62z"/>
				<path class="st0" d="M19.26,727.97c-0.66,0.4-1.2,0.96-1.66,1.58c-0.13-0.25-0.17-0.54-0.34-0.76c-0.1-0.13-0.28-0.07-0.41-0.07
					c-0.18,0.01-0.35-0.03-0.51-0.08c0.19-0.27,0.14-0.69-0.15-0.87c-0.32-0.22-0.81-0.03-0.89,0.35c-0.13,0.41,0.31,0.83,0.71,0.72
					c0.22,0.32,0.61,0.27,0.94,0.28c0.15,0.26,0.26,0.54,0.45,0.78c-0.36,0.7-0.56,1.48-0.57,2.26c0.46,0.19,0.91,0.38,1.37,0.58
					c0.02-0.5,0.08-0.99,0.16-1.47c0.15-1.07,0.77-1.99,1.49-2.75C19.65,728.31,19.45,728.14,19.26,727.97z"/>
				<path class="st0" d="M29.9,735.96c-1.68,0.37-3.41,0.47-5.12,0.4c-1.16-0.05-2.32-0.17-3.45-0.42c-0.8-0.16-1.59-0.4-2.38-0.62
					c0.13,1.01,0.54,1.97,1.12,2.8c0.69,0.97,1.61,1.85,2.75,2.21c0.89,0.24,1.95,0.55,3.79,0.51c1.52-0.02,3-0.21,4.33-0.79
					c0.86-0.37,1.66-0.87,2.35-1.5c0.6-0.56,1.06-1.26,1.38-2.01c0.31-0.71,0.6-1.99,0.57-2.64
					C33.6,734.84,31.77,735.65,29.9,735.96z"/>
			</g>
		</g>
	</g>
</g>
<g id="objects">
	<g>
		<g>
			<linearGradient id="SVGID_1_" gradientUnits="userSpaceOnUse" x1="-268.2387" y1="91.6584" x2="-300.7909" y2="-0.9119">
				<stop  offset="0" style="stop-color:#006086"/>
				<stop  offset="1" style="stop-color:#32C5F4"/>
			</linearGradient>
			<polygon class="st1" points="-263.3,9.95 -276.16,44.1 -317.78,44.1 -326.36,21.33 -330.64,9.95 -296.97,-11.15 -267.55,7.28 			
				"/>
			<linearGradient id="SVGID_2_" gradientUnits="userSpaceOnUse" x1="-242.1622" y1="-22.383" x2="-239.6564" y2="61.813">
				<stop  offset="0" style="stop-color:#006086"/>
				<stop  offset="1" style="stop-color:#32C5F4"/>
			</linearGradient>
			<polygon class="st2" points="-206.47,46.4 -209.6,48.28 -240.61,66.93 -273.79,45.27 -260.17,11.34 -253.53,11.46 -218.55,12.05 
							"/>
			<linearGradient id="SVGID_3_" gradientUnits="userSpaceOnUse" x1="-297.6924" y1="112.0659" x2="-271.7882" y2="63.0431">
				<stop  offset="0" style="stop-color:#6E6F72"/>
				<stop  offset="1" style="stop-color:#D2D3D4"/>
			</linearGradient>
			<polygon class="st3" points="-242.8,69.18 -249.56,85.4 -256.87,102.97 -298.47,101.87 -310.11,67.4 -296.78,59.57 -275.71,47.2 
							"/>
			<linearGradient id="SVGID_4_" gradientUnits="userSpaceOnUse" x1="-240.4311" y1="154.7249" x2="-205.2015" y2="68.4379">
				<stop  offset="0" style="stop-color:#006086"/>
				<stop  offset="1" style="stop-color:#32C5F4"/>
			</linearGradient>
			<polygon class="st4" points="-186.26,105.3 -220.6,125.58 -253.58,103.68 -246.34,86.13 -239.62,69.86 -198.01,70.86 
				-189.09,97.02 			"/>
			<linearGradient id="SVGID_5_" gradientUnits="userSpaceOnUse" x1="-266.7538" y1="46.6509" x2="-273.7563" y2="87.5214">
				<stop  offset="0" style="stop-color:#FFFFFF"/>
				<stop  offset="1" style="stop-color:#FFFFFF;stop-opacity:0"/>
			</linearGradient>
			<path class="st5" d="M-242.8,69.18l-6.75,16.21c-4.43,1.95-9.44,3.05-14.75,3.05c-17.95,0-32.49-12.54-32.49-28.02
				c0-0.29,0.01-0.57,0.02-0.85l21.07-12.37L-242.8,69.18z"/>
			<linearGradient id="SVGID_6_" gradientUnits="userSpaceOnUse" x1="-295.3733" y1="-13.1205" x2="-302.9136" y2="30.8889">
				<stop  offset="0" style="stop-color:#FFFFFF"/>
				<stop  offset="1" style="stop-color:#FFFFFF;stop-opacity:0"/>
			</linearGradient>
			<path class="st6" d="M-267.55,7.28c-3.62,13.25-17.42,23.11-33.89,23.11c-9.77,0-18.6-3.47-24.92-9.07l-4.28-11.37l33.67-21.1
				L-267.55,7.28z"/>
			<linearGradient id="SVGID_7_" gradientUnits="userSpaceOnUse" x1="-227.0492" y1="8.4844" x2="-234.1239" y2="49.776">
				<stop  offset="0" style="stop-color:#FFFFFF"/>
				<stop  offset="1" style="stop-color:#FFFFFF;stop-opacity:0"/>
			</linearGradient>
			<path class="st7" d="M-206.47,46.4l-3.13,1.88c-4.19,1.69-8.87,2.63-13.8,2.63c-18.1,0-32.78-12.66-32.78-28.28
				c0-3.97,0.95-7.75,2.66-11.18l34.98,0.59L-206.47,46.4z"/>
			<linearGradient id="SVGID_8_" gradientUnits="userSpaceOnUse" x1="-213.3453" y1="66.0795" x2="-220.562" y2="108.2">
				<stop  offset="0" style="stop-color:#FFFFFF"/>
				<stop  offset="1" style="stop-color:#FFFFFF;stop-opacity:0"/>
			</linearGradient>
			<path class="st8" d="M-189.09,97.02c-5.8,6.94-15.23,11.45-25.9,11.45c-15.56,0-28.53-9.62-31.35-22.33l6.72-16.27l41.61,1
				L-189.09,97.02z"/>
		</g>
		<text transform="matrix(1 0 0 1 -351.9933 170.1309)" style="fill:#00AEEF; font-family:'nevis-Bold'; font-size:28px;">BeamLight Corp</text>
	</g>
	<g>
		<g>
			<path class="st9" d="M-2.04,86.85c0,0.51-0.01,1.03-0.02,1.54C-2.19,93.66-3,98.76-4.41,103.61
				c-3.05,10.52-8.88,19.84-16.66,27.12c-10.74,10.06-25.19,16.22-41.06,16.22c-33.18,0-60.08-26.9-60.08-60.09
				c0-3.96,0.38-7.84,1.12-11.58c0.3-1.54,0.66-3.07,1.08-4.57c0.06-0.25,0.14-0.5,0.21-0.74c0.94-3.23,2.15-6.34,3.6-9.31
				c9.73-20.06,30.29-33.88,54.08-33.88c16.85,0,32.08,6.94,42.99,18.11C-8.56,55.72-2.04,70.52-2.04,86.85z"/>
			<path class="st10" d="M-2.04,86.85c0,0.51-0.01,1.03-0.02,1.54c-29.42-30.85-76.28-38.33-115.23-19.08
				c-0.91,0.44-1.82,0.91-2.72,1.39c0.06-0.25,0.14-0.5,0.21-0.74c0.94-3.23,2.15-6.34,3.6-9.31
				c28.15-19.29,63.82-24.91,97.07-15.76C-8.56,55.72-2.04,70.52-2.04,86.85z"/>
			<path class="st10" d="M-4.41,103.61c-3.05,10.52-8.88,19.84-16.66,27.12c-17.39-36.85-57.3-59.61-100.02-55.46
				c0.3-1.54,0.66-3.07,1.08-4.57c0.06-0.25,0.14-0.5,0.21-0.74c0.84-0.23,1.67-0.44,2.51-0.65
				C-76.68,59.31-33.41,72.69-4.41,103.61z"/>
		</g>
		<text transform="matrix(1 0 0 1 -133.2618 194.1314)" class="st9 st17" style="font-family:'Ancillary-Bold';">BallNet</text>
	</g>
	<g>
		<g>
			
				<linearGradient id="SVGID_9_" gradientUnits="userSpaceOnUse" x1="206.5568" y1="144.03" x2="233.9894" y2="207.9269" gradientTransform="matrix(0.7071 -0.7071 0.7071 0.7071 -251.7204 108.862)">
				<stop  offset="0" style="stop-color:#F47F4F"/>
				<stop  offset="1" style="stop-color:#EE3E96"/>
			</linearGradient>
			<path class="st11" d="M54.84,82.62l-1.28,25.84c-1.18-0.02-2.35-0.48-3.25-1.38L1.39,58.41C0.46,57.49,0,56.29,0,55.08
				l26.07,0.27c0.19,0.83,0.61,1.62,1.27,2.27l23.76,23.65C52.13,82.28,53.51,82.73,54.84,82.62z"/>
			
				<linearGradient id="SVGID_10_" gradientUnits="userSpaceOnUse" x1="-495.5276" y1="311.7889" x2="-468.095" y2="375.6858" gradientTransform="matrix(-0.7071 0.7071 -0.7071 -0.7071 -33.5944 609.7996)">
				<stop  offset="0" style="stop-color:#76CEDE"/>
				<stop  offset="1" style="stop-color:#A3D17A"/>
			</linearGradient>
			<path class="st12" d="M49.86,25.84L51.15,0c1.18,0.02,2.35,0.48,3.25,1.38l48.92,48.68c0.93,0.92,1.39,2.12,1.39,3.33
				l-26.07-0.27c-0.19-0.83-0.61-1.62-1.27-2.27L53.6,27.2C52.58,26.18,51.2,25.73,49.86,25.84z"/>
			
				<linearGradient id="SVGID_11_" gradientUnits="userSpaceOnUse" x1="196.0685" y1="162.2819" x2="304.2257" y2="131.1909" gradientTransform="matrix(0.7071 -0.7071 0.7071 0.7071 -251.7204 108.862)">
				<stop  offset="0" style="stop-color:#FAA32D"/>
				<stop  offset="0.5" style="stop-color:#FFCD05"/>
				<stop  offset="0.6889" style="stop-color:#E9D02E"/>
				<stop  offset="1" style="stop-color:#BAD75B"/>
			</linearGradient>
			<path class="st13" d="M26.33,55.82l-26-0.24c-0.03-1.18,0.39-2.35,1.25-3.29L48.51,1.7c0.89-0.96,2.08-1.46,3.29-1.51l0.78,25.93
				c-0.83,0.23-1.6,0.67-2.23,1.35L27.55,52.05C26.57,53.11,26.17,54.49,26.33,55.82z"/>
			
				<linearGradient id="SVGID_12_" gradientUnits="userSpaceOnUse" x1="-233.8023" y1="753.9617" x2="-206.4338" y2="817.7094" gradientTransform="matrix(-0.7349 -0.6782 0.6782 -0.7349 -620.3524 507.2974)">
				<stop  offset="0.0153" style="stop-color:#6457A5"/>
				<stop  offset="0.5102" style="stop-color:#00AFD8"/>
				<stop  offset="1" style="stop-color:#6FCDDE"/>
			</linearGradient>
			<path class="st14" d="M78.37,52.65l26,0.24c0.03,1.18-0.39,2.35-1.25,3.29L56.2,106.77c-0.89,0.96-2.08,1.46-3.29,1.51
				l-0.78-25.93c0.83-0.23,1.6-0.67,2.23-1.35l22.79-24.58C78.14,55.36,78.54,53.97,78.37,52.65z"/>
		</g>
		<text transform="matrix(1 0 0 1 106.5322 75.0867)" class="st15 st16 st17">SQR MINING</text>
	</g>
	<g>
		<g>
			
				<linearGradient id="SVGID_13_" gradientUnits="userSpaceOnUse" x1="-214.4833" y1="7.3004" x2="-98.0331" y2="7.3004" gradientTransform="matrix(0.2703 0.9628 -0.9628 0.2703 332.4924 420.5693)">
				<stop  offset="0" style="stop-color:#76CEDE"/>
				<stop  offset="1" style="stop-color:#A3D17A"/>
			</linearGradient>
			<polygon class="st18" points="283.44,332.51 251.97,220.4 290.29,237.61 314.49,323.8 			"/>
			
				<linearGradient id="SVGID_14_" gradientUnits="userSpaceOnUse" x1="-208.1643" y1="-53.6416" x2="-114.0935" y2="-0.1578" gradientTransform="matrix(0.2703 0.9628 -0.9628 0.2703 332.4924 420.5693)">
				<stop  offset="0" style="stop-color:#FAA32D"/>
				<stop  offset="0.5" style="stop-color:#FFCD05"/>
				<stop  offset="0.6889" style="stop-color:#E9D02E"/>
				<stop  offset="1" style="stop-color:#BAD75B"/>
			</linearGradient>
			<polygon class="st19" points="343.22,195.96 314.49,323.8 283.44,332.51 312.17,204.68 			"/>
			
				<linearGradient id="SVGID_15_" gradientUnits="userSpaceOnUse" x1="-183.7906" y1="-54.1929" x2="-160.967" y2="-1.0313" gradientTransform="matrix(0.2703 0.9628 -0.9628 0.2703 332.4924 420.5693)">
				<stop  offset="0" style="stop-color:#931A1D"/>
				<stop  offset="0.8419" style="stop-color:#FFCD05;stop-opacity:0"/>
			</linearGradient>
			<polygon class="st20" points="312.17,204.68 298.29,266.09 324.01,280.54 334.33,235.88 			"/>
			
				<linearGradient id="SVGID_16_" gradientUnits="userSpaceOnUse" x1="-213.3425" y1="-54.9129" x2="-108.6523" y2="-54.9129" gradientTransform="matrix(0.2703 0.9628 -0.9628 0.2703 332.4924 420.5693)">
				<stop  offset="0" style="stop-color:#F47F4F"/>
				<stop  offset="1" style="stop-color:#EE3E96"/>
			</linearGradient>
			<polygon class="st21" points="343.22,195.96 374.69,308.08 336.37,290.87 312.17,204.68 			"/>
		</g>
		
			<radialGradient id="SVGID_17_" cx="305.5054" cy="327.4023" r="69.1716" gradientTransform="matrix(1.018 3.677946e-03 -2.473209e-04 0.1189 6.5178 325.1415)" gradientUnits="userSpaceOnUse">
			<stop  offset="0" style="stop-color:#010101"/>
			<stop  offset="0.9374" style="stop-color:#010101;stop-opacity:0"/>
		</radialGradient>
		<ellipse class="st22" cx="313.33" cy="364.1" rx="77.75" ry="18.17"/>
	</g>
	<g>
		<g>
			<linearGradient id="SVGID_18_" gradientUnits="userSpaceOnUse" x1="300.8321" y1="385.8851" x2="300.8321" y2="250.0539">
				<stop  offset="0" style="stop-color:#FAA32D"/>
				<stop  offset="0.5" style="stop-color:#FFCD05"/>
				<stop  offset="0.6889" style="stop-color:#E9D02E"/>
				<stop  offset="1" style="stop-color:#BAD75B"/>
			</linearGradient>
			<path class="st23" d="M358.24,317.03l-13.45-50.22l-60.04-16.09l-43.95,43.95l16.09,60.03l60.04,16.1l43.95-43.95L358.24,317.03z
				 M324.67,334.59l-32.57,8.73l-23.84-23.84l1.81-6.77l6.92-25.79l32.57-8.73l23.83,23.84l-6.82,25.49L324.67,334.59z"/>
			<linearGradient id="SVGID_19_" gradientUnits="userSpaceOnUse" x1="300.8322" y1="341.5553" x2="300.8322" y2="279.4052">
				<stop  offset="0" style="stop-color:#6E6F72"/>
				<stop  offset="1" style="stop-color:#D2D3D4"/>
			</linearGradient>
			<polygon class="st24" points="315.94,302.03 315.94,319.47 300.83,328.2 285.72,319.47 285.72,302.03 300.83,293.31 
				315.66,301.86 			"/>
			<linearGradient id="SVGID_20_" gradientUnits="userSpaceOnUse" x1="312.4667" y1="250.3586" x2="299.8783" y2="318.8398">
				<stop  offset="0" style="stop-color:#FFFFFF"/>
				<stop  offset="1" style="stop-color:#FFFFFF;stop-opacity:0"/>
			</linearGradient>
			<path class="st25" d="M326.57,327.52l6.82-25.49l-23.83-23.84l-32.57,8.73l-6.92,25.79c-10.66-6.95-18.56-15.63-22.54-24.77
				l37.21-37.21l60.04,16.09l13.45,50.22C350.33,323.03,339.21,326.71,326.57,327.52z"/>
			<linearGradient id="SVGID_21_" gradientUnits="userSpaceOnUse" x1="298.0925" y1="293.9064" x2="302.3486" y2="312.6171">
				<stop  offset="0" style="stop-color:#FFFFFF"/>
				<stop  offset="1" style="stop-color:#FFFFFF;stop-opacity:0"/>
			</linearGradient>
			<path class="st26" d="M315.66,301.86c-1.22,7.39-8.17,13.05-16.56,13.05c-5.47,0-10.33-2.41-13.38-6.14v-6.75l15.11-8.72
				L315.66,301.86z"/>
		</g>
		
			<radialGradient id="SVGID_22_" cx="294.0008" cy="387.4637" r="82.4203" gradientTransform="matrix(1.018 3.677946e-03 -2.473209e-04 0.1189 6.5326 398.6312)" gradientUnits="userSpaceOnUse">
			<stop  offset="0" style="stop-color:#010101"/>
			<stop  offset="0.9374" style="stop-color:#010101;stop-opacity:0"/>
		</radialGradient>
		<ellipse class="st27" cx="300.83" cy="444.48" rx="92.64" ry="21.65"/>
	</g>
	<g>
		<g>
			<g>
				<linearGradient id="SVGID_23_" gradientUnits="userSpaceOnUse" x1="273.0351" y1="655.5504" x2="326.5365" y2="554.3005">
					<stop  offset="0" style="stop-color:#6E6F72"/>
					<stop  offset="1" style="stop-color:#D2D3D4"/>
				</linearGradient>
				<polygon class="st28" points="361.25,614.55 294.11,646.48 241.65,590.07 254.39,565.55 254.39,565.54 276.37,523.29 
					350.29,538.41 355.54,574.96 355.62,575.48 				"/>
				<radialGradient id="SVGID_24_" cx="301.4483" cy="584.8848" r="59.041" gradientUnits="userSpaceOnUse">
					<stop  offset="0" style="stop-color:#595A5C"/>
					<stop  offset="1" style="stop-color:#1F2020"/>
				</radialGradient>
				<polygon class="st29" points="340.38,548.59 344.04,576.45 348.02,606.64 295.18,631.85 254.87,589.37 265.7,569.43 
					282.81,537.92 				"/>
				<linearGradient id="SVGID_25_" gradientUnits="userSpaceOnUse" x1="286.0226" y1="518.5405" x2="241.2679" y2="602.4556">
					<stop  offset="0" style="stop-color:#FAA32D"/>
					<stop  offset="0.5" style="stop-color:#FFCD05"/>
					<stop  offset="0.6889" style="stop-color:#E9D02E"/>
					<stop  offset="1" style="stop-color:#BAD75B"/>
				</linearGradient>
				<polygon class="st30" points="282.8,537.92 261.65,576.9 254.87,589.37 241.65,590.07 254.39,565.55 254.39,565.54 
					276.37,523.29 				"/>
				<linearGradient id="SVGID_26_" gradientUnits="userSpaceOnUse" x1="243.1633" y1="581.0556" x2="296.31" y2="643.9926">
					<stop  offset="0" style="stop-color:#A3D17A"/>
					<stop  offset="1" style="stop-color:#76CEDE"/>
				</linearGradient>
				<polygon class="st31" points="254.87,589.37 241.65,590.07 294.11,646.49 295.18,631.85 				"/>
				<linearGradient id="SVGID_27_" gradientUnits="userSpaceOnUse" x1="289.2115" y1="645.5355" x2="371.0294" y2="598.6826">
					<stop  offset="0" style="stop-color:#6FCDDE"/>
					<stop  offset="0.4898" style="stop-color:#00AFD8"/>
					<stop  offset="0.9847" style="stop-color:#6457A5"/>
				</linearGradient>
				<polygon class="st32" points="348.02,606.64 295.18,631.85 294.11,646.49 361.25,614.55 				"/>
				<linearGradient id="SVGID_28_" gradientUnits="userSpaceOnUse" x1="346.1134" y1="542.6169" x2="355.9031" y2="623.7321">
					<stop  offset="0.0459" style="stop-color:#843C97"/>
					<stop  offset="0.449" style="stop-color:#6457A5"/>
					<stop  offset="1" style="stop-color:#2F8CCC"/>
				</linearGradient>
				<polygon class="st33" points="361.25,614.55 348.03,606.64 345.18,585.05 340.38,548.59 350.29,538.41 355.63,575.46 				"/>
				<linearGradient id="SVGID_29_" gradientUnits="userSpaceOnUse" x1="276.3746" y1="535.9377" x2="350.2866" y2="535.9377">
					<stop  offset="0" style="stop-color:#F47F4F"/>
					<stop  offset="1" style="stop-color:#EE3E96"/>
				</linearGradient>
				<polygon class="st34" points="350.29,538.41 340.38,548.59 282.8,537.92 276.37,523.29 				"/>
			</g>
			<linearGradient id="SVGID_30_" gradientUnits="userSpaceOnUse" x1="298.9191" y1="508.2919" x2="306.9607" y2="590.431">
				<stop  offset="0" style="stop-color:#FFFFFF"/>
				<stop  offset="1" style="stop-color:#FFFFFF;stop-opacity:0"/>
			</linearGradient>
			<path class="st35" d="M355.63,575.46c-0.01,0-0.01,0.01-0.01,0.02c-2.91,3.57-6.42,6.79-10.44,9.57h-0.01
				c-9.94,6.89-22.93,11.06-37.14,11.06c-19.19,0-36.14-7.6-46.38-19.21c-3.05-3.46-5.5-7.27-7.25-11.35v-0.01l21.98-42.26
				l73.91,15.13L355.63,575.46z"/>
		</g>
		
			<radialGradient id="SVGID_31_" cx="293.8598" cy="564.3328" r="69.6165" gradientTransform="matrix(1.018 3.677946e-03 -2.473209e-04 0.1189 6.5763 614.9202)" gradientUnits="userSpaceOnUse">
			<stop  offset="0" style="stop-color:#010101"/>
			<stop  offset="0.9374" style="stop-color:#010101;stop-opacity:0"/>
		</radialGradient>
		<ellipse class="st36" cx="301.45" cy="682.01" rx="78.25" ry="18.29"/>
	</g>
	<g>
		<g>
			
				<linearGradient id="SVGID_32_" gradientUnits="userSpaceOnUse" x1="106.1566" y1="433.2823" x2="177.8277" y2="504.9533" gradientTransform="matrix(0 -1 1 0 -400.3581 734.2523)">
				<stop  offset="0" style="stop-color:#6E6F72"/>
				<stop  offset="1" style="stop-color:#D2D3D4"/>
			</linearGradient>
			<polygon class="st37" points="84.14,535.97 84.14,648.55 53.38,648.55 53.38,535.97 			"/>
			<g>
				<linearGradient id="SVGID_33_" gradientUnits="userSpaceOnUse" x1="105.8153" y1="618.8909" x2="103.8742" y2="507.6306">
					<stop  offset="0" style="stop-color:#056C94"/>
					<stop  offset="1" style="stop-color:#33C4EA"/>
				</linearGradient>
				<polygon class="st38" points="120.6,535.97 120.6,648.04 120.27,648.4 89.85,634.09 89.85,535.97 				"/>
				<linearGradient id="SVGID_34_" gradientUnits="userSpaceOnUse" x1="86.327" y1="678.8281" x2="170.4327" y2="559.211">
					<stop  offset="0" style="stop-color:#4F69B2"/>
					<stop  offset="0.4796" style="stop-color:#00AFD8"/>
					<stop  offset="1" style="stop-color:#6FCDDE"/>
				</linearGradient>
				<polygon class="st39" points="184.96,578.28 120.6,648.04 120.27,648.4 89.85,634.09 120.6,600.76 163.28,554.5 				"/>
			</g>
		</g>
		
			<radialGradient id="SVGID_35_" cx="114.5466" cy="565.1509" r="65.168" gradientTransform="matrix(1.018 3.677946e-03 -2.473209e-04 0.1189 6.5759 616.5801)" gradientUnits="userSpaceOnUse">
			<stop  offset="0" style="stop-color:#010101"/>
			<stop  offset="0.9374" style="stop-color:#010101;stop-opacity:0"/>
		</radialGradient>
		<ellipse class="st40" cx="119.17" cy="683.18" rx="73.25" ry="17.12"/>
	</g>
	<g>
		<g>
			
				<linearGradient id="SVGID_36_" gradientUnits="userSpaceOnUse" x1="-150.6953" y1="535.4629" x2="-111.9716" y2="535.4629" gradientTransform="matrix(0.7071 0.7071 -0.7071 0.7071 382.1699 223.4127)">
				<stop  offset="0" style="stop-color:#056C94"/>
				<stop  offset="1" style="stop-color:#33C4EA"/>
			</linearGradient>
			<polygon class="st41" points="-89.32,536.55 -116.7,509.17 -89.32,481.79 -61.94,509.17 			"/>
			
				<linearGradient id="SVGID_37_" gradientUnits="userSpaceOnUse" x1="-106.557" y1="535.4629" x2="-67.8333" y2="535.4629" gradientTransform="matrix(0.7071 0.7071 -0.7071 0.7071 382.1699 223.4127)">
				<stop  offset="0" style="stop-color:#056C94"/>
				<stop  offset="1" style="stop-color:#33C4EA"/>
			</linearGradient>
			<polygon class="st42" points="-58.11,567.76 -85.49,540.38 -58.11,513 -30.73,540.38 			"/>
			
				<linearGradient id="SVGID_38_" gradientUnits="userSpaceOnUse" x1="-62.4188" y1="535.4629" x2="-23.6951" y2="535.4629" gradientTransform="matrix(0.7071 0.7071 -0.7071 0.7071 382.1699 223.4127)">
				<stop  offset="0" style="stop-color:#F47F4F"/>
				<stop  offset="1" style="stop-color:#EE3E96"/>
			</linearGradient>
			<polygon class="st43" points="-26.9,598.97 -54.28,571.59 -26.9,544.21 0.48,571.59 			"/>
			
				<linearGradient id="SVGID_39_" gradientUnits="userSpaceOnUse" x1="-106.557" y1="579.6269" x2="-67.8333" y2="579.6269" gradientTransform="matrix(0.7071 0.7071 -0.7071 0.7071 382.1699 223.4127)">
				<stop  offset="0" style="stop-color:#056C94"/>
				<stop  offset="1" style="stop-color:#33C4EA"/>
			</linearGradient>
			<polygon class="st44" points="-89.34,598.99 -116.72,571.61 -89.34,544.23 -61.96,571.61 			"/>
			
				<linearGradient id="SVGID_40_" gradientUnits="userSpaceOnUse" x1="-62.4188" y1="579.6269" x2="-23.6951" y2="579.6269" gradientTransform="matrix(0.7071 0.7071 -0.7071 0.7071 382.1699 223.4127)">
				<stop  offset="0" style="stop-color:#BAD75B"/>
				<stop  offset="0.3111" style="stop-color:#E9D02E"/>
				<stop  offset="0.5" style="stop-color:#FFCD05"/>
				<stop  offset="1" style="stop-color:#FAA32D"/>
			</linearGradient>
			<polygon class="st45" points="-58.13,630.2 -85.51,602.82 -58.13,575.44 -30.75,602.82 			"/>
			
				<linearGradient id="SVGID_41_" gradientUnits="userSpaceOnUse" x1="-62.4188" y1="623.791" x2="-23.6951" y2="623.791" gradientTransform="matrix(0.7071 0.7071 -0.7071 0.7071 382.1699 223.4127)">
				<stop  offset="0" style="stop-color:#BAD75B"/>
				<stop  offset="0.3111" style="stop-color:#E9D02E"/>
				<stop  offset="0.5" style="stop-color:#FFCD05"/>
				<stop  offset="1" style="stop-color:#FAA32D"/>
			</linearGradient>
			<polygon class="st46" points="-89.36,661.43 -116.74,634.05 -89.36,606.67 -61.98,634.05 			"/>
		</g>
		
			<radialGradient id="SVGID_42_" cx="-58.8939" cy="562.8602" r="77.6238" gradientTransform="matrix(1.018 3.677946e-03 -2.473209e-04 0.1189 6.5746 614.4169)" gradientUnits="userSpaceOnUse">
			<stop  offset="0" style="stop-color:#010101"/>
			<stop  offset="0.9374" style="stop-color:#010101;stop-opacity:0"/>
		</radialGradient>
		<ellipse class="st47" cx="-58.13" cy="679.91" rx="87.25" ry="20.39"/>
	</g>
	<g>
		<g>
			<linearGradient id="SVGID_43_" gradientUnits="userSpaceOnUse" x1="-252.0898" y1="658.2521" x2="-252.0898" y2="481.1298">
				<stop  offset="0.0153" style="stop-color:#6457A5"/>
				<stop  offset="0.5102" style="stop-color:#00AFD8"/>
				<stop  offset="1" style="stop-color:#6FCDDE"/>
			</linearGradient>
			<path class="st48" d="M-252.08,491.89c-41.87,0-75.81,33.94-75.81,75.81c0,41.86,33.94,75.81,75.81,75.81
				c41.86,0,75.8-33.95,75.8-75.81C-176.29,525.82-210.22,491.89-252.08,491.89z M-252.08,603.25c-18.9,0-34.21-15.32-34.21-34.21
				c0-18.9,15.31-34.21,34.21-34.21c18.89,0,34.2,15.31,34.2,34.21C-217.88,587.93-233.19,603.25-252.08,603.25z"/>
			<radialGradient id="SVGID_44_" cx="-253.4264" cy="570.3729" r="72.3748" gradientUnits="userSpaceOnUse">
				<stop  offset="0" style="stop-color:#FFCD05"/>
				<stop  offset="0.3275" style="stop-color:#FFCB07"/>
				<stop  offset="0.4877" style="stop-color:#FEC60F"/>
				<stop  offset="0.6116" style="stop-color:#FDBC17"/>
				<stop  offset="0.7168" style="stop-color:#FBAF1F"/>
				<stop  offset="0.8102" style="stop-color:#F89E26"/>
				<stop  offset="0.8952" style="stop-color:#F6892B"/>
				<stop  offset="0.9722" style="stop-color:#F3702F"/>
				<stop  offset="1" style="stop-color:#F26430"/>
			</radialGradient>
			<path class="st49" d="M-252.08,497.26c-30.01,0-54.34,24.32-54.34,54.34c0,30.01,24.33,54.33,54.34,54.33
				c30.01,0,54.34-24.32,54.34-54.33C-197.75,521.58-222.08,497.26-252.08,497.26z M-252.08,603.25c-18.9,0-34.21-15.32-34.21-34.21
				c0-18.9,15.31-34.21,34.21-34.21c18.89,0,34.2,15.31,34.2,34.21C-217.88,587.93-233.19,603.25-252.08,603.25z"/>
		</g>
		
			<radialGradient id="SVGID_45_" cx="-249.2863" cy="562.4255" r="79.9877" gradientTransform="matrix(1.018 3.677946e-03 -2.473209e-04 0.1189 6.5738 614.5855)" gradientUnits="userSpaceOnUse">
			<stop  offset="0" style="stop-color:#010101"/>
			<stop  offset="0.9374" style="stop-color:#010101;stop-opacity:0"/>
		</radialGradient>
		<ellipse class="st50" cx="-252.09" cy="679.28" rx="89.9" ry="21.01"/>
	</g>
	<g>
		<radialGradient id="SVGID_46_" cx="115.5046" cy="343.0716" r="69.9748" gradientUnits="userSpaceOnUse">
			<stop  offset="0" style="stop-color:#F47F4F"/>
			<stop  offset="1" style="stop-color:#EE3E96"/>
		</radialGradient>
		<path class="st51" d="M118.15,335.56c-5.54,0-10.02,4.49-10.02,10.02c0,1.28,0.24,2.5,0.68,3.62c1.45,3.75,5.08,6.4,9.34,6.4
			c4.26,0,7.9-2.66,9.34-6.4c0.44-1.12,0.68-2.34,0.68-3.62C128.17,340.04,123.68,335.56,118.15,335.56z M146.43,331.5l29.41-29.41
			l-14.28-14.28l-33.32,33.32v-45.28h-20.19v45.6L75.31,288.7l-14.28,14.28l28.51,28.51H53.04v20.19h50.49
			c-0.69-1.76-1.07-3.67-1.07-5.67c0-8.66,7.02-15.69,15.69-15.69c8.66,0,15.69,7.03,15.69,15.69c0,2-0.37,3.91-1.07,5.67h50.49
			V331.5H146.43z"/>
		
			<radialGradient id="SVGID_47_" cx="105.0802" cy="391.7359" r="52.5887" gradientTransform="matrix(1.2633 4.609904e-03 -3.069160e-04 0.1491 -7.3622 388.9867)" gradientUnits="userSpaceOnUse">
			<stop  offset="0" style="stop-color:#010101"/>
			<stop  offset="0.9374" style="stop-color:#010101;stop-opacity:0"/>
		</radialGradient>
		<ellipse class="st52" cx="121.39" cy="446.82" rx="73.35" ry="17.31"/>
	</g>
	<g>
		<g>
			<g>
				<linearGradient id="SVGID_48_" gradientUnits="userSpaceOnUse" x1="-107.4123" y1="370.034" x2="-107.4123" y2="263.8759">
					<stop  offset="0" style="stop-color:#056C94"/>
					<stop  offset="1" style="stop-color:#33C4EA"/>
				</linearGradient>
				<path class="st53" d="M-106.23,377.75h-2.37c-6.6,0-12-5.4-12-12V259.17c0-6.6,5.4-12,12-12h2.37c6.6,0,12,5.4,12,12v106.59
					C-94.23,372.35-99.63,377.75-106.23,377.75z"/>
				<linearGradient id="SVGID_49_" gradientUnits="userSpaceOnUse" x1="-75.8917" y1="415.7066" x2="-75.8917" y2="268.2825">
					<stop  offset="0" style="stop-color:#6E6F72"/>
					<stop  offset="1" style="stop-color:#D2D3D4"/>
				</linearGradient>
				<path class="st54" d="M-74.7,408.63h-2.37c-6.6,0-12-5.4-12-12V290.05c0-6.6,5.4-12,12-12h2.37c6.6,0,12,5.4,12,12v106.59
					C-62.7,403.23-68.1,408.63-74.7,408.63z"/>
				<linearGradient id="SVGID_50_" gradientUnits="userSpaceOnUse" x1="-44.3712" y1="370.034" x2="-44.3712" y2="263.8759">
					<stop  offset="0" style="stop-color:#056C94"/>
					<stop  offset="1" style="stop-color:#33C4EA"/>
				</linearGradient>
				<path class="st55" d="M-43.18,377.75h-2.37c-6.6,0-12-5.4-12-12V259.17c0-6.6,5.4-12,12-12h2.37c6.6,0,12,5.4,12,12v106.59
					C-31.18,372.35-36.58,377.75-43.18,377.75z"/>
				<linearGradient id="SVGID_51_" gradientUnits="userSpaceOnUse" x1="-12.8506" y1="370.034" x2="-12.8506" y2="263.8759">
					<stop  offset="0" style="stop-color:#056C94"/>
					<stop  offset="1" style="stop-color:#33C4EA"/>
				</linearGradient>
				<path class="st56" d="M-11.66,377.75h-2.37c-6.6,0-12-5.4-12-12V259.17c0-6.6,5.4-12,12-12h2.37c6.6,0,12,5.4,12,12v106.59
					C0.34,372.35-5.06,377.75-11.66,377.75z"/>
			</g>
			<linearGradient id="SVGID_52_" gradientUnits="userSpaceOnUse" x1="-107.734" y1="240.9284" x2="-107.734" y2="306.9284">
				<stop  offset="0" style="stop-color:#FFFFFF"/>
				<stop  offset="1" style="stop-color:#FFFFFF;stop-opacity:0"/>
			</linearGradient>
			<path class="st57" d="M-107.73,297.09L-107.73,297.09c-6.37,0-11.58-5.21-11.58-11.58v-25.47c0-6.37,5.21-11.58,11.58-11.58h0
				c6.37,0,11.58,5.21,11.58,11.58v25.47C-96.15,291.88-101.37,297.09-107.73,297.09z"/>
			<linearGradient id="SVGID_53_" gradientUnits="userSpaceOnUse" x1="-13.1722" y1="240.9284" x2="-13.1722" y2="306.9284">
				<stop  offset="0" style="stop-color:#FFFFFF"/>
				<stop  offset="1" style="stop-color:#FFFFFF;stop-opacity:0"/>
			</linearGradient>
			<path class="st58" d="M-13.17,297.09L-13.17,297.09c-6.37,0-11.58-5.21-11.58-11.58v-25.47c0-6.37,5.21-11.58,11.58-11.58l0,0
				c6.37,0,11.58,5.21,11.58,11.58v25.47C-1.59,291.88-6.8,297.09-13.17,297.09z"/>
			<linearGradient id="SVGID_54_" gradientUnits="userSpaceOnUse" x1="-44.6928" y1="240.9284" x2="-44.6928" y2="306.9284">
				<stop  offset="0" style="stop-color:#FFFFFF"/>
				<stop  offset="1" style="stop-color:#FFFFFF;stop-opacity:0"/>
			</linearGradient>
			<path class="st59" d="M-44.69,297.09L-44.69,297.09c-6.37,0-11.58-5.21-11.58-11.58v-25.47c0-6.37,5.21-11.58,11.58-11.58l0,0
				c6.37,0,11.58,5.21,11.58,11.58v25.47C-33.11,291.88-38.32,297.09-44.69,297.09z"/>
			<linearGradient id="SVGID_55_" gradientUnits="userSpaceOnUse" x1="-75.5701" y1="272.4489" x2="-75.5701" y2="338.449">
				<stop  offset="0" style="stop-color:#FFFFFF"/>
				<stop  offset="1" style="stop-color:#FFFFFF;stop-opacity:0"/>
			</linearGradient>
			<path class="st60" d="M-75.57,328.61L-75.57,328.61c-6.37,0-11.58-5.21-11.58-11.58v-25.47c0-6.37,5.21-11.58,11.58-11.58l0,0
				c6.37,0,11.58,5.21,11.58,11.58v25.47C-63.99,323.4-69.2,328.61-75.57,328.61z"/>
		</g>
		
			<radialGradient id="SVGID_56_" cx="-60.8601" cy="388.3457" r="77.6238" gradientTransform="matrix(1.018 3.677946e-03 -2.473209e-04 0.1189 6.5315 401.015)" gradientUnits="userSpaceOnUse">
			<stop  offset="0" style="stop-color:#010101"/>
			<stop  offset="0.9374" style="stop-color:#010101;stop-opacity:0"/>
		</radialGradient>
		<ellipse class="st61" cx="-60.13" cy="445.74" rx="87.25" ry="20.39"/>
	</g>
	<g>
		<g>
			<linearGradient id="SVGID_57_" gradientUnits="userSpaceOnUse" x1="-328.6516" y1="298.4609" x2="-281.3184" y2="298.4609">
				<stop  offset="0" style="stop-color:#056C94"/>
				<stop  offset="1" style="stop-color:#33C4EA"/>
			</linearGradient>
			<rect x="-328.65" y="274.79" class="st62" width="47.33" height="47.33"/>
			<linearGradient id="SVGID_58_" gradientUnits="userSpaceOnUse" x1="-274.81" y1="298.4609" x2="-227.4768" y2="298.4609">
				<stop  offset="0" style="stop-color:#056C94"/>
				<stop  offset="1" style="stop-color:#33C4EA"/>
			</linearGradient>
			<rect x="-274.81" y="274.79" class="st63" width="47.33" height="47.33"/>
			<linearGradient id="SVGID_59_" gradientUnits="userSpaceOnUse" x1="-274.81" y1="351.4149" x2="-227.4768" y2="351.4149">
				<stop  offset="0" style="stop-color:#FAA32D"/>
				<stop  offset="0.5" style="stop-color:#FFCD05"/>
				<stop  offset="0.6889" style="stop-color:#E9D02E"/>
				<stop  offset="1" style="stop-color:#BAD75B"/>
			</linearGradient>
			<rect x="-274.81" y="327.75" class="st64" width="47.33" height="47.33"/>
			<linearGradient id="SVGID_60_" gradientUnits="userSpaceOnUse" x1="-221.5601" y1="351.4149" x2="-174.2269" y2="351.4149">
				<stop  offset="0" style="stop-color:#BAD75B"/>
				<stop  offset="0.3111" style="stop-color:#E9D02E"/>
				<stop  offset="0.5" style="stop-color:#FFCD05"/>
				<stop  offset="1" style="stop-color:#FAA32D"/>
			</linearGradient>
			<rect x="-221.56" y="327.75" class="st65" width="47.33" height="47.33"/>
			<linearGradient id="SVGID_61_" gradientUnits="userSpaceOnUse" x1="-251.1434" y1="428.0356" x2="-251.1434" y2="380.7023">
				<stop  offset="0" style="stop-color:#76CEDE"/>
				<stop  offset="1" style="stop-color:#A3D17A"/>
			</linearGradient>
			<rect x="-274.81" y="380.7" class="st66" width="47.33" height="47.33"/>
		</g>
		
			<radialGradient id="SVGID_62_" cx="-249.1486" cy="389.4911" r="71.3959" gradientTransform="matrix(1.018 3.677946e-03 -2.473209e-04 0.1189 6.531 403.1081)" gradientUnits="userSpaceOnUse">
			<stop  offset="0" style="stop-color:#010101"/>
			<stop  offset="0.9374" style="stop-color:#010101;stop-opacity:0"/>
		</radialGradient>
		<ellipse class="st67" cx="-251.44" cy="447.38" rx="80.25" ry="18.75"/>
	</g>
</g>
</svg>
