<?xml version="1.0" encoding="utf-8"?>
<!-- Generator: Adobe Illustrator 24.1.2, SVG Export Plug-In . SVG Version: 6.00 Build 0)  -->
<svg version="1.1" xmlns="http://www.w3.org/2000/svg" xmlns:xlink="http://www.w3.org/1999/xlink" x="0px" y="0px"
	 viewBox="0 0 201.24 197.36" style="enable-background:new 0 0 201.24 197.36;" xml:space="preserve">
<style type="text/css">
	.st0{fill:#424143;}
	.st1{fill:url(#SVGID_1_);}
	.st2{fill:url(#SVGID_2_);}
	.st3{fill:url(#SVGID_3_);}
	.st4{fill:url(#SVGID_4_);}
	.st5{opacity:0.54;fill:url(#SVGID_5_);}
	.st6{opacity:0.65;fill:url(#SVGID_6_);}
	.st7{opacity:0.65;fill:url(#SVGID_7_);}
	.st8{opacity:0.65;fill:url(#SVGID_8_);}
	.st9{fill:#F7941D;}
	.st10{fill:#FFFFFF;}
	.st11{fill:url(#SVGID_9_);}
	.st12{fill:url(#SVGID_10_);}
	.st13{fill:url(#SVGID_11_);}
	.st14{fill:url(#SVGID_12_);}
	.st15{fill:url(#SVGID_13_);}
	.st16{fill:url(#SVGID_14_);}
	.st17{fill:url(#SVGID_15_);}
	.st18{fill:url(#SVGID_16_);}
	.st19{fill:#EF4136;}
	.st20{font-family:'ATROX-normal';}
	.st21{font-size:60px;}
	.st22{fill:url(#SVGID_17_);}
	.st23{fill:url(#SVGID_18_);}
	.st24{opacity:0.78;fill:url(#SVGID_19_);}
	.st25{opacity:0.54;fill:url(#SVGID_20_);}
	.st26{fill:url(#SVGID_21_);}
	.st27{fill:url(#SVGID_22_);}
	.st28{fill:url(#SVGID_23_);}
	.st29{fill:url(#SVGID_24_);}
	.st30{fill:url(#SVGID_25_);}
	.st31{fill:url(#SVGID_26_);}
	.st32{fill:url(#SVGID_27_);}
	.st33{opacity:0.65;fill:url(#SVGID_28_);}
	.st34{opacity:0.24;fill:url(#SVGID_29_);}
	.st35{fill:url(#SVGID_30_);}
	.st36{fill:url(#SVGID_31_);}
	.st37{fill:url(#SVGID_32_);}
	.st38{opacity:0.24;fill:url(#SVGID_33_);}
	.st39{fill:url(#SVGID_34_);}
	.st40{fill:url(#SVGID_35_);}
	.st41{fill:url(#SVGID_36_);}
	.st42{fill:url(#SVGID_37_);}
	.st43{fill:url(#SVGID_38_);}
	.st44{fill:url(#SVGID_39_);}
	.st45{opacity:0.24;fill:url(#SVGID_40_);}
	.st46{fill:url(#SVGID_41_);}
	.st47{fill:url(#SVGID_42_);}
	.st48{opacity:0.24;fill:url(#SVGID_43_);}
	.st49{fill:url(#SVGID_44_);}
	.st50{opacity:0.24;fill:url(#SVGID_45_);}
	.st51{fill:url(#SVGID_46_);}
	.st52{fill:url(#SVGID_47_);}
	.st53{fill:url(#SVGID_48_);}
	.st54{fill:url(#SVGID_49_);}
	.st55{opacity:0.54;fill:url(#SVGID_50_);}
	.st56{opacity:0.54;fill:url(#SVGID_51_);}
	.st57{opacity:0.54;fill:url(#SVGID_52_);}
	.st58{opacity:0.54;fill:url(#SVGID_53_);}
	.st59{opacity:0.24;fill:url(#SVGID_54_);}
	.st60{fill:url(#SVGID_55_);}
	.st61{fill:url(#SVGID_56_);}
	.st62{fill:url(#SVGID_57_);}
	.st63{fill:url(#SVGID_58_);}
	.st64{fill:url(#SVGID_59_);}
	.st65{opacity:0.24;fill:url(#SVGID_60_);}
</style>
<g id="background">
	<g>
		<g>
			<g>
				<path class="st0" d="M-255.78,717.69v-0.19c-0.25,0.29-0.49,0.52-0.73,0.7c-0.24,0.18-0.5,0.31-0.79,0.41
					c-0.28,0.09-0.59,0.14-0.92,0.14c-0.44,0-0.85-0.09-1.23-0.28c-0.38-0.18-0.71-0.45-0.98-0.8c-0.28-0.34-0.49-0.75-0.63-1.22
					c-0.14-0.47-0.21-0.98-0.21-1.52c0-1.16,0.28-2.06,0.85-2.71c0.57-0.65,1.31-0.97,2.23-0.97c0.54,0,0.98,0.09,1.35,0.27
					c0.37,0.18,0.72,0.46,1.07,0.84v-2.72c0-0.38,0.08-0.66,0.23-0.86c0.15-0.2,0.37-0.29,0.64-0.29c0.28,0,0.5,0.09,0.65,0.27
					c0.15,0.18,0.23,0.44,0.23,0.79v8.16c0,0.35-0.08,0.62-0.24,0.79c-0.17,0.17-0.37,0.26-0.63,0.26c-0.25,0-0.46-0.09-0.62-0.27
					C-255.69,718.29-255.78,718.03-255.78,717.69z M-259.41,714.97c0,0.5,0.08,0.93,0.23,1.28c0.16,0.36,0.37,0.62,0.64,0.8
					c0.27,0.18,0.57,0.27,0.89,0.27c0.32,0,0.62-0.09,0.89-0.26c0.27-0.17,0.48-0.42,0.64-0.78c0.16-0.36,0.24-0.79,0.24-1.31
					c0-0.5-0.08-0.92-0.24-1.27c-0.16-0.36-0.38-0.63-0.65-0.82c-0.27-0.19-0.57-0.28-0.9-0.28c-0.34,0-0.64,0.1-0.91,0.29
					c-0.26,0.2-0.47,0.47-0.62,0.83C-259.34,714.08-259.41,714.5-259.41,714.97z"/>
				<path class="st0" d="M-247.01,715.44h-3.62c0,0.42,0.09,0.79,0.25,1.11c0.17,0.32,0.38,0.57,0.66,0.72
					c0.27,0.17,0.57,0.24,0.9,0.24c0.22,0,0.42-0.02,0.61-0.07c0.18-0.05,0.36-0.14,0.53-0.25c0.17-0.11,0.33-0.23,0.48-0.36
					c0.14-0.13,0.33-0.3,0.56-0.51c0.09-0.08,0.23-0.13,0.41-0.13c0.19,0,0.34,0.05,0.46,0.15c0.12,0.11,0.18,0.26,0.18,0.44
					c0,0.17-0.07,0.36-0.2,0.59c-0.13,0.23-0.33,0.44-0.6,0.64c-0.26,0.21-0.59,0.38-1,0.52c-0.4,0.13-0.86,0.2-1.38,0.2
					c-1.19,0-2.11-0.34-2.77-1.02c-0.66-0.68-0.99-1.59-0.99-2.76c0-0.55,0.08-1.06,0.24-1.52c0.17-0.47,0.4-0.87,0.71-1.2
					c0.31-0.34,0.7-0.59,1.15-0.77c0.46-0.18,0.96-0.26,1.52-0.26c0.72,0,1.34,0.15,1.85,0.46c0.52,0.3,0.91,0.7,1.17,1.18
					c0.26,0.48,0.38,0.98,0.38,1.48c0,0.46-0.13,0.77-0.4,0.9C-246.15,715.37-246.53,715.44-247.01,715.44z M-250.62,714.39h3.35
					c-0.04-0.64-0.21-1.1-0.51-1.42c-0.29-0.31-0.69-0.47-1.17-0.47c-0.46,0-0.84,0.16-1.13,0.47
					C-250.38,713.3-250.56,713.77-250.62,714.39z"/>
				<path class="st0" d="M-237.97,716.33c0,0.51-0.12,0.95-0.37,1.31c-0.25,0.37-0.62,0.64-1.1,0.83c-0.48,0.19-1.07,0.28-1.77,0.28
					c-0.66,0-1.23-0.1-1.71-0.3c-0.48-0.2-0.82-0.46-1.05-0.76c-0.22-0.31-0.34-0.62-0.34-0.92c0-0.2,0.07-0.38,0.22-0.52
					c0.15-0.15,0.33-0.22,0.55-0.22c0.19,0,0.34,0.05,0.44,0.14c0.11,0.09,0.21,0.23,0.3,0.4c0.19,0.33,0.42,0.57,0.68,0.74
					c0.26,0.16,0.63,0.25,1.08,0.25c0.37,0,0.67-0.08,0.91-0.25c0.24-0.17,0.35-0.36,0.35-0.56c0-0.33-0.12-0.57-0.37-0.72
					c-0.25-0.15-0.65-0.29-1.22-0.43c-0.63-0.16-1.15-0.32-1.55-0.49c-0.4-0.18-0.72-0.4-0.96-0.69c-0.24-0.29-0.36-0.64-0.36-1.05
					c0-0.37,0.11-0.72,0.33-1.05c0.22-0.33,0.55-0.59,0.98-0.79c0.44-0.2,0.95-0.29,1.56-0.29c0.48,0,0.91,0.05,1.29,0.15
					c0.38,0.1,0.7,0.23,0.96,0.4c0.26,0.16,0.45,0.35,0.58,0.55c0.13,0.2,0.2,0.4,0.2,0.6c0,0.21-0.07,0.39-0.21,0.52
					c-0.14,0.14-0.35,0.21-0.61,0.21c-0.19,0-0.35-0.05-0.49-0.16c-0.13-0.11-0.28-0.27-0.46-0.49c-0.14-0.18-0.31-0.32-0.5-0.43
					c-0.19-0.11-0.45-0.16-0.77-0.16c-0.33,0-0.61,0.08-0.83,0.22c-0.22,0.14-0.33,0.32-0.33,0.53c0,0.19,0.08,0.35,0.24,0.47
					c0.16,0.13,0.38,0.23,0.66,0.31c0.27,0.08,0.66,0.18,1.14,0.3c0.57,0.14,1.04,0.31,1.4,0.5c0.37,0.2,0.64,0.43,0.83,0.69
					C-238.06,715.69-237.97,715.99-237.97,716.33z"/>
				<path class="st0" d="M-235.46,710.37c-0.26,0-0.48-0.09-0.66-0.24c-0.18-0.16-0.28-0.38-0.28-0.67c0-0.26,0.09-0.48,0.28-0.65
					c0.19-0.17,0.4-0.25,0.65-0.25c0.24,0,0.45,0.08,0.63,0.23c0.19,0.16,0.28,0.38,0.28,0.67c0,0.28-0.09,0.51-0.27,0.67
					C-235,710.28-235.21,710.37-235.46,710.37z M-234.55,712.28v5.35c0,0.37-0.09,0.65-0.26,0.84c-0.18,0.19-0.4,0.29-0.67,0.29
					c-0.27,0-0.49-0.09-0.66-0.29c-0.17-0.19-0.25-0.47-0.25-0.83v-5.29c0-0.37,0.08-0.64,0.25-0.82c0.17-0.19,0.39-0.28,0.66-0.28
					c0.27,0,0.5,0.09,0.67,0.28C-234.64,711.69-234.55,711.94-234.55,712.28z"/>
				<path class="st0" d="M-225.84,712.58v5.38c0,0.61-0.06,1.14-0.2,1.58c-0.13,0.45-0.34,0.81-0.63,1.1
					c-0.29,0.28-0.67,0.5-1.14,0.64c-0.47,0.14-1.05,0.21-1.74,0.21c-0.64,0-1.21-0.09-1.71-0.26c-0.5-0.18-0.88-0.42-1.16-0.7
					c-0.27-0.28-0.4-0.57-0.4-0.87c0-0.23,0.08-0.41,0.23-0.55c0.15-0.14,0.34-0.22,0.56-0.22c0.27,0,0.51,0.12,0.71,0.36
					c0.1,0.12,0.2,0.24,0.31,0.37c0.11,0.12,0.22,0.23,0.35,0.32c0.13,0.09,0.28,0.15,0.46,0.2c0.18,0.04,0.39,0.06,0.62,0.06
					c0.48,0,0.85-0.06,1.12-0.2c0.26-0.13,0.45-0.32,0.56-0.56c0.1-0.24,0.16-0.5,0.18-0.77c0.02-0.28,0.03-0.71,0.04-1.32
					c-0.29,0.39-0.61,0.7-0.99,0.91c-0.37,0.21-0.81,0.32-1.33,0.32c-0.62,0-1.16-0.16-1.62-0.48c-0.46-0.31-0.82-0.76-1.07-1.33
					c-0.25-0.57-0.38-1.22-0.38-1.97c0-0.55,0.08-1.05,0.23-1.5c0.15-0.45,0.37-0.82,0.65-1.13c0.28-0.31,0.6-0.54,0.97-0.7
					c0.36-0.15,0.76-0.23,1.2-0.23c0.52,0,0.98,0.1,1.36,0.3c0.38,0.2,0.74,0.51,1.07,0.94v-0.24c0-0.32,0.08-0.57,0.24-0.75
					c0.16-0.18,0.36-0.26,0.61-0.26c0.36,0,0.59,0.12,0.71,0.35C-225.89,711.81-225.84,712.14-225.84,712.58z M-231.2,714.93
					c0,0.75,0.16,1.31,0.49,1.7c0.33,0.38,0.75,0.58,1.27,0.58c0.31,0,0.6-0.08,0.87-0.25c0.27-0.17,0.5-0.41,0.67-0.74
					c0.17-0.33,0.26-0.74,0.26-1.21c0-0.76-0.17-1.34-0.5-1.76c-0.33-0.42-0.77-0.63-1.31-0.63c-0.53,0-0.95,0.2-1.27,0.61
					C-231.04,713.61-231.2,714.18-231.2,714.93z"/>
				<path class="st0" d="M-222.28,712.25v0.22c0.33-0.43,0.68-0.75,1.07-0.94c0.39-0.2,0.83-0.3,1.33-0.3
					c0.49,0,0.92,0.11,1.31,0.31c0.38,0.21,0.67,0.51,0.86,0.9c0.12,0.22,0.2,0.47,0.24,0.73c0.04,0.27,0.06,0.6,0.06,1.01v3.44
					c0,0.37-0.09,0.65-0.25,0.84c-0.17,0.19-0.39,0.29-0.66,0.29c-0.28,0-0.5-0.09-0.67-0.29c-0.17-0.19-0.26-0.47-0.26-0.83v-3.08
					c0-0.61-0.08-1.08-0.25-1.4c-0.17-0.32-0.51-0.48-1.01-0.48c-0.33,0-0.63,0.09-0.9,0.29c-0.27,0.19-0.47,0.46-0.59,0.8
					c-0.09,0.28-0.14,0.8-0.14,1.55v2.32c0,0.38-0.09,0.66-0.26,0.84c-0.18,0.19-0.4,0.28-0.67,0.28c-0.27,0-0.49-0.09-0.66-0.29
					c-0.17-0.19-0.26-0.47-0.26-0.83v-5.35c0-0.35,0.08-0.62,0.23-0.79c0.15-0.18,0.36-0.26,0.63-0.26c0.16,0,0.31,0.04,0.44,0.11
					c0.13,0.08,0.24,0.2,0.31,0.35C-222.32,711.84-222.28,712.03-222.28,712.25z"/>
				<path class="st0" d="M-210.42,715.44h-3.62c0,0.42,0.09,0.79,0.25,1.11c0.16,0.32,0.38,0.57,0.66,0.72
					c0.28,0.17,0.58,0.24,0.91,0.24c0.22,0,0.42-0.02,0.61-0.07c0.18-0.05,0.36-0.14,0.54-0.25c0.17-0.11,0.33-0.23,0.47-0.36
					c0.15-0.13,0.33-0.3,0.56-0.51c0.1-0.08,0.23-0.13,0.41-0.13c0.19,0,0.34,0.05,0.46,0.15c0.12,0.11,0.18,0.26,0.18,0.44
					c0,0.17-0.06,0.36-0.19,0.59c-0.13,0.23-0.33,0.44-0.6,0.64c-0.26,0.21-0.59,0.38-1,0.52c-0.4,0.13-0.86,0.2-1.38,0.2
					c-1.19,0-2.11-0.34-2.77-1.02c-0.66-0.68-0.99-1.59-0.99-2.76c0-0.55,0.08-1.06,0.24-1.52c0.16-0.47,0.4-0.87,0.71-1.2
					c0.31-0.34,0.69-0.59,1.15-0.77c0.46-0.18,0.96-0.26,1.52-0.26c0.72,0,1.34,0.15,1.86,0.46c0.52,0.3,0.91,0.7,1.17,1.18
					c0.25,0.48,0.38,0.98,0.38,1.48c0,0.46-0.13,0.77-0.4,0.9C-209.56,715.37-209.93,715.44-210.42,715.44z M-214.04,714.39h3.35
					c-0.05-0.64-0.22-1.1-0.51-1.42c-0.29-0.31-0.69-0.47-1.17-0.47c-0.46,0-0.84,0.16-1.13,0.47
					C-213.79,713.3-213.97,713.77-214.04,714.39z"/>
				<path class="st0" d="M-202.26,717.69v-0.19c-0.25,0.29-0.49,0.52-0.74,0.7c-0.24,0.18-0.51,0.31-0.79,0.41
					c-0.28,0.09-0.59,0.14-0.93,0.14c-0.44,0-0.85-0.09-1.23-0.28c-0.38-0.18-0.7-0.45-0.98-0.8c-0.28-0.34-0.48-0.75-0.63-1.22
					c-0.14-0.47-0.21-0.98-0.21-1.52c0-1.16,0.28-2.06,0.85-2.71c0.57-0.65,1.31-0.97,2.23-0.97c0.53,0,0.98,0.09,1.35,0.27
					c0.37,0.18,0.73,0.46,1.07,0.84v-2.72c0-0.38,0.08-0.66,0.23-0.86c0.15-0.2,0.37-0.29,0.65-0.29c0.28,0,0.49,0.09,0.65,0.27
					c0.15,0.18,0.23,0.44,0.23,0.79v8.16c0,0.35-0.08,0.62-0.25,0.79c-0.16,0.17-0.38,0.26-0.63,0.26c-0.26,0-0.46-0.09-0.63-0.27
					C-202.18,718.29-202.26,718.03-202.26,717.69z M-205.9,714.97c0,0.5,0.08,0.93,0.23,1.28c0.16,0.36,0.37,0.62,0.64,0.8
					c0.27,0.18,0.57,0.27,0.89,0.27c0.33,0,0.62-0.09,0.89-0.26c0.26-0.17,0.48-0.42,0.64-0.78c0.16-0.36,0.24-0.79,0.24-1.31
					c0-0.5-0.08-0.92-0.24-1.27c-0.16-0.36-0.38-0.63-0.65-0.82c-0.27-0.19-0.57-0.28-0.9-0.28c-0.34,0-0.64,0.1-0.91,0.29
					c-0.27,0.2-0.47,0.47-0.62,0.83C-205.83,714.08-205.9,714.5-205.9,714.97z"/>
				<path class="st0" d="M-193.48,709.53v2.82c0.35-0.35,0.7-0.63,1.06-0.82c0.37-0.2,0.81-0.29,1.34-0.29
					c0.61,0,1.15,0.15,1.62,0.44c0.46,0.29,0.82,0.71,1.07,1.27c0.26,0.55,0.39,1.2,0.39,1.96c0,0.56-0.07,1.07-0.21,1.54
					c-0.14,0.47-0.35,0.88-0.62,1.22c-0.27,0.34-0.6,0.61-0.99,0.8c-0.39,0.19-0.81,0.28-1.28,0.28c-0.29,0-0.55-0.04-0.8-0.1
					c-0.25-0.06-0.46-0.16-0.64-0.27c-0.17-0.11-0.32-0.22-0.45-0.34c-0.12-0.12-0.29-0.3-0.49-0.53v0.19
					c0,0.35-0.08,0.61-0.25,0.79c-0.16,0.17-0.38,0.26-0.64,0.26c-0.26,0-0.47-0.09-0.63-0.26c-0.16-0.18-0.23-0.45-0.23-0.79v-8.08
					c0-0.37,0.07-0.65,0.23-0.85c0.15-0.2,0.36-0.29,0.63-0.29c0.29,0,0.51,0.09,0.66,0.28
					C-193.56,708.93-193.48,709.2-193.48,709.53z M-193.39,715.03c0,0.74,0.17,1.3,0.51,1.7c0.33,0.4,0.77,0.6,1.32,0.6
					c0.46,0,0.86-0.2,1.2-0.61c0.34-0.41,0.51-0.98,0.51-1.74c0-0.49-0.07-0.91-0.21-1.26c-0.14-0.35-0.34-0.62-0.6-0.82
					c-0.25-0.19-0.56-0.29-0.9-0.29c-0.35,0-0.66,0.1-0.94,0.29c-0.27,0.2-0.49,0.47-0.65,0.84
					C-193.31,714.1-193.39,714.53-193.39,715.03z"/>
				<path class="st0" d="M-184.99,718.98l0.17-0.41l-2.28-5.73c-0.14-0.33-0.21-0.56-0.21-0.72s0.04-0.31,0.12-0.44
					c0.08-0.14,0.19-0.24,0.33-0.32c0.14-0.08,0.29-0.12,0.45-0.12c0.27,0,0.46,0.09,0.6,0.25c0.14,0.18,0.26,0.42,0.36,0.73
					l1.57,4.55l1.48-4.24c0.12-0.34,0.23-0.61,0.32-0.8c0.09-0.19,0.2-0.32,0.31-0.39c0.11-0.06,0.25-0.1,0.45-0.1
					c0.14,0,0.27,0.04,0.4,0.11c0.13,0.08,0.23,0.18,0.3,0.3c0.08,0.13,0.11,0.26,0.11,0.4c-0.02,0.08-0.05,0.2-0.09,0.37
					c-0.04,0.16-0.09,0.32-0.15,0.48l-2.41,6.31c-0.21,0.56-0.41,0.99-0.61,1.31c-0.19,0.32-0.46,0.56-0.79,0.73
					c-0.33,0.17-0.77,0.25-1.33,0.25c-0.54,0-0.95-0.06-1.22-0.17c-0.27-0.12-0.41-0.33-0.41-0.64c0-0.21,0.06-0.38,0.19-0.49
					c0.13-0.12,0.32-0.17,0.57-0.17c0.1,0,0.2,0.01,0.29,0.04c0.12,0.03,0.22,0.04,0.31,0.04c0.21,0,0.38-0.03,0.5-0.09
					c0.12-0.06,0.23-0.17,0.33-0.33C-185.23,719.51-185.12,719.28-184.99,718.98z"/>
			</g>
			<g>
				<path class="st0" d="M-150.76,711.39h0.44v-0.55c0-0.58,0.07-1.04,0.23-1.38c0.14-0.35,0.39-0.59,0.74-0.75
					c0.35-0.16,0.83-0.24,1.44-0.24c1.07,0,1.62,0.26,1.62,0.79c0,0.17-0.06,0.32-0.17,0.44c-0.11,0.12-0.24,0.18-0.4,0.18
					c-0.08,0-0.2-0.01-0.38-0.04c-0.17-0.02-0.32-0.04-0.44-0.04c-0.34,0-0.55,0.1-0.65,0.29c-0.09,0.2-0.14,0.48-0.14,0.84v0.44
					h0.46c0.71,0,1.06,0.21,1.06,0.64c0,0.3-0.09,0.49-0.28,0.57c-0.19,0.08-0.44,0.12-0.78,0.12h-0.46v4.9
					c0,0.36-0.09,0.64-0.26,0.84c-0.18,0.2-0.4,0.29-0.68,0.29c-0.26,0-0.48-0.09-0.66-0.29c-0.17-0.2-0.26-0.47-0.26-0.84v-4.9
					h-0.51c-0.28,0-0.48-0.06-0.63-0.19c-0.15-0.12-0.22-0.28-0.22-0.48C-151.68,711.61-151.37,711.39-150.76,711.39z"/>
				<path class="st0" d="M-144.15,716.07v1.55c0,0.38-0.09,0.66-0.26,0.84c-0.18,0.19-0.4,0.28-0.68,0.28
					c-0.26,0-0.48-0.09-0.65-0.29c-0.18-0.19-0.26-0.47-0.26-0.84v-5.15c0-0.83,0.3-1.25,0.9-1.25c0.3,0,0.53,0.1,0.66,0.29
					c0.14,0.19,0.21,0.48,0.23,0.86c0.22-0.38,0.45-0.67,0.68-0.86c0.23-0.2,0.54-0.29,0.93-0.29c0.39,0,0.76,0.1,1.13,0.29
					c0.37,0.19,0.55,0.45,0.55,0.77c0,0.23-0.07,0.41-0.23,0.57c-0.16,0.14-0.32,0.21-0.51,0.21c-0.07,0-0.23-0.04-0.49-0.12
					c-0.26-0.09-0.49-0.13-0.69-0.13c-0.27,0-0.49,0.07-0.66,0.22c-0.17,0.14-0.3,0.35-0.4,0.63c-0.09,0.28-0.16,0.62-0.2,1
					C-144.13,715.05-144.15,715.52-144.15,716.07z"/>
				<path class="st0" d="M-135.09,715.44h-3.62c0.01,0.42,0.09,0.79,0.26,1.11c0.16,0.32,0.38,0.57,0.66,0.72
					c0.27,0.17,0.57,0.24,0.9,0.24c0.22,0,0.43-0.02,0.61-0.07c0.19-0.05,0.36-0.14,0.53-0.25c0.18-0.11,0.33-0.23,0.47-0.36
					c0.15-0.13,0.34-0.3,0.57-0.51c0.09-0.08,0.23-0.13,0.41-0.13c0.19,0,0.34,0.05,0.46,0.15c0.12,0.11,0.18,0.26,0.18,0.44
					c0,0.17-0.06,0.36-0.2,0.59c-0.13,0.23-0.33,0.44-0.59,0.64c-0.27,0.21-0.6,0.38-1,0.52c-0.4,0.13-0.86,0.2-1.38,0.2
					c-1.19,0-2.12-0.34-2.77-1.02c-0.66-0.68-0.99-1.59-0.99-2.76c0-0.55,0.08-1.06,0.25-1.52c0.16-0.47,0.4-0.87,0.71-1.2
					c0.31-0.34,0.7-0.59,1.15-0.77c0.45-0.18,0.96-0.26,1.52-0.26c0.72,0,1.33,0.15,1.85,0.46c0.52,0.3,0.91,0.7,1.17,1.18
					c0.26,0.48,0.39,0.98,0.39,1.48c0,0.46-0.13,0.77-0.4,0.9C-134.23,715.37-134.6,715.44-135.09,715.44z M-138.71,714.39h3.36
					c-0.05-0.64-0.21-1.1-0.51-1.42c-0.3-0.31-0.69-0.47-1.17-0.47c-0.46,0-0.84,0.16-1.14,0.47
					C-138.46,713.3-138.64,713.77-138.71,714.39z"/>
				<path class="st0" d="M-126.84,715.44h-3.62c0.01,0.42,0.09,0.79,0.26,1.11c0.16,0.32,0.39,0.57,0.66,0.72
					c0.28,0.17,0.58,0.24,0.91,0.24c0.22,0,0.42-0.02,0.6-0.07c0.18-0.05,0.37-0.14,0.53-0.25c0.17-0.11,0.33-0.23,0.48-0.36
					c0.14-0.13,0.34-0.3,0.56-0.51c0.1-0.08,0.23-0.13,0.41-0.13c0.19,0,0.35,0.05,0.46,0.15c0.12,0.11,0.17,0.26,0.17,0.44
					c0,0.17-0.06,0.36-0.19,0.59c-0.13,0.23-0.33,0.44-0.6,0.64c-0.26,0.21-0.6,0.38-0.99,0.52c-0.4,0.13-0.86,0.2-1.38,0.2
					c-1.19,0-2.11-0.34-2.77-1.02c-0.66-0.68-0.99-1.59-0.99-2.76c0-0.55,0.08-1.06,0.24-1.52c0.16-0.47,0.4-0.87,0.71-1.2
					c0.31-0.34,0.7-0.59,1.15-0.77c0.46-0.18,0.96-0.26,1.52-0.26c0.72,0,1.34,0.15,1.86,0.46c0.51,0.3,0.9,0.7,1.16,1.18
					c0.26,0.48,0.38,0.98,0.38,1.48c0,0.46-0.13,0.77-0.4,0.9C-125.98,715.37-126.35,715.44-126.84,715.44z M-130.46,714.39h3.35
					c-0.04-0.64-0.21-1.1-0.51-1.42c-0.29-0.31-0.68-0.47-1.17-0.47c-0.46,0-0.84,0.16-1.14,0.47
					C-130.21,713.3-130.4,713.77-130.46,714.39z"/>
				<path class="st0" d="M-122.23,712.27v0.21c0.35-0.43,0.71-0.74,1.09-0.94c0.38-0.21,0.8-0.3,1.28-0.3
					c0.57,0,1.09,0.15,1.57,0.44c0.48,0.29,0.86,0.72,1.14,1.29c0.28,0.56,0.41,1.23,0.41,2.01c0,0.57-0.08,1.09-0.24,1.57
					c-0.16,0.48-0.38,0.88-0.66,1.2c-0.28,0.32-0.61,0.57-0.99,0.75c-0.38,0.17-0.79,0.26-1.23,0.26c-0.53,0-0.97-0.11-1.33-0.32
					c-0.36-0.21-0.71-0.53-1.03-0.93v2.78c0,0.81-0.3,1.22-0.88,1.22c-0.35,0-0.58-0.11-0.7-0.31c-0.11-0.21-0.17-0.52-0.17-0.92
					v-7.98c0-0.35,0.08-0.62,0.23-0.79c0.15-0.18,0.36-0.26,0.63-0.26c0.26,0,0.47,0.09,0.63,0.27
					C-122.31,711.67-122.23,711.93-122.23,712.27z M-118.61,714.95c0-0.49-0.07-0.91-0.22-1.26c-0.15-0.35-0.36-0.63-0.62-0.81
					c-0.26-0.19-0.56-0.28-0.88-0.28c-0.51,0-0.94,0.2-1.29,0.61c-0.35,0.4-0.53,0.99-0.53,1.77c0,0.73,0.18,1.31,0.53,1.71
					c0.34,0.41,0.78,0.62,1.29,0.62c0.31,0,0.59-0.09,0.85-0.27c0.27-0.18,0.47-0.44,0.63-0.8
					C-118.69,715.89-118.61,715.46-118.61,714.95z"/>
				<path class="st0" d="M-114.32,710.37c-0.26,0-0.49-0.09-0.67-0.24c-0.18-0.16-0.28-0.38-0.28-0.67c0-0.26,0.1-0.48,0.29-0.65
					c0.18-0.17,0.4-0.25,0.66-0.25c0.23,0,0.45,0.08,0.63,0.23c0.18,0.16,0.28,0.38,0.28,0.67c0,0.28-0.09,0.51-0.27,0.67
					C-113.87,710.28-114.08,710.37-114.32,710.37z M-113.41,712.28v5.35c0,0.37-0.09,0.65-0.27,0.84c-0.17,0.19-0.39,0.29-0.67,0.29
					c-0.27,0-0.49-0.09-0.66-0.29c-0.17-0.19-0.26-0.47-0.26-0.83v-5.29c0-0.37,0.09-0.64,0.26-0.82c0.17-0.19,0.39-0.28,0.66-0.28
					c0.28,0,0.5,0.09,0.67,0.28C-113.5,711.69-113.41,711.94-113.41,712.28z"/>
				<path class="st0" d="M-106.9,717.9l-1.63-2.68l-1,0.95v1.47c0,0.35-0.09,0.63-0.27,0.82c-0.19,0.2-0.41,0.29-0.65,0.29
					c-0.29,0-0.51-0.09-0.67-0.29c-0.17-0.19-0.25-0.47-0.25-0.84v-7.88c0-0.41,0.07-0.72,0.23-0.94c0.16-0.22,0.39-0.32,0.69-0.32
					c0.28,0,0.51,0.09,0.68,0.29c0.17,0.2,0.25,0.48,0.25,0.86v4.48l2.08-2.18c0.26-0.27,0.45-0.46,0.59-0.55
					c0.14-0.1,0.3-0.15,0.5-0.15c0.23,0,0.42,0.07,0.58,0.22c0.15,0.14,0.23,0.33,0.23,0.55c0,0.27-0.25,0.63-0.75,1.08l-0.99,0.9
					l1.9,2.98c0.14,0.22,0.24,0.39,0.3,0.5c0.06,0.11,0.09,0.23,0.09,0.33c0,0.29-0.08,0.53-0.24,0.7
					c-0.16,0.16-0.38,0.25-0.64,0.25c-0.23,0-0.4-0.06-0.52-0.19C-106.52,718.44-106.69,718.22-106.9,717.9z"/>
				<path class="st0" d="M-102.32,718.75c-0.28,0-0.52-0.09-0.72-0.27c-0.21-0.18-0.31-0.43-0.31-0.76c0-0.28,0.1-0.51,0.3-0.71
					c0.2-0.2,0.44-0.3,0.72-0.3c0.28,0,0.53,0.1,0.73,0.29c0.2,0.2,0.3,0.43,0.3,0.71c0,0.32-0.1,0.58-0.3,0.76
					C-101.81,718.66-102.05,718.75-102.32,718.75z"/>
				<path class="st0" d="M-92.57,716.46c0,0.23-0.07,0.47-0.21,0.74c-0.14,0.27-0.35,0.51-0.63,0.75c-0.28,0.24-0.64,0.43-1.07,0.57
					c-0.43,0.15-0.92,0.22-1.45,0.22c-1.14,0-2.04-0.33-2.68-1c-0.64-0.66-0.96-1.56-0.96-2.68c0-0.76,0.15-1.43,0.44-2.01
					c0.29-0.58,0.72-1.03,1.28-1.35c0.56-0.32,1.22-0.47,1.99-0.47c0.48,0,0.92,0.07,1.32,0.21c0.4,0.13,0.74,0.31,1.02,0.54
					c0.28,0.22,0.49,0.46,0.63,0.71c0.15,0.26,0.22,0.49,0.22,0.71c0,0.22-0.08,0.41-0.25,0.56c-0.16,0.15-0.36,0.23-0.6,0.23
					c-0.15,0-0.29-0.04-0.38-0.12c-0.11-0.08-0.21-0.21-0.34-0.38c-0.22-0.34-0.46-0.6-0.71-0.77c-0.25-0.17-0.56-0.26-0.94-0.26
					c-0.54,0-0.98,0.22-1.32,0.64c-0.33,0.43-0.5,1.01-0.5,1.75c0,0.35,0.04,0.67,0.13,0.96c0.08,0.29,0.21,0.54,0.37,0.75
					c0.16,0.2,0.36,0.36,0.59,0.46c0.23,0.11,0.49,0.16,0.76,0.16c0.37,0,0.69-0.09,0.95-0.25c0.26-0.18,0.5-0.43,0.7-0.79
					c0.12-0.21,0.24-0.37,0.37-0.48c0.13-0.12,0.29-0.18,0.48-0.18c0.23,0,0.41,0.08,0.56,0.25
					C-92.65,716.08-92.57,716.26-92.57,716.46z"/>
				<path class="st0" d="M-84.03,714.99c0,0.54-0.08,1.05-0.25,1.52c-0.17,0.47-0.42,0.87-0.75,1.2c-0.32,0.34-0.71,0.6-1.16,0.78
					c-0.45,0.17-0.96,0.26-1.53,0.26c-0.55,0-1.06-0.09-1.51-0.27c-0.44-0.18-0.84-0.44-1.17-0.77c-0.32-0.34-0.58-0.74-0.74-1.2
					c-0.17-0.46-0.25-0.97-0.25-1.52c0-0.56,0.09-1.07,0.26-1.54c0.17-0.46,0.41-0.86,0.73-1.19c0.32-0.33,0.71-0.58,1.17-0.76
					c0.46-0.18,0.96-0.27,1.51-0.27c0.57,0,1.07,0.09,1.53,0.27c0.46,0.18,0.85,0.44,1.17,0.77c0.33,0.33,0.57,0.73,0.74,1.19
					C-84.11,713.93-84.03,714.43-84.03,714.99z M-85.89,714.99c0-0.76-0.17-1.34-0.5-1.76c-0.33-0.42-0.77-0.63-1.34-0.63
					c-0.36,0-0.68,0.09-0.96,0.28c-0.27,0.19-0.49,0.47-0.64,0.83c-0.15,0.37-0.22,0.79-0.22,1.28c0,0.48,0.07,0.9,0.22,1.26
					c0.14,0.36,0.36,0.63,0.63,0.83c0.27,0.19,0.6,0.28,0.96,0.28c0.57,0,1.01-0.2,1.34-0.63
					C-86.06,716.31-85.89,715.73-85.89,714.99z"/>
				<path class="st0" d="M-76.42,715.12v2.46c0,0.39-0.09,0.68-0.26,0.87c-0.18,0.2-0.41,0.29-0.7,0.29c-0.28,0-0.51-0.09-0.68-0.29
					c-0.17-0.19-0.26-0.48-0.26-0.87v-2.95c0-0.47-0.01-0.82-0.04-1.09c-0.03-0.26-0.12-0.47-0.26-0.63
					c-0.14-0.17-0.36-0.25-0.66-0.25c-0.6,0-1,0.21-1.19,0.62c-0.19,0.42-0.29,1.01-0.29,1.79v2.5c0,0.38-0.09,0.67-0.26,0.87
					c-0.17,0.2-0.4,0.3-0.69,0.3c-0.28,0-0.51-0.1-0.69-0.3c-0.18-0.2-0.27-0.48-0.27-0.87v-5.29c0-0.34,0.08-0.61,0.24-0.79
					c0.16-0.18,0.38-0.27,0.63-0.27c0.26,0,0.47,0.09,0.63,0.25c0.18,0.18,0.26,0.41,0.26,0.71v0.17c0.32-0.38,0.66-0.66,1.03-0.84
					c0.36-0.18,0.77-0.27,1.22-0.27c0.47,0,0.87,0.09,1.2,0.28c0.34,0.18,0.61,0.46,0.83,0.83c0.31-0.37,0.65-0.65,1.01-0.84
					c0.35-0.18,0.75-0.27,1.18-0.27c0.51,0,0.94,0.1,1.31,0.29c0.37,0.21,0.64,0.49,0.82,0.85c0.16,0.34,0.24,0.86,0.24,1.58v3.61
					c0,0.39-0.09,0.68-0.27,0.87c-0.17,0.2-0.4,0.29-0.69,0.29c-0.28,0-0.51-0.1-0.69-0.3c-0.18-0.2-0.27-0.48-0.27-0.87v-3.11
					c0-0.39-0.01-0.71-0.05-0.96c-0.04-0.24-0.13-0.44-0.27-0.6c-0.15-0.16-0.38-0.24-0.68-0.24c-0.25,0-0.47,0.07-0.69,0.22
					c-0.22,0.14-0.39,0.34-0.52,0.59C-76.35,713.78-76.42,714.33-76.42,715.12z"/>
			</g>
			<g>
				<path class="st0" d="M-165.34,706.46c-0.03-0.12-0.07-0.24-0.11-0.35c0.62-0.06,1.04-0.8,0.73-1.36
					c-0.28-0.62-1.24-0.7-1.61-0.13c-0.39,0.51-0.09,1.3,0.52,1.46c0.04,0.12,0.07,0.26,0.11,0.38c-0.93,0.07-1.88,0.27-2.66,0.8
					c0.08,0.22,0.16,0.46,0.24,0.68c1.58-0.69,3.34-0.54,5.01-0.38c0.06-0.22,0.11-0.44,0.17-0.66
					C-163.69,706.58-164.52,706.45-165.34,706.46z"/>
				<path class="st0" d="M-155.96,709c-0.25,0.13-0.29,0.43-0.28,0.68c-0.28,0.27-0.14,0.68-0.17,1.01
					c-0.06,0.19-0.29,0.21-0.45,0.29c-0.22-0.34-0.45-0.65-0.75-0.93l0.01-0.02c-0.32-0.3-0.66-0.57-1.03-0.8
					c-0.29,0.31-0.6,0.62-0.88,0.94c0.55,0.61,1.07,1.27,1.52,1.96c0.31,0.53,0.56,1.08,0.78,1.66c0.47-0.24,0.93-0.49,1.4-0.74
					c-0.25-0.57-0.53-1.13-0.83-1.68c0.21-0.11,0.49-0.22,0.52-0.49c0.02-0.3-0.04-0.62,0.13-0.89c0.37,0.23,0.92-0.03,0.92-0.47
					C-155.01,709.07-155.58,708.75-155.96,709z"/>
				<path class="st0" d="M-158.49,712.4c-0.61-1.01-1.27-2.02-2.17-2.8c-1.03-0.91-2.38-1.53-3.78-1.52
					c-1.77-0.02-3.56,0.26-5.18,0.97c-1.53,0.67-2.87,1.88-3.54,3.43c-0.65,1.39-0.64,3-0.35,4.49c1.62,0.41,3.28,0.77,4.95,0.84
					c1.66,0.05,3.32,0.09,4.97-0.14c2.26-0.3,4.47-1.01,6.45-2.17C-157.16,715.51-157.43,714.02-158.49,712.4z M-166.48,714.41
					c-0.31,0.44-0.75,0.79-1.25,0.98c-0.95,0.36-2.11,0.11-2.79-0.64c-0.48-0.53-0.76-1.23-0.71-1.95c0.04-0.89,0.59-1.72,1.37-2.14
					c0.59-0.32,1.31-0.38,1.97-0.2c0.27,0.07,0.52,0.2,0.75,0.35c0.48,0.34,0.84,0.84,1.01,1.41
					C-165.92,712.95-166.06,713.77-166.48,714.41z M-159.63,712.79c-0.11,0.77-0.84,1.41-1.62,1.36c-0.45,0.04-0.88-0.17-1.19-0.49
					c-0.22-0.27-0.4-0.59-0.43-0.95c-0.11-0.77,0.44-1.57,1.2-1.75c0.33-0.09,0.68-0.04,1.01,0.04
					C-159.95,711.24-159.49,712.05-159.63,712.79z"/>
				<path class="st0" d="M-173.16,710.14c-0.66,0.4-1.2,0.96-1.66,1.58c-0.13-0.25-0.17-0.54-0.34-0.76
					c-0.1-0.13-0.28-0.07-0.41-0.07c-0.18,0.01-0.35-0.03-0.51-0.08c0.19-0.27,0.14-0.69-0.15-0.87c-0.32-0.22-0.81-0.03-0.89,0.35
					c-0.13,0.41,0.31,0.83,0.71,0.72c0.22,0.32,0.61,0.27,0.94,0.28c0.15,0.26,0.26,0.54,0.45,0.78c-0.36,0.7-0.56,1.48-0.57,2.26
					c0.46,0.19,0.91,0.38,1.37,0.58c0.02-0.5,0.08-0.99,0.16-1.47c0.15-1.07,0.77-1.99,1.49-2.75
					C-172.76,710.49-172.97,710.32-173.16,710.14z"/>
				<path class="st0" d="M-162.52,718.14c-1.68,0.37-3.41,0.47-5.12,0.4c-1.16-0.05-2.32-0.17-3.45-0.42
					c-0.8-0.16-1.59-0.4-2.38-0.62c0.13,1.01,0.54,1.97,1.12,2.8c0.69,0.97,1.61,1.85,2.75,2.21c0.89,0.24,1.95,0.55,3.79,0.51
					c1.52-0.02,3-0.21,4.33-0.79c0.86-0.37,1.66-0.87,2.35-1.5c0.6-0.56,1.06-1.26,1.38-2.01c0.31-0.71,0.6-1.99,0.57-2.64
					C-158.82,717.02-160.65,717.83-162.52,718.14z"/>
			</g>
		</g>
	</g>
</g>
<g id="objects">
	<g>
		<g>
			<linearGradient id="SVGID_1_" gradientUnits="userSpaceOnUse" x1="-460.6576" y1="73.8349" x2="-493.2097" y2="-18.7354">
				<stop  offset="0" style="stop-color:#006086"/>
				<stop  offset="1" style="stop-color:#32C5F4"/>
			</linearGradient>
			<polygon class="st1" points="-455.72,-7.87 -468.58,26.28 -510.2,26.28 -518.78,3.5 -523.06,-7.87 -489.39,-28.97 
				-459.97,-10.54 			"/>
			<linearGradient id="SVGID_2_" gradientUnits="userSpaceOnUse" x1="-434.5811" y1="-40.2065" x2="-432.0753" y2="43.9895">
				<stop  offset="0" style="stop-color:#006086"/>
				<stop  offset="1" style="stop-color:#32C5F4"/>
			</linearGradient>
			<polygon class="st2" points="-398.89,28.58 -402.02,30.46 -433.03,49.11 -466.21,27.44 -452.58,-6.48 -445.94,-6.37 
				-410.97,-5.78 			"/>
			<linearGradient id="SVGID_3_" gradientUnits="userSpaceOnUse" x1="-490.1112" y1="94.2423" x2="-464.2071" y2="45.2196">
				<stop  offset="0" style="stop-color:#6E6F72"/>
				<stop  offset="1" style="stop-color:#D2D3D4"/>
			</linearGradient>
			<polygon class="st3" points="-435.22,51.36 -441.98,67.57 -449.29,85.15 -490.89,84.05 -502.53,49.58 -489.2,41.75 
				-468.13,29.38 			"/>
			<linearGradient id="SVGID_4_" gradientUnits="userSpaceOnUse" x1="-432.8499" y1="136.9013" x2="-397.6204" y2="50.6144">
				<stop  offset="0" style="stop-color:#006086"/>
				<stop  offset="1" style="stop-color:#32C5F4"/>
			</linearGradient>
			<polygon class="st4" points="-378.68,87.47 -413.02,107.76 -446,85.85 -438.76,68.31 -432.04,52.03 -390.43,53.03 -381.51,79.19 
							"/>
			<linearGradient id="SVGID_5_" gradientUnits="userSpaceOnUse" x1="-459.1727" y1="28.8274" x2="-466.1752" y2="69.6979">
				<stop  offset="0" style="stop-color:#FFFFFF"/>
				<stop  offset="1" style="stop-color:#FFFFFF;stop-opacity:0"/>
			</linearGradient>
			<path class="st5" d="M-435.22,51.36l-6.75,16.21c-4.43,1.95-9.44,3.05-14.75,3.05c-17.95,0-32.49-12.54-32.49-28.02
				c0-0.29,0.01-0.57,0.02-0.85l21.07-12.37L-435.22,51.36z"/>
			<linearGradient id="SVGID_6_" gradientUnits="userSpaceOnUse" x1="-487.7921" y1="-30.944" x2="-495.3324" y2="13.0653">
				<stop  offset="0" style="stop-color:#FFFFFF"/>
				<stop  offset="1" style="stop-color:#FFFFFF;stop-opacity:0"/>
			</linearGradient>
			<path class="st6" d="M-459.97-10.54c-3.62,13.25-17.42,23.11-33.89,23.11c-9.77,0-18.6-3.47-24.92-9.07l-4.28-11.37l33.67-21.1
				L-459.97-10.54z"/>
			<linearGradient id="SVGID_7_" gradientUnits="userSpaceOnUse" x1="-419.4681" y1="-9.3391" x2="-426.5428" y2="31.9524">
				<stop  offset="0" style="stop-color:#FFFFFF"/>
				<stop  offset="1" style="stop-color:#FFFFFF;stop-opacity:0"/>
			</linearGradient>
			<path class="st7" d="M-398.89,28.58l-3.13,1.88c-4.19,1.69-8.87,2.63-13.8,2.63c-18.1,0-32.78-12.66-32.78-28.28
				c0-3.97,0.95-7.75,2.66-11.18l34.98,0.59L-398.89,28.58z"/>
			<linearGradient id="SVGID_8_" gradientUnits="userSpaceOnUse" x1="-405.7642" y1="48.2559" x2="-412.9809" y2="90.3764">
				<stop  offset="0" style="stop-color:#FFFFFF"/>
				<stop  offset="1" style="stop-color:#FFFFFF;stop-opacity:0"/>
			</linearGradient>
			<path class="st8" d="M-381.51,79.19c-5.8,6.94-15.23,11.45-25.9,11.45c-15.56,0-28.53-9.62-31.35-22.33l6.72-16.27l41.61,1
				L-381.51,79.19z"/>
		</g>
		<text transform="matrix(1 0 0 1 -544.4121 152.3074)" style="fill:#00AEEF; font-family:'nevis-Bold'; font-size:28px;">BeamLight Corp</text>
	</g>
	<g>
		<g>
			<path class="st9" d="M-194.46,69.03c0,0.51-0.01,1.03-0.02,1.54c-0.14,5.27-0.95,10.37-2.35,15.22
				c-3.05,10.52-8.88,19.84-16.66,27.12c-10.74,10.06-25.19,16.22-41.06,16.22c-33.18,0-60.08-26.9-60.08-60.09
				c0-3.96,0.38-7.84,1.12-11.58c0.3-1.54,0.66-3.07,1.08-4.57c0.06-0.25,0.14-0.5,0.21-0.74c0.94-3.23,2.15-6.34,3.6-9.31
				c9.73-20.06,30.29-33.88,54.08-33.88c16.85,0,32.08,6.94,42.99,18.11C-200.97,37.89-194.46,52.69-194.46,69.03z"/>
			<path class="st10" d="M-194.46,69.03c0,0.51-0.01,1.03-0.02,1.54c-29.42-30.85-76.28-38.33-115.23-19.08
				c-0.91,0.44-1.82,0.91-2.72,1.39c0.06-0.25,0.14-0.5,0.21-0.74c0.94-3.23,2.15-6.34,3.6-9.31
				c28.15-19.29,63.82-24.91,97.07-15.76C-200.97,37.89-194.46,52.69-194.46,69.03z"/>
			<path class="st10" d="M-196.83,85.79c-3.05,10.52-8.88,19.84-16.66,27.12c-17.39-36.85-57.3-59.61-100.02-55.46
				c0.3-1.54,0.66-3.07,1.08-4.57c0.06-0.25,0.14-0.5,0.21-0.74c0.84-0.23,1.67-0.44,2.51-0.65
				C-269.09,41.49-225.83,54.87-196.83,85.79z"/>
		</g>
		<text transform="matrix(1 0 0 1 -325.6807 176.3079)" class="st9 st21" style="font-family:'Ancillary-Bold';">BallNet</text>
	</g>
	<g>
		<g>
			
				<linearGradient id="SVGID_9_" gradientUnits="userSpaceOnUse" x1="-298.5097" y1="-8.8408" x2="-271.0771" y2="55.0561" gradientTransform="matrix(0.7071 -0.7071 0.7071 0.7071 -295.4769 -32.4179)">
				<stop  offset="0" style="stop-color:#F47F4F"/>
				<stop  offset="1" style="stop-color:#EE3E96"/>
			</linearGradient>
			<path class="st11" d="M-454.14,190.38l-1.28,25.84c-1.18-0.02-2.35-0.48-3.25-1.38l-48.92-48.68c-0.93-0.92-1.39-2.12-1.39-3.33
				l26.07,0.27c0.19,0.83,0.61,1.62,1.27,2.27l23.76,23.65C-456.85,190.04-455.48,190.49-454.14,190.38z"/>
			
				<linearGradient id="SVGID_10_" gradientUnits="userSpaceOnUse" x1="-375.2988" y1="429.0126" x2="-347.8662" y2="492.9096" gradientTransform="matrix(-0.7071 0.7071 -0.7071 -0.7071 -374.6756 715.4324)">
				<stop  offset="0" style="stop-color:#76CEDE"/>
				<stop  offset="1" style="stop-color:#A3D17A"/>
			</linearGradient>
			<path class="st12" d="M-459.12,133.6l1.28-25.84c1.18,0.02,2.35,0.48,3.25,1.38l48.92,48.68c0.93,0.92,1.39,2.12,1.39,3.33
				l-26.07-0.27c-0.19-0.83-0.61-1.62-1.27-2.27l-23.76-23.65C-456.41,133.94-457.78,133.49-459.12,133.6z"/>
			
				<linearGradient id="SVGID_11_" gradientUnits="userSpaceOnUse" x1="-308.998" y1="9.4111" x2="-200.8408" y2="-21.6799" gradientTransform="matrix(0.7071 -0.7071 0.7071 0.7071 -295.4769 -32.4179)">
				<stop  offset="0" style="stop-color:#FAA32D"/>
				<stop  offset="0.5" style="stop-color:#FFCD05"/>
				<stop  offset="0.6889" style="stop-color:#E9D02E"/>
				<stop  offset="1" style="stop-color:#BAD75B"/>
			</linearGradient>
			<path class="st13" d="M-482.65,163.58l-26-0.24c-0.03-1.18,0.39-2.35,1.25-3.29l46.92-50.6c0.89-0.96,2.08-1.46,3.29-1.51
				l0.78,25.93c-0.83,0.23-1.6,0.67-2.23,1.35l-22.79,24.58C-482.42,160.87-482.82,162.25-482.65,163.58z"/>
			
				<linearGradient id="SVGID_12_" gradientUnits="userSpaceOnUse" x1="-278.7516" y1="429.1643" x2="-251.3831" y2="492.912" gradientTransform="matrix(-0.7349 -0.6782 0.6782 -0.7349 -942.0919 345.8769)">
				<stop  offset="0.0153" style="stop-color:#6457A5"/>
				<stop  offset="0.5102" style="stop-color:#00AFD8"/>
				<stop  offset="1" style="stop-color:#6FCDDE"/>
			</linearGradient>
			<path class="st14" d="M-430.61,160.4l26,0.24c0.03,1.18-0.39,2.35-1.25,3.29l-46.92,50.6c-0.89,0.96-2.08,1.46-3.29,1.51
				l-0.78-25.93c0.83-0.23,1.6-0.67,2.23-1.35l22.79-24.58C-430.85,163.12-430.45,161.73-430.61,160.4z"/>
		</g>
		<text transform="matrix(1 0 0 1 -402.4518 182.8444)" class="st19 st20 st21">SQR MINING</text>
	</g>
	<g>
		<g>
			
				<linearGradient id="SVGID_13_" gradientUnits="userSpaceOnUse" x1="-581.7551" y1="-46.746" x2="-465.3049" y2="-46.746" gradientTransform="matrix(0.2703 0.9628 -0.9628 0.2703 174.9238 592.8244)">
				<stop  offset="0" style="stop-color:#76CEDE"/>
				<stop  offset="1" style="stop-color:#A3D17A"/>
			</linearGradient>
			<polygon class="st15" points="78.64,136.55 47.16,24.43 85.48,41.65 109.68,127.84 			"/>
			
				<linearGradient id="SVGID_14_" gradientUnits="userSpaceOnUse" x1="-575.436" y1="-107.688" x2="-481.3652" y2="-54.2043" gradientTransform="matrix(0.2703 0.9628 -0.9628 0.2703 174.9238 592.8244)">
				<stop  offset="0" style="stop-color:#FAA32D"/>
				<stop  offset="0.5" style="stop-color:#FFCD05"/>
				<stop  offset="0.6889" style="stop-color:#E9D02E"/>
				<stop  offset="1" style="stop-color:#BAD75B"/>
			</linearGradient>
			<polygon class="st16" points="138.41,0 109.68,127.84 78.64,136.55 107.37,8.72 			"/>
			
				<linearGradient id="SVGID_15_" gradientUnits="userSpaceOnUse" x1="-551.0624" y1="-108.2394" x2="-528.2387" y2="-55.0778" gradientTransform="matrix(0.2703 0.9628 -0.9628 0.2703 174.9238 592.8244)">
				<stop  offset="0" style="stop-color:#931A1D"/>
				<stop  offset="0.8419" style="stop-color:#FFCD05;stop-opacity:0"/>
			</linearGradient>
			<polygon class="st17" points="107.37,8.72 93.48,70.13 119.21,84.58 129.52,39.92 			"/>
			
				<linearGradient id="SVGID_16_" gradientUnits="userSpaceOnUse" x1="-580.6143" y1="-108.9594" x2="-475.924" y2="-108.9594" gradientTransform="matrix(0.2703 0.9628 -0.9628 0.2703 174.9238 592.8244)">
				<stop  offset="0" style="stop-color:#F47F4F"/>
				<stop  offset="1" style="stop-color:#EE3E96"/>
			</linearGradient>
			<polygon class="st18" points="138.41,0 169.89,112.12 131.57,94.9 107.37,8.72 			"/>
		</g>
		<text transform="matrix(1 0 0 1 -8.392334e-05 182.8445)" class="st19 st20 st21">New Tech</text>
	</g>
	<g>
		<g>
			<linearGradient id="SVGID_17_" gradientUnits="userSpaceOnUse" x1="108.4132" y1="368.0616" x2="108.4132" y2="232.2304">
				<stop  offset="0" style="stop-color:#FAA32D"/>
				<stop  offset="0.5" style="stop-color:#FFCD05"/>
				<stop  offset="0.6889" style="stop-color:#E9D02E"/>
				<stop  offset="1" style="stop-color:#BAD75B"/>
			</linearGradient>
			<path class="st22" d="M165.82,299.2l-13.45-50.22l-60.04-16.09l-43.95,43.95l16.09,60.03l60.04,16.1l43.95-43.95L165.82,299.2z
				 M132.25,316.76l-32.57,8.73l-23.84-23.84l1.81-6.77l6.92-25.79l32.57-8.73l23.83,23.84l-6.82,25.49L132.25,316.76z"/>
			<linearGradient id="SVGID_18_" gradientUnits="userSpaceOnUse" x1="108.4133" y1="323.7318" x2="108.4133" y2="261.5816">
				<stop  offset="0" style="stop-color:#6E6F72"/>
				<stop  offset="1" style="stop-color:#D2D3D4"/>
			</linearGradient>
			<polygon class="st23" points="123.53,284.2 123.53,301.65 108.41,310.38 93.3,301.65 93.3,284.2 108.41,275.48 123.24,284.04 			
				"/>
			<linearGradient id="SVGID_19_" gradientUnits="userSpaceOnUse" x1="120.0479" y1="232.5351" x2="107.4594" y2="301.0163">
				<stop  offset="0" style="stop-color:#FFFFFF"/>
				<stop  offset="1" style="stop-color:#FFFFFF;stop-opacity:0"/>
			</linearGradient>
			<path class="st24" d="M134.15,309.69l6.82-25.49l-23.83-23.84l-32.57,8.73l-6.92,25.79c-10.66-6.95-18.56-15.63-22.54-24.77
				l37.21-37.21l60.04,16.09l13.45,50.22C157.91,305.21,146.79,308.88,134.15,309.69z"/>
			<linearGradient id="SVGID_20_" gradientUnits="userSpaceOnUse" x1="105.6736" y1="276.0829" x2="109.9297" y2="294.7935">
				<stop  offset="0" style="stop-color:#FFFFFF"/>
				<stop  offset="1" style="stop-color:#FFFFFF;stop-opacity:0"/>
			</linearGradient>
			<path class="st25" d="M123.24,284.04c-1.22,7.39-8.17,13.05-16.56,13.05c-5.47,0-10.33-2.41-13.38-6.14v-6.75l15.11-8.72
				L123.24,284.04z"/>
		</g>
		<text transform="matrix(1 0 0 1 -26.6807 407.5292)" class="st20 st21">STONE CORP</text>
	</g>
	<g>
		<g>
			<g>
				<linearGradient id="SVGID_21_" gradientUnits="userSpaceOnUse" x1="80.6162" y1="637.7269" x2="134.1176" y2="536.477">
					<stop  offset="0" style="stop-color:#6E6F72"/>
					<stop  offset="1" style="stop-color:#D2D3D4"/>
				</linearGradient>
				<polygon class="st26" points="168.83,596.73 101.69,628.66 49.23,572.24 61.98,547.73 61.98,547.72 83.96,505.46 157.87,520.59 
					163.12,557.13 163.2,557.65 				"/>
				<radialGradient id="SVGID_22_" cx="109.0295" cy="567.0613" r="59.041" gradientUnits="userSpaceOnUse">
					<stop  offset="0" style="stop-color:#595A5C"/>
					<stop  offset="1" style="stop-color:#1F2020"/>
				</radialGradient>
				<polygon class="st27" points="147.96,530.76 151.62,558.62 155.61,588.81 102.76,614.03 62.45,571.55 73.28,551.61 90.39,520.1 
									"/>
				<linearGradient id="SVGID_23_" gradientUnits="userSpaceOnUse" x1="93.6037" y1="500.717" x2="48.849" y2="584.632">
					<stop  offset="0" style="stop-color:#FAA32D"/>
					<stop  offset="0.5" style="stop-color:#FFCD05"/>
					<stop  offset="0.6889" style="stop-color:#E9D02E"/>
					<stop  offset="1" style="stop-color:#BAD75B"/>
				</linearGradient>
				<polygon class="st28" points="90.39,520.1 69.23,559.07 62.45,571.55 49.23,572.24 61.98,547.73 61.98,547.72 83.96,505.46 				
					"/>
				<linearGradient id="SVGID_24_" gradientUnits="userSpaceOnUse" x1="50.7444" y1="563.2321" x2="103.8911" y2="626.1691">
					<stop  offset="0" style="stop-color:#A3D17A"/>
					<stop  offset="1" style="stop-color:#76CEDE"/>
				</linearGradient>
				<polygon class="st29" points="62.45,571.55 49.23,572.25 101.69,628.66 102.76,614.03 				"/>
				<linearGradient id="SVGID_25_" gradientUnits="userSpaceOnUse" x1="96.7927" y1="627.712" x2="178.6105" y2="580.8591">
					<stop  offset="0" style="stop-color:#6FCDDE"/>
					<stop  offset="0.4898" style="stop-color:#00AFD8"/>
					<stop  offset="0.9847" style="stop-color:#6457A5"/>
				</linearGradient>
				<polygon class="st30" points="155.61,588.81 102.76,614.03 101.69,628.66 168.83,596.73 				"/>
				<linearGradient id="SVGID_26_" gradientUnits="userSpaceOnUse" x1="153.6945" y1="524.7934" x2="163.4842" y2="605.9086">
					<stop  offset="0.0459" style="stop-color:#843C97"/>
					<stop  offset="0.449" style="stop-color:#6457A5"/>
					<stop  offset="1" style="stop-color:#2F8CCC"/>
				</linearGradient>
				<polygon class="st31" points="168.83,596.73 155.61,588.82 152.76,567.22 147.96,530.77 157.87,520.59 163.21,557.64 				"/>
				<linearGradient id="SVGID_27_" gradientUnits="userSpaceOnUse" x1="83.9557" y1="518.1143" x2="157.8677" y2="518.1143">
					<stop  offset="0" style="stop-color:#F47F4F"/>
					<stop  offset="1" style="stop-color:#EE3E96"/>
				</linearGradient>
				<polygon class="st32" points="157.87,520.59 147.96,530.77 90.39,520.1 83.96,505.46 				"/>
			</g>
			<linearGradient id="SVGID_28_" gradientUnits="userSpaceOnUse" x1="106.5002" y1="490.4684" x2="114.5418" y2="572.6075">
				<stop  offset="0" style="stop-color:#FFFFFF"/>
				<stop  offset="1" style="stop-color:#FFFFFF;stop-opacity:0"/>
			</linearGradient>
			<path class="st33" d="M163.21,557.64c-0.01,0-0.01,0.01-0.01,0.02c-2.91,3.57-6.42,6.79-10.44,9.57h-0.01
				c-9.94,6.89-22.93,11.06-37.14,11.06c-19.19,0-36.14-7.6-46.38-19.21c-3.05-3.46-5.5-7.27-7.25-11.35v-0.01l21.98-42.26
				l73.91,15.13L163.21,557.64z"/>
		</g>
		
			<radialGradient id="SVGID_29_" cx="101.4409" cy="546.5093" r="69.6165" gradientTransform="matrix(1.018 3.677946e-03 -2.473209e-04 0.1189 10.0355 599.9241)" gradientUnits="userSpaceOnUse">
			<stop  offset="0" style="stop-color:#010101"/>
			<stop  offset="0.9374" style="stop-color:#010101;stop-opacity:0"/>
		</radialGradient>
		<ellipse class="st34" cx="109.03" cy="664.18" rx="78.25" ry="18.29"/>
	</g>
	<g>
		<g>
			
				<linearGradient id="SVGID_30_" gradientUnits="userSpaceOnUse" x1="-86.2622" y1="415.4588" x2="-14.5912" y2="487.1298" gradientTransform="matrix(0 -1 1 0 -574.9535 524.0099)">
				<stop  offset="0" style="stop-color:#6E6F72"/>
				<stop  offset="1" style="stop-color:#D2D3D4"/>
			</linearGradient>
			<polygon class="st35" points="-108.28,518.14 -108.28,630.73 -139.04,630.73 -139.04,518.14 			"/>
			<g>
				<linearGradient id="SVGID_31_" gradientUnits="userSpaceOnUse" x1="-86.6036" y1="601.0674" x2="-88.5447" y2="489.8071">
					<stop  offset="0" style="stop-color:#056C94"/>
					<stop  offset="1" style="stop-color:#33C4EA"/>
				</linearGradient>
				<polygon class="st36" points="-71.82,518.14 -71.82,630.22 -72.14,630.57 -102.57,616.26 -102.57,518.14 				"/>
				<linearGradient id="SVGID_32_" gradientUnits="userSpaceOnUse" x1="-106.0918" y1="661.0045" x2="-21.9861" y2="541.3875">
					<stop  offset="0" style="stop-color:#4F69B2"/>
					<stop  offset="0.4796" style="stop-color:#00AFD8"/>
					<stop  offset="1" style="stop-color:#6FCDDE"/>
				</linearGradient>
				<polygon class="st37" points="-7.46,560.46 -71.82,630.22 -72.14,630.57 -102.57,616.26 -71.82,582.93 -29.14,536.68 				"/>
			</g>
		</g>
		
			<radialGradient id="SVGID_33_" cx="-77.8723" cy="547.3274" r="65.168" gradientTransform="matrix(1.018 3.677946e-03 -2.473209e-04 0.1189 10.035 601.584)" gradientUnits="userSpaceOnUse">
			<stop  offset="0" style="stop-color:#010101"/>
			<stop  offset="0.9374" style="stop-color:#010101;stop-opacity:0"/>
		</radialGradient>
		<ellipse class="st38" cx="-73.25" cy="665.35" rx="73.25" ry="17.12"/>
	</g>
	<g>
		<g>
			
				<linearGradient id="SVGID_34_" gradientUnits="userSpaceOnUse" x1="-343.1141" y1="517.6393" x2="-304.3905" y2="517.6393" gradientTransform="matrix(0.7071 0.7071 -0.7071 0.7071 313.2074 354.2516)">
				<stop  offset="0" style="stop-color:#056C94"/>
				<stop  offset="1" style="stop-color:#33C4EA"/>
			</linearGradient>
			<polygon class="st39" points="-281.74,518.73 -309.12,491.35 -281.74,463.97 -254.36,491.35 			"/>
			
				<linearGradient id="SVGID_35_" gradientUnits="userSpaceOnUse" x1="-298.9759" y1="517.6393" x2="-260.2522" y2="517.6393" gradientTransform="matrix(0.7071 0.7071 -0.7071 0.7071 313.2074 354.2516)">
				<stop  offset="0" style="stop-color:#056C94"/>
				<stop  offset="1" style="stop-color:#33C4EA"/>
			</linearGradient>
			<polygon class="st40" points="-250.53,549.94 -277.91,522.56 -250.53,495.18 -223.15,522.56 			"/>
			
				<linearGradient id="SVGID_36_" gradientUnits="userSpaceOnUse" x1="-254.8376" y1="517.6393" x2="-216.114" y2="517.6393" gradientTransform="matrix(0.7071 0.7071 -0.7071 0.7071 313.2074 354.2516)">
				<stop  offset="0" style="stop-color:#F47F4F"/>
				<stop  offset="1" style="stop-color:#EE3E96"/>
			</linearGradient>
			<polygon class="st41" points="-219.32,581.15 -246.7,553.77 -219.32,526.39 -191.94,553.77 			"/>
			
				<linearGradient id="SVGID_37_" gradientUnits="userSpaceOnUse" x1="-298.9759" y1="561.8034" x2="-260.2522" y2="561.8034" gradientTransform="matrix(0.7071 0.7071 -0.7071 0.7071 313.2074 354.2516)">
				<stop  offset="0" style="stop-color:#056C94"/>
				<stop  offset="1" style="stop-color:#33C4EA"/>
			</linearGradient>
			<polygon class="st42" points="-281.76,581.17 -309.14,553.79 -281.76,526.41 -254.38,553.79 			"/>
			
				<linearGradient id="SVGID_38_" gradientUnits="userSpaceOnUse" x1="-254.8376" y1="561.8034" x2="-216.114" y2="561.8034" gradientTransform="matrix(0.7071 0.7071 -0.7071 0.7071 313.2074 354.2516)">
				<stop  offset="0" style="stop-color:#BAD75B"/>
				<stop  offset="0.3111" style="stop-color:#E9D02E"/>
				<stop  offset="0.5" style="stop-color:#FFCD05"/>
				<stop  offset="1" style="stop-color:#FAA32D"/>
			</linearGradient>
			<polygon class="st43" points="-250.55,612.38 -277.93,585 -250.55,557.62 -223.17,585 			"/>
			
				<linearGradient id="SVGID_39_" gradientUnits="userSpaceOnUse" x1="-254.8376" y1="605.9675" x2="-216.114" y2="605.9675" gradientTransform="matrix(0.7071 0.7071 -0.7071 0.7071 313.2074 354.2516)">
				<stop  offset="0" style="stop-color:#BAD75B"/>
				<stop  offset="0.3111" style="stop-color:#E9D02E"/>
				<stop  offset="0.5" style="stop-color:#FFCD05"/>
				<stop  offset="1" style="stop-color:#FAA32D"/>
			</linearGradient>
			<polygon class="st44" points="-281.78,643.61 -309.16,616.23 -281.78,588.84 -254.4,616.23 			"/>
		</g>
		
			<radialGradient id="SVGID_40_" cx="-251.3128" cy="545.0367" r="77.6238" gradientTransform="matrix(1.018 3.677946e-03 -2.473209e-04 0.1189 10.0338 599.4207)" gradientUnits="userSpaceOnUse">
			<stop  offset="0" style="stop-color:#010101"/>
			<stop  offset="0.9374" style="stop-color:#010101;stop-opacity:0"/>
		</radialGradient>
		<ellipse class="st45" cx="-250.55" cy="662.08" rx="87.25" ry="20.39"/>
	</g>
	<g>
		<g>
			<linearGradient id="SVGID_41_" gradientUnits="userSpaceOnUse" x1="-444.5087" y1="640.4286" x2="-444.5087" y2="463.3062">
				<stop  offset="0.0153" style="stop-color:#6457A5"/>
				<stop  offset="0.5102" style="stop-color:#00AFD8"/>
				<stop  offset="1" style="stop-color:#6FCDDE"/>
			</linearGradient>
			<path class="st46" d="M-444.5,474.06c-41.87,0-75.81,33.94-75.81,75.81c0,41.86,33.94,75.81,75.81,75.81
				c41.86,0,75.8-33.95,75.8-75.81C-368.71,508-402.64,474.06-444.5,474.06z M-444.5,585.42c-18.9,0-34.21-15.32-34.21-34.21
				c0-18.9,15.31-34.21,34.21-34.21c18.89,0,34.2,15.31,34.2,34.21C-410.3,570.1-425.61,585.42-444.5,585.42z"/>
			<radialGradient id="SVGID_42_" cx="-445.8453" cy="552.5494" r="72.3748" gradientUnits="userSpaceOnUse">
				<stop  offset="0" style="stop-color:#FFCD05"/>
				<stop  offset="0.3275" style="stop-color:#FFCB07"/>
				<stop  offset="0.4877" style="stop-color:#FEC60F"/>
				<stop  offset="0.6116" style="stop-color:#FDBC17"/>
				<stop  offset="0.7168" style="stop-color:#FBAF1F"/>
				<stop  offset="0.8102" style="stop-color:#F89E26"/>
				<stop  offset="0.8952" style="stop-color:#F6892B"/>
				<stop  offset="0.9722" style="stop-color:#F3702F"/>
				<stop  offset="1" style="stop-color:#F26430"/>
			</radialGradient>
			<path class="st47" d="M-444.5,479.43c-30.01,0-54.34,24.32-54.34,54.34c0,30.01,24.33,54.33,54.34,54.33
				c30.01,0,54.34-24.32,54.34-54.33C-390.17,503.75-414.5,479.43-444.5,479.43z M-444.5,585.42c-18.9,0-34.21-15.32-34.21-34.21
				c0-18.9,15.31-34.21,34.21-34.21c18.89,0,34.2,15.31,34.2,34.21C-410.3,570.1-425.61,585.42-444.5,585.42z"/>
		</g>
		
			<radialGradient id="SVGID_43_" cx="-441.7052" cy="544.602" r="79.9877" gradientTransform="matrix(1.018 3.677946e-03 -2.473209e-04 0.1189 10.0329 599.5894)" gradientUnits="userSpaceOnUse">
			<stop  offset="0" style="stop-color:#010101"/>
			<stop  offset="0.9374" style="stop-color:#010101;stop-opacity:0"/>
		</radialGradient>
		<ellipse class="st48" cx="-444.51" cy="661.46" rx="89.9" ry="21.01"/>
	</g>
	<g>
		<radialGradient id="SVGID_44_" cx="-76.9143" cy="325.248" r="69.9748" gradientUnits="userSpaceOnUse">
			<stop  offset="0" style="stop-color:#F47F4F"/>
			<stop  offset="1" style="stop-color:#EE3E96"/>
		</radialGradient>
		<path class="st49" d="M-74.27,317.73c-5.54,0-10.02,4.49-10.02,10.02c0,1.28,0.24,2.5,0.68,3.62c1.45,3.75,5.08,6.4,9.34,6.4
			c4.26,0,7.9-2.66,9.34-6.4c0.44-1.12,0.68-2.34,0.68-3.62C-64.24,322.22-68.73,317.73-74.27,317.73z M-45.99,313.67l29.41-29.41
			l-14.28-14.28l-33.32,33.32v-45.28h-20.19v45.6l-32.74-32.74l-14.28,14.28l28.51,28.51h-36.52v20.19h50.49
			c-0.69-1.76-1.07-3.67-1.07-5.67c0-8.66,7.02-15.69,15.69-15.69c8.66,0,15.69,7.03,15.69,15.69c0,2-0.37,3.91-1.07,5.67h50.49
			v-20.19H-45.99z"/>
		
			<radialGradient id="SVGID_45_" cx="-87.3387" cy="373.9124" r="52.5887" gradientTransform="matrix(1.2633 4.609904e-03 -3.069160e-04 0.1491 43.2963 374.7071)" gradientUnits="userSpaceOnUse">
			<stop  offset="0" style="stop-color:#010101"/>
			<stop  offset="0.9374" style="stop-color:#010101;stop-opacity:0"/>
		</radialGradient>
		<ellipse class="st50" cx="-71.03" cy="428.99" rx="73.35" ry="17.31"/>
	</g>
	<g>
		<g>
			<g>
				<linearGradient id="SVGID_46_" gradientUnits="userSpaceOnUse" x1="-299.8312" y1="352.2105" x2="-299.8312" y2="246.0523">
					<stop  offset="0" style="stop-color:#056C94"/>
					<stop  offset="1" style="stop-color:#33C4EA"/>
				</linearGradient>
				<path class="st51" d="M-298.64,359.93h-2.37c-6.6,0-12-5.4-12-12V241.34c0-6.6,5.4-12,12-12h2.37c6.6,0,12,5.4,12,12v106.59
					C-286.64,354.53-292.04,359.93-298.64,359.93z"/>
				<linearGradient id="SVGID_47_" gradientUnits="userSpaceOnUse" x1="-268.3106" y1="397.8831" x2="-268.3106" y2="250.459">
					<stop  offset="0" style="stop-color:#6E6F72"/>
					<stop  offset="1" style="stop-color:#D2D3D4"/>
				</linearGradient>
				<path class="st52" d="M-267.12,390.81h-2.37c-6.6,0-12-5.4-12-12V272.22c0-6.6,5.4-12,12-12h2.37c6.6,0,12,5.4,12,12v106.59
					C-255.12,385.41-260.52,390.81-267.12,390.81z"/>
				<linearGradient id="SVGID_48_" gradientUnits="userSpaceOnUse" x1="-236.7901" y1="352.2105" x2="-236.7901" y2="246.0523">
					<stop  offset="0" style="stop-color:#056C94"/>
					<stop  offset="1" style="stop-color:#33C4EA"/>
				</linearGradient>
				<path class="st53" d="M-235.6,359.93h-2.37c-6.6,0-12-5.4-12-12V241.34c0-6.6,5.4-12,12-12h2.37c6.6,0,12,5.4,12,12v106.59
					C-223.6,354.53-229,359.93-235.6,359.93z"/>
				<linearGradient id="SVGID_49_" gradientUnits="userSpaceOnUse" x1="-205.2695" y1="352.2105" x2="-205.2695" y2="246.0523">
					<stop  offset="0" style="stop-color:#056C94"/>
					<stop  offset="1" style="stop-color:#33C4EA"/>
				</linearGradient>
				<path class="st54" d="M-204.08,359.93h-2.37c-6.6,0-12-5.4-12-12V241.34c0-6.6,5.4-12,12-12h2.37c6.6,0,12,5.4,12,12v106.59
					C-192.08,354.53-197.48,359.93-204.08,359.93z"/>
			</g>
			<linearGradient id="SVGID_50_" gradientUnits="userSpaceOnUse" x1="-300.1529" y1="223.1049" x2="-300.1529" y2="289.1049">
				<stop  offset="0" style="stop-color:#FFFFFF"/>
				<stop  offset="1" style="stop-color:#FFFFFF;stop-opacity:0"/>
			</linearGradient>
			<path class="st55" d="M-300.15,279.26L-300.15,279.26c-6.37,0-11.58-5.21-11.58-11.58v-25.47c0-6.37,5.21-11.58,11.58-11.58h0
				c6.37,0,11.58,5.21,11.58,11.58v25.47C-288.57,274.05-293.78,279.26-300.15,279.26z"/>
			<linearGradient id="SVGID_51_" gradientUnits="userSpaceOnUse" x1="-205.5911" y1="223.1049" x2="-205.5911" y2="289.1049">
				<stop  offset="0" style="stop-color:#FFFFFF"/>
				<stop  offset="1" style="stop-color:#FFFFFF;stop-opacity:0"/>
			</linearGradient>
			<path class="st56" d="M-205.59,279.26L-205.59,279.26c-6.37,0-11.58-5.21-11.58-11.58v-25.47c0-6.37,5.21-11.58,11.58-11.58l0,0
				c6.37,0,11.58,5.21,11.58,11.58v25.47C-194.01,274.05-199.22,279.26-205.59,279.26z"/>
			<linearGradient id="SVGID_52_" gradientUnits="userSpaceOnUse" x1="-237.1117" y1="223.1049" x2="-237.1117" y2="289.1049">
				<stop  offset="0" style="stop-color:#FFFFFF"/>
				<stop  offset="1" style="stop-color:#FFFFFF;stop-opacity:0"/>
			</linearGradient>
			<path class="st57" d="M-237.11,279.26L-237.11,279.26c-6.37,0-11.58-5.21-11.58-11.58v-25.47c0-6.37,5.21-11.58,11.58-11.58l0,0
				c6.37,0,11.58,5.21,11.58,11.58v25.47C-225.53,274.05-230.74,279.26-237.11,279.26z"/>
			<linearGradient id="SVGID_53_" gradientUnits="userSpaceOnUse" x1="-267.989" y1="254.6254" x2="-267.989" y2="320.6255">
				<stop  offset="0" style="stop-color:#FFFFFF"/>
				<stop  offset="1" style="stop-color:#FFFFFF;stop-opacity:0"/>
			</linearGradient>
			<path class="st58" d="M-267.99,310.78L-267.99,310.78c-6.37,0-11.58-5.21-11.58-11.58v-25.47c0-6.37,5.21-11.58,11.58-11.58l0,0
				c6.37,0,11.58,5.21,11.58,11.58v25.47C-256.41,305.57-261.62,310.78-267.99,310.78z"/>
		</g>
		
			<radialGradient id="SVGID_54_" cx="-253.279" cy="370.5222" r="77.6238" gradientTransform="matrix(1.018 3.677946e-03 -2.473209e-04 0.1189 9.9906 386.0189)" gradientUnits="userSpaceOnUse">
			<stop  offset="0" style="stop-color:#010101"/>
			<stop  offset="0.9374" style="stop-color:#010101;stop-opacity:0"/>
		</radialGradient>
		<ellipse class="st59" cx="-252.55" cy="427.92" rx="87.25" ry="20.39"/>
	</g>
	<g>
		<g>
			<linearGradient id="SVGID_55_" gradientUnits="userSpaceOnUse" x1="-521.0704" y1="280.6374" x2="-473.7373" y2="280.6374">
				<stop  offset="0" style="stop-color:#056C94"/>
				<stop  offset="1" style="stop-color:#33C4EA"/>
			</linearGradient>
			<rect x="-521.07" y="256.97" class="st60" width="47.33" height="47.33"/>
			<linearGradient id="SVGID_56_" gradientUnits="userSpaceOnUse" x1="-467.2289" y1="280.6374" x2="-419.8957" y2="280.6374">
				<stop  offset="0" style="stop-color:#056C94"/>
				<stop  offset="1" style="stop-color:#33C4EA"/>
			</linearGradient>
			<rect x="-467.23" y="256.97" class="st61" width="47.33" height="47.33"/>
			<linearGradient id="SVGID_57_" gradientUnits="userSpaceOnUse" x1="-467.2289" y1="333.5914" x2="-419.8957" y2="333.5914">
				<stop  offset="0" style="stop-color:#FAA32D"/>
				<stop  offset="0.5" style="stop-color:#FFCD05"/>
				<stop  offset="0.6889" style="stop-color:#E9D02E"/>
				<stop  offset="1" style="stop-color:#BAD75B"/>
			</linearGradient>
			<rect x="-467.23" y="309.92" class="st62" width="47.33" height="47.33"/>
			<linearGradient id="SVGID_58_" gradientUnits="userSpaceOnUse" x1="-413.979" y1="333.5914" x2="-366.6458" y2="333.5914">
				<stop  offset="0" style="stop-color:#BAD75B"/>
				<stop  offset="0.3111" style="stop-color:#E9D02E"/>
				<stop  offset="0.5" style="stop-color:#FFCD05"/>
				<stop  offset="1" style="stop-color:#FAA32D"/>
			</linearGradient>
			<rect x="-413.98" y="309.92" class="st63" width="47.33" height="47.33"/>
			<linearGradient id="SVGID_59_" gradientUnits="userSpaceOnUse" x1="-443.5623" y1="410.2121" x2="-443.5623" y2="362.8788">
				<stop  offset="0" style="stop-color:#76CEDE"/>
				<stop  offset="1" style="stop-color:#A3D17A"/>
			</linearGradient>
			<rect x="-467.23" y="362.88" class="st64" width="47.33" height="47.33"/>
		</g>
		
			<radialGradient id="SVGID_60_" cx="-441.5675" cy="371.6675" r="71.3959" gradientTransform="matrix(1.018 3.677946e-03 -2.473209e-04 0.1189 9.9902 388.112)" gradientUnits="userSpaceOnUse">
			<stop  offset="0" style="stop-color:#010101"/>
			<stop  offset="0.9374" style="stop-color:#010101;stop-opacity:0"/>
		</radialGradient>
		<ellipse class="st65" cx="-443.86" cy="429.55" rx="80.25" ry="18.75"/>
	</g>
</g>
</svg>
