<?xml version="1.0" encoding="utf-8"?>
<!-- Generator: Adobe Illustrator 24.1.2, SVG Export Plug-In . SVG Version: 6.00 Build 0)  -->
<svg version="1.1" xmlns="http://www.w3.org/2000/svg" xmlns:xlink="http://www.w3.org/1999/xlink" x="0px" y="0px"
	 viewBox="0 0 341.18 120.18" style="enable-background:new 0 0 341.18 120.18;" xml:space="preserve">
<style type="text/css">
	.st0{fill:#424143;}
	.st1{fill:url(#SVGID_1_);}
	.st2{fill:url(#SVGID_2_);}
	.st3{fill:url(#SVGID_3_);}
	.st4{fill:url(#SVGID_4_);}
	.st5{opacity:0.54;fill:url(#SVGID_5_);}
	.st6{opacity:0.65;fill:url(#SVGID_6_);}
	.st7{opacity:0.65;fill:url(#SVGID_7_);}
	.st8{opacity:0.65;fill:url(#SVGID_8_);}
	.st9{fill:#F7941D;}
	.st10{fill:#FFFFFF;}
	.st11{font-family:'Ancillary-Bold';}
	.st12{font-size:60px;}
	.st13{fill:url(#SVGID_9_);}
	.st14{fill:url(#SVGID_10_);}
	.st15{fill:url(#SVGID_11_);}
	.st16{fill:url(#SVGID_12_);}
	.st17{opacity:0.24;fill:url(#SVGID_13_);}
	.st18{fill:url(#SVGID_14_);}
	.st19{fill:url(#SVGID_15_);}
	.st20{fill:url(#SVGID_16_);}
	.st21{fill:url(#SVGID_17_);}
	.st22{opacity:0.24;fill:url(#SVGID_18_);}
	.st23{fill:url(#SVGID_19_);}
	.st24{fill:url(#SVGID_20_);}
	.st25{opacity:0.78;fill:url(#SVGID_21_);}
	.st26{opacity:0.54;fill:url(#SVGID_22_);}
	.st27{opacity:0.24;fill:url(#SVGID_23_);}
	.st28{fill:url(#SVGID_24_);}
	.st29{fill:url(#SVGID_25_);}
	.st30{fill:url(#SVGID_26_);}
	.st31{fill:url(#SVGID_27_);}
	.st32{fill:url(#SVGID_28_);}
	.st33{fill:url(#SVGID_29_);}
	.st34{fill:url(#SVGID_30_);}
	.st35{opacity:0.65;fill:url(#SVGID_31_);}
	.st36{opacity:0.24;fill:url(#SVGID_32_);}
	.st37{fill:url(#SVGID_33_);}
	.st38{fill:url(#SVGID_34_);}
	.st39{fill:url(#SVGID_35_);}
	.st40{opacity:0.24;fill:url(#SVGID_36_);}
	.st41{fill:url(#SVGID_37_);}
	.st42{fill:url(#SVGID_38_);}
	.st43{fill:url(#SVGID_39_);}
	.st44{fill:url(#SVGID_40_);}
	.st45{fill:url(#SVGID_41_);}
	.st46{fill:url(#SVGID_42_);}
	.st47{opacity:0.24;fill:url(#SVGID_43_);}
	.st48{fill:url(#SVGID_44_);}
	.st49{fill:url(#SVGID_45_);}
	.st50{opacity:0.24;fill:url(#SVGID_46_);}
	.st51{fill:url(#SVGID_47_);}
	.st52{opacity:0.24;fill:url(#SVGID_48_);}
	.st53{fill:url(#SVGID_49_);}
	.st54{fill:url(#SVGID_50_);}
	.st55{fill:url(#SVGID_51_);}
	.st56{fill:url(#SVGID_52_);}
	.st57{opacity:0.54;fill:url(#SVGID_53_);}
	.st58{opacity:0.54;fill:url(#SVGID_54_);}
	.st59{opacity:0.54;fill:url(#SVGID_55_);}
	.st60{opacity:0.54;fill:url(#SVGID_56_);}
	.st61{opacity:0.24;fill:url(#SVGID_57_);}
	.st62{fill:url(#SVGID_58_);}
	.st63{fill:url(#SVGID_59_);}
	.st64{fill:url(#SVGID_60_);}
	.st65{fill:url(#SVGID_61_);}
	.st66{fill:url(#SVGID_62_);}
	.st67{opacity:0.24;fill:url(#SVGID_63_);}
</style>
<g id="background">
	<g>
		<g>
			<g>
				<path class="st0" d="M58.85,708.74v-0.19c-0.25,0.29-0.49,0.52-0.73,0.7c-0.24,0.18-0.5,0.31-0.79,0.41
					c-0.28,0.09-0.59,0.14-0.92,0.14c-0.44,0-0.85-0.09-1.23-0.28c-0.38-0.18-0.71-0.45-0.98-0.8c-0.28-0.34-0.49-0.75-0.63-1.22
					c-0.14-0.47-0.21-0.98-0.21-1.52c0-1.16,0.28-2.06,0.85-2.71c0.57-0.65,1.31-0.97,2.23-0.97c0.54,0,0.98,0.09,1.35,0.27
					c0.37,0.18,0.72,0.46,1.07,0.84v-2.72c0-0.38,0.08-0.66,0.23-0.86c0.15-0.2,0.37-0.29,0.64-0.29c0.28,0,0.5,0.09,0.65,0.27
					c0.15,0.18,0.23,0.44,0.23,0.79v8.16c0,0.35-0.08,0.62-0.24,0.79c-0.17,0.17-0.37,0.26-0.63,0.26c-0.25,0-0.46-0.09-0.62-0.27
					C58.93,709.35,58.85,709.08,58.85,708.74z M55.21,706.03c0,0.5,0.08,0.93,0.23,1.28c0.16,0.36,0.37,0.62,0.64,0.8
					c0.27,0.18,0.57,0.27,0.89,0.27c0.32,0,0.62-0.09,0.89-0.26c0.27-0.17,0.48-0.42,0.64-0.78c0.16-0.36,0.24-0.79,0.24-1.31
					c0-0.5-0.08-0.92-0.24-1.27c-0.16-0.36-0.38-0.63-0.65-0.82c-0.27-0.19-0.57-0.28-0.9-0.28c-0.34,0-0.64,0.1-0.91,0.29
					c-0.26,0.2-0.47,0.47-0.62,0.83C55.29,705.14,55.21,705.55,55.21,706.03z"/>
				<path class="st0" d="M67.62,706.49H64c0,0.42,0.09,0.79,0.25,1.11c0.17,0.32,0.38,0.57,0.66,0.72c0.27,0.17,0.57,0.24,0.9,0.24
					c0.22,0,0.42-0.02,0.61-0.07c0.18-0.05,0.36-0.14,0.53-0.25c0.17-0.11,0.33-0.23,0.48-0.36c0.14-0.13,0.33-0.3,0.56-0.51
					c0.09-0.08,0.23-0.13,0.41-0.13c0.19,0,0.34,0.05,0.46,0.15c0.12,0.11,0.18,0.26,0.18,0.44c0,0.17-0.07,0.36-0.2,0.59
					c-0.13,0.23-0.33,0.44-0.6,0.64c-0.26,0.21-0.59,0.38-1,0.52c-0.4,0.13-0.86,0.2-1.38,0.2c-1.19,0-2.11-0.34-2.77-1.02
					c-0.66-0.68-0.99-1.59-0.99-2.76c0-0.55,0.08-1.06,0.24-1.52c0.17-0.47,0.4-0.87,0.71-1.2c0.31-0.34,0.7-0.59,1.15-0.77
					c0.46-0.18,0.96-0.26,1.52-0.26c0.72,0,1.34,0.15,1.85,0.46c0.52,0.3,0.91,0.7,1.17,1.18c0.26,0.48,0.38,0.98,0.38,1.48
					c0,0.46-0.13,0.77-0.4,0.9C68.48,706.42,68.1,706.49,67.62,706.49z M64,705.45h3.35c-0.04-0.64-0.21-1.1-0.51-1.42
					c-0.29-0.31-0.69-0.47-1.17-0.47c-0.46,0-0.84,0.16-1.13,0.47C64.25,704.35,64.06,704.82,64,705.45z"/>
				<path class="st0" d="M76.66,707.38c0,0.51-0.12,0.95-0.37,1.31c-0.25,0.37-0.62,0.64-1.1,0.83c-0.48,0.19-1.07,0.28-1.77,0.28
					c-0.66,0-1.23-0.1-1.71-0.3c-0.48-0.2-0.82-0.46-1.05-0.76c-0.22-0.31-0.34-0.62-0.34-0.92c0-0.2,0.07-0.38,0.22-0.52
					c0.15-0.15,0.33-0.22,0.55-0.22c0.19,0,0.34,0.05,0.44,0.14c0.11,0.09,0.21,0.23,0.3,0.4c0.19,0.33,0.42,0.57,0.68,0.74
					c0.26,0.16,0.63,0.25,1.08,0.25c0.37,0,0.67-0.08,0.91-0.25c0.24-0.17,0.35-0.36,0.35-0.56c0-0.33-0.12-0.57-0.37-0.72
					c-0.25-0.15-0.65-0.29-1.22-0.43c-0.63-0.16-1.15-0.32-1.55-0.49c-0.4-0.18-0.72-0.4-0.96-0.69c-0.24-0.29-0.36-0.64-0.36-1.05
					c0-0.37,0.11-0.72,0.33-1.05c0.22-0.33,0.55-0.59,0.98-0.79c0.44-0.2,0.95-0.29,1.56-0.29c0.48,0,0.91,0.05,1.29,0.15
					c0.38,0.1,0.7,0.23,0.96,0.4c0.26,0.16,0.45,0.35,0.58,0.55c0.13,0.2,0.2,0.4,0.2,0.6c0,0.21-0.07,0.39-0.21,0.52
					c-0.14,0.14-0.35,0.21-0.61,0.21c-0.19,0-0.35-0.05-0.49-0.16c-0.13-0.11-0.28-0.27-0.46-0.49c-0.14-0.18-0.31-0.32-0.5-0.43
					c-0.19-0.11-0.45-0.16-0.77-0.16c-0.33,0-0.61,0.08-0.83,0.22c-0.22,0.14-0.33,0.32-0.33,0.53c0,0.19,0.08,0.35,0.24,0.47
					c0.17,0.13,0.38,0.23,0.66,0.31c0.27,0.08,0.66,0.18,1.14,0.3c0.57,0.14,1.04,0.31,1.4,0.5c0.37,0.2,0.64,0.43,0.83,0.69
					C76.57,706.74,76.66,707.05,76.66,707.38z"/>
				<path class="st0" d="M79.17,701.42c-0.26,0-0.48-0.09-0.66-0.24c-0.18-0.16-0.28-0.38-0.28-0.67c0-0.26,0.09-0.48,0.28-0.65
					c0.19-0.17,0.4-0.25,0.65-0.25c0.24,0,0.45,0.08,0.63,0.23c0.19,0.16,0.28,0.38,0.28,0.67c0,0.28-0.09,0.51-0.27,0.67
					C79.63,701.34,79.41,701.42,79.17,701.42z M80.08,703.33v5.35c0,0.37-0.09,0.65-0.26,0.84c-0.18,0.19-0.4,0.29-0.67,0.29
					c-0.27,0-0.49-0.09-0.66-0.29c-0.17-0.19-0.25-0.47-0.25-0.83v-5.29c0-0.37,0.08-0.64,0.25-0.82c0.17-0.19,0.39-0.28,0.66-0.28
					c0.27,0,0.5,0.09,0.67,0.28C79.99,702.74,80.08,703,80.08,703.33z"/>
				<path class="st0" d="M88.79,703.63v5.38c0,0.61-0.06,1.14-0.2,1.58c-0.13,0.45-0.34,0.81-0.63,1.1
					c-0.29,0.28-0.67,0.5-1.14,0.64c-0.47,0.14-1.05,0.21-1.74,0.21c-0.64,0-1.21-0.09-1.71-0.26c-0.5-0.18-0.88-0.42-1.16-0.7
					c-0.27-0.28-0.4-0.57-0.4-0.87c0-0.23,0.08-0.41,0.23-0.55c0.15-0.14,0.34-0.22,0.56-0.22c0.27,0,0.51,0.12,0.71,0.36
					c0.1,0.12,0.2,0.24,0.31,0.37c0.11,0.12,0.22,0.23,0.35,0.32c0.13,0.09,0.28,0.15,0.46,0.2c0.18,0.04,0.39,0.06,0.62,0.06
					c0.48,0,0.85-0.06,1.12-0.2c0.26-0.13,0.45-0.32,0.56-0.56c0.1-0.24,0.16-0.5,0.18-0.77c0.02-0.28,0.03-0.71,0.04-1.32
					c-0.29,0.39-0.61,0.7-0.99,0.91c-0.37,0.21-0.81,0.32-1.33,0.32c-0.62,0-1.16-0.16-1.62-0.48c-0.46-0.31-0.82-0.76-1.07-1.33
					c-0.25-0.57-0.38-1.22-0.38-1.97c0-0.55,0.08-1.05,0.23-1.5c0.15-0.45,0.37-0.82,0.65-1.13c0.28-0.31,0.6-0.54,0.97-0.7
					c0.36-0.15,0.76-0.23,1.2-0.23c0.52,0,0.98,0.1,1.36,0.3c0.38,0.2,0.74,0.51,1.07,0.94v-0.24c0-0.32,0.08-0.57,0.24-0.75
					c0.16-0.18,0.36-0.26,0.61-0.26c0.36,0,0.59,0.12,0.71,0.35C88.73,702.86,88.79,703.19,88.79,703.63z M83.43,705.98
					c0,0.75,0.16,1.31,0.49,1.7c0.33,0.38,0.75,0.58,1.27,0.58c0.31,0,0.6-0.08,0.87-0.25c0.27-0.17,0.5-0.41,0.67-0.74
					c0.17-0.33,0.26-0.74,0.26-1.21c0-0.76-0.17-1.34-0.5-1.76c-0.33-0.42-0.77-0.63-1.31-0.63c-0.53,0-0.95,0.2-1.27,0.61
					C83.59,704.67,83.43,705.24,83.43,705.98z"/>
				<path class="st0" d="M92.34,703.3v0.22c0.33-0.43,0.68-0.75,1.07-0.94c0.39-0.2,0.83-0.3,1.33-0.3c0.49,0,0.92,0.11,1.31,0.31
					c0.38,0.21,0.67,0.51,0.86,0.9c0.12,0.22,0.2,0.47,0.24,0.73c0.04,0.27,0.06,0.6,0.06,1.01v3.44c0,0.37-0.09,0.65-0.25,0.84
					c-0.17,0.19-0.39,0.29-0.66,0.29c-0.28,0-0.5-0.09-0.67-0.29c-0.17-0.19-0.26-0.47-0.26-0.83v-3.08c0-0.61-0.08-1.08-0.25-1.4
					c-0.17-0.32-0.51-0.48-1.01-0.48c-0.33,0-0.63,0.09-0.9,0.29c-0.27,0.19-0.47,0.46-0.59,0.8c-0.09,0.28-0.14,0.8-0.14,1.55v2.32
					c0,0.38-0.09,0.66-0.26,0.84c-0.18,0.19-0.4,0.28-0.67,0.28c-0.27,0-0.49-0.09-0.66-0.29c-0.17-0.19-0.26-0.47-0.26-0.83v-5.35
					c0-0.35,0.08-0.62,0.23-0.79c0.15-0.18,0.36-0.26,0.63-0.26c0.16,0,0.31,0.04,0.44,0.11c0.13,0.08,0.24,0.2,0.31,0.35
					C92.3,702.9,92.34,703.08,92.34,703.3z"/>
				<path class="st0" d="M104.21,706.49h-3.62c0,0.42,0.08,0.79,0.25,1.11c0.16,0.32,0.38,0.57,0.66,0.72
					c0.28,0.17,0.58,0.24,0.91,0.24c0.22,0,0.42-0.02,0.61-0.07c0.18-0.05,0.36-0.14,0.54-0.25c0.17-0.11,0.33-0.23,0.47-0.36
					c0.15-0.13,0.33-0.3,0.56-0.51c0.1-0.08,0.23-0.13,0.41-0.13c0.19,0,0.34,0.05,0.46,0.15c0.12,0.11,0.18,0.26,0.18,0.44
					c0,0.17-0.06,0.36-0.19,0.59c-0.13,0.23-0.33,0.44-0.6,0.64c-0.26,0.21-0.59,0.38-1,0.52c-0.4,0.13-0.86,0.2-1.38,0.2
					c-1.19,0-2.11-0.34-2.77-1.02c-0.66-0.68-0.99-1.59-0.99-2.76c0-0.55,0.08-1.06,0.24-1.52c0.16-0.47,0.4-0.87,0.71-1.2
					c0.31-0.34,0.69-0.59,1.15-0.77c0.46-0.18,0.96-0.26,1.52-0.26c0.72,0,1.34,0.15,1.86,0.46c0.52,0.3,0.91,0.7,1.17,1.18
					c0.25,0.48,0.38,0.98,0.38,1.48c0,0.46-0.13,0.77-0.4,0.9C105.07,706.42,104.7,706.49,104.21,706.49z M100.59,705.45h3.35
					c-0.05-0.64-0.22-1.1-0.51-1.42c-0.29-0.31-0.69-0.47-1.17-0.47c-0.46,0-0.84,0.16-1.13,0.47
					C100.84,704.35,100.66,704.82,100.59,705.45z"/>
				<path class="st0" d="M112.36,708.74v-0.19c-0.25,0.29-0.49,0.52-0.74,0.7c-0.24,0.18-0.51,0.31-0.79,0.41
					c-0.28,0.09-0.59,0.14-0.93,0.14c-0.44,0-0.85-0.09-1.23-0.28c-0.38-0.18-0.7-0.45-0.98-0.8c-0.28-0.34-0.48-0.75-0.63-1.22
					c-0.14-0.47-0.21-0.98-0.21-1.52c0-1.16,0.28-2.06,0.85-2.71c0.57-0.65,1.31-0.97,2.23-0.97c0.53,0,0.98,0.09,1.35,0.27
					c0.37,0.18,0.73,0.46,1.07,0.84v-2.72c0-0.38,0.08-0.66,0.23-0.86c0.15-0.2,0.37-0.29,0.65-0.29c0.28,0,0.49,0.09,0.65,0.27
					c0.15,0.18,0.23,0.44,0.23,0.79v8.16c0,0.35-0.08,0.62-0.25,0.79c-0.16,0.17-0.38,0.26-0.63,0.26c-0.26,0-0.46-0.09-0.63-0.27
					C112.45,709.35,112.36,709.08,112.36,708.74z M108.72,706.03c0,0.5,0.08,0.93,0.23,1.28c0.16,0.36,0.37,0.62,0.64,0.8
					c0.27,0.18,0.57,0.27,0.89,0.27c0.33,0,0.62-0.09,0.89-0.26c0.26-0.17,0.48-0.42,0.64-0.78c0.16-0.36,0.24-0.79,0.24-1.31
					c0-0.5-0.08-0.92-0.24-1.27c-0.16-0.36-0.38-0.63-0.65-0.82c-0.27-0.19-0.57-0.28-0.9-0.28c-0.34,0-0.64,0.1-0.91,0.29
					c-0.27,0.2-0.47,0.47-0.62,0.83C108.8,705.14,108.72,705.55,108.72,706.03z"/>
				<path class="st0" d="M121.15,700.59v2.82c0.35-0.35,0.7-0.63,1.06-0.82c0.37-0.2,0.81-0.29,1.34-0.29
					c0.61,0,1.15,0.15,1.62,0.44c0.46,0.29,0.82,0.71,1.07,1.27c0.26,0.55,0.39,1.2,0.39,1.96c0,0.56-0.07,1.07-0.21,1.54
					c-0.14,0.47-0.35,0.88-0.62,1.22c-0.27,0.34-0.6,0.61-0.99,0.8c-0.39,0.19-0.81,0.28-1.28,0.28c-0.29,0-0.55-0.04-0.8-0.1
					c-0.25-0.06-0.46-0.16-0.64-0.27c-0.17-0.11-0.32-0.22-0.45-0.34c-0.12-0.12-0.29-0.3-0.49-0.53v0.19
					c0,0.35-0.08,0.61-0.25,0.79c-0.16,0.17-0.38,0.26-0.64,0.26c-0.26,0-0.47-0.09-0.63-0.26c-0.16-0.18-0.23-0.45-0.23-0.79v-8.08
					c0-0.37,0.07-0.65,0.23-0.85c0.15-0.2,0.36-0.29,0.63-0.29c0.29,0,0.51,0.09,0.66,0.28
					C121.07,699.99,121.15,700.25,121.15,700.59z M121.23,706.08c0,0.74,0.17,1.3,0.51,1.7c0.33,0.4,0.77,0.6,1.32,0.6
					c0.46,0,0.86-0.2,1.2-0.61c0.34-0.41,0.51-0.98,0.51-1.74c0-0.49-0.07-0.91-0.21-1.26c-0.14-0.35-0.34-0.62-0.6-0.82
					c-0.25-0.19-0.56-0.29-0.9-0.29c-0.35,0-0.66,0.1-0.94,0.29c-0.27,0.2-0.49,0.47-0.65,0.84
					C121.31,705.15,121.23,705.58,121.23,706.08z"/>
				<path class="st0" d="M129.64,710.03l0.17-0.41l-2.28-5.73c-0.14-0.33-0.21-0.56-0.21-0.72s0.04-0.31,0.12-0.44
					c0.08-0.14,0.19-0.24,0.33-0.32c0.14-0.08,0.29-0.12,0.45-0.12c0.27,0,0.46,0.09,0.6,0.25c0.14,0.18,0.26,0.42,0.36,0.73
					l1.57,4.55l1.48-4.24c0.12-0.34,0.23-0.61,0.32-0.8c0.09-0.19,0.2-0.32,0.31-0.39c0.11-0.06,0.25-0.1,0.45-0.1
					c0.14,0,0.27,0.04,0.4,0.11c0.13,0.08,0.23,0.18,0.3,0.3c0.08,0.13,0.11,0.26,0.11,0.4c-0.02,0.08-0.05,0.2-0.09,0.37
					c-0.04,0.16-0.09,0.32-0.15,0.48l-2.41,6.31c-0.21,0.56-0.41,0.99-0.61,1.31c-0.19,0.32-0.46,0.56-0.79,0.73
					c-0.33,0.17-0.77,0.25-1.33,0.25c-0.54,0-0.95-0.06-1.22-0.17c-0.27-0.12-0.41-0.33-0.41-0.64c0-0.21,0.06-0.38,0.19-0.49
					c0.13-0.12,0.32-0.17,0.57-0.17c0.1,0,0.2,0.01,0.29,0.04c0.12,0.03,0.22,0.04,0.31,0.04c0.21,0,0.38-0.03,0.5-0.09
					c0.12-0.06,0.23-0.17,0.33-0.33C129.4,710.56,129.51,710.33,129.64,710.03z"/>
			</g>
			<g>
				<path class="st0" d="M163.87,702.44h0.44v-0.55c0-0.58,0.07-1.04,0.23-1.38c0.14-0.35,0.39-0.59,0.74-0.75
					c0.35-0.16,0.83-0.24,1.44-0.24c1.07,0,1.62,0.26,1.62,0.79c0,0.17-0.06,0.32-0.17,0.44c-0.11,0.12-0.24,0.18-0.4,0.18
					c-0.08,0-0.2-0.01-0.38-0.04c-0.17-0.02-0.32-0.04-0.44-0.04c-0.34,0-0.55,0.1-0.65,0.29c-0.09,0.2-0.14,0.48-0.14,0.84v0.44
					h0.46c0.71,0,1.06,0.21,1.06,0.64c0,0.3-0.09,0.49-0.28,0.57c-0.19,0.08-0.44,0.12-0.78,0.12h-0.46v4.9
					c0,0.36-0.09,0.64-0.26,0.84c-0.18,0.2-0.4,0.29-0.68,0.29c-0.26,0-0.48-0.09-0.66-0.29c-0.17-0.2-0.26-0.47-0.26-0.84v-4.9
					h-0.51c-0.28,0-0.48-0.06-0.63-0.19c-0.15-0.12-0.22-0.28-0.22-0.48C162.94,702.66,163.26,702.44,163.87,702.44z"/>
				<path class="st0" d="M170.48,707.13v1.55c0,0.38-0.09,0.66-0.26,0.84c-0.18,0.19-0.4,0.28-0.68,0.28
					c-0.26,0-0.48-0.09-0.65-0.29c-0.18-0.19-0.26-0.47-0.26-0.84v-5.15c0-0.83,0.3-1.25,0.9-1.25c0.3,0,0.53,0.1,0.66,0.29
					c0.14,0.19,0.21,0.48,0.23,0.86c0.22-0.38,0.45-0.67,0.68-0.86c0.23-0.2,0.54-0.29,0.93-0.29c0.39,0,0.76,0.1,1.13,0.29
					c0.37,0.19,0.55,0.45,0.55,0.77c0,0.23-0.07,0.41-0.23,0.57c-0.16,0.14-0.32,0.21-0.51,0.21c-0.07,0-0.23-0.04-0.49-0.12
					c-0.26-0.09-0.49-0.13-0.69-0.13c-0.27,0-0.49,0.07-0.66,0.22c-0.17,0.14-0.3,0.35-0.4,0.63c-0.09,0.28-0.16,0.62-0.2,1
					C170.5,706.1,170.48,706.58,170.48,707.13z"/>
				<path class="st0" d="M179.54,706.49h-3.62c0.01,0.42,0.09,0.79,0.26,1.11c0.16,0.32,0.38,0.57,0.66,0.72
					c0.27,0.17,0.57,0.24,0.9,0.24c0.22,0,0.43-0.02,0.61-0.07c0.19-0.05,0.36-0.14,0.53-0.25c0.18-0.11,0.33-0.23,0.47-0.36
					c0.15-0.13,0.34-0.3,0.57-0.51c0.09-0.08,0.23-0.13,0.41-0.13c0.19,0,0.34,0.05,0.46,0.15c0.12,0.11,0.18,0.26,0.18,0.44
					c0,0.17-0.06,0.36-0.2,0.59c-0.13,0.23-0.33,0.44-0.59,0.64c-0.27,0.21-0.6,0.38-1,0.52c-0.4,0.13-0.86,0.2-1.38,0.2
					c-1.19,0-2.12-0.34-2.77-1.02c-0.66-0.68-0.99-1.59-0.99-2.76c0-0.55,0.08-1.06,0.25-1.52c0.16-0.47,0.4-0.87,0.71-1.2
					c0.31-0.34,0.7-0.59,1.15-0.77c0.45-0.18,0.96-0.26,1.52-0.26c0.72,0,1.33,0.15,1.85,0.46c0.52,0.3,0.91,0.7,1.17,1.18
					c0.26,0.48,0.39,0.98,0.39,1.48c0,0.46-0.13,0.77-0.4,0.9C180.4,706.42,180.03,706.49,179.54,706.49z M175.92,705.45h3.36
					c-0.05-0.64-0.21-1.1-0.51-1.42c-0.3-0.31-0.69-0.47-1.17-0.47c-0.46,0-0.84,0.16-1.14,0.47
					C176.17,704.35,175.99,704.82,175.92,705.45z"/>
				<path class="st0" d="M187.79,706.49h-3.62c0.01,0.42,0.09,0.79,0.26,1.11c0.16,0.32,0.39,0.57,0.66,0.72
					c0.28,0.17,0.58,0.24,0.91,0.24c0.22,0,0.42-0.02,0.6-0.07c0.18-0.05,0.37-0.14,0.53-0.25c0.17-0.11,0.33-0.23,0.48-0.36
					c0.14-0.13,0.34-0.3,0.56-0.51c0.1-0.08,0.23-0.13,0.41-0.13c0.19,0,0.35,0.05,0.46,0.15c0.12,0.11,0.17,0.26,0.17,0.44
					c0,0.17-0.06,0.36-0.19,0.59c-0.13,0.23-0.33,0.44-0.6,0.64c-0.26,0.21-0.6,0.38-0.99,0.52c-0.4,0.13-0.86,0.2-1.38,0.2
					c-1.19,0-2.11-0.34-2.77-1.02c-0.66-0.68-0.99-1.59-0.99-2.76c0-0.55,0.08-1.06,0.24-1.52c0.16-0.47,0.4-0.87,0.71-1.2
					c0.31-0.34,0.7-0.59,1.15-0.77c0.46-0.18,0.96-0.26,1.52-0.26c0.72,0,1.34,0.15,1.86,0.46c0.51,0.3,0.9,0.7,1.16,1.18
					c0.26,0.48,0.38,0.98,0.38,1.48c0,0.46-0.13,0.77-0.4,0.9C188.65,706.42,188.27,706.49,187.79,706.49z M184.17,705.45h3.35
					c-0.04-0.64-0.21-1.1-0.51-1.42c-0.29-0.31-0.68-0.47-1.17-0.47c-0.46,0-0.84,0.16-1.14,0.47
					C184.42,704.35,184.23,704.82,184.17,705.45z"/>
				<path class="st0" d="M192.4,703.32v0.21c0.35-0.43,0.71-0.74,1.09-0.94c0.38-0.21,0.8-0.3,1.28-0.3c0.57,0,1.09,0.15,1.57,0.44
					c0.48,0.29,0.86,0.72,1.14,1.29c0.28,0.56,0.41,1.23,0.41,2.01c0,0.57-0.08,1.09-0.24,1.57c-0.16,0.48-0.38,0.88-0.66,1.2
					c-0.28,0.32-0.61,0.57-0.99,0.75c-0.38,0.17-0.79,0.26-1.23,0.26c-0.53,0-0.97-0.11-1.33-0.32c-0.36-0.21-0.71-0.53-1.03-0.93
					v2.78c0,0.81-0.3,1.22-0.88,1.22c-0.35,0-0.58-0.11-0.7-0.31c-0.11-0.21-0.17-0.52-0.17-0.92v-7.98c0-0.35,0.08-0.62,0.23-0.79
					c0.15-0.18,0.36-0.26,0.63-0.26c0.26,0,0.47,0.09,0.63,0.27C192.32,702.73,192.4,702.98,192.4,703.32z M196.02,706.01
					c0-0.49-0.07-0.91-0.22-1.26c-0.15-0.35-0.36-0.63-0.62-0.81c-0.26-0.19-0.56-0.28-0.88-0.28c-0.51,0-0.94,0.2-1.29,0.61
					c-0.35,0.4-0.53,0.99-0.53,1.77c0,0.73,0.18,1.31,0.53,1.71c0.34,0.41,0.78,0.62,1.29,0.62c0.31,0,0.59-0.09,0.85-0.27
					c0.27-0.18,0.47-0.44,0.63-0.8C195.94,706.94,196.02,706.51,196.02,706.01z"/>
				<path class="st0" d="M200.3,701.42c-0.26,0-0.49-0.09-0.67-0.24c-0.18-0.16-0.28-0.38-0.28-0.67c0-0.26,0.1-0.48,0.29-0.65
					c0.18-0.17,0.4-0.25,0.66-0.25c0.23,0,0.45,0.08,0.63,0.23c0.18,0.16,0.28,0.38,0.28,0.67c0,0.28-0.09,0.51-0.27,0.67
					C200.76,701.34,200.54,701.42,200.3,701.42z M201.21,703.33v5.35c0,0.37-0.09,0.65-0.27,0.84c-0.17,0.19-0.39,0.29-0.67,0.29
					c-0.27,0-0.49-0.09-0.66-0.29c-0.17-0.19-0.26-0.47-0.26-0.83v-5.29c0-0.37,0.09-0.64,0.26-0.82c0.17-0.19,0.39-0.28,0.66-0.28
					c0.28,0,0.5,0.09,0.67,0.28C201.12,702.74,201.21,703,201.21,703.33z"/>
				<path class="st0" d="M207.73,708.95l-1.63-2.68l-1,0.95v1.47c0,0.35-0.09,0.63-0.27,0.82c-0.19,0.2-0.41,0.29-0.65,0.29
					c-0.29,0-0.51-0.09-0.67-0.29c-0.17-0.19-0.25-0.47-0.25-0.84v-7.88c0-0.41,0.07-0.72,0.23-0.94c0.16-0.22,0.39-0.32,0.69-0.32
					c0.28,0,0.51,0.09,0.68,0.29c0.17,0.2,0.25,0.48,0.25,0.86v4.48l2.08-2.18c0.26-0.27,0.45-0.46,0.59-0.55
					c0.14-0.1,0.3-0.15,0.5-0.15c0.23,0,0.42,0.07,0.58,0.22c0.15,0.14,0.23,0.33,0.23,0.55c0,0.27-0.25,0.63-0.75,1.08l-0.99,0.9
					l1.9,2.98c0.14,0.22,0.24,0.39,0.3,0.5c0.06,0.11,0.09,0.23,0.09,0.33c0,0.29-0.08,0.53-0.24,0.7
					c-0.16,0.16-0.38,0.25-0.64,0.25c-0.23,0-0.4-0.06-0.52-0.19C208.1,709.5,207.94,709.27,207.73,708.95z"/>
				<path class="st0" d="M212.31,709.8c-0.28,0-0.52-0.09-0.72-0.27c-0.21-0.18-0.31-0.43-0.31-0.76c0-0.28,0.1-0.51,0.3-0.71
					c0.2-0.2,0.44-0.3,0.72-0.3c0.28,0,0.53,0.1,0.73,0.29c0.2,0.2,0.3,0.43,0.3,0.71c0,0.32-0.1,0.58-0.3,0.76
					C212.81,709.71,212.58,709.8,212.31,709.8z"/>
				<path class="st0" d="M222.06,707.51c0,0.23-0.07,0.47-0.21,0.74c-0.14,0.27-0.35,0.51-0.63,0.75c-0.28,0.24-0.64,0.43-1.07,0.57
					c-0.43,0.15-0.92,0.22-1.45,0.22c-1.14,0-2.04-0.33-2.68-1c-0.64-0.66-0.96-1.56-0.96-2.68c0-0.76,0.15-1.43,0.44-2.01
					c0.29-0.58,0.72-1.03,1.28-1.35c0.56-0.32,1.22-0.47,1.99-0.47c0.48,0,0.92,0.07,1.32,0.21c0.4,0.13,0.74,0.31,1.02,0.54
					c0.28,0.22,0.49,0.46,0.63,0.71c0.15,0.26,0.22,0.49,0.22,0.71c0,0.22-0.08,0.41-0.25,0.56c-0.16,0.15-0.36,0.23-0.6,0.23
					c-0.15,0-0.29-0.04-0.38-0.12c-0.11-0.08-0.21-0.21-0.34-0.38c-0.22-0.34-0.46-0.6-0.71-0.77c-0.25-0.17-0.56-0.26-0.94-0.26
					c-0.54,0-0.98,0.22-1.32,0.64c-0.33,0.43-0.5,1.01-0.5,1.75c0,0.35,0.04,0.67,0.13,0.96c0.08,0.29,0.21,0.54,0.37,0.75
					c0.16,0.2,0.36,0.36,0.59,0.46c0.23,0.11,0.49,0.16,0.76,0.16c0.37,0,0.69-0.09,0.95-0.25c0.26-0.18,0.5-0.43,0.7-0.79
					c0.12-0.21,0.24-0.37,0.37-0.48c0.13-0.12,0.29-0.18,0.48-0.18c0.23,0,0.41,0.08,0.56,0.25
					C221.98,707.14,222.06,707.32,222.06,707.51z"/>
				<path class="st0" d="M230.6,706.04c0,0.54-0.08,1.05-0.25,1.52c-0.17,0.47-0.42,0.87-0.75,1.2c-0.32,0.34-0.71,0.6-1.16,0.78
					c-0.45,0.17-0.96,0.26-1.53,0.26c-0.55,0-1.06-0.09-1.51-0.27c-0.44-0.18-0.84-0.44-1.17-0.77c-0.32-0.34-0.58-0.74-0.74-1.2
					c-0.17-0.46-0.25-0.97-0.25-1.52c0-0.56,0.09-1.07,0.26-1.54c0.17-0.46,0.41-0.86,0.73-1.19c0.32-0.33,0.71-0.58,1.17-0.76
					c0.46-0.18,0.96-0.27,1.51-0.27c0.57,0,1.07,0.09,1.53,0.27c0.46,0.18,0.85,0.44,1.17,0.77c0.33,0.33,0.57,0.73,0.74,1.19
					C230.52,704.98,230.6,705.49,230.6,706.04z M228.74,706.04c0-0.76-0.17-1.34-0.5-1.76c-0.33-0.42-0.77-0.63-1.34-0.63
					c-0.36,0-0.68,0.09-0.96,0.28c-0.27,0.19-0.49,0.47-0.64,0.83c-0.15,0.37-0.22,0.79-0.22,1.28c0,0.48,0.07,0.9,0.22,1.26
					c0.14,0.36,0.36,0.63,0.63,0.83c0.27,0.19,0.6,0.28,0.96,0.28c0.57,0,1.01-0.2,1.34-0.63
					C228.57,707.37,228.74,706.78,228.74,706.04z"/>
				<path class="st0" d="M238.21,706.17v2.46c0,0.39-0.09,0.68-0.26,0.87c-0.18,0.2-0.41,0.29-0.7,0.29c-0.28,0-0.51-0.09-0.68-0.29
					c-0.17-0.19-0.26-0.48-0.26-0.87v-2.95c0-0.47-0.01-0.82-0.04-1.09c-0.03-0.26-0.12-0.47-0.26-0.63
					c-0.14-0.17-0.36-0.25-0.66-0.25c-0.6,0-1,0.21-1.19,0.62c-0.19,0.42-0.29,1.01-0.29,1.79v2.5c0,0.38-0.09,0.67-0.26,0.87
					c-0.17,0.2-0.4,0.3-0.69,0.3c-0.28,0-0.51-0.1-0.69-0.3c-0.18-0.2-0.27-0.48-0.27-0.87v-5.29c0-0.34,0.08-0.61,0.24-0.79
					c0.16-0.18,0.38-0.27,0.63-0.27c0.26,0,0.47,0.09,0.63,0.25c0.18,0.18,0.26,0.41,0.26,0.71v0.17c0.32-0.38,0.66-0.66,1.03-0.84
					c0.36-0.18,0.77-0.27,1.22-0.27c0.47,0,0.87,0.09,1.2,0.28c0.34,0.18,0.61,0.46,0.83,0.83c0.31-0.37,0.65-0.65,1.01-0.84
					c0.35-0.18,0.75-0.27,1.18-0.27c0.51,0,0.94,0.1,1.31,0.29c0.37,0.21,0.64,0.49,0.82,0.85c0.16,0.34,0.24,0.86,0.24,1.58v3.61
					c0,0.39-0.09,0.68-0.27,0.87c-0.17,0.2-0.4,0.29-0.69,0.29c-0.28,0-0.51-0.1-0.69-0.3c-0.18-0.2-0.27-0.48-0.27-0.87v-3.11
					c0-0.39-0.01-0.71-0.05-0.96c-0.04-0.24-0.13-0.44-0.27-0.6c-0.15-0.16-0.38-0.24-0.68-0.24c-0.25,0-0.47,0.07-0.69,0.22
					c-0.22,0.14-0.39,0.34-0.52,0.59C238.27,704.83,238.21,705.39,238.21,706.17z"/>
			</g>
			<g>
				<path class="st0" d="M149.29,697.51c-0.04-0.12-0.07-0.24-0.11-0.35c0.62-0.06,1.04-0.8,0.73-1.36
					c-0.28-0.62-1.24-0.7-1.61-0.13c-0.39,0.51-0.09,1.3,0.52,1.46c0.04,0.12,0.07,0.26,0.11,0.38c-0.93,0.07-1.88,0.27-2.66,0.8
					c0.08,0.22,0.16,0.46,0.24,0.68c1.58-0.69,3.34-0.54,5.01-0.38c0.06-0.22,0.11-0.44,0.17-0.66
					C150.94,697.63,150.11,697.51,149.29,697.51z"/>
				<path class="st0" d="M158.67,700.06c-0.25,0.13-0.29,0.43-0.28,0.68c-0.28,0.27-0.14,0.68-0.17,1.01
					c-0.06,0.19-0.29,0.21-0.45,0.29c-0.22-0.34-0.45-0.65-0.75-0.93l0.01-0.02c-0.32-0.3-0.66-0.57-1.03-0.8
					c-0.29,0.31-0.6,0.62-0.88,0.94c0.55,0.61,1.07,1.27,1.52,1.96c0.31,0.53,0.56,1.08,0.78,1.66c0.47-0.24,0.93-0.49,1.4-0.74
					c-0.25-0.57-0.53-1.13-0.83-1.68c0.21-0.11,0.49-0.22,0.52-0.49c0.02-0.3-0.04-0.62,0.13-0.89c0.37,0.23,0.92-0.03,0.92-0.47
					C159.62,700.13,159.05,699.8,158.67,700.06z"/>
				<path class="st0" d="M156.13,703.46c-0.61-1.01-1.27-2.02-2.17-2.8c-1.03-0.91-2.38-1.53-3.78-1.52
					c-1.77-0.02-3.56,0.26-5.18,0.97c-1.53,0.67-2.87,1.88-3.54,3.43c-0.65,1.39-0.64,3-0.35,4.49c1.62,0.41,3.28,0.77,4.95,0.84
					c1.66,0.05,3.32,0.09,4.97-0.14c2.26-0.3,4.47-1.01,6.45-2.17C157.47,706.56,157.19,705.08,156.13,703.46z M148.14,705.46
					c-0.31,0.44-0.75,0.79-1.25,0.98c-0.95,0.36-2.11,0.11-2.79-0.64c-0.48-0.53-0.76-1.23-0.71-1.95c0.04-0.89,0.59-1.72,1.37-2.14
					c0.59-0.32,1.31-0.38,1.97-0.2c0.27,0.07,0.52,0.2,0.75,0.35c0.48,0.34,0.84,0.84,1.01,1.41
					C148.71,704.01,148.57,704.83,148.14,705.46z M155,703.85c-0.11,0.77-0.84,1.41-1.62,1.36c-0.45,0.04-0.88-0.17-1.19-0.49
					c-0.22-0.27-0.4-0.59-0.43-0.95c-0.11-0.77,0.44-1.57,1.2-1.75c0.33-0.09,0.68-0.04,1.01,0.04
					C154.67,702.3,155.14,703.11,155,703.85z"/>
				<path class="st0" d="M141.47,701.2c-0.66,0.4-1.2,0.96-1.66,1.58c-0.13-0.25-0.17-0.54-0.34-0.76c-0.1-0.13-0.28-0.07-0.41-0.07
					c-0.18,0.01-0.35-0.03-0.51-0.08c0.19-0.27,0.14-0.69-0.15-0.87c-0.32-0.22-0.81-0.03-0.89,0.35c-0.13,0.41,0.31,0.83,0.71,0.72
					c0.22,0.32,0.61,0.27,0.94,0.28c0.15,0.26,0.26,0.54,0.45,0.78c-0.36,0.7-0.56,1.48-0.57,2.26c0.46,0.19,0.91,0.38,1.37,0.58
					c0.02-0.5,0.08-0.99,0.16-1.47c0.15-1.07,0.77-1.99,1.49-2.75C141.86,701.54,141.66,701.37,141.47,701.2z"/>
				<path class="st0" d="M152.1,709.19c-1.68,0.37-3.41,0.47-5.12,0.4c-1.16-0.05-2.32-0.17-3.45-0.42c-0.8-0.16-1.59-0.4-2.38-0.62
					c0.13,1.01,0.54,1.97,1.12,2.8c0.69,0.97,1.61,1.85,2.75,2.21c0.89,0.24,1.95,0.55,3.79,0.51c1.52-0.02,3-0.21,4.33-0.79
					c0.86-0.37,1.66-0.87,2.35-1.5c0.6-0.56,1.06-1.26,1.38-2.01c0.31-0.71,0.6-1.99,0.57-2.64
					C155.81,708.07,153.98,708.88,152.1,709.19z"/>
			</g>
		</g>
	</g>
</g>
<g id="objects">
	<g>
		<g>
			<linearGradient id="SVGID_1_" gradientUnits="userSpaceOnUse" x1="-146.0294" y1="64.8888" x2="-178.5816" y2="-27.6815">
				<stop  offset="0" style="stop-color:#006086"/>
				<stop  offset="1" style="stop-color:#32C5F4"/>
			</linearGradient>
			<polygon class="st1" points="-141.09,-16.82 -153.95,17.33 -195.57,17.33 -204.15,-5.44 -208.43,-16.82 -174.76,-37.92 
				-145.35,-19.49 			"/>
			<linearGradient id="SVGID_2_" gradientUnits="userSpaceOnUse" x1="-119.9529" y1="-49.1526" x2="-117.4471" y2="35.0434">
				<stop  offset="0" style="stop-color:#006086"/>
				<stop  offset="1" style="stop-color:#32C5F4"/>
			</linearGradient>
			<polygon class="st2" points="-84.26,19.63 -87.39,21.51 -118.4,40.16 -151.59,18.5 -137.96,-15.43 -131.32,-15.31 -96.34,-14.72 
							"/>
			<linearGradient id="SVGID_3_" gradientUnits="userSpaceOnUse" x1="-175.483" y1="85.2962" x2="-149.5789" y2="36.2735">
				<stop  offset="0" style="stop-color:#6E6F72"/>
				<stop  offset="1" style="stop-color:#D2D3D4"/>
			</linearGradient>
			<polygon class="st3" points="-120.59,42.41 -127.35,58.63 -134.66,76.2 -176.26,75.11 -187.9,40.63 -174.57,32.8 -153.5,20.43 
							"/>
			<linearGradient id="SVGID_4_" gradientUnits="userSpaceOnUse" x1="-118.2218" y1="127.9552" x2="-82.9922" y2="41.6683">
				<stop  offset="0" style="stop-color:#006086"/>
				<stop  offset="1" style="stop-color:#32C5F4"/>
			</linearGradient>
			<polygon class="st4" points="-64.05,78.53 -98.39,98.81 -131.37,76.91 -124.13,59.36 -117.41,43.09 -75.8,44.09 -66.88,70.25 			
				"/>
			<linearGradient id="SVGID_5_" gradientUnits="userSpaceOnUse" x1="-144.5446" y1="19.8813" x2="-151.547" y2="60.7518">
				<stop  offset="0" style="stop-color:#FFFFFF"/>
				<stop  offset="1" style="stop-color:#FFFFFF;stop-opacity:0"/>
			</linearGradient>
			<path class="st5" d="M-120.59,42.41l-6.75,16.21c-4.43,1.95-9.44,3.05-14.75,3.05c-17.95,0-32.49-12.54-32.49-28.02
				c0-0.29,0.01-0.57,0.02-0.85l21.07-12.37L-120.59,42.41z"/>
			<linearGradient id="SVGID_6_" gradientUnits="userSpaceOnUse" x1="-173.164" y1="-39.8901" x2="-180.7043" y2="4.1192">
				<stop  offset="0" style="stop-color:#FFFFFF"/>
				<stop  offset="1" style="stop-color:#FFFFFF;stop-opacity:0"/>
			</linearGradient>
			<path class="st6" d="M-145.35-19.49c-3.62,13.25-17.42,23.11-33.89,23.11c-9.77,0-18.6-3.47-24.92-9.07l-4.28-11.37l33.67-21.1
				L-145.35-19.49z"/>
			<linearGradient id="SVGID_7_" gradientUnits="userSpaceOnUse" x1="-104.8399" y1="-18.2852" x2="-111.9146" y2="23.0063">
				<stop  offset="0" style="stop-color:#FFFFFF"/>
				<stop  offset="1" style="stop-color:#FFFFFF;stop-opacity:0"/>
			</linearGradient>
			<path class="st7" d="M-84.26,19.63l-3.13,1.88c-4.19,1.69-8.87,2.63-13.8,2.63c-18.1,0-32.78-12.66-32.78-28.28
				c0-3.97,0.95-7.75,2.66-11.18l34.98,0.59L-84.26,19.63z"/>
			<linearGradient id="SVGID_8_" gradientUnits="userSpaceOnUse" x1="-91.136" y1="39.3098" x2="-98.3527" y2="81.4303">
				<stop  offset="0" style="stop-color:#FFFFFF"/>
				<stop  offset="1" style="stop-color:#FFFFFF;stop-opacity:0"/>
			</linearGradient>
			<path class="st8" d="M-66.88,70.25c-5.8,6.94-15.23,11.45-25.9,11.45c-15.56,0-28.53-9.62-31.35-22.33l6.72-16.27l41.61,1
				L-66.88,70.25z"/>
		</g>
		<text transform="matrix(1 0 0 1 -229.784 143.3613)" style="fill:#00AEEF; font-family:'nevis-Bold'; font-size:28px;">BeamLight Corp</text>
	</g>
	<g>
		<g>
			<path class="st9" d="M120.17,60.08c0,0.51-0.01,1.03-0.02,1.54c-0.14,5.27-0.95,10.37-2.35,15.22
				c-3.05,10.52-8.88,19.84-16.66,27.12c-10.74,10.06-25.19,16.22-41.06,16.22C26.9,120.18,0,93.27,0,60.08
				c0-3.96,0.38-7.84,1.12-11.58c0.3-1.54,0.66-3.07,1.08-4.57c0.06-0.25,0.14-0.5,0.21-0.74c0.94-3.23,2.15-6.34,3.6-9.31
				C15.74,13.82,36.29,0,60.08,0c16.85,0,32.08,6.94,42.99,18.11C113.65,28.95,120.17,43.75,120.17,60.08z"/>
			<path class="st10" d="M120.17,60.08c0,0.51-0.01,1.03-0.02,1.54C90.74,30.77,43.88,23.29,4.92,42.54
				c-0.91,0.44-1.82,0.91-2.72,1.39c0.06-0.25,0.14-0.5,0.21-0.74c0.94-3.23,2.15-6.34,3.6-9.31
				c28.15-19.29,63.82-24.91,97.07-15.76C113.65,28.95,120.17,43.75,120.17,60.08z"/>
			<path class="st10" d="M117.8,76.84c-3.05,10.52-8.88,19.84-16.66,27.12C83.75,67.11,43.84,44.35,1.12,48.5
				c0.3-1.54,0.66-3.07,1.08-4.57c0.06-0.25,0.14-0.5,0.21-0.74c0.84-0.23,1.67-0.44,2.51-0.65C45.53,32.54,88.8,45.92,117.8,76.84z
				"/>
		</g>
		<text transform="matrix(1 0 0 1 139.7617 93.3618)" class="st9 st11 st12">BallNet</text>
	</g>
	<g>
		<g>
			
				<linearGradient id="SVGID_9_" gradientUnits="userSpaceOnUse" x1="223.7516" y1="320.0933" x2="258.963" y2="402.1088" gradientTransform="matrix(0.7071 -0.7071 0.7071 0.7071 -196.9965 187.4353)">
				<stop  offset="0" style="stop-color:#F47F4F"/>
				<stop  offset="1" style="stop-color:#EE3E96"/>
			</linearGradient>
			<path class="st13" d="M262.81,278.62l-1.65,33.29c-1.52-0.03-3.01-0.62-4.16-1.77l-62.71-62.71c-1.19-1.19-1.78-2.73-1.78-4.29
				l33.42,0.34c0.25,1.07,0.78,2.08,1.62,2.92l30.46,30.46C259.33,278.19,261.09,278.77,262.81,278.62z"/>
			
				<linearGradient id="SVGID_10_" gradientUnits="userSpaceOnUse" x1="-293.6648" y1="67.5089" x2="-258.4534" y2="149.5245" gradientTransform="matrix(-0.7071 0.7071 -0.7071 -0.7071 156.1003 477.687)">
				<stop  offset="0" style="stop-color:#76CEDE"/>
				<stop  offset="1" style="stop-color:#A3D17A"/>
			</linearGradient>
			<path class="st14" d="M256.42,205.49l1.65-33.29c1.52,0.03,3.01,0.62,4.16,1.77l62.71,62.71c1.19,1.19,1.78,2.73,1.78,4.29
				l-33.42-0.34c-0.25-1.07-0.79-2.08-1.62-2.92l-30.46-30.46C259.9,205.92,258.14,205.34,256.42,205.49z"/>
			
				<linearGradient id="SVGID_11_" gradientUnits="userSpaceOnUse" x1="210.336" y1="343.4097" x2="349.4212" y2="303.428" gradientTransform="matrix(0.7071 -0.7071 0.7071 0.7071 -196.9965 187.4353)">
				<stop  offset="0" style="stop-color:#FAA32D"/>
				<stop  offset="0.5" style="stop-color:#FFCD05"/>
				<stop  offset="0.6889" style="stop-color:#E9D02E"/>
				<stop  offset="1" style="stop-color:#BAD75B"/>
			</linearGradient>
			<path class="st15" d="M226.27,244.1l-33.33-0.31c-0.03-1.52,0.5-3.03,1.6-4.23l60.14-65.17c1.14-1.23,2.66-1.89,4.21-1.95
				l1,33.41c-1.06,0.29-2.05,0.87-2.86,1.74l-29.21,31.66C226.56,240.61,226.05,242.39,226.27,244.1z"/>
			
				<linearGradient id="SVGID_12_" gradientUnits="userSpaceOnUse" x1="-332.9426" y1="616.9711" x2="-297.7319" y2="698.985" gradientTransform="matrix(-0.7349 -0.6782 0.6782 -0.7349 -390.1763 543.7371)">
				<stop  offset="0.0153" style="stop-color:#6457A5"/>
				<stop  offset="0.5102" style="stop-color:#00AFD8"/>
				<stop  offset="1" style="stop-color:#6FCDDE"/>
			</linearGradient>
			<path class="st16" d="M292.96,240.01l33.33,0.31c0.03,1.52-0.5,3.03-1.6,4.23l-60.14,65.17c-1.14,1.23-2.66,1.89-4.21,1.95
				l-1-33.41c1.06-0.29,2.05-0.87,2.86-1.74l29.21-31.66C292.67,243.5,293.18,241.72,292.96,240.01z"/>
		</g>
		
			<radialGradient id="SVGID_13_" cx="254.6403" cy="299.212" r="64.7231" gradientTransform="matrix(1.018 3.677946e-03 -2.473209e-04 0.1189 4.3104 300.0053)" gradientUnits="userSpaceOnUse">
			<stop  offset="0" style="stop-color:#010101"/>
			<stop  offset="0.9374" style="stop-color:#010101;stop-opacity:0"/>
		</radialGradient>
		<ellipse class="st17" cx="259.61" cy="335.5" rx="72.75" ry="17"/>
	</g>
	<g>
		<g>
			
				<linearGradient id="SVGID_14_" gradientUnits="userSpaceOnUse" x1="-267.1269" y1="-55.6921" x2="-150.6767" y2="-55.6921" gradientTransform="matrix(0.2703 0.9628 -0.9628 0.2703 395.8947 283.3724)">
				<stop  offset="0" style="stop-color:#76CEDE"/>
				<stop  offset="1" style="stop-color:#A3D17A"/>
			</linearGradient>
			<polygon class="st18" points="393.27,127.6 361.79,15.49 400.11,32.7 424.31,118.89 			"/>
			
				<linearGradient id="SVGID_15_" gradientUnits="userSpaceOnUse" x1="-260.8078" y1="-116.6341" x2="-166.7371" y2="-63.1504" gradientTransform="matrix(0.2703 0.9628 -0.9628 0.2703 395.8947 283.3724)">
				<stop  offset="0" style="stop-color:#FAA32D"/>
				<stop  offset="0.5" style="stop-color:#FFCD05"/>
				<stop  offset="0.6889" style="stop-color:#E9D02E"/>
				<stop  offset="1" style="stop-color:#BAD75B"/>
			</linearGradient>
			<polygon class="st19" points="453.04,-8.95 424.31,118.89 393.27,127.6 422,-0.23 			"/>
			
				<linearGradient id="SVGID_16_" gradientUnits="userSpaceOnUse" x1="-236.4342" y1="-117.1855" x2="-213.6105" y2="-64.0239" gradientTransform="matrix(0.2703 0.9628 -0.9628 0.2703 395.8947 283.3724)">
				<stop  offset="0" style="stop-color:#931A1D"/>
				<stop  offset="0.8419" style="stop-color:#FFCD05;stop-opacity:0"/>
			</linearGradient>
			<polygon class="st20" points="422,-0.23 408.11,61.19 433.83,75.63 444.15,30.97 			"/>
			
				<linearGradient id="SVGID_17_" gradientUnits="userSpaceOnUse" x1="-265.9861" y1="-117.9055" x2="-161.2958" y2="-117.9055" gradientTransform="matrix(0.2703 0.9628 -0.9628 0.2703 395.8947 283.3724)">
				<stop  offset="0" style="stop-color:#F47F4F"/>
				<stop  offset="1" style="stop-color:#EE3E96"/>
			</linearGradient>
			<polygon class="st21" points="453.04,-8.95 484.52,103.17 446.19,85.96 422,-0.23 			"/>
		</g>
		
			<radialGradient id="SVGID_18_" cx="415.5464" cy="167.8712" r="69.1716" gradientTransform="matrix(1.018 3.677946e-03 -2.473209e-04 0.1189 4.2785 138.8004)" gradientUnits="userSpaceOnUse">
			<stop  offset="0" style="stop-color:#010101"/>
			<stop  offset="0.9374" style="stop-color:#010101;stop-opacity:0"/>
		</radialGradient>
		<ellipse class="st22" cx="423.15" cy="159.19" rx="77.75" ry="18.17"/>
	</g>
	<g>
		<g>
			<linearGradient id="SVGID_19_" gradientUnits="userSpaceOnUse" x1="423.0414" y1="359.1155" x2="423.0414" y2="223.2843">
				<stop  offset="0" style="stop-color:#FAA32D"/>
				<stop  offset="0.5" style="stop-color:#FFCD05"/>
				<stop  offset="0.6889" style="stop-color:#E9D02E"/>
				<stop  offset="1" style="stop-color:#BAD75B"/>
			</linearGradient>
			<path class="st23" d="M480.45,290.26l-13.45-50.22l-60.04-16.09L363,267.9l16.09,60.03l60.04,16.1l43.95-43.95L480.45,290.26z
				 M446.88,307.82l-32.57,8.73l-23.84-23.84l1.81-6.77l6.92-25.79l32.57-8.73l23.83,23.84l-6.82,25.49L446.88,307.82z"/>
			<linearGradient id="SVGID_20_" gradientUnits="userSpaceOnUse" x1="423.0414" y1="314.7856" x2="423.0414" y2="252.6355">
				<stop  offset="0" style="stop-color:#6E6F72"/>
				<stop  offset="1" style="stop-color:#D2D3D4"/>
			</linearGradient>
			<polygon class="st24" points="438.15,275.26 438.15,292.7 423.04,301.43 407.93,292.7 407.93,275.26 423.04,266.54 
				437.87,275.09 			"/>
			<linearGradient id="SVGID_21_" gradientUnits="userSpaceOnUse" x1="434.6761" y1="223.589" x2="422.0876" y2="292.0702">
				<stop  offset="0" style="stop-color:#FFFFFF"/>
				<stop  offset="1" style="stop-color:#FFFFFF;stop-opacity:0"/>
			</linearGradient>
			<path class="st25" d="M448.78,300.75l6.82-25.49l-23.83-23.84l-32.57,8.73l-6.92,25.79c-10.66-6.95-18.56-15.63-22.54-24.77
				l37.21-37.21l60.04,16.09l13.45,50.22C472.54,296.26,461.42,299.94,448.78,300.75z"/>
			<linearGradient id="SVGID_22_" gradientUnits="userSpaceOnUse" x1="420.3018" y1="267.1368" x2="424.5579" y2="285.8475">
				<stop  offset="0" style="stop-color:#FFFFFF"/>
				<stop  offset="1" style="stop-color:#FFFFFF;stop-opacity:0"/>
			</linearGradient>
			<path class="st26" d="M437.87,275.09c-1.22,7.39-8.17,13.05-16.56,13.05c-5.47,0-10.33-2.41-13.38-6.14v-6.75l15.11-8.72
				L437.87,275.09z"/>
		</g>
		
			<radialGradient id="SVGID_23_" cx="416.2101" cy="360.694" r="82.4203" gradientTransform="matrix(1.018 3.677946e-03 -2.473209e-04 0.1189 4.3262 374.5957)" gradientUnits="userSpaceOnUse">
			<stop  offset="0" style="stop-color:#010101"/>
			<stop  offset="0.9374" style="stop-color:#010101;stop-opacity:0"/>
		</radialGradient>
		<ellipse class="st27" cx="423.04" cy="417.71" rx="92.64" ry="21.65"/>
	</g>
	<g>
		<g>
			<g>
				<linearGradient id="SVGID_24_" gradientUnits="userSpaceOnUse" x1="395.2444" y1="628.7808" x2="448.7458" y2="527.5309">
					<stop  offset="0" style="stop-color:#6E6F72"/>
					<stop  offset="1" style="stop-color:#D2D3D4"/>
				</linearGradient>
				<polygon class="st28" points="483.46,587.78 416.32,619.71 363.86,563.3 376.6,538.78 376.6,538.77 398.58,496.52 472.5,511.64 
					477.75,548.19 477.83,548.71 				"/>
				<radialGradient id="SVGID_25_" cx="423.6577" cy="558.1152" r="59.041" gradientUnits="userSpaceOnUse">
					<stop  offset="0" style="stop-color:#595A5C"/>
					<stop  offset="1" style="stop-color:#1F2020"/>
				</radialGradient>
				<polygon class="st29" points="462.59,521.82 466.25,549.68 470.23,579.87 417.39,605.08 377.08,562.6 387.91,542.66 
					405.02,511.15 				"/>
				<linearGradient id="SVGID_26_" gradientUnits="userSpaceOnUse" x1="408.2319" y1="491.7709" x2="363.4772" y2="575.6859">
					<stop  offset="0" style="stop-color:#FAA32D"/>
					<stop  offset="0.5" style="stop-color:#FFCD05"/>
					<stop  offset="0.6889" style="stop-color:#E9D02E"/>
					<stop  offset="1" style="stop-color:#BAD75B"/>
				</linearGradient>
				<polygon class="st30" points="405.01,511.15 383.86,550.13 377.08,562.61 363.86,563.3 376.6,538.78 376.6,538.77 
					398.58,496.52 				"/>
				<linearGradient id="SVGID_27_" gradientUnits="userSpaceOnUse" x1="365.3726" y1="554.286" x2="418.5193" y2="617.223">
					<stop  offset="0" style="stop-color:#A3D17A"/>
					<stop  offset="1" style="stop-color:#76CEDE"/>
				</linearGradient>
				<polygon class="st31" points="377.08,562.6 363.86,563.3 416.32,619.72 417.39,605.08 				"/>
				<linearGradient id="SVGID_28_" gradientUnits="userSpaceOnUse" x1="411.4208" y1="618.7659" x2="493.2386" y2="571.913">
					<stop  offset="0" style="stop-color:#6FCDDE"/>
					<stop  offset="0.4898" style="stop-color:#00AFD8"/>
					<stop  offset="0.9847" style="stop-color:#6457A5"/>
				</linearGradient>
				<polygon class="st32" points="470.23,579.87 417.39,605.08 416.32,619.72 483.46,587.78 				"/>
				<linearGradient id="SVGID_29_" gradientUnits="userSpaceOnUse" x1="468.3227" y1="515.8473" x2="478.1124" y2="596.9625">
					<stop  offset="0.0459" style="stop-color:#843C97"/>
					<stop  offset="0.449" style="stop-color:#6457A5"/>
					<stop  offset="1" style="stop-color:#2F8CCC"/>
				</linearGradient>
				<polygon class="st33" points="483.46,587.78 470.24,579.87 467.39,558.28 462.59,521.82 472.5,511.64 477.84,548.69 				"/>
				<linearGradient id="SVGID_30_" gradientUnits="userSpaceOnUse" x1="398.5839" y1="509.1682" x2="472.4959" y2="509.1682">
					<stop  offset="0" style="stop-color:#F47F4F"/>
					<stop  offset="1" style="stop-color:#EE3E96"/>
				</linearGradient>
				<polygon class="st34" points="472.5,511.64 462.59,521.82 405.01,511.15 398.58,496.52 				"/>
			</g>
			<linearGradient id="SVGID_31_" gradientUnits="userSpaceOnUse" x1="421.1284" y1="481.5223" x2="429.17" y2="563.6614">
				<stop  offset="0" style="stop-color:#FFFFFF"/>
				<stop  offset="1" style="stop-color:#FFFFFF;stop-opacity:0"/>
			</linearGradient>
			<path class="st35" d="M477.84,548.69c-0.01,0-0.01,0.01-0.01,0.02c-2.91,3.57-6.42,6.79-10.44,9.57h-0.01
				c-9.94,6.89-22.93,11.06-37.14,11.06c-19.19,0-36.14-7.6-46.38-19.21c-3.05-3.46-5.5-7.27-7.25-11.35v-0.01l21.98-42.26
				l73.91,15.13L477.84,548.69z"/>
		</g>
		
			<radialGradient id="SVGID_32_" cx="416.0691" cy="537.5632" r="69.6165" gradientTransform="matrix(1.018 3.677946e-03 -2.473209e-04 0.1189 4.37 590.8848)" gradientUnits="userSpaceOnUse">
			<stop  offset="0" style="stop-color:#010101"/>
			<stop  offset="0.9374" style="stop-color:#010101;stop-opacity:0"/>
		</radialGradient>
		<ellipse class="st36" cx="423.66" cy="655.24" rx="78.25" ry="18.29"/>
	</g>
	<g>
		<g>
			
				<linearGradient id="SVGID_33_" gradientUnits="userSpaceOnUse" x1="228.3659" y1="406.5127" x2="300.037" y2="478.1837" gradientTransform="matrix(0 -1 1 0 -251.3792 829.692)">
				<stop  offset="0" style="stop-color:#6E6F72"/>
				<stop  offset="1" style="stop-color:#D2D3D4"/>
			</linearGradient>
			<polygon class="st37" points="206.35,509.2 206.35,621.78 175.59,621.78 175.59,509.2 			"/>
			<g>
				<linearGradient id="SVGID_34_" gradientUnits="userSpaceOnUse" x1="228.0246" y1="592.1213" x2="226.0835" y2="480.861">
					<stop  offset="0" style="stop-color:#056C94"/>
					<stop  offset="1" style="stop-color:#33C4EA"/>
				</linearGradient>
				<polygon class="st38" points="242.81,509.2 242.81,621.27 242.48,621.63 212.06,607.32 212.06,509.2 				"/>
				<linearGradient id="SVGID_35_" gradientUnits="userSpaceOnUse" x1="208.5363" y1="652.0584" x2="292.642" y2="532.4413">
					<stop  offset="0" style="stop-color:#4F69B2"/>
					<stop  offset="0.4796" style="stop-color:#00AFD8"/>
					<stop  offset="1" style="stop-color:#6FCDDE"/>
				</linearGradient>
				<polygon class="st39" points="307.17,551.51 242.81,621.27 242.48,621.63 212.06,607.32 242.81,573.99 285.49,527.73 				"/>
			</g>
		</g>
		
			<radialGradient id="SVGID_36_" cx="236.7559" cy="538.3813" r="65.168" gradientTransform="matrix(1.018 3.677946e-03 -2.473209e-04 0.1189 4.3695 592.5447)" gradientUnits="userSpaceOnUse">
			<stop  offset="0" style="stop-color:#010101"/>
			<stop  offset="0.9374" style="stop-color:#010101;stop-opacity:0"/>
		</radialGradient>
		<ellipse class="st40" cx="241.38" cy="656.41" rx="73.25" ry="17.12"/>
	</g>
	<g>
		<g>
			
				<linearGradient id="SVGID_37_" gradientUnits="userSpaceOnUse" x1="-28.486" y1="508.6932" x2="10.2377" y2="508.6932" gradientTransform="matrix(0.7071 0.7071 -0.7071 0.7071 399.0362 129.1577)">
				<stop  offset="0" style="stop-color:#056C94"/>
				<stop  offset="1" style="stop-color:#33C4EA"/>
			</linearGradient>
			<polygon class="st41" points="32.89,509.78 5.51,482.4 32.89,455.02 60.27,482.4 			"/>
			
				<linearGradient id="SVGID_38_" gradientUnits="userSpaceOnUse" x1="15.6523" y1="508.6932" x2="54.376" y2="508.6932" gradientTransform="matrix(0.7071 0.7071 -0.7071 0.7071 399.0362 129.1577)">
				<stop  offset="0" style="stop-color:#056C94"/>
				<stop  offset="1" style="stop-color:#33C4EA"/>
			</linearGradient>
			<polygon class="st42" points="64.1,540.99 36.72,513.61 64.1,486.23 91.48,513.61 			"/>
			
				<linearGradient id="SVGID_39_" gradientUnits="userSpaceOnUse" x1="59.7905" y1="508.6932" x2="98.5142" y2="508.6932" gradientTransform="matrix(0.7071 0.7071 -0.7071 0.7071 399.0362 129.1577)">
				<stop  offset="0" style="stop-color:#F47F4F"/>
				<stop  offset="1" style="stop-color:#EE3E96"/>
			</linearGradient>
			<polygon class="st43" points="95.31,572.2 67.93,544.82 95.31,517.44 122.69,544.82 			"/>
			
				<linearGradient id="SVGID_40_" gradientUnits="userSpaceOnUse" x1="15.6523" y1="552.8573" x2="54.376" y2="552.8573" gradientTransform="matrix(0.7071 0.7071 -0.7071 0.7071 399.0362 129.1577)">
				<stop  offset="0" style="stop-color:#056C94"/>
				<stop  offset="1" style="stop-color:#33C4EA"/>
			</linearGradient>
			<polygon class="st44" points="32.87,572.22 5.49,544.84 32.87,517.46 60.25,544.84 			"/>
			
				<linearGradient id="SVGID_41_" gradientUnits="userSpaceOnUse" x1="59.7905" y1="552.8573" x2="98.5142" y2="552.8573" gradientTransform="matrix(0.7071 0.7071 -0.7071 0.7071 399.0362 129.1577)">
				<stop  offset="0" style="stop-color:#BAD75B"/>
				<stop  offset="0.3111" style="stop-color:#E9D02E"/>
				<stop  offset="0.5" style="stop-color:#FFCD05"/>
				<stop  offset="1" style="stop-color:#FAA32D"/>
			</linearGradient>
			<polygon class="st45" points="64.08,603.43 36.7,576.05 64.08,548.67 91.46,576.05 			"/>
			
				<linearGradient id="SVGID_42_" gradientUnits="userSpaceOnUse" x1="59.7905" y1="597.0214" x2="98.5142" y2="597.0214" gradientTransform="matrix(0.7071 0.7071 -0.7071 0.7071 399.0362 129.1577)">
				<stop  offset="0" style="stop-color:#BAD75B"/>
				<stop  offset="0.3111" style="stop-color:#E9D02E"/>
				<stop  offset="0.5" style="stop-color:#FFCD05"/>
				<stop  offset="1" style="stop-color:#FAA32D"/>
			</linearGradient>
			<polygon class="st46" points="32.85,634.66 5.47,607.28 32.85,579.9 60.23,607.28 			"/>
		</g>
		
			<radialGradient id="SVGID_43_" cx="63.3154" cy="536.0906" r="77.6238" gradientTransform="matrix(1.018 3.677946e-03 -2.473209e-04 0.1189 4.3682 590.3814)" gradientUnits="userSpaceOnUse">
			<stop  offset="0" style="stop-color:#010101"/>
			<stop  offset="0.9374" style="stop-color:#010101;stop-opacity:0"/>
		</radialGradient>
		<ellipse class="st47" cx="64.08" cy="653.14" rx="87.25" ry="20.39"/>
	</g>
	<g>
		<g>
			<linearGradient id="SVGID_44_" gradientUnits="userSpaceOnUse" x1="-129.8805" y1="631.4825" x2="-129.8805" y2="454.3602">
				<stop  offset="0.0153" style="stop-color:#6457A5"/>
				<stop  offset="0.5102" style="stop-color:#00AFD8"/>
				<stop  offset="1" style="stop-color:#6FCDDE"/>
			</linearGradient>
			<path class="st48" d="M-129.88,465.12c-41.87,0-75.81,33.94-75.81,75.81c0,41.86,33.94,75.81,75.81,75.81
				c41.86,0,75.8-33.95,75.8-75.81C-54.08,499.05-88.02,465.12-129.88,465.12z M-129.88,576.48c-18.9,0-34.21-15.32-34.21-34.21
				c0-18.9,15.31-34.21,34.21-34.21c18.89,0,34.2,15.31,34.2,34.21C-95.67,561.16-110.98,576.48-129.88,576.48z"/>
			<radialGradient id="SVGID_45_" cx="-131.2171" cy="543.6033" r="72.3748" gradientUnits="userSpaceOnUse">
				<stop  offset="0" style="stop-color:#FFCD05"/>
				<stop  offset="0.3275" style="stop-color:#FFCB07"/>
				<stop  offset="0.4877" style="stop-color:#FEC60F"/>
				<stop  offset="0.6116" style="stop-color:#FDBC17"/>
				<stop  offset="0.7168" style="stop-color:#FBAF1F"/>
				<stop  offset="0.8102" style="stop-color:#F89E26"/>
				<stop  offset="0.8952" style="stop-color:#F6892B"/>
				<stop  offset="0.9722" style="stop-color:#F3702F"/>
				<stop  offset="1" style="stop-color:#F26430"/>
			</radialGradient>
			<path class="st49" d="M-129.88,470.49c-30.01,0-54.34,24.32-54.34,54.34c0,30.01,24.33,54.33,54.34,54.33
				c30.01,0,54.34-24.32,54.34-54.33C-75.54,494.81-99.87,470.49-129.88,470.49z M-129.88,576.48c-18.9,0-34.21-15.32-34.21-34.21
				c0-18.9,15.31-34.21,34.21-34.21c18.89,0,34.2,15.31,34.2,34.21C-95.67,561.16-110.98,576.48-129.88,576.48z"/>
		</g>
		
			<radialGradient id="SVGID_46_" cx="-127.077" cy="535.6559" r="79.9877" gradientTransform="matrix(1.018 3.677946e-03 -2.473209e-04 0.1189 4.3674 590.55)" gradientUnits="userSpaceOnUse">
			<stop  offset="0" style="stop-color:#010101"/>
			<stop  offset="0.9374" style="stop-color:#010101;stop-opacity:0"/>
		</radialGradient>
		<ellipse class="st50" cx="-129.88" cy="652.51" rx="89.9" ry="21.01"/>
	</g>
	<g>
		<radialGradient id="SVGID_47_" cx="237.7139" cy="316.3019" r="69.9748" gradientUnits="userSpaceOnUse">
			<stop  offset="0" style="stop-color:#F47F4F"/>
			<stop  offset="1" style="stop-color:#EE3E96"/>
		</radialGradient>
		<path class="st51" d="M240.36,308.79c-5.54,0-10.02,4.49-10.02,10.02c0,1.28,0.24,2.5,0.68,3.62c1.45,3.75,5.08,6.4,9.34,6.4
			c4.26,0,7.9-2.66,9.34-6.4c0.44-1.12,0.68-2.34,0.68-3.62C250.38,313.28,245.89,308.79,240.36,308.79z M268.64,304.73l29.41-29.41
			l-14.28-14.28l-33.32,33.32v-45.28h-20.19v45.6l-32.74-32.74l-14.28,14.28l28.51,28.51h-36.52v20.19h50.49
			c-0.69-1.76-1.07-3.67-1.07-5.67c0-8.66,7.02-15.69,15.69-15.69c8.66,0,15.69,7.03,15.69,15.69c0,2-0.37,3.91-1.07,5.67h50.49
			v-20.19H268.64z"/>
		
			<radialGradient id="SVGID_48_" cx="227.2895" cy="364.9662" r="52.5887" gradientTransform="matrix(1.2633 4.609904e-03 -3.069160e-04 0.1491 -39.5481 365.6441)" gradientUnits="userSpaceOnUse">
			<stop  offset="0" style="stop-color:#010101"/>
			<stop  offset="0.9374" style="stop-color:#010101;stop-opacity:0"/>
		</radialGradient>
		<ellipse class="st52" cx="243.6" cy="420.05" rx="73.35" ry="17.31"/>
	</g>
	<g>
		<g>
			<g>
				<linearGradient id="SVGID_49_" gradientUnits="userSpaceOnUse" x1="14.797" y1="343.2644" x2="14.797" y2="237.1062">
					<stop  offset="0" style="stop-color:#056C94"/>
					<stop  offset="1" style="stop-color:#33C4EA"/>
				</linearGradient>
				<path class="st53" d="M15.98,350.98h-2.37c-6.6,0-12-5.4-12-12V232.4c0-6.6,5.4-12,12-12h2.37c6.6,0,12,5.4,12,12v106.59
					C27.98,345.58,22.58,350.98,15.98,350.98z"/>
				<linearGradient id="SVGID_50_" gradientUnits="userSpaceOnUse" x1="46.3176" y1="388.937" x2="46.3176" y2="241.5129">
					<stop  offset="0" style="stop-color:#6E6F72"/>
					<stop  offset="1" style="stop-color:#D2D3D4"/>
				</linearGradient>
				<path class="st54" d="M47.5,381.86h-2.37c-6.6,0-12-5.4-12-12V263.28c0-6.6,5.4-12,12-12h2.37c6.6,0,12,5.4,12,12v106.59
					C59.5,376.46,54.1,381.86,47.5,381.86z"/>
				<linearGradient id="SVGID_51_" gradientUnits="userSpaceOnUse" x1="77.8381" y1="343.2644" x2="77.8381" y2="237.1062">
					<stop  offset="0" style="stop-color:#056C94"/>
					<stop  offset="1" style="stop-color:#33C4EA"/>
				</linearGradient>
				<path class="st55" d="M79.03,350.98h-2.37c-6.6,0-12-5.4-12-12V232.4c0-6.6,5.4-12,12-12h2.37c6.6,0,12,5.4,12,12v106.59
					C91.03,345.58,85.63,350.98,79.03,350.98z"/>
				<linearGradient id="SVGID_52_" gradientUnits="userSpaceOnUse" x1="109.3587" y1="343.2644" x2="109.3587" y2="237.1062">
					<stop  offset="0" style="stop-color:#056C94"/>
					<stop  offset="1" style="stop-color:#33C4EA"/>
				</linearGradient>
				<path class="st56" d="M110.55,350.98h-2.37c-6.6,0-12-5.4-12-12V232.4c0-6.6,5.4-12,12-12h2.37c6.6,0,12,5.4,12,12v106.59
					C122.55,345.58,117.15,350.98,110.55,350.98z"/>
			</g>
			<linearGradient id="SVGID_53_" gradientUnits="userSpaceOnUse" x1="14.4753" y1="214.1588" x2="14.4753" y2="280.1588">
				<stop  offset="0" style="stop-color:#FFFFFF"/>
				<stop  offset="1" style="stop-color:#FFFFFF;stop-opacity:0"/>
			</linearGradient>
			<path class="st57" d="M14.48,270.32L14.48,270.32c-6.37,0-11.58-5.21-11.58-11.58v-25.47c0-6.37,5.21-11.58,11.58-11.58h0
				c6.37,0,11.58,5.21,11.58,11.58v25.47C26.05,265.11,20.84,270.32,14.48,270.32z"/>
			<linearGradient id="SVGID_54_" gradientUnits="userSpaceOnUse" x1="109.0371" y1="214.1588" x2="109.0371" y2="280.1588">
				<stop  offset="0" style="stop-color:#FFFFFF"/>
				<stop  offset="1" style="stop-color:#FFFFFF;stop-opacity:0"/>
			</linearGradient>
			<path class="st58" d="M109.04,270.32L109.04,270.32c-6.37,0-11.58-5.21-11.58-11.58v-25.47c0-6.37,5.21-11.58,11.58-11.58l0,0
				c6.37,0,11.58,5.21,11.58,11.58v25.47C120.62,265.11,115.41,270.32,109.04,270.32z"/>
			<linearGradient id="SVGID_55_" gradientUnits="userSpaceOnUse" x1="77.5165" y1="214.1588" x2="77.5165" y2="280.1588">
				<stop  offset="0" style="stop-color:#FFFFFF"/>
				<stop  offset="1" style="stop-color:#FFFFFF;stop-opacity:0"/>
			</linearGradient>
			<path class="st59" d="M77.52,270.32L77.52,270.32c-6.37,0-11.58-5.21-11.58-11.58v-25.47c0-6.37,5.21-11.58,11.58-11.58l0,0
				c6.37,0,11.58,5.21,11.58,11.58v25.47C89.1,265.11,83.88,270.32,77.52,270.32z"/>
			<linearGradient id="SVGID_56_" gradientUnits="userSpaceOnUse" x1="46.6392" y1="245.6792" x2="46.6392" y2="311.6794">
				<stop  offset="0" style="stop-color:#FFFFFF"/>
				<stop  offset="1" style="stop-color:#FFFFFF;stop-opacity:0"/>
			</linearGradient>
			<path class="st60" d="M46.64,301.84L46.64,301.84c-6.37,0-11.58-5.21-11.58-11.58v-25.47c0-6.37,5.21-11.58,11.58-11.58l0,0
				c6.37,0,11.58,5.21,11.58,11.58v25.47C58.22,296.63,53.01,301.84,46.64,301.84z"/>
		</g>
		
			<radialGradient id="SVGID_57_" cx="61.3492" cy="361.5761" r="77.6238" gradientTransform="matrix(1.018 3.677946e-03 -2.473209e-04 0.1189 4.3251 376.9796)" gradientUnits="userSpaceOnUse">
			<stop  offset="0" style="stop-color:#010101"/>
			<stop  offset="0.9374" style="stop-color:#010101;stop-opacity:0"/>
		</radialGradient>
		<ellipse class="st61" cx="62.08" cy="418.97" rx="87.25" ry="20.39"/>
	</g>
	<g>
		<g>
			<linearGradient id="SVGID_58_" gradientUnits="userSpaceOnUse" x1="-206.4423" y1="271.6913" x2="-159.1091" y2="271.6913">
				<stop  offset="0" style="stop-color:#056C94"/>
				<stop  offset="1" style="stop-color:#33C4EA"/>
			</linearGradient>
			<rect x="-206.44" y="248.02" class="st62" width="47.33" height="47.33"/>
			<linearGradient id="SVGID_59_" gradientUnits="userSpaceOnUse" x1="-152.6007" y1="271.6913" x2="-105.2675" y2="271.6913">
				<stop  offset="0" style="stop-color:#056C94"/>
				<stop  offset="1" style="stop-color:#33C4EA"/>
			</linearGradient>
			<rect x="-152.6" y="248.02" class="st63" width="47.33" height="47.33"/>
			<linearGradient id="SVGID_60_" gradientUnits="userSpaceOnUse" x1="-152.6007" y1="324.6453" x2="-105.2675" y2="324.6453">
				<stop  offset="0" style="stop-color:#FAA32D"/>
				<stop  offset="0.5" style="stop-color:#FFCD05"/>
				<stop  offset="0.6889" style="stop-color:#E9D02E"/>
				<stop  offset="1" style="stop-color:#BAD75B"/>
			</linearGradient>
			<rect x="-152.6" y="300.98" class="st64" width="47.33" height="47.33"/>
			<linearGradient id="SVGID_61_" gradientUnits="userSpaceOnUse" x1="-99.3508" y1="324.6453" x2="-52.0176" y2="324.6453">
				<stop  offset="0" style="stop-color:#BAD75B"/>
				<stop  offset="0.3111" style="stop-color:#E9D02E"/>
				<stop  offset="0.5" style="stop-color:#FFCD05"/>
				<stop  offset="1" style="stop-color:#FAA32D"/>
			</linearGradient>
			<rect x="-99.35" y="300.98" class="st65" width="47.33" height="47.33"/>
			<linearGradient id="SVGID_62_" gradientUnits="userSpaceOnUse" x1="-128.9341" y1="401.266" x2="-128.9341" y2="353.9327">
				<stop  offset="0" style="stop-color:#76CEDE"/>
				<stop  offset="1" style="stop-color:#A3D17A"/>
			</linearGradient>
			<rect x="-152.6" y="353.93" class="st66" width="47.33" height="47.33"/>
		</g>
		
			<radialGradient id="SVGID_63_" cx="-126.9393" cy="362.7214" r="71.3959" gradientTransform="matrix(1.018 3.677946e-03 -2.473209e-04 0.1189 4.3246 379.0727)" gradientUnits="userSpaceOnUse">
			<stop  offset="0" style="stop-color:#010101"/>
			<stop  offset="0.9374" style="stop-color:#010101;stop-opacity:0"/>
		</radialGradient>
		<ellipse class="st67" cx="-129.23" cy="420.61" rx="80.25" ry="18.75"/>
	</g>
</g>
</svg>
