<?xml version="1.0" encoding="utf-8"?>
<!-- Generator: Adobe Illustrator 24.1.2, SVG Export Plug-In . SVG Version: 6.00 Build 0)  -->
<svg version="1.1" xmlns="http://www.w3.org/2000/svg" xmlns:xlink="http://www.w3.org/1999/xlink" x="0px" y="0px"
	 viewBox="0 0 217.25 187.16" style="enable-background:new 0 0 217.25 187.16;" xml:space="preserve">
<style type="text/css">
	.st0{fill:#424143;}
	.st1{fill:url(#SVGID_1_);}
	.st2{fill:url(#SVGID_2_);}
	.st3{fill:url(#SVGID_3_);}
	.st4{fill:url(#SVGID_4_);}
	.st5{opacity:0.54;fill:url(#SVGID_5_);}
	.st6{opacity:0.65;fill:url(#SVGID_6_);}
	.st7{opacity:0.65;fill:url(#SVGID_7_);}
	.st8{opacity:0.65;fill:url(#SVGID_8_);}
	.st9{fill:#00AEEF;}
	.st10{font-family:'nevis-Bold';}
	.st11{font-size:28px;}
	.st12{fill:url(#SVGID_9_);}
	.st13{fill:#FFFFFF;}
	.st14{opacity:0.24;fill:url(#SVGID_10_);}
	.st15{fill:url(#SVGID_11_);}
	.st16{fill:url(#SVGID_12_);}
	.st17{fill:url(#SVGID_13_);}
	.st18{fill:url(#SVGID_14_);}
	.st19{opacity:0.24;fill:url(#SVGID_15_);}
	.st20{fill:url(#SVGID_16_);}
	.st21{fill:url(#SVGID_17_);}
	.st22{fill:url(#SVGID_18_);}
	.st23{fill:url(#SVGID_19_);}
	.st24{opacity:0.24;fill:url(#SVGID_20_);}
	.st25{fill:url(#SVGID_21_);}
	.st26{fill:url(#SVGID_22_);}
	.st27{opacity:0.78;fill:url(#SVGID_23_);}
	.st28{opacity:0.54;fill:url(#SVGID_24_);}
	.st29{opacity:0.24;fill:url(#SVGID_25_);}
	.st30{fill:url(#SVGID_26_);}
	.st31{fill:url(#SVGID_27_);}
	.st32{fill:url(#SVGID_28_);}
	.st33{fill:url(#SVGID_29_);}
	.st34{fill:url(#SVGID_30_);}
	.st35{fill:url(#SVGID_31_);}
	.st36{fill:url(#SVGID_32_);}
	.st37{opacity:0.65;fill:url(#SVGID_33_);}
	.st38{opacity:0.24;fill:url(#SVGID_34_);}
	.st39{fill:url(#SVGID_35_);}
	.st40{fill:url(#SVGID_36_);}
	.st41{fill:url(#SVGID_37_);}
	.st42{opacity:0.24;fill:url(#SVGID_38_);}
	.st43{fill:url(#SVGID_39_);}
	.st44{fill:url(#SVGID_40_);}
	.st45{fill:url(#SVGID_41_);}
	.st46{fill:url(#SVGID_42_);}
	.st47{fill:url(#SVGID_43_);}
	.st48{fill:url(#SVGID_44_);}
	.st49{opacity:0.24;fill:url(#SVGID_45_);}
	.st50{fill:url(#SVGID_46_);}
	.st51{fill:url(#SVGID_47_);}
	.st52{opacity:0.24;fill:url(#SVGID_48_);}
	.st53{fill:url(#SVGID_49_);}
	.st54{opacity:0.24;fill:url(#SVGID_50_);}
	.st55{fill:url(#SVGID_51_);}
	.st56{fill:url(#SVGID_52_);}
	.st57{fill:url(#SVGID_53_);}
	.st58{fill:url(#SVGID_54_);}
	.st59{opacity:0.54;fill:url(#SVGID_55_);}
	.st60{opacity:0.54;fill:url(#SVGID_56_);}
	.st61{opacity:0.54;fill:url(#SVGID_57_);}
	.st62{opacity:0.54;fill:url(#SVGID_58_);}
	.st63{opacity:0.24;fill:url(#SVGID_59_);}
	.st64{fill:url(#SVGID_60_);}
	.st65{fill:url(#SVGID_61_);}
	.st66{fill:url(#SVGID_62_);}
	.st67{fill:url(#SVGID_63_);}
	.st68{fill:url(#SVGID_64_);}
	.st69{opacity:0.24;fill:url(#SVGID_65_);}
</style>
<g id="background">
	<g>
		<g>
			<g>
				<path class="st0" d="M288.64,746.66v-0.19c-0.25,0.29-0.49,0.52-0.73,0.7c-0.24,0.18-0.5,0.31-0.79,0.41
					c-0.28,0.09-0.59,0.14-0.92,0.14c-0.44,0-0.85-0.09-1.23-0.28c-0.38-0.18-0.71-0.45-0.98-0.8c-0.28-0.34-0.49-0.75-0.63-1.22
					c-0.14-0.47-0.21-0.98-0.21-1.52c0-1.16,0.28-2.06,0.85-2.71c0.57-0.65,1.31-0.97,2.23-0.97c0.54,0,0.98,0.09,1.35,0.27
					c0.37,0.18,0.72,0.46,1.07,0.84v-2.72c0-0.38,0.08-0.66,0.23-0.86c0.15-0.2,0.37-0.29,0.64-0.29c0.28,0,0.5,0.09,0.65,0.27
					c0.15,0.18,0.23,0.44,0.23,0.79v8.16c0,0.35-0.08,0.62-0.24,0.79c-0.17,0.17-0.37,0.26-0.63,0.26c-0.25,0-0.46-0.09-0.62-0.27
					C288.72,747.26,288.64,747,288.64,746.66z M285,743.95c0,0.5,0.08,0.93,0.23,1.28c0.16,0.36,0.37,0.62,0.64,0.8
					c0.27,0.18,0.57,0.27,0.89,0.27c0.32,0,0.62-0.09,0.89-0.26c0.27-0.17,0.48-0.42,0.64-0.78c0.16-0.36,0.24-0.79,0.24-1.31
					c0-0.5-0.08-0.92-0.24-1.27c-0.16-0.36-0.38-0.63-0.65-0.82c-0.27-0.19-0.57-0.28-0.9-0.28c-0.34,0-0.64,0.1-0.91,0.29
					c-0.26,0.2-0.47,0.47-0.62,0.83C285.07,743.05,285,743.47,285,743.95z"/>
				<path class="st0" d="M297.41,744.41h-3.62c0,0.42,0.09,0.79,0.25,1.11c0.17,0.32,0.38,0.57,0.66,0.72
					c0.27,0.17,0.57,0.24,0.9,0.24c0.22,0,0.42-0.02,0.61-0.07c0.18-0.05,0.36-0.14,0.53-0.25c0.17-0.11,0.33-0.23,0.48-0.36
					c0.14-0.13,0.33-0.3,0.56-0.51c0.09-0.08,0.23-0.13,0.41-0.13c0.19,0,0.34,0.05,0.46,0.15c0.12,0.11,0.18,0.26,0.18,0.44
					c0,0.17-0.07,0.36-0.2,0.59c-0.13,0.23-0.33,0.44-0.6,0.64c-0.26,0.21-0.59,0.38-1,0.52c-0.4,0.13-0.86,0.2-1.38,0.2
					c-1.19,0-2.11-0.34-2.77-1.02c-0.66-0.68-0.99-1.59-0.99-2.76c0-0.55,0.08-1.06,0.24-1.52c0.17-0.47,0.4-0.87,0.71-1.2
					c0.31-0.34,0.7-0.59,1.15-0.77c0.46-0.18,0.96-0.26,1.52-0.26c0.72,0,1.34,0.15,1.85,0.46c0.52,0.3,0.91,0.7,1.17,1.18
					c0.26,0.48,0.38,0.98,0.38,1.48c0,0.46-0.13,0.77-0.4,0.9C298.26,744.34,297.89,744.41,297.41,744.41z M293.79,743.36h3.35
					c-0.04-0.64-0.21-1.1-0.51-1.42c-0.29-0.31-0.69-0.47-1.17-0.47c-0.46,0-0.84,0.16-1.13,0.47
					C294.03,742.27,293.85,742.74,293.79,743.36z"/>
				<path class="st0" d="M306.44,745.3c0,0.51-0.12,0.95-0.37,1.31c-0.25,0.37-0.62,0.64-1.1,0.83c-0.48,0.19-1.07,0.28-1.77,0.28
					c-0.66,0-1.23-0.1-1.71-0.3c-0.48-0.2-0.82-0.46-1.05-0.76c-0.22-0.31-0.34-0.62-0.34-0.92c0-0.2,0.07-0.38,0.22-0.52
					c0.15-0.15,0.33-0.22,0.55-0.22c0.19,0,0.34,0.05,0.44,0.14c0.11,0.09,0.21,0.23,0.3,0.4c0.19,0.33,0.42,0.57,0.68,0.74
					c0.26,0.16,0.63,0.25,1.08,0.25c0.37,0,0.67-0.08,0.91-0.25c0.24-0.17,0.35-0.36,0.35-0.56c0-0.33-0.12-0.57-0.37-0.72
					c-0.25-0.15-0.65-0.3-1.22-0.43c-0.63-0.16-1.15-0.32-1.55-0.49c-0.4-0.18-0.72-0.4-0.96-0.69c-0.24-0.29-0.36-0.64-0.36-1.05
					c0-0.37,0.11-0.72,0.33-1.05c0.22-0.33,0.55-0.59,0.98-0.79c0.44-0.2,0.95-0.3,1.56-0.3c0.48,0,0.91,0.05,1.29,0.15
					c0.38,0.1,0.7,0.23,0.96,0.4c0.26,0.16,0.45,0.35,0.58,0.55c0.13,0.2,0.2,0.4,0.2,0.6c0,0.21-0.07,0.39-0.21,0.52
					c-0.14,0.14-0.35,0.21-0.61,0.21c-0.19,0-0.35-0.05-0.49-0.16c-0.13-0.11-0.28-0.27-0.46-0.49c-0.14-0.18-0.31-0.32-0.5-0.43
					c-0.19-0.11-0.45-0.16-0.77-0.16c-0.33,0-0.61,0.08-0.83,0.22c-0.22,0.14-0.33,0.32-0.33,0.53c0,0.19,0.08,0.35,0.24,0.47
					c0.17,0.13,0.38,0.23,0.66,0.31c0.27,0.08,0.66,0.18,1.14,0.3c0.57,0.14,1.04,0.31,1.4,0.5c0.37,0.2,0.64,0.43,0.83,0.69
					C306.35,744.66,306.44,744.97,306.44,745.3z"/>
				<path class="st0" d="M308.95,739.34c-0.26,0-0.48-0.09-0.66-0.24c-0.18-0.16-0.28-0.38-0.28-0.67c0-0.26,0.09-0.48,0.28-0.65
					c0.19-0.17,0.4-0.25,0.65-0.25c0.24,0,0.45,0.08,0.63,0.23c0.19,0.16,0.28,0.38,0.28,0.67c0,0.28-0.09,0.51-0.27,0.67
					C309.41,739.26,309.2,739.34,308.95,739.34z M309.86,741.25v5.35c0,0.37-0.09,0.65-0.26,0.84c-0.18,0.19-0.4,0.29-0.67,0.29
					c-0.27,0-0.49-0.09-0.66-0.29c-0.17-0.19-0.25-0.47-0.25-0.83v-5.29c0-0.37,0.08-0.64,0.25-0.82c0.17-0.19,0.39-0.28,0.66-0.28
					c0.27,0,0.5,0.09,0.67,0.28C309.77,740.66,309.86,740.91,309.86,741.25z"/>
				<path class="st0" d="M318.58,741.55v5.38c0,0.61-0.06,1.14-0.2,1.58c-0.13,0.45-0.34,0.81-0.63,1.1
					c-0.29,0.28-0.67,0.5-1.14,0.64c-0.47,0.14-1.05,0.21-1.74,0.21c-0.64,0-1.21-0.09-1.71-0.26c-0.5-0.18-0.88-0.42-1.16-0.7
					c-0.27-0.28-0.4-0.57-0.4-0.87c0-0.23,0.08-0.41,0.23-0.55c0.15-0.14,0.34-0.22,0.56-0.22c0.27,0,0.51,0.12,0.71,0.36
					c0.1,0.12,0.2,0.24,0.31,0.37c0.11,0.12,0.22,0.23,0.35,0.32c0.13,0.09,0.28,0.15,0.46,0.2c0.18,0.04,0.39,0.06,0.62,0.06
					c0.48,0,0.85-0.06,1.12-0.2c0.26-0.13,0.45-0.32,0.56-0.56c0.1-0.24,0.16-0.5,0.18-0.77c0.02-0.28,0.03-0.71,0.04-1.32
					c-0.29,0.39-0.61,0.7-0.99,0.91c-0.37,0.21-0.81,0.32-1.33,0.32c-0.62,0-1.16-0.16-1.62-0.48c-0.46-0.31-0.82-0.76-1.07-1.33
					c-0.25-0.57-0.38-1.22-0.38-1.97c0-0.55,0.08-1.05,0.23-1.5c0.15-0.45,0.37-0.82,0.65-1.13c0.28-0.31,0.6-0.54,0.97-0.7
					c0.36-0.15,0.76-0.23,1.2-0.23c0.52,0,0.98,0.1,1.36,0.3c0.38,0.2,0.74,0.51,1.07,0.94v-0.24c0-0.32,0.08-0.57,0.24-0.75
					c0.16-0.18,0.36-0.26,0.61-0.26c0.36,0,0.59,0.12,0.71,0.35C318.52,740.78,318.58,741.11,318.58,741.55z M313.22,743.9
					c0,0.75,0.16,1.31,0.49,1.7c0.33,0.38,0.75,0.58,1.27,0.58c0.31,0,0.6-0.08,0.87-0.25c0.27-0.17,0.5-0.41,0.67-0.74
					c0.17-0.33,0.26-0.74,0.26-1.21c0-0.76-0.17-1.34-0.5-1.76c-0.33-0.42-0.77-0.63-1.31-0.63c-0.53,0-0.95,0.2-1.27,0.61
					C313.37,742.59,313.22,743.16,313.22,743.9z"/>
				<path class="st0" d="M322.13,741.22v0.22c0.33-0.43,0.68-0.75,1.07-0.94c0.39-0.2,0.83-0.3,1.33-0.3c0.49,0,0.92,0.11,1.31,0.31
					c0.38,0.21,0.67,0.51,0.86,0.9c0.12,0.22,0.2,0.47,0.24,0.73c0.04,0.27,0.06,0.6,0.06,1.01v3.44c0,0.37-0.09,0.65-0.25,0.84
					c-0.17,0.19-0.39,0.29-0.66,0.29c-0.28,0-0.5-0.09-0.67-0.29c-0.17-0.19-0.26-0.47-0.26-0.83v-3.08c0-0.61-0.08-1.08-0.25-1.4
					c-0.17-0.32-0.51-0.48-1.01-0.48c-0.33,0-0.63,0.09-0.9,0.29c-0.27,0.19-0.47,0.46-0.59,0.8c-0.09,0.28-0.14,0.8-0.14,1.55v2.32
					c0,0.38-0.09,0.66-0.26,0.84c-0.18,0.19-0.4,0.28-0.67,0.28c-0.27,0-0.49-0.09-0.66-0.29c-0.17-0.19-0.26-0.47-0.26-0.83v-5.35
					c0-0.35,0.08-0.62,0.23-0.79c0.15-0.18,0.36-0.26,0.63-0.26c0.16,0,0.31,0.04,0.44,0.11c0.13,0.08,0.24,0.2,0.31,0.35
					C322.09,740.81,322.13,741,322.13,741.22z"/>
				<path class="st0" d="M333.99,744.41h-3.62c0,0.42,0.08,0.79,0.25,1.11c0.16,0.32,0.38,0.57,0.66,0.72
					c0.28,0.17,0.58,0.24,0.91,0.24c0.22,0,0.42-0.02,0.61-0.07c0.18-0.05,0.36-0.14,0.54-0.25c0.17-0.11,0.33-0.23,0.47-0.36
					c0.15-0.13,0.33-0.3,0.56-0.51c0.1-0.08,0.23-0.13,0.41-0.13c0.19,0,0.34,0.05,0.46,0.15c0.12,0.11,0.18,0.26,0.18,0.44
					c0,0.17-0.06,0.36-0.19,0.59c-0.13,0.23-0.33,0.44-0.6,0.64c-0.26,0.21-0.59,0.38-1,0.52c-0.4,0.13-0.86,0.2-1.38,0.2
					c-1.19,0-2.11-0.34-2.77-1.02c-0.66-0.68-0.99-1.59-0.99-2.76c0-0.55,0.08-1.06,0.24-1.52c0.16-0.47,0.4-0.87,0.71-1.2
					c0.31-0.34,0.69-0.59,1.15-0.77c0.46-0.18,0.96-0.26,1.52-0.26c0.72,0,1.34,0.15,1.86,0.46c0.52,0.3,0.91,0.7,1.17,1.18
					c0.25,0.48,0.38,0.98,0.38,1.48c0,0.46-0.13,0.77-0.4,0.9C334.85,744.34,334.48,744.41,333.99,744.41z M330.38,743.36h3.35
					c-0.05-0.64-0.22-1.1-0.51-1.42c-0.29-0.31-0.69-0.47-1.17-0.47c-0.46,0-0.84,0.16-1.13,0.47
					C330.62,742.27,330.44,742.74,330.38,743.36z"/>
				<path class="st0" d="M342.15,746.66v-0.19c-0.25,0.29-0.49,0.52-0.74,0.7c-0.24,0.18-0.51,0.31-0.79,0.41
					c-0.28,0.09-0.59,0.14-0.93,0.14c-0.44,0-0.85-0.09-1.23-0.28c-0.38-0.18-0.7-0.45-0.98-0.8c-0.28-0.34-0.48-0.75-0.63-1.22
					c-0.14-0.47-0.21-0.98-0.21-1.52c0-1.16,0.28-2.06,0.85-2.71c0.57-0.65,1.31-0.97,2.23-0.97c0.53,0,0.98,0.09,1.35,0.27
					c0.37,0.18,0.73,0.46,1.07,0.84v-2.72c0-0.38,0.08-0.66,0.23-0.86s0.37-0.29,0.65-0.29c0.28,0,0.49,0.09,0.65,0.27
					c0.15,0.18,0.23,0.44,0.23,0.79v8.16c0,0.35-0.08,0.62-0.25,0.79c-0.16,0.17-0.38,0.26-0.63,0.26c-0.26,0-0.46-0.09-0.63-0.27
					C342.23,747.26,342.15,747,342.15,746.66z M338.51,743.95c0,0.5,0.08,0.93,0.23,1.28c0.16,0.36,0.37,0.62,0.64,0.8
					c0.27,0.18,0.57,0.27,0.89,0.27c0.33,0,0.62-0.09,0.89-0.26c0.26-0.17,0.48-0.42,0.64-0.78c0.16-0.36,0.24-0.79,0.24-1.31
					c0-0.5-0.08-0.92-0.24-1.27c-0.16-0.36-0.38-0.63-0.65-0.82c-0.27-0.19-0.57-0.28-0.9-0.28c-0.34,0-0.64,0.1-0.91,0.29
					c-0.27,0.2-0.47,0.47-0.62,0.83C338.58,743.05,338.51,743.47,338.51,743.95z"/>
				<path class="st0" d="M350.93,738.5v2.82c0.35-0.35,0.7-0.63,1.06-0.82c0.37-0.2,0.81-0.29,1.34-0.29c0.61,0,1.15,0.15,1.62,0.44
					c0.46,0.29,0.82,0.71,1.07,1.27c0.26,0.55,0.39,1.2,0.39,1.96c0,0.56-0.07,1.07-0.21,1.54c-0.14,0.47-0.35,0.88-0.62,1.22
					c-0.27,0.34-0.6,0.61-0.99,0.8c-0.39,0.19-0.81,0.28-1.28,0.28c-0.29,0-0.55-0.04-0.8-0.1c-0.25-0.06-0.46-0.16-0.64-0.27
					c-0.17-0.11-0.32-0.22-0.45-0.34c-0.12-0.12-0.29-0.3-0.49-0.53v0.19c0,0.35-0.08,0.61-0.25,0.79
					c-0.16,0.17-0.38,0.26-0.64,0.26c-0.26,0-0.47-0.09-0.63-0.26c-0.16-0.18-0.23-0.45-0.23-0.79v-8.08c0-0.37,0.07-0.65,0.23-0.85
					c0.15-0.2,0.36-0.29,0.63-0.29c0.29,0,0.51,0.09,0.66,0.28C350.85,737.9,350.93,738.17,350.93,738.5z M351.02,744
					c0,0.74,0.17,1.3,0.51,1.7c0.33,0.4,0.77,0.6,1.32,0.6c0.46,0,0.86-0.2,1.2-0.61c0.34-0.41,0.51-0.98,0.51-1.74
					c0-0.49-0.07-0.91-0.21-1.26c-0.14-0.35-0.34-0.62-0.6-0.82c-0.25-0.19-0.56-0.29-0.9-0.29c-0.35,0-0.66,0.1-0.94,0.29
					c-0.27,0.2-0.49,0.47-0.65,0.84C351.1,743.07,351.02,743.5,351.02,744z"/>
				<path class="st0" d="M359.42,747.95l0.17-0.41l-2.28-5.73c-0.14-0.33-0.21-0.56-0.21-0.72s0.04-0.31,0.12-0.44
					c0.08-0.14,0.19-0.24,0.33-0.32c0.14-0.08,0.29-0.12,0.45-0.12c0.27,0,0.46,0.09,0.6,0.25c0.14,0.18,0.26,0.42,0.36,0.73
					l1.57,4.55l1.48-4.24c0.12-0.34,0.23-0.61,0.32-0.8c0.09-0.19,0.2-0.32,0.31-0.39c0.11-0.06,0.25-0.1,0.45-0.1
					c0.14,0,0.27,0.04,0.4,0.11c0.13,0.08,0.23,0.18,0.3,0.3c0.08,0.13,0.11,0.26,0.11,0.4c-0.02,0.08-0.05,0.2-0.09,0.37
					c-0.04,0.16-0.09,0.32-0.15,0.48l-2.41,6.31c-0.21,0.56-0.41,0.99-0.61,1.31c-0.19,0.32-0.46,0.56-0.79,0.73
					c-0.33,0.17-0.77,0.25-1.33,0.25c-0.54,0-0.95-0.06-1.22-0.17c-0.27-0.12-0.41-0.33-0.41-0.64c0-0.21,0.06-0.38,0.19-0.49
					c0.13-0.12,0.32-0.17,0.57-0.17c0.1,0,0.2,0.01,0.29,0.04c0.12,0.03,0.22,0.04,0.31,0.04c0.21,0,0.38-0.03,0.5-0.09
					c0.12-0.06,0.23-0.17,0.33-0.33C359.18,748.48,359.3,748.25,359.42,747.95z"/>
			</g>
			<g>
				<path class="st0" d="M393.66,740.36h0.44v-0.55c0-0.58,0.07-1.04,0.23-1.38c0.14-0.35,0.39-0.59,0.74-0.75
					c0.35-0.16,0.83-0.24,1.44-0.24c1.07,0,1.62,0.26,1.62,0.79c0,0.17-0.06,0.32-0.17,0.44c-0.11,0.12-0.24,0.18-0.4,0.18
					c-0.08,0-0.2-0.01-0.38-0.05c-0.17-0.02-0.32-0.04-0.44-0.04c-0.34,0-0.55,0.1-0.65,0.29c-0.09,0.2-0.14,0.48-0.14,0.84v0.44
					h0.46c0.71,0,1.06,0.21,1.06,0.64c0,0.3-0.09,0.49-0.28,0.57c-0.19,0.08-0.44,0.12-0.78,0.12h-0.46v4.9
					c0,0.36-0.09,0.64-0.26,0.84c-0.18,0.2-0.4,0.29-0.68,0.29c-0.26,0-0.48-0.09-0.66-0.29c-0.17-0.2-0.26-0.47-0.26-0.84v-4.9
					h-0.51c-0.28,0-0.48-0.06-0.63-0.19c-0.15-0.12-0.22-0.28-0.22-0.48C392.73,740.58,393.04,740.36,393.66,740.36z"/>
				<path class="st0" d="M400.27,745.04v1.55c0,0.38-0.09,0.66-0.26,0.84c-0.18,0.19-0.4,0.28-0.68,0.28
					c-0.26,0-0.48-0.09-0.65-0.29c-0.18-0.19-0.26-0.47-0.26-0.84v-5.15c0-0.83,0.3-1.25,0.9-1.25c0.3,0,0.53,0.1,0.66,0.29
					c0.14,0.19,0.21,0.48,0.23,0.86c0.22-0.38,0.45-0.67,0.68-0.86c0.23-0.2,0.54-0.29,0.93-0.29c0.39,0,0.76,0.1,1.13,0.29
					c0.37,0.19,0.55,0.45,0.55,0.77c0,0.23-0.07,0.41-0.23,0.57c-0.16,0.14-0.32,0.21-0.51,0.21c-0.07,0-0.23-0.04-0.49-0.12
					c-0.26-0.09-0.49-0.13-0.69-0.13c-0.27,0-0.49,0.07-0.66,0.22c-0.17,0.14-0.3,0.35-0.4,0.63c-0.09,0.28-0.16,0.62-0.2,1
					C400.28,744.02,400.27,744.49,400.27,745.04z"/>
				<path class="st0" d="M409.32,744.41h-3.62c0.01,0.42,0.09,0.79,0.26,1.11c0.16,0.32,0.38,0.57,0.66,0.72
					c0.27,0.17,0.57,0.24,0.9,0.24c0.22,0,0.43-0.02,0.61-0.07c0.19-0.05,0.36-0.14,0.53-0.25c0.18-0.11,0.33-0.23,0.47-0.36
					c0.15-0.13,0.34-0.3,0.57-0.51c0.09-0.08,0.23-0.13,0.41-0.13c0.19,0,0.34,0.05,0.46,0.15c0.12,0.11,0.18,0.26,0.18,0.44
					c0,0.17-0.06,0.36-0.2,0.59c-0.13,0.23-0.33,0.44-0.59,0.64c-0.27,0.21-0.6,0.38-1,0.52c-0.4,0.13-0.86,0.2-1.38,0.2
					c-1.19,0-2.12-0.34-2.77-1.02c-0.66-0.68-0.99-1.59-0.99-2.76c0-0.55,0.08-1.06,0.25-1.52c0.16-0.47,0.4-0.87,0.71-1.2
					c0.31-0.34,0.7-0.59,1.15-0.77c0.45-0.18,0.96-0.26,1.52-0.26c0.72,0,1.33,0.15,1.85,0.46c0.52,0.3,0.91,0.7,1.17,1.18
					c0.26,0.48,0.39,0.98,0.39,1.48c0,0.46-0.13,0.77-0.4,0.9C410.18,744.34,409.81,744.41,409.32,744.41z M405.71,743.36h3.36
					c-0.05-0.64-0.21-1.1-0.51-1.42c-0.3-0.31-0.69-0.47-1.17-0.47c-0.46,0-0.84,0.16-1.14,0.47
					C405.95,742.27,405.77,742.74,405.71,743.36z"/>
				<path class="st0" d="M417.57,744.41h-3.62c0.01,0.42,0.09,0.79,0.26,1.11c0.16,0.32,0.39,0.57,0.66,0.72
					c0.28,0.17,0.58,0.24,0.91,0.24c0.22,0,0.42-0.02,0.6-0.07c0.18-0.05,0.37-0.14,0.53-0.25c0.17-0.11,0.33-0.23,0.48-0.36
					c0.14-0.13,0.34-0.3,0.56-0.51c0.1-0.08,0.23-0.13,0.41-0.13c0.19,0,0.35,0.05,0.46,0.15c0.12,0.11,0.17,0.26,0.17,0.44
					c0,0.17-0.06,0.36-0.19,0.59c-0.13,0.23-0.33,0.44-0.6,0.64c-0.26,0.21-0.6,0.38-0.99,0.52c-0.4,0.13-0.86,0.2-1.38,0.2
					c-1.19,0-2.11-0.34-2.77-1.02c-0.66-0.68-0.99-1.59-0.99-2.76c0-0.55,0.08-1.06,0.24-1.52c0.16-0.47,0.4-0.87,0.71-1.2
					c0.31-0.34,0.7-0.59,1.15-0.77c0.46-0.18,0.96-0.26,1.52-0.26c0.72,0,1.34,0.15,1.86,0.46c0.51,0.3,0.9,0.7,1.16,1.18
					c0.26,0.48,0.38,0.98,0.38,1.48c0,0.46-0.13,0.77-0.4,0.9C418.43,744.34,418.06,744.41,417.57,744.41z M413.95,743.36h3.35
					c-0.04-0.64-0.21-1.1-0.51-1.42c-0.29-0.31-0.68-0.47-1.17-0.47c-0.46,0-0.84,0.16-1.14,0.47
					C414.2,742.27,414.01,742.74,413.95,743.36z"/>
				<path class="st0" d="M422.18,741.24v0.21c0.35-0.43,0.71-0.74,1.09-0.94c0.38-0.21,0.8-0.3,1.28-0.3c0.57,0,1.09,0.15,1.57,0.44
					c0.48,0.29,0.86,0.72,1.14,1.29c0.28,0.56,0.41,1.23,0.41,2.01c0,0.57-0.08,1.09-0.24,1.57c-0.16,0.48-0.38,0.88-0.66,1.2
					c-0.28,0.32-0.61,0.57-0.99,0.75c-0.38,0.17-0.79,0.26-1.23,0.26c-0.53,0-0.97-0.11-1.33-0.32c-0.36-0.21-0.71-0.53-1.03-0.93
					v2.78c0,0.81-0.3,1.22-0.88,1.22c-0.35,0-0.58-0.11-0.7-0.31c-0.11-0.21-0.17-0.52-0.17-0.92v-7.98c0-0.35,0.08-0.62,0.23-0.79
					c0.15-0.18,0.36-0.26,0.63-0.26c0.26,0,0.47,0.09,0.63,0.27C422.1,740.64,422.18,740.9,422.18,741.24z M425.81,743.93
					c0-0.49-0.07-0.91-0.22-1.26c-0.15-0.35-0.36-0.63-0.62-0.81c-0.26-0.19-0.56-0.28-0.88-0.28c-0.51,0-0.94,0.2-1.29,0.61
					c-0.35,0.4-0.53,0.99-0.53,1.77c0,0.73,0.18,1.31,0.53,1.71c0.34,0.41,0.78,0.62,1.29,0.62c0.31,0,0.59-0.09,0.85-0.27
					c0.27-0.18,0.47-0.44,0.63-0.8C425.72,744.86,425.81,744.43,425.81,743.93z"/>
				<path class="st0" d="M430.09,739.34c-0.26,0-0.49-0.09-0.67-0.24c-0.18-0.16-0.28-0.38-0.28-0.67c0-0.26,0.1-0.48,0.29-0.65
					c0.18-0.17,0.4-0.25,0.66-0.25c0.23,0,0.45,0.08,0.63,0.23c0.18,0.16,0.28,0.38,0.28,0.67c0,0.28-0.09,0.51-0.27,0.67
					C430.55,739.26,430.33,739.34,430.09,739.34z M431,741.25v5.35c0,0.37-0.09,0.65-0.27,0.84c-0.17,0.19-0.39,0.29-0.67,0.29
					c-0.27,0-0.49-0.09-0.66-0.29c-0.17-0.19-0.26-0.47-0.26-0.83v-5.29c0-0.37,0.09-0.64,0.26-0.82c0.17-0.19,0.39-0.28,0.66-0.28
					c0.28,0,0.5,0.09,0.67,0.28C430.91,740.66,431,740.91,431,741.25z"/>
				<path class="st0" d="M437.52,746.87l-1.63-2.68l-1,0.95v1.47c0,0.35-0.09,0.63-0.27,0.82c-0.19,0.2-0.41,0.29-0.65,0.29
					c-0.29,0-0.51-0.09-0.67-0.29c-0.17-0.19-0.25-0.47-0.25-0.84v-7.88c0-0.41,0.07-0.72,0.23-0.94c0.16-0.22,0.39-0.32,0.69-0.32
					c0.28,0,0.51,0.09,0.68,0.29c0.17,0.2,0.25,0.48,0.25,0.86v4.48l2.08-2.18c0.26-0.27,0.45-0.46,0.59-0.55
					c0.14-0.1,0.3-0.15,0.5-0.15c0.23,0,0.42,0.07,0.58,0.22c0.15,0.14,0.23,0.33,0.23,0.55c0,0.27-0.25,0.63-0.75,1.08l-0.99,0.9
					l1.9,2.98c0.14,0.22,0.24,0.39,0.3,0.5c0.06,0.11,0.09,0.23,0.09,0.33c0,0.29-0.08,0.53-0.24,0.7
					c-0.16,0.16-0.38,0.25-0.64,0.25c-0.23,0-0.4-0.06-0.52-0.19C437.89,747.41,437.72,747.19,437.52,746.87z"/>
				<path class="st0" d="M442.09,747.72c-0.28,0-0.52-0.09-0.72-0.27c-0.21-0.18-0.31-0.43-0.31-0.76c0-0.28,0.1-0.51,0.3-0.71
					c0.2-0.2,0.44-0.3,0.72-0.3c0.28,0,0.53,0.1,0.73,0.29c0.2,0.2,0.3,0.43,0.3,0.71c0,0.32-0.1,0.58-0.3,0.76
					C442.6,747.63,442.36,747.72,442.09,747.72z"/>
				<path class="st0" d="M451.84,745.43c0,0.23-0.07,0.47-0.21,0.74c-0.14,0.27-0.35,0.51-0.63,0.75c-0.28,0.24-0.64,0.43-1.07,0.57
					c-0.43,0.15-0.92,0.22-1.45,0.22c-1.14,0-2.04-0.33-2.68-1c-0.64-0.66-0.96-1.56-0.96-2.68c0-0.76,0.15-1.43,0.44-2.01
					c0.29-0.58,0.72-1.03,1.28-1.35c0.56-0.32,1.22-0.47,1.99-0.47c0.48,0,0.92,0.07,1.32,0.21c0.4,0.13,0.74,0.31,1.02,0.54
					c0.28,0.22,0.49,0.46,0.63,0.71c0.15,0.26,0.22,0.49,0.22,0.71c0,0.22-0.08,0.41-0.25,0.56c-0.16,0.15-0.36,0.23-0.6,0.23
					c-0.15,0-0.29-0.04-0.38-0.12c-0.11-0.08-0.21-0.21-0.34-0.38c-0.22-0.34-0.46-0.6-0.71-0.77c-0.25-0.17-0.56-0.26-0.94-0.26
					c-0.54,0-0.98,0.22-1.32,0.64c-0.33,0.43-0.5,1.01-0.5,1.75c0,0.35,0.04,0.67,0.13,0.96c0.08,0.29,0.21,0.54,0.37,0.75
					c0.16,0.2,0.36,0.36,0.59,0.46c0.23,0.11,0.49,0.16,0.76,0.16c0.37,0,0.69-0.09,0.95-0.25c0.26-0.18,0.5-0.43,0.7-0.79
					c0.12-0.21,0.24-0.37,0.37-0.48c0.13-0.12,0.29-0.18,0.48-0.18c0.23,0,0.41,0.08,0.56,0.25
					C451.77,745.05,451.84,745.23,451.84,745.43z"/>
				<path class="st0" d="M460.38,743.96c0,0.54-0.08,1.05-0.25,1.52c-0.17,0.47-0.42,0.87-0.75,1.2c-0.32,0.34-0.71,0.6-1.16,0.78
					c-0.45,0.17-0.96,0.26-1.53,0.26c-0.55,0-1.06-0.09-1.51-0.27c-0.44-0.18-0.84-0.44-1.17-0.77c-0.32-0.34-0.58-0.74-0.74-1.2
					c-0.17-0.46-0.25-0.97-0.25-1.52c0-0.56,0.09-1.07,0.26-1.54c0.17-0.46,0.41-0.86,0.73-1.19c0.32-0.33,0.71-0.58,1.17-0.76
					c0.46-0.18,0.96-0.27,1.51-0.27c0.57,0,1.07,0.09,1.53,0.27c0.46,0.18,0.85,0.44,1.17,0.77c0.33,0.33,0.57,0.73,0.74,1.19
					C460.3,742.9,460.38,743.4,460.38,743.96z M458.53,743.96c0-0.76-0.17-1.34-0.5-1.76c-0.33-0.42-0.77-0.63-1.34-0.63
					c-0.36,0-0.68,0.09-0.96,0.28c-0.27,0.19-0.49,0.47-0.64,0.83c-0.15,0.37-0.22,0.79-0.22,1.28c0,0.48,0.07,0.9,0.22,1.26
					c0.14,0.36,0.36,0.63,0.63,0.83c0.27,0.19,0.6,0.28,0.96,0.28c0.57,0,1.01-0.2,1.34-0.63
					C458.36,745.29,458.53,744.7,458.53,743.96z"/>
				<path class="st0" d="M467.99,744.09v2.46c0,0.39-0.09,0.68-0.26,0.87c-0.18,0.2-0.41,0.29-0.7,0.29c-0.28,0-0.51-0.09-0.68-0.29
					c-0.17-0.19-0.26-0.48-0.26-0.87v-2.95c0-0.47-0.01-0.82-0.04-1.09c-0.03-0.26-0.12-0.47-0.26-0.63
					c-0.14-0.17-0.36-0.25-0.66-0.25c-0.6,0-1,0.21-1.19,0.62c-0.19,0.42-0.29,1.01-0.29,1.79v2.5c0,0.38-0.09,0.67-0.26,0.87
					c-0.17,0.2-0.4,0.3-0.69,0.3c-0.28,0-0.51-0.1-0.69-0.3c-0.18-0.2-0.27-0.48-0.27-0.87v-5.3c0-0.34,0.08-0.61,0.24-0.79
					c0.16-0.18,0.38-0.27,0.63-0.27c0.26,0,0.47,0.09,0.63,0.25c0.18,0.18,0.26,0.41,0.26,0.71v0.17c0.32-0.38,0.66-0.66,1.03-0.84
					c0.36-0.18,0.77-0.27,1.22-0.27c0.47,0,0.87,0.09,1.2,0.28c0.34,0.18,0.61,0.46,0.83,0.83c0.31-0.37,0.65-0.65,1.01-0.84
					c0.35-0.18,0.75-0.27,1.18-0.27c0.51,0,0.94,0.1,1.31,0.29c0.37,0.21,0.64,0.49,0.82,0.85c0.16,0.34,0.24,0.86,0.24,1.58v3.61
					c0,0.39-0.09,0.68-0.27,0.87c-0.17,0.2-0.4,0.29-0.69,0.29c-0.28,0-0.51-0.1-0.69-0.3c-0.18-0.2-0.27-0.48-0.27-0.87v-3.11
					c0-0.39-0.01-0.71-0.05-0.96c-0.04-0.24-0.13-0.44-0.27-0.6c-0.15-0.16-0.38-0.24-0.68-0.24c-0.25,0-0.47,0.07-0.69,0.22
					c-0.22,0.14-0.39,0.34-0.52,0.59C468.06,742.75,467.99,743.3,467.99,744.09z"/>
			</g>
			<g>
				<path class="st0" d="M379.08,735.43c-0.04-0.12-0.07-0.24-0.11-0.35c0.62-0.06,1.04-0.8,0.73-1.36
					c-0.28-0.62-1.24-0.7-1.61-0.13c-0.39,0.51-0.09,1.3,0.52,1.46c0.04,0.12,0.07,0.26,0.11,0.38c-0.93,0.07-1.88,0.27-2.66,0.8
					c0.08,0.22,0.16,0.45,0.24,0.68c1.58-0.69,3.34-0.54,5.01-0.38c0.06-0.22,0.11-0.44,0.17-0.66
					C380.72,735.55,379.9,735.42,379.08,735.43z"/>
				<path class="st0" d="M388.46,737.97c-0.25,0.13-0.29,0.43-0.28,0.68c-0.28,0.27-0.14,0.68-0.17,1.01
					c-0.06,0.19-0.29,0.21-0.45,0.29c-0.22-0.34-0.45-0.65-0.75-0.93l0.01-0.02c-0.32-0.3-0.66-0.57-1.03-0.8
					c-0.29,0.31-0.6,0.62-0.88,0.94c0.55,0.61,1.07,1.27,1.52,1.96c0.31,0.53,0.56,1.08,0.78,1.66c0.47-0.24,0.93-0.49,1.4-0.74
					c-0.25-0.57-0.53-1.13-0.83-1.68c0.2-0.11,0.49-0.22,0.52-0.49c0.02-0.3-0.04-0.62,0.13-0.89c0.37,0.23,0.92-0.03,0.92-0.47
					C389.4,738.04,388.83,737.72,388.46,737.97z"/>
				<path class="st0" d="M385.92,741.38c-0.61-1.01-1.27-2.02-2.17-2.8c-1.03-0.91-2.38-1.53-3.78-1.52
					c-1.77-0.02-3.56,0.26-5.18,0.97c-1.53,0.67-2.87,1.88-3.54,3.43c-0.65,1.39-0.64,3-0.35,4.49c1.62,0.41,3.28,0.77,4.95,0.84
					c1.66,0.05,3.32,0.09,4.97-0.14c2.26-0.3,4.47-1.01,6.45-2.17C387.25,744.48,386.98,743,385.92,741.38z M377.93,743.38
					c-0.31,0.44-0.75,0.79-1.25,0.98c-0.95,0.36-2.11,0.11-2.79-0.64c-0.48-0.53-0.76-1.23-0.71-1.95c0.04-0.89,0.59-1.72,1.37-2.14
					c0.59-0.32,1.31-0.38,1.97-0.2c0.27,0.07,0.52,0.2,0.75,0.35c0.48,0.34,0.84,0.84,1.01,1.41
					C378.5,741.92,378.35,742.74,377.93,743.38z M384.78,741.77c-0.11,0.77-0.84,1.41-1.62,1.36c-0.45,0.04-0.88-0.17-1.19-0.49
					c-0.22-0.27-0.4-0.59-0.43-0.95c-0.11-0.77,0.44-1.57,1.2-1.75c0.33-0.09,0.68-0.04,1.01,0.04
					C384.46,740.22,384.92,741.02,384.78,741.77z"/>
				<path class="st0" d="M371.26,739.11c-0.66,0.4-1.2,0.96-1.66,1.58c-0.13-0.25-0.17-0.54-0.34-0.76
					c-0.1-0.13-0.28-0.07-0.41-0.07c-0.18,0.01-0.35-0.03-0.51-0.08c0.19-0.27,0.14-0.69-0.15-0.87c-0.32-0.22-0.81-0.03-0.89,0.35
					c-0.13,0.41,0.31,0.83,0.71,0.72c0.22,0.32,0.61,0.27,0.94,0.28c0.15,0.26,0.26,0.54,0.45,0.78c-0.36,0.7-0.56,1.48-0.57,2.26
					c0.46,0.19,0.91,0.38,1.37,0.58c0.02-0.5,0.08-0.99,0.16-1.47c0.15-1.07,0.77-1.99,1.49-2.75
					C371.65,739.46,371.45,739.29,371.26,739.11z"/>
				<path class="st0" d="M381.89,747.11c-1.68,0.37-3.41,0.47-5.12,0.4c-1.16-0.05-2.32-0.17-3.45-0.42
					c-0.8-0.16-1.59-0.4-2.38-0.62c0.13,1.01,0.54,1.97,1.12,2.8c0.69,0.97,1.61,1.85,2.75,2.21c0.89,0.24,1.95,0.55,3.79,0.51
					c1.52-0.02,3-0.21,4.33-0.79c0.86-0.37,1.66-0.87,2.35-1.5c0.6-0.56,1.06-1.26,1.38-2.01c0.31-0.71,0.6-1.99,0.57-2.64
					C385.59,745.99,383.76,746.8,381.89,747.11z"/>
			</g>
		</g>
	</g>
</g>
<g id="objects">
	<g>
		<g>
			<linearGradient id="SVGID_1_" gradientUnits="userSpaceOnUse" x1="83.7545" y1="102.8063" x2="51.2024" y2="10.236">
				<stop  offset="0" style="stop-color:#006086"/>
				<stop  offset="1" style="stop-color:#32C5F4"/>
			</linearGradient>
			<polygon class="st1" points="88.69,21.1 75.83,55.25 34.21,55.25 25.63,32.47 21.35,21.1 55.02,0 84.44,18.43 			"/>
			<linearGradient id="SVGID_2_" gradientUnits="userSpaceOnUse" x1="109.831" y1="-11.2351" x2="112.3368" y2="72.9609">
				<stop  offset="0" style="stop-color:#006086"/>
				<stop  offset="1" style="stop-color:#32C5F4"/>
			</linearGradient>
			<polygon class="st2" points="145.52,57.55 142.39,59.43 111.38,78.08 78.2,56.41 91.83,22.49 98.47,22.6 133.44,23.2 			"/>
			<linearGradient id="SVGID_3_" gradientUnits="userSpaceOnUse" x1="54.3009" y1="123.2138" x2="80.205" y2="74.191">
				<stop  offset="0" style="stop-color:#6E6F72"/>
				<stop  offset="1" style="stop-color:#D2D3D4"/>
			</linearGradient>
			<polygon class="st3" points="109.19,80.33 102.44,96.55 95.13,114.12 53.53,113.02 41.88,78.55 55.21,70.72 76.28,58.35 			"/>
			<linearGradient id="SVGID_4_" gradientUnits="userSpaceOnUse" x1="111.5622" y1="165.8727" x2="146.7917" y2="79.5858">
				<stop  offset="0" style="stop-color:#006086"/>
				<stop  offset="1" style="stop-color:#32C5F4"/>
			</linearGradient>
			<polygon class="st4" points="165.73,116.45 131.39,136.73 98.42,114.82 105.66,97.28 112.37,81.01 153.98,82 162.9,108.17 			"/>
			<linearGradient id="SVGID_5_" gradientUnits="userSpaceOnUse" x1="85.2394" y1="57.7988" x2="78.2369" y2="98.6693">
				<stop  offset="0" style="stop-color:#FFFFFF"/>
				<stop  offset="1" style="stop-color:#FFFFFF;stop-opacity:0"/>
			</linearGradient>
			<path class="st5" d="M109.19,80.33l-6.75,16.21c-4.43,1.95-9.44,3.05-14.75,3.05c-17.95,0-32.49-12.54-32.49-28.02
				c0-0.29,0.01-0.57,0.02-0.85l21.07-12.37L109.19,80.33z"/>
			<linearGradient id="SVGID_6_" gradientUnits="userSpaceOnUse" x1="56.62" y1="-1.9726" x2="49.0797" y2="42.0367">
				<stop  offset="0" style="stop-color:#FFFFFF"/>
				<stop  offset="1" style="stop-color:#FFFFFF;stop-opacity:0"/>
			</linearGradient>
			<path class="st6" d="M84.44,18.43c-3.62,13.25-17.42,23.11-33.89,23.11c-9.77,0-18.6-3.47-24.92-9.07L21.35,21.1L55.02,0
				L84.44,18.43z"/>
			<linearGradient id="SVGID_7_" gradientUnits="userSpaceOnUse" x1="124.944" y1="19.6323" x2="117.8694" y2="60.9238">
				<stop  offset="0" style="stop-color:#FFFFFF"/>
				<stop  offset="1" style="stop-color:#FFFFFF;stop-opacity:0"/>
			</linearGradient>
			<path class="st7" d="M145.52,57.55l-3.13,1.88c-4.19,1.69-8.87,2.63-13.8,2.63c-18.1,0-32.78-12.66-32.78-28.28
				c0-3.97,0.95-7.75,2.66-11.18l34.98,0.59L145.52,57.55z"/>
			<linearGradient id="SVGID_8_" gradientUnits="userSpaceOnUse" x1="138.6479" y1="77.2273" x2="131.4312" y2="119.3478">
				<stop  offset="0" style="stop-color:#FFFFFF"/>
				<stop  offset="1" style="stop-color:#FFFFFF;stop-opacity:0"/>
			</linearGradient>
			<path class="st8" d="M162.9,108.17c-5.8,6.94-15.23,11.45-25.9,11.45c-15.56,0-28.53-9.62-31.35-22.33l6.72-16.27l41.61,1
				L162.9,108.17z"/>
		</g>
		<text transform="matrix(1 0 0 1 -2.288818e-05 181.2788)" class="st9 st10 st11">BeamLight Corp</text>
	</g>
	<g>
		<g>
			<linearGradient id="SVGID_9_" gradientUnits="userSpaceOnUse" x1="266.1575" y1="42.7767" x2="313.5789" y2="153.2322">
				<stop  offset="0.0153" style="stop-color:#6457A5"/>
				<stop  offset="0.5102" style="stop-color:#00AFD8"/>
				<stop  offset="1" style="stop-color:#6FCDDE"/>
			</linearGradient>
			<path class="st12" d="M349.95,98c0,0.51-0.01,1.03-0.02,1.54c-0.14,5.27-0.95,10.37-2.35,15.22
				c-3.05,10.52-8.88,19.84-16.66,27.12c-10.74,10.06-25.19,16.22-41.06,16.22c-33.18,0-60.08-26.9-60.08-60.09
				c0-3.96,0.38-7.84,1.12-11.58c0.3-1.54,0.66-3.07,1.08-4.57c0.06-0.25,0.14-0.5,0.21-0.74c0.94-3.23,2.15-6.34,3.6-9.31
				c9.73-20.06,30.29-33.88,54.08-33.88c16.85,0,32.08,6.94,42.99,18.12C343.44,66.86,349.95,81.67,349.95,98z"/>
			<path class="st13" d="M349.95,98c0,0.51-0.01,1.03-0.02,1.54c-29.42-30.85-76.28-38.33-115.23-19.08
				c-0.91,0.44-1.82,0.91-2.72,1.39c0.06-0.25,0.14-0.5,0.21-0.74c0.94-3.23,2.15-6.34,3.6-9.31
				c28.15-19.29,63.82-24.91,97.07-15.76C343.44,66.86,349.95,81.67,349.95,98z"/>
			<path class="st13" d="M347.58,114.76c-3.05,10.52-8.88,19.84-16.66,27.12c-17.39-36.85-57.3-59.61-100.02-55.46
				c0.3-1.54,0.66-3.07,1.08-4.57c0.06-0.25,0.14-0.5,0.21-0.74c0.84-0.23,1.67-0.44,2.51-0.65
				C275.32,70.46,318.58,83.84,347.58,114.76z"/>
		</g>
		
			<radialGradient id="SVGID_10_" cx="288.6557" cy="205.8705" r="68.7268" gradientTransform="matrix(1.018 3.677946e-03 -2.473209e-04 0.1189 0.1504 172.7752)" gradientUnits="userSpaceOnUse">
			<stop  offset="0" style="stop-color:#010101"/>
			<stop  offset="0.9374" style="stop-color:#010101;stop-opacity:0"/>
		</radialGradient>
		<ellipse class="st14" cx="289.87" cy="197.23" rx="77.25" ry="18.05"/>
	</g>
	<g>
		<g>
			
				<linearGradient id="SVGID_11_" gradientUnits="userSpaceOnUse" x1="565.5289" y1="222.3229" x2="600.7404" y2="304.3385" gradientTransform="matrix(0.7071 -0.7071 0.7071 0.7071 -156.5043 361.0216)">
				<stop  offset="0" style="stop-color:#F47F4F"/>
				<stop  offset="1" style="stop-color:#EE3E96"/>
			</linearGradient>
			<path class="st15" d="M475.84,141.41l-1.65,33.29c-1.52-0.03-3.01-0.62-4.16-1.77l-62.71-62.71c-1.19-1.19-1.78-2.73-1.78-4.29
				l33.42,0.34c0.25,1.07,0.79,2.08,1.62,2.92l30.46,30.46C472.36,140.97,474.12,141.55,475.84,141.41z"/>
			
				<linearGradient id="SVGID_12_" gradientUnits="userSpaceOnUse" x1="-175.8743" y1="241.1142" x2="-140.6628" y2="323.1298" gradientTransform="matrix(-0.7071 0.7071 -0.7071 -0.7071 575.176 379.9357)">
				<stop  offset="0" style="stop-color:#76CEDE"/>
				<stop  offset="1" style="stop-color:#A3D17A"/>
			</linearGradient>
			<path class="st16" d="M469.45,68.27l1.65-33.29c1.52,0.03,3.01,0.62,4.16,1.77l62.71,62.71c1.19,1.19,1.78,2.73,1.78,4.29
				l-33.42-0.34c-0.25-1.07-0.79-2.08-1.62-2.92l-30.46-30.46C472.93,68.71,471.17,68.12,469.45,68.27z"/>
			
				<linearGradient id="SVGID_13_" gradientUnits="userSpaceOnUse" x1="552.1133" y1="245.6393" x2="691.1985" y2="205.6577" gradientTransform="matrix(0.7071 -0.7071 0.7071 0.7071 -156.5043 361.0216)">
				<stop  offset="0" style="stop-color:#FAA32D"/>
				<stop  offset="0.5" style="stop-color:#FFCD05"/>
				<stop  offset="0.6889" style="stop-color:#E9D02E"/>
				<stop  offset="1" style="stop-color:#BAD75B"/>
			</linearGradient>
			<path class="st17" d="M439.3,106.88l-33.33-0.31c-0.03-1.52,0.5-3.03,1.6-4.23l60.14-65.17c1.14-1.23,2.66-1.89,4.21-1.95
				l1,33.41c-1.06,0.29-2.05,0.87-2.86,1.74l-29.21,31.66C439.59,103.39,439.08,105.17,439.3,106.88z"/>
			
				<linearGradient id="SVGID_14_" gradientUnits="userSpaceOnUse" x1="27.9266" y1="772.2289" x2="63.1373" y2="854.2428" gradientTransform="matrix(-0.7349 -0.6782 0.6782 -0.7349 -17.2398 765.3596)">
				<stop  offset="0.0153" style="stop-color:#6457A5"/>
				<stop  offset="0.5102" style="stop-color:#00AFD8"/>
				<stop  offset="1" style="stop-color:#6FCDDE"/>
			</linearGradient>
			<path class="st18" d="M505.99,102.79l33.33,0.31c0.03,1.52-0.5,3.03-1.6,4.23l-60.14,65.17c-1.14,1.23-2.66,1.89-4.21,1.95
				l-1-33.41c1.06-0.29,2.05-0.87,2.86-1.74l29.21-31.66C505.7,106.29,506.21,104.5,505.99,102.79z"/>
		</g>
		
			<radialGradient id="SVGID_15_" cx="467.9662" cy="206.6068" r="64.7231" gradientTransform="matrix(1.018 3.677946e-03 -2.473209e-04 0.1189 0.1513 173.0161)" gradientUnits="userSpaceOnUse">
			<stop  offset="0" style="stop-color:#010101"/>
			<stop  offset="0.9374" style="stop-color:#010101;stop-opacity:0"/>
		</radialGradient>
		<ellipse class="st19" cx="472.64" cy="198.28" rx="72.75" ry="17"/>
	</g>
	<g>
		<g>
			
				<linearGradient id="SVGID_16_" gradientUnits="userSpaceOnUse" x1="-37.3429" y1="-17.7746" x2="79.1072" y2="-17.7746" gradientTransform="matrix(0.2703 0.9628 -0.9628 0.2703 600.075 89.8048)">
				<stop  offset="0" style="stop-color:#76CEDE"/>
				<stop  offset="1" style="stop-color:#A3D17A"/>
			</linearGradient>
			<polygon class="st20" points="623.05,165.52 591.57,53.4 629.89,70.62 654.09,156.81 			"/>
			
				<linearGradient id="SVGID_17_" gradientUnits="userSpaceOnUse" x1="-31.0239" y1="-78.7166" x2="63.0469" y2="-25.2329" gradientTransform="matrix(0.2703 0.9628 -0.9628 0.2703 600.075 89.8048)">
				<stop  offset="0" style="stop-color:#FAA32D"/>
				<stop  offset="0.5" style="stop-color:#FFCD05"/>
				<stop  offset="0.6889" style="stop-color:#E9D02E"/>
				<stop  offset="1" style="stop-color:#BAD75B"/>
			</linearGradient>
			<polygon class="st21" points="682.82,28.97 654.09,156.81 623.05,165.52 651.78,37.69 			"/>
			
				<linearGradient id="SVGID_18_" gradientUnits="userSpaceOnUse" x1="-6.6503" y1="-79.268" x2="16.1734" y2="-26.1064" gradientTransform="matrix(0.2703 0.9628 -0.9628 0.2703 600.075 89.8048)">
				<stop  offset="0" style="stop-color:#931A1D"/>
				<stop  offset="0.8419" style="stop-color:#FFCD05;stop-opacity:0"/>
			</linearGradient>
			<polygon class="st22" points="651.78,37.69 637.89,99.1 663.62,113.55 673.93,68.89 			"/>
			
				<linearGradient id="SVGID_19_" gradientUnits="userSpaceOnUse" x1="-36.2021" y1="-79.988" x2="68.4881" y2="-79.988" gradientTransform="matrix(0.2703 0.9628 -0.9628 0.2703 600.075 89.8048)">
				<stop  offset="0" style="stop-color:#F47F4F"/>
				<stop  offset="1" style="stop-color:#EE3E96"/>
			</linearGradient>
			<polygon class="st23" points="682.82,28.97 714.3,141.09 675.98,123.88 651.78,37.69 			"/>
		</g>
		
			<radialGradient id="SVGID_20_" cx="645.3304" cy="205.7887" r="69.1716" gradientTransform="matrix(1.018 3.677946e-03 -2.473209e-04 0.1189 0.1518 171.3634)" gradientUnits="userSpaceOnUse">
			<stop  offset="0" style="stop-color:#010101"/>
			<stop  offset="0.9374" style="stop-color:#010101;stop-opacity:0"/>
		</radialGradient>
		<ellipse class="st24" cx="652.94" cy="197.11" rx="77.75" ry="18.17"/>
	</g>
	<g>
		<g>
			<linearGradient id="SVGID_21_" gradientUnits="userSpaceOnUse" x1="652.8253" y1="397.033" x2="652.8253" y2="261.2018">
				<stop  offset="0" style="stop-color:#FAA32D"/>
				<stop  offset="0.5" style="stop-color:#FFCD05"/>
				<stop  offset="0.6889" style="stop-color:#E9D02E"/>
				<stop  offset="1" style="stop-color:#BAD75B"/>
			</linearGradient>
			<path class="st25" d="M710.23,328.17l-13.45-50.22l-60.04-16.09l-43.95,43.95l16.09,60.03l60.04,16.1l43.95-43.95L710.23,328.17z
				 M676.67,345.73l-32.57,8.73l-23.84-23.84l1.81-6.77l6.92-25.79l32.57-8.73l23.83,23.84l-6.82,25.49L676.67,345.73z"/>
			<linearGradient id="SVGID_22_" gradientUnits="userSpaceOnUse" x1="652.8254" y1="352.7032" x2="652.8254" y2="290.553">
				<stop  offset="0" style="stop-color:#6E6F72"/>
				<stop  offset="1" style="stop-color:#D2D3D4"/>
			</linearGradient>
			<polygon class="st26" points="667.94,313.17 667.94,330.62 652.83,339.35 637.71,330.62 637.71,313.17 652.83,304.46 
				667.65,313.01 			"/>
			<linearGradient id="SVGID_23_" gradientUnits="userSpaceOnUse" x1="664.46" y1="261.5065" x2="651.8716" y2="329.9877">
				<stop  offset="0" style="stop-color:#FFFFFF"/>
				<stop  offset="1" style="stop-color:#FFFFFF;stop-opacity:0"/>
			</linearGradient>
			<path class="st27" d="M678.56,338.66l6.82-25.49l-23.83-23.84l-32.57,8.73l-6.92,25.79c-10.66-6.95-18.56-15.63-22.54-24.77
				l37.21-37.21l60.04,16.09l13.45,50.22C702.32,334.18,691.2,337.86,678.56,338.66z"/>
			<linearGradient id="SVGID_24_" gradientUnits="userSpaceOnUse" x1="650.0858" y1="305.0543" x2="654.3418" y2="323.765">
				<stop  offset="0" style="stop-color:#FFFFFF"/>
				<stop  offset="1" style="stop-color:#FFFFFF;stop-opacity:0"/>
			</linearGradient>
			<path class="st28" d="M667.65,313.01c-1.22,7.39-8.17,13.05-16.56,13.05c-5.47,0-10.33-2.41-13.38-6.14v-6.75l15.11-8.72
				L667.65,313.01z"/>
		</g>
		
			<radialGradient id="SVGID_25_" cx="645.994" cy="398.6115" r="82.4203" gradientTransform="matrix(1.018 3.677946e-03 -2.473209e-04 0.1189 0.1995 407.1587)" gradientUnits="userSpaceOnUse">
			<stop  offset="0" style="stop-color:#010101"/>
			<stop  offset="0.9374" style="stop-color:#010101;stop-opacity:0"/>
		</radialGradient>
		<ellipse class="st29" cx="652.83" cy="455.63" rx="92.64" ry="21.65"/>
	</g>
	<g>
		<g>
			<g>
				<linearGradient id="SVGID_26_" gradientUnits="userSpaceOnUse" x1="625.0283" y1="666.6983" x2="678.5297" y2="565.4484">
					<stop  offset="0" style="stop-color:#6E6F72"/>
					<stop  offset="1" style="stop-color:#D2D3D4"/>
				</linearGradient>
				<polygon class="st30" points="713.24,625.7 646.1,657.63 593.64,601.22 606.39,576.7 606.39,576.69 628.37,534.43 
					702.28,549.56 707.53,586.11 707.61,586.62 				"/>
				<radialGradient id="SVGID_27_" cx="653.4416" cy="596.0327" r="59.041" gradientUnits="userSpaceOnUse">
					<stop  offset="0" style="stop-color:#595A5C"/>
					<stop  offset="1" style="stop-color:#1F2020"/>
				</radialGradient>
				<polygon class="st31" points="692.37,559.74 696.03,587.6 700.02,617.79 647.17,643 606.86,600.52 617.69,580.58 634.8,549.07 
									"/>
				<linearGradient id="SVGID_28_" gradientUnits="userSpaceOnUse" x1="638.0159" y1="529.6884" x2="593.2612" y2="613.6035">
					<stop  offset="0" style="stop-color:#FAA32D"/>
					<stop  offset="0.5" style="stop-color:#FFCD05"/>
					<stop  offset="0.6889" style="stop-color:#E9D02E"/>
					<stop  offset="1" style="stop-color:#BAD75B"/>
				</linearGradient>
				<polygon class="st32" points="634.8,549.07 613.64,588.04 606.86,600.52 593.64,601.22 606.39,576.7 606.39,576.69 
					628.37,534.43 				"/>
				<linearGradient id="SVGID_29_" gradientUnits="userSpaceOnUse" x1="595.1566" y1="592.2035" x2="648.3032" y2="655.1404">
					<stop  offset="0" style="stop-color:#A3D17A"/>
					<stop  offset="1" style="stop-color:#76CEDE"/>
				</linearGradient>
				<polygon class="st33" points="606.86,600.52 593.64,601.22 646.1,657.63 647.17,643 				"/>
				<linearGradient id="SVGID_30_" gradientUnits="userSpaceOnUse" x1="641.2048" y1="656.6834" x2="723.0226" y2="609.8305">
					<stop  offset="0" style="stop-color:#6FCDDE"/>
					<stop  offset="0.4898" style="stop-color:#00AFD8"/>
					<stop  offset="0.9847" style="stop-color:#6457A5"/>
				</linearGradient>
				<polygon class="st34" points="700.02,617.79 647.17,643 646.1,657.63 713.24,625.7 				"/>
				<linearGradient id="SVGID_31_" gradientUnits="userSpaceOnUse" x1="698.1066" y1="553.7648" x2="707.8964" y2="634.88">
					<stop  offset="0.0459" style="stop-color:#843C97"/>
					<stop  offset="0.449" style="stop-color:#6457A5"/>
					<stop  offset="1" style="stop-color:#2F8CCC"/>
				</linearGradient>
				<polygon class="st35" points="713.24,625.7 700.02,617.79 697.17,596.2 692.37,559.74 702.28,549.56 707.62,586.61 				"/>
				<linearGradient id="SVGID_32_" gradientUnits="userSpaceOnUse" x1="628.3679" y1="547.0856" x2="702.2798" y2="547.0856">
					<stop  offset="0" style="stop-color:#F47F4F"/>
					<stop  offset="1" style="stop-color:#EE3E96"/>
				</linearGradient>
				<polygon class="st36" points="702.28,549.56 692.37,559.74 634.8,549.07 628.37,534.43 				"/>
			</g>
			<linearGradient id="SVGID_33_" gradientUnits="userSpaceOnUse" x1="650.9123" y1="519.4398" x2="658.954" y2="601.5789">
				<stop  offset="0" style="stop-color:#FFFFFF"/>
				<stop  offset="1" style="stop-color:#FFFFFF;stop-opacity:0"/>
			</linearGradient>
			<path class="st37" d="M707.62,586.61c-0.01,0-0.01,0.01-0.01,0.02c-2.91,3.57-6.42,6.79-10.44,9.57h-0.01
				c-9.94,6.89-22.93,11.06-37.14,11.06c-19.19,0-36.14-7.6-46.38-19.21c-3.05-3.46-5.5-7.27-7.25-11.35v-0.01l21.98-42.26
				l73.91,15.13L707.62,586.61z"/>
		</g>
		
			<radialGradient id="SVGID_34_" cx="645.853" cy="575.4807" r="69.6165" gradientTransform="matrix(1.018 3.677946e-03 -2.473209e-04 0.1189 0.2432 623.4477)" gradientUnits="userSpaceOnUse">
			<stop  offset="0" style="stop-color:#010101"/>
			<stop  offset="0.9374" style="stop-color:#010101;stop-opacity:0"/>
		</radialGradient>
		<ellipse class="st38" cx="653.44" cy="693.16" rx="78.25" ry="18.29"/>
	</g>
	<g>
		<g>
			
				<linearGradient id="SVGID_35_" gradientUnits="userSpaceOnUse" x1="458.1499" y1="444.4302" x2="529.8209" y2="516.1012" gradientTransform="matrix(0 -1 1 0 -59.5128 1097.3934)">
				<stop  offset="0" style="stop-color:#6E6F72"/>
				<stop  offset="1" style="stop-color:#D2D3D4"/>
			</linearGradient>
			<polygon class="st39" points="436.13,547.11 436.13,659.7 405.38,659.7 405.38,547.11 			"/>
			<g>
				<linearGradient id="SVGID_36_" gradientUnits="userSpaceOnUse" x1="457.8085" y1="630.0388" x2="455.8674" y2="518.7785">
					<stop  offset="0" style="stop-color:#056C94"/>
					<stop  offset="1" style="stop-color:#33C4EA"/>
				</linearGradient>
				<polygon class="st40" points="472.59,547.11 472.59,659.19 472.27,659.54 441.84,645.23 441.84,547.11 				"/>
				<linearGradient id="SVGID_37_" gradientUnits="userSpaceOnUse" x1="438.3203" y1="689.9759" x2="522.426" y2="570.3589">
					<stop  offset="0" style="stop-color:#4F69B2"/>
					<stop  offset="0.4796" style="stop-color:#00AFD8"/>
					<stop  offset="1" style="stop-color:#6FCDDE"/>
				</linearGradient>
				<polygon class="st41" points="536.95,589.43 472.59,659.19 472.27,659.54 441.84,645.23 472.59,611.9 515.27,565.65 				"/>
			</g>
		</g>
		
			<radialGradient id="SVGID_38_" cx="466.5399" cy="576.2988" r="65.168" gradientTransform="matrix(1.018 3.677946e-03 -2.473209e-04 0.1189 0.2427 625.1076)" gradientUnits="userSpaceOnUse">
			<stop  offset="0" style="stop-color:#010101"/>
			<stop  offset="0.9374" style="stop-color:#010101;stop-opacity:0"/>
		</radialGradient>
		<ellipse class="st42" cx="471.17" cy="694.32" rx="73.25" ry="17.12"/>
	</g>
	<g>
		<g>
			
				<linearGradient id="SVGID_39_" gradientUnits="userSpaceOnUse" x1="201.298" y1="546.6107" x2="240.0217" y2="546.6107" gradientTransform="matrix(0.7071 0.7071 -0.7071 0.7071 493.1513 -22.2165)">
				<stop  offset="0" style="stop-color:#056C94"/>
				<stop  offset="1" style="stop-color:#33C4EA"/>
			</linearGradient>
			<polygon class="st43" points="262.67,547.7 235.29,520.32 262.67,492.94 290.05,520.32 			"/>
			
				<linearGradient id="SVGID_40_" gradientUnits="userSpaceOnUse" x1="245.4362" y1="546.6107" x2="284.1599" y2="546.6107" gradientTransform="matrix(0.7071 0.7071 -0.7071 0.7071 493.1513 -22.2165)">
				<stop  offset="0" style="stop-color:#056C94"/>
				<stop  offset="1" style="stop-color:#33C4EA"/>
			</linearGradient>
			<polygon class="st44" points="293.88,578.91 266.5,551.53 293.88,524.15 321.26,551.53 			"/>
			
				<linearGradient id="SVGID_41_" gradientUnits="userSpaceOnUse" x1="289.5745" y1="546.6107" x2="328.2981" y2="546.6107" gradientTransform="matrix(0.7071 0.7071 -0.7071 0.7071 493.1513 -22.2165)">
				<stop  offset="0" style="stop-color:#F47F4F"/>
				<stop  offset="1" style="stop-color:#EE3E96"/>
			</linearGradient>
			<polygon class="st45" points="325.09,610.12 297.71,582.74 325.09,555.36 352.47,582.74 			"/>
			
				<linearGradient id="SVGID_42_" gradientUnits="userSpaceOnUse" x1="245.4362" y1="590.7748" x2="284.1599" y2="590.7748" gradientTransform="matrix(0.7071 0.7071 -0.7071 0.7071 493.1513 -22.2165)">
				<stop  offset="0" style="stop-color:#056C94"/>
				<stop  offset="1" style="stop-color:#33C4EA"/>
			</linearGradient>
			<polygon class="st46" points="262.65,610.14 235.27,582.76 262.65,555.38 290.03,582.76 			"/>
			
				<linearGradient id="SVGID_43_" gradientUnits="userSpaceOnUse" x1="289.5745" y1="590.7748" x2="328.2981" y2="590.7748" gradientTransform="matrix(0.7071 0.7071 -0.7071 0.7071 493.1513 -22.2165)">
				<stop  offset="0" style="stop-color:#BAD75B"/>
				<stop  offset="0.3111" style="stop-color:#E9D02E"/>
				<stop  offset="0.5" style="stop-color:#FFCD05"/>
				<stop  offset="1" style="stop-color:#FAA32D"/>
			</linearGradient>
			<polygon class="st47" points="293.86,641.35 266.48,613.97 293.86,586.59 321.24,613.97 			"/>
			
				<linearGradient id="SVGID_44_" gradientUnits="userSpaceOnUse" x1="289.5745" y1="634.9388" x2="328.2981" y2="634.9388" gradientTransform="matrix(0.7071 0.7071 -0.7071 0.7071 493.1513 -22.2165)">
				<stop  offset="0" style="stop-color:#BAD75B"/>
				<stop  offset="0.3111" style="stop-color:#E9D02E"/>
				<stop  offset="0.5" style="stop-color:#FFCD05"/>
				<stop  offset="1" style="stop-color:#FAA32D"/>
			</linearGradient>
			<polygon class="st48" points="262.63,672.58 235.25,645.2 262.63,617.82 290.02,645.2 			"/>
		</g>
		
			<radialGradient id="SVGID_45_" cx="293.0993" cy="574.0081" r="77.6238" gradientTransform="matrix(1.018 3.677946e-03 -2.473209e-04 0.1189 0.2415 622.9443)" gradientUnits="userSpaceOnUse">
			<stop  offset="0" style="stop-color:#010101"/>
			<stop  offset="0.9374" style="stop-color:#010101;stop-opacity:0"/>
		</radialGradient>
		<ellipse class="st49" cx="293.86" cy="691.05" rx="87.25" ry="20.39"/>
	</g>
	<g>
		<g>
			<linearGradient id="SVGID_46_" gradientUnits="userSpaceOnUse" x1="99.9034" y1="669.4" x2="99.9034" y2="492.2776">
				<stop  offset="0.0153" style="stop-color:#6457A5"/>
				<stop  offset="0.5102" style="stop-color:#00AFD8"/>
				<stop  offset="1" style="stop-color:#6FCDDE"/>
			</linearGradient>
			<path class="st50" d="M99.91,503.03c-41.87,0-75.81,33.94-75.81,75.81c0,41.86,33.94,75.81,75.81,75.81
				c41.86,0,75.8-33.95,75.8-75.81C175.7,536.97,141.77,503.03,99.91,503.03z M99.91,614.4c-18.9,0-34.21-15.32-34.21-34.21
				c0-18.9,15.31-34.21,34.21-34.21c18.89,0,34.2,15.31,34.2,34.21C134.11,599.07,118.8,614.4,99.91,614.4z"/>
			<radialGradient id="SVGID_47_" cx="98.5668" cy="581.5208" r="72.3748" gradientUnits="userSpaceOnUse">
				<stop  offset="0" style="stop-color:#FFCD05"/>
				<stop  offset="0.3275" style="stop-color:#FFCB07"/>
				<stop  offset="0.4877" style="stop-color:#FEC60F"/>
				<stop  offset="0.6116" style="stop-color:#FDBC17"/>
				<stop  offset="0.7168" style="stop-color:#FBAF1F"/>
				<stop  offset="0.8102" style="stop-color:#F89E26"/>
				<stop  offset="0.8952" style="stop-color:#F6892B"/>
				<stop  offset="0.9722" style="stop-color:#F3702F"/>
				<stop  offset="1" style="stop-color:#F26430"/>
			</radialGradient>
			<path class="st51" d="M99.91,508.4c-30.01,0-54.34,24.32-54.34,54.34c0,30.01,24.33,54.33,54.34,54.33
				c30.01,0,54.34-24.32,54.34-54.33C154.25,532.72,129.92,508.4,99.91,508.4z M99.91,614.4c-18.9,0-34.21-15.32-34.21-34.21
				c0-18.9,15.31-34.21,34.21-34.21c18.89,0,34.2,15.31,34.2,34.21C134.11,599.07,118.8,614.4,99.91,614.4z"/>
		</g>
		
			<radialGradient id="SVGID_48_" cx="102.7069" cy="573.5734" r="79.9877" gradientTransform="matrix(1.018 3.677946e-03 -2.473209e-04 0.1189 0.2407 623.113)" gradientUnits="userSpaceOnUse">
			<stop  offset="0" style="stop-color:#010101"/>
			<stop  offset="0.9374" style="stop-color:#010101;stop-opacity:0"/>
		</radialGradient>
		<ellipse class="st52" cx="99.9" cy="690.43" rx="89.9" ry="21.01"/>
	</g>
	<g>
		<radialGradient id="SVGID_49_" cx="467.4978" cy="354.2195" r="69.9748" gradientUnits="userSpaceOnUse">
			<stop  offset="0" style="stop-color:#F47F4F"/>
			<stop  offset="1" style="stop-color:#EE3E96"/>
		</radialGradient>
		<path class="st53" d="M470.14,346.7c-5.54,0-10.02,4.49-10.02,10.02c0,1.28,0.24,2.5,0.68,3.62c1.45,3.75,5.08,6.4,9.34,6.4
			c4.26,0,7.9-2.66,9.34-6.4c0.44-1.12,0.68-2.34,0.68-3.62C480.17,351.19,475.68,346.7,470.14,346.7z M498.42,342.64l29.41-29.41
			l-14.28-14.28l-33.32,33.32V287h-20.19v45.6l-32.74-32.74l-14.28,14.28l28.51,28.51h-36.52v20.19h50.49
			c-0.69-1.76-1.07-3.67-1.07-5.67c0-8.66,7.02-15.69,15.69-15.69c8.66,0,15.69,7.03,15.69,15.69c0,2-0.37,3.91-1.07,5.67h50.49
			v-20.19H498.42z"/>
		
			<radialGradient id="SVGID_50_" cx="457.0735" cy="402.8837" r="52.5887" gradientTransform="matrix(1.2633 4.609904e-03 -3.069160e-04 0.1491 -100.0386 396.8502)" gradientUnits="userSpaceOnUse">
			<stop  offset="0" style="stop-color:#010101"/>
			<stop  offset="0.9374" style="stop-color:#010101;stop-opacity:0"/>
		</radialGradient>
		<ellipse class="st54" cx="473.38" cy="457.96" rx="73.35" ry="17.31"/>
	</g>
	<g>
		<g>
			<g>
				<linearGradient id="SVGID_51_" gradientUnits="userSpaceOnUse" x1="244.5809" y1="381.1819" x2="244.5809" y2="275.0237">
					<stop  offset="0" style="stop-color:#056C94"/>
					<stop  offset="1" style="stop-color:#33C4EA"/>
				</linearGradient>
				<path class="st55" d="M245.77,388.9h-2.37c-6.6,0-12-5.4-12-12V270.32c0-6.6,5.4-12,12-12h2.37c6.6,0,12,5.4,12,12V376.9
					C257.77,383.5,252.37,388.9,245.77,388.9z"/>
				<linearGradient id="SVGID_52_" gradientUnits="userSpaceOnUse" x1="276.1015" y1="426.8545" x2="276.1015" y2="279.4304">
					<stop  offset="0" style="stop-color:#6E6F72"/>
					<stop  offset="1" style="stop-color:#D2D3D4"/>
				</linearGradient>
				<path class="st56" d="M277.29,419.78h-2.37c-6.6,0-12-5.4-12-12V301.19c0-6.6,5.4-12,12-12h2.37c6.6,0,12,5.4,12,12v106.59
					C289.29,414.38,283.89,419.78,277.29,419.78z"/>
				<linearGradient id="SVGID_53_" gradientUnits="userSpaceOnUse" x1="307.622" y1="381.1819" x2="307.622" y2="275.0237">
					<stop  offset="0" style="stop-color:#056C94"/>
					<stop  offset="1" style="stop-color:#33C4EA"/>
				</linearGradient>
				<path class="st57" d="M308.81,388.9h-2.37c-6.6,0-12-5.4-12-12V270.32c0-6.6,5.4-12,12-12h2.37c6.6,0,12,5.4,12,12V376.9
					C320.81,383.5,315.41,388.9,308.81,388.9z"/>
				<linearGradient id="SVGID_54_" gradientUnits="userSpaceOnUse" x1="339.1426" y1="381.1819" x2="339.1426" y2="275.0237">
					<stop  offset="0" style="stop-color:#056C94"/>
					<stop  offset="1" style="stop-color:#33C4EA"/>
				</linearGradient>
				<path class="st58" d="M340.33,388.9h-2.37c-6.6,0-12-5.4-12-12V270.32c0-6.6,5.4-12,12-12h2.37c6.6,0,12,5.4,12,12V376.9
					C352.33,383.5,346.93,388.9,340.33,388.9z"/>
			</g>
			<linearGradient id="SVGID_55_" gradientUnits="userSpaceOnUse" x1="244.2592" y1="252.0763" x2="244.2592" y2="318.0763">
				<stop  offset="0" style="stop-color:#FFFFFF"/>
				<stop  offset="1" style="stop-color:#FFFFFF;stop-opacity:0"/>
			</linearGradient>
			<path class="st59" d="M244.26,308.23L244.26,308.23c-6.37,0-11.58-5.21-11.58-11.58v-25.47c0-6.37,5.21-11.58,11.58-11.58h0
				c6.37,0,11.58,5.21,11.58,11.58v25.47C255.84,303.02,250.63,308.23,244.26,308.23z"/>
			<linearGradient id="SVGID_56_" gradientUnits="userSpaceOnUse" x1="338.821" y1="252.0763" x2="338.821" y2="318.0763">
				<stop  offset="0" style="stop-color:#FFFFFF"/>
				<stop  offset="1" style="stop-color:#FFFFFF;stop-opacity:0"/>
			</linearGradient>
			<path class="st60" d="M338.82,308.23L338.82,308.23c-6.37,0-11.58-5.21-11.58-11.58v-25.47c0-6.37,5.21-11.58,11.58-11.58l0,0
				c6.37,0,11.58,5.21,11.58,11.58v25.47C350.4,303.02,345.19,308.23,338.82,308.23z"/>
			<linearGradient id="SVGID_57_" gradientUnits="userSpaceOnUse" x1="307.3004" y1="252.0763" x2="307.3004" y2="318.0763">
				<stop  offset="0" style="stop-color:#FFFFFF"/>
				<stop  offset="1" style="stop-color:#FFFFFF;stop-opacity:0"/>
			</linearGradient>
			<path class="st61" d="M307.3,308.23L307.3,308.23c-6.37,0-11.58-5.21-11.58-11.58v-25.47c0-6.37,5.21-11.58,11.58-11.58l0,0
				c6.37,0,11.58,5.21,11.58,11.58v25.47C318.88,303.02,313.67,308.23,307.3,308.23z"/>
			<linearGradient id="SVGID_58_" gradientUnits="userSpaceOnUse" x1="276.4231" y1="283.5967" x2="276.4231" y2="349.5969">
				<stop  offset="0" style="stop-color:#FFFFFF"/>
				<stop  offset="1" style="stop-color:#FFFFFF;stop-opacity:0"/>
			</linearGradient>
			<path class="st62" d="M276.42,339.75L276.42,339.75c-6.37,0-11.58-5.21-11.58-11.58V302.7c0-6.37,5.21-11.58,11.58-11.58l0,0
				c6.37,0,11.58,5.21,11.58,11.58v25.47C288,334.54,282.79,339.75,276.42,339.75z"/>
		</g>
		
			<radialGradient id="SVGID_59_" cx="291.1331" cy="399.4936" r="77.6238" gradientTransform="matrix(1.018 3.677946e-03 -2.473209e-04 0.1189 0.1983 409.5425)" gradientUnits="userSpaceOnUse">
			<stop  offset="0" style="stop-color:#010101"/>
			<stop  offset="0.9374" style="stop-color:#010101;stop-opacity:0"/>
		</radialGradient>
		<ellipse class="st63" cx="291.86" cy="456.89" rx="87.25" ry="20.39"/>
	</g>
	<g>
		<g>
			<linearGradient id="SVGID_60_" gradientUnits="userSpaceOnUse" x1="23.3416" y1="309.6088" x2="70.6748" y2="309.6088">
				<stop  offset="0" style="stop-color:#056C94"/>
				<stop  offset="1" style="stop-color:#33C4EA"/>
			</linearGradient>
			<rect x="23.34" y="285.94" class="st64" width="47.33" height="47.33"/>
			<linearGradient id="SVGID_61_" gradientUnits="userSpaceOnUse" x1="77.1832" y1="309.6088" x2="124.5164" y2="309.6088">
				<stop  offset="0" style="stop-color:#056C94"/>
				<stop  offset="1" style="stop-color:#33C4EA"/>
			</linearGradient>
			<rect x="77.18" y="285.94" class="st65" width="47.33" height="47.33"/>
			<linearGradient id="SVGID_62_" gradientUnits="userSpaceOnUse" x1="77.1832" y1="362.5628" x2="124.5164" y2="362.5628">
				<stop  offset="0" style="stop-color:#FAA32D"/>
				<stop  offset="0.5" style="stop-color:#FFCD05"/>
				<stop  offset="0.6889" style="stop-color:#E9D02E"/>
				<stop  offset="1" style="stop-color:#BAD75B"/>
			</linearGradient>
			<rect x="77.18" y="338.9" class="st66" width="47.33" height="47.33"/>
			<linearGradient id="SVGID_63_" gradientUnits="userSpaceOnUse" x1="130.4331" y1="362.5628" x2="177.7663" y2="362.5628">
				<stop  offset="0" style="stop-color:#BAD75B"/>
				<stop  offset="0.3111" style="stop-color:#E9D02E"/>
				<stop  offset="0.5" style="stop-color:#FFCD05"/>
				<stop  offset="1" style="stop-color:#FAA32D"/>
			</linearGradient>
			<rect x="130.43" y="338.9" class="st67" width="47.33" height="47.33"/>
			<linearGradient id="SVGID_64_" gradientUnits="userSpaceOnUse" x1="100.8498" y1="439.1835" x2="100.8498" y2="391.8502">
				<stop  offset="0" style="stop-color:#76CEDE"/>
				<stop  offset="1" style="stop-color:#A3D17A"/>
			</linearGradient>
			<rect x="77.18" y="391.85" class="st68" width="47.33" height="47.33"/>
		</g>
		
			<radialGradient id="SVGID_65_" cx="102.8446" cy="400.6389" r="71.3959" gradientTransform="matrix(1.018 3.677946e-03 -2.473209e-04 0.1189 0.1979 411.6356)" gradientUnits="userSpaceOnUse">
			<stop  offset="0" style="stop-color:#010101"/>
			<stop  offset="0.9374" style="stop-color:#010101;stop-opacity:0"/>
		</radialGradient>
		<ellipse class="st69" cx="100.55" cy="458.53" rx="80.25" ry="18.75"/>
	</g>
</g>
</svg>
