<?xml version="1.0" encoding="utf-8"?>
<!-- Generator: Adobe Illustrator 24.1.2, SVG Export Plug-In . SVG Version: 6.00 Build 0)  -->
<svg version="1.1" xmlns="http://www.w3.org/2000/svg" xmlns:xlink="http://www.w3.org/1999/xlink" x="0px" y="0px"
	 viewBox="0 0 256.68 189.16" style="enable-background:new 0 0 256.68 189.16;" xml:space="preserve">
<style type="text/css">
	.st0{fill:#424143;}
	.st1{fill:url(#SVGID_1_);}
	.st2{fill:url(#SVGID_2_);}
	.st3{fill:url(#SVGID_3_);}
	.st4{fill:url(#SVGID_4_);}
	.st5{opacity:0.54;fill:url(#SVGID_5_);}
	.st6{opacity:0.65;fill:url(#SVGID_6_);}
	.st7{opacity:0.65;fill:url(#SVGID_7_);}
	.st8{opacity:0.65;fill:url(#SVGID_8_);}
	.st9{fill:#F7941D;}
	.st10{fill:#FFFFFF;}
	.st11{fill:url(#SVGID_9_);}
	.st12{fill:url(#SVGID_10_);}
	.st13{fill:url(#SVGID_11_);}
	.st14{fill:url(#SVGID_12_);}
	.st15{fill:url(#SVGID_13_);}
	.st16{fill:url(#SVGID_14_);}
	.st17{fill:url(#SVGID_15_);}
	.st18{fill:url(#SVGID_16_);}
	.st19{opacity:0.24;fill:url(#SVGID_17_);}
	.st20{fill:url(#SVGID_18_);}
	.st21{fill:url(#SVGID_19_);}
	.st22{opacity:0.78;fill:url(#SVGID_20_);}
	.st23{opacity:0.54;fill:url(#SVGID_21_);}
	.st24{font-family:'ATROX-normal';}
	.st25{font-size:60px;}
	.st26{fill:url(#SVGID_22_);}
	.st27{fill:url(#SVGID_23_);}
	.st28{fill:url(#SVGID_24_);}
	.st29{fill:url(#SVGID_25_);}
	.st30{fill:url(#SVGID_26_);}
	.st31{fill:url(#SVGID_27_);}
	.st32{fill:url(#SVGID_28_);}
	.st33{opacity:0.65;fill:url(#SVGID_29_);}
	.st34{opacity:0.24;fill:url(#SVGID_30_);}
	.st35{fill:url(#SVGID_31_);}
	.st36{fill:url(#SVGID_32_);}
	.st37{fill:url(#SVGID_33_);}
	.st38{opacity:0.24;fill:url(#SVGID_34_);}
	.st39{fill:url(#SVGID_35_);}
	.st40{fill:url(#SVGID_36_);}
	.st41{fill:url(#SVGID_37_);}
	.st42{fill:url(#SVGID_38_);}
	.st43{fill:url(#SVGID_39_);}
	.st44{fill:url(#SVGID_40_);}
	.st45{opacity:0.24;fill:url(#SVGID_41_);}
	.st46{fill:url(#SVGID_42_);}
	.st47{fill:url(#SVGID_43_);}
	.st48{opacity:0.24;fill:url(#SVGID_44_);}
	.st49{fill:url(#SVGID_45_);}
	.st50{opacity:0.24;fill:url(#SVGID_46_);}
	.st51{fill:url(#SVGID_47_);}
	.st52{fill:url(#SVGID_48_);}
	.st53{fill:url(#SVGID_49_);}
	.st54{fill:url(#SVGID_50_);}
	.st55{opacity:0.54;fill:url(#SVGID_51_);}
	.st56{opacity:0.54;fill:url(#SVGID_52_);}
	.st57{opacity:0.54;fill:url(#SVGID_53_);}
	.st58{opacity:0.54;fill:url(#SVGID_54_);}
	.st59{opacity:0.24;fill:url(#SVGID_55_);}
	.st60{fill:url(#SVGID_56_);}
	.st61{fill:url(#SVGID_57_);}
	.st62{fill:url(#SVGID_58_);}
	.st63{fill:url(#SVGID_59_);}
	.st64{fill:url(#SVGID_60_);}
	.st65{opacity:0.24;fill:url(#SVGID_61_);}
</style>
<g id="background">
	<g>
		<g>
			<g>
				<path class="st0" d="M-229.1,484.8v-0.19c-0.25,0.29-0.49,0.52-0.73,0.7c-0.24,0.18-0.5,0.31-0.79,0.41
					c-0.28,0.09-0.59,0.14-0.92,0.14c-0.44,0-0.85-0.09-1.23-0.28c-0.38-0.18-0.71-0.45-0.98-0.8c-0.28-0.34-0.49-0.75-0.63-1.22
					c-0.14-0.47-0.21-0.98-0.21-1.52c0-1.16,0.28-2.06,0.85-2.71c0.57-0.65,1.31-0.97,2.23-0.97c0.54,0,0.98,0.09,1.35,0.27
					c0.37,0.18,0.72,0.46,1.07,0.84v-2.72c0-0.38,0.08-0.66,0.23-0.86c0.15-0.2,0.37-0.29,0.64-0.29c0.28,0,0.5,0.09,0.65,0.27
					c0.15,0.18,0.23,0.44,0.23,0.79v8.16c0,0.35-0.08,0.62-0.24,0.79c-0.17,0.17-0.37,0.26-0.63,0.26c-0.25,0-0.46-0.09-0.62-0.27
					C-229.01,485.4-229.1,485.13-229.1,484.8z M-232.73,482.08c0,0.5,0.08,0.93,0.23,1.28c0.16,0.36,0.37,0.62,0.64,0.8
					c0.27,0.18,0.57,0.27,0.89,0.27c0.32,0,0.62-0.09,0.89-0.26c0.27-0.17,0.48-0.42,0.64-0.78c0.16-0.36,0.24-0.79,0.24-1.31
					c0-0.5-0.08-0.92-0.24-1.27c-0.16-0.36-0.38-0.63-0.65-0.82c-0.27-0.19-0.57-0.28-0.9-0.28c-0.34,0-0.64,0.1-0.91,0.29
					c-0.26,0.2-0.47,0.47-0.62,0.83C-232.66,481.19-232.73,481.61-232.73,482.08z"/>
				<path class="st0" d="M-220.33,482.55h-3.62c0,0.42,0.09,0.79,0.25,1.11c0.17,0.32,0.38,0.57,0.66,0.72
					c0.27,0.17,0.57,0.24,0.9,0.24c0.22,0,0.42-0.02,0.61-0.07c0.18-0.05,0.36-0.14,0.53-0.25c0.17-0.11,0.33-0.23,0.48-0.36
					c0.14-0.13,0.33-0.3,0.56-0.51c0.09-0.08,0.23-0.13,0.41-0.13c0.19,0,0.34,0.05,0.46,0.15c0.12,0.11,0.18,0.26,0.18,0.44
					c0,0.17-0.07,0.36-0.2,0.59c-0.13,0.23-0.33,0.44-0.6,0.64c-0.26,0.21-0.59,0.38-1,0.52c-0.4,0.13-0.86,0.2-1.38,0.2
					c-1.19,0-2.11-0.34-2.77-1.02c-0.66-0.68-0.99-1.59-0.99-2.76c0-0.55,0.08-1.06,0.24-1.52c0.17-0.47,0.4-0.87,0.71-1.2
					c0.31-0.34,0.7-0.59,1.15-0.77c0.46-0.18,0.96-0.26,1.52-0.26c0.72,0,1.34,0.15,1.85,0.46c0.52,0.3,0.91,0.7,1.17,1.18
					c0.26,0.48,0.38,0.98,0.38,1.48c0,0.46-0.13,0.77-0.4,0.9C-219.47,482.48-219.84,482.55-220.33,482.55z M-223.94,481.5h3.35
					c-0.04-0.64-0.21-1.1-0.51-1.42c-0.29-0.31-0.69-0.47-1.17-0.47c-0.46,0-0.84,0.16-1.13,0.47
					C-223.7,480.4-223.88,480.87-223.94,481.5z"/>
				<path class="st0" d="M-211.29,483.44c0,0.51-0.12,0.95-0.37,1.31c-0.25,0.37-0.62,0.64-1.1,0.83c-0.48,0.19-1.07,0.28-1.77,0.28
					c-0.66,0-1.23-0.1-1.71-0.3c-0.48-0.2-0.82-0.46-1.05-0.76c-0.22-0.31-0.34-0.62-0.34-0.92c0-0.2,0.07-0.38,0.22-0.52
					c0.15-0.15,0.33-0.22,0.55-0.22c0.19,0,0.34,0.05,0.44,0.14c0.11,0.09,0.21,0.23,0.3,0.4c0.19,0.33,0.42,0.57,0.68,0.74
					c0.26,0.16,0.63,0.25,1.08,0.25c0.37,0,0.67-0.08,0.91-0.25c0.24-0.17,0.35-0.36,0.35-0.56c0-0.33-0.12-0.57-0.37-0.72
					c-0.25-0.15-0.65-0.3-1.22-0.43c-0.63-0.16-1.15-0.32-1.55-0.49c-0.4-0.18-0.72-0.4-0.96-0.69c-0.24-0.29-0.36-0.64-0.36-1.05
					c0-0.37,0.11-0.72,0.33-1.05c0.22-0.33,0.55-0.59,0.98-0.79c0.44-0.2,0.95-0.3,1.56-0.3c0.48,0,0.91,0.05,1.29,0.15
					c0.38,0.1,0.7,0.23,0.96,0.4c0.26,0.16,0.45,0.35,0.58,0.55c0.13,0.2,0.2,0.4,0.2,0.6c0,0.21-0.07,0.39-0.21,0.52
					c-0.14,0.14-0.35,0.21-0.61,0.21c-0.19,0-0.35-0.05-0.49-0.16c-0.13-0.11-0.28-0.27-0.46-0.49c-0.14-0.18-0.31-0.32-0.5-0.43
					c-0.19-0.11-0.45-0.16-0.77-0.16c-0.33,0-0.61,0.08-0.83,0.22c-0.22,0.14-0.33,0.32-0.33,0.53c0,0.19,0.08,0.35,0.24,0.47
					c0.16,0.13,0.38,0.23,0.66,0.31c0.27,0.08,0.66,0.18,1.14,0.3c0.57,0.14,1.04,0.31,1.4,0.5c0.37,0.2,0.64,0.43,0.83,0.69
					C-211.38,482.8-211.29,483.1-211.29,483.44z"/>
				<path class="st0" d="M-208.78,477.48c-0.26,0-0.48-0.09-0.66-0.24c-0.18-0.16-0.28-0.38-0.28-0.67c0-0.26,0.09-0.48,0.28-0.65
					c0.19-0.17,0.4-0.25,0.65-0.25c0.24,0,0.45,0.08,0.63,0.23c0.19,0.16,0.28,0.38,0.28,0.67c0,0.28-0.09,0.51-0.27,0.67
					C-208.32,477.39-208.53,477.48-208.78,477.48z M-207.87,479.38v5.35c0,0.37-0.09,0.65-0.26,0.84c-0.18,0.19-0.4,0.29-0.67,0.29
					c-0.27,0-0.49-0.09-0.66-0.29c-0.17-0.19-0.25-0.47-0.25-0.83v-5.29c0-0.37,0.08-0.64,0.25-0.82c0.17-0.19,0.39-0.28,0.66-0.28
					c0.27,0,0.5,0.09,0.67,0.28C-207.96,478.8-207.87,479.05-207.87,479.38z"/>
				<path class="st0" d="M-199.16,479.69v5.38c0,0.61-0.06,1.14-0.2,1.58c-0.13,0.45-0.34,0.81-0.63,1.1
					c-0.29,0.28-0.67,0.5-1.14,0.64c-0.47,0.14-1.05,0.21-1.74,0.21c-0.64,0-1.21-0.09-1.71-0.26c-0.5-0.18-0.88-0.42-1.16-0.7
					c-0.27-0.28-0.4-0.57-0.4-0.87c0-0.23,0.08-0.41,0.23-0.55c0.15-0.14,0.34-0.22,0.56-0.22c0.27,0,0.51,0.12,0.71,0.36
					c0.1,0.12,0.2,0.24,0.31,0.37c0.11,0.12,0.22,0.23,0.35,0.32c0.13,0.09,0.28,0.15,0.46,0.2c0.18,0.04,0.39,0.06,0.62,0.06
					c0.48,0,0.85-0.06,1.12-0.2c0.26-0.13,0.45-0.32,0.56-0.56c0.1-0.24,0.16-0.5,0.18-0.77c0.02-0.28,0.03-0.71,0.04-1.32
					c-0.29,0.39-0.61,0.7-0.99,0.91c-0.37,0.21-0.81,0.32-1.33,0.32c-0.62,0-1.16-0.16-1.62-0.48c-0.46-0.31-0.82-0.76-1.07-1.33
					c-0.25-0.57-0.38-1.22-0.38-1.97c0-0.55,0.08-1.05,0.23-1.5c0.15-0.45,0.37-0.82,0.65-1.13c0.28-0.31,0.6-0.54,0.97-0.7
					c0.36-0.15,0.76-0.23,1.2-0.23c0.52,0,0.98,0.1,1.36,0.3c0.38,0.2,0.74,0.51,1.07,0.94v-0.24c0-0.32,0.08-0.57,0.24-0.75
					c0.16-0.18,0.36-0.26,0.61-0.26c0.36,0,0.59,0.12,0.71,0.35C-199.21,478.91-199.16,479.24-199.16,479.69z M-204.51,482.04
					c0,0.75,0.16,1.31,0.49,1.7c0.33,0.38,0.75,0.58,1.27,0.58c0.31,0,0.6-0.08,0.87-0.25c0.27-0.17,0.5-0.41,0.67-0.74
					c0.17-0.33,0.26-0.74,0.26-1.21c0-0.76-0.17-1.34-0.5-1.76c-0.33-0.42-0.77-0.63-1.31-0.63c-0.53,0-0.95,0.2-1.27,0.61
					C-204.36,480.72-204.51,481.29-204.51,482.04z"/>
				<path class="st0" d="M-195.6,479.36v0.22c0.33-0.43,0.68-0.75,1.07-0.94c0.39-0.2,0.83-0.3,1.33-0.3c0.49,0,0.92,0.11,1.31,0.31
					c0.38,0.21,0.67,0.51,0.86,0.9c0.12,0.22,0.2,0.47,0.24,0.73c0.04,0.27,0.06,0.6,0.06,1.01v3.44c0,0.37-0.09,0.65-0.25,0.84
					c-0.17,0.19-0.39,0.29-0.66,0.29c-0.28,0-0.5-0.09-0.67-0.29c-0.17-0.19-0.26-0.47-0.26-0.83v-3.08c0-0.61-0.08-1.08-0.25-1.4
					c-0.17-0.32-0.51-0.48-1.01-0.48c-0.33,0-0.63,0.09-0.9,0.29c-0.27,0.19-0.47,0.46-0.59,0.8c-0.09,0.28-0.14,0.8-0.14,1.55v2.32
					c0,0.38-0.09,0.66-0.26,0.84c-0.18,0.19-0.4,0.28-0.67,0.28c-0.27,0-0.49-0.09-0.66-0.29c-0.17-0.19-0.26-0.47-0.26-0.83v-5.35
					c0-0.35,0.08-0.62,0.23-0.79c0.15-0.18,0.36-0.26,0.63-0.26c0.16,0,0.31,0.04,0.44,0.11c0.13,0.08,0.24,0.2,0.31,0.35
					C-195.64,478.95-195.6,479.14-195.6,479.36z"/>
				<path class="st0" d="M-183.74,482.55h-3.62c0,0.42,0.09,0.79,0.25,1.11c0.16,0.32,0.38,0.57,0.66,0.72
					c0.28,0.17,0.58,0.24,0.91,0.24c0.22,0,0.42-0.02,0.61-0.07c0.18-0.05,0.36-0.14,0.54-0.25c0.17-0.11,0.33-0.23,0.47-0.36
					c0.15-0.13,0.33-0.3,0.56-0.51c0.1-0.08,0.23-0.13,0.41-0.13c0.19,0,0.34,0.05,0.46,0.15c0.12,0.11,0.18,0.26,0.18,0.44
					c0,0.17-0.06,0.36-0.19,0.59c-0.13,0.23-0.33,0.44-0.6,0.64c-0.26,0.21-0.59,0.38-1,0.52c-0.4,0.13-0.86,0.2-1.38,0.2
					c-1.19,0-2.11-0.34-2.77-1.02c-0.66-0.68-0.99-1.59-0.99-2.76c0-0.55,0.08-1.06,0.24-1.52c0.16-0.47,0.4-0.87,0.71-1.2
					c0.31-0.34,0.69-0.59,1.15-0.77c0.46-0.18,0.96-0.26,1.52-0.26c0.72,0,1.34,0.15,1.86,0.46c0.52,0.3,0.91,0.7,1.17,1.18
					c0.25,0.48,0.38,0.98,0.38,1.48c0,0.46-0.13,0.77-0.4,0.9C-182.88,482.48-183.25,482.55-183.74,482.55z M-187.36,481.5h3.35
					c-0.05-0.64-0.22-1.1-0.51-1.42c-0.29-0.31-0.69-0.47-1.17-0.47c-0.46,0-0.84,0.16-1.13,0.47
					C-187.11,480.4-187.29,480.87-187.36,481.5z"/>
				<path class="st0" d="M-175.58,484.8v-0.19c-0.25,0.29-0.49,0.52-0.74,0.7c-0.24,0.18-0.51,0.31-0.79,0.41
					c-0.28,0.09-0.59,0.14-0.93,0.14c-0.44,0-0.85-0.09-1.23-0.28c-0.38-0.18-0.7-0.45-0.98-0.8c-0.28-0.34-0.48-0.75-0.63-1.22
					c-0.14-0.47-0.21-0.98-0.21-1.52c0-1.16,0.28-2.06,0.85-2.71c0.57-0.65,1.31-0.97,2.23-0.97c0.53,0,0.98,0.09,1.35,0.27
					c0.37,0.18,0.73,0.46,1.07,0.84v-2.72c0-0.38,0.08-0.66,0.23-0.86c0.15-0.2,0.37-0.29,0.65-0.29c0.28,0,0.49,0.09,0.65,0.27
					c0.15,0.18,0.23,0.44,0.23,0.79v8.16c0,0.35-0.08,0.62-0.25,0.79c-0.16,0.17-0.38,0.26-0.63,0.26c-0.26,0-0.46-0.09-0.63-0.27
					C-175.5,485.4-175.58,485.13-175.58,484.8z M-179.22,482.08c0,0.5,0.08,0.93,0.23,1.28c0.16,0.36,0.37,0.62,0.64,0.8
					c0.27,0.18,0.57,0.27,0.89,0.27c0.33,0,0.62-0.09,0.89-0.26c0.26-0.17,0.48-0.42,0.64-0.78c0.16-0.36,0.24-0.79,0.24-1.31
					c0-0.5-0.08-0.92-0.24-1.27c-0.16-0.36-0.38-0.63-0.65-0.82c-0.27-0.19-0.57-0.28-0.9-0.28c-0.34,0-0.64,0.1-0.91,0.29
					c-0.27,0.2-0.47,0.47-0.62,0.83C-179.15,481.19-179.22,481.61-179.22,482.08z"/>
				<path class="st0" d="M-166.8,476.64v2.82c0.35-0.35,0.7-0.63,1.06-0.82c0.37-0.2,0.81-0.29,1.34-0.29
					c0.61,0,1.15,0.15,1.62,0.44c0.46,0.29,0.82,0.71,1.07,1.27c0.26,0.55,0.39,1.2,0.39,1.96c0,0.56-0.07,1.07-0.21,1.54
					c-0.14,0.47-0.35,0.88-0.62,1.22c-0.27,0.34-0.6,0.61-0.99,0.8c-0.39,0.19-0.81,0.28-1.28,0.28c-0.29,0-0.55-0.04-0.8-0.1
					c-0.25-0.06-0.46-0.16-0.64-0.27c-0.17-0.11-0.32-0.22-0.45-0.34c-0.12-0.12-0.29-0.3-0.49-0.53v0.19
					c0,0.35-0.08,0.61-0.25,0.79c-0.16,0.17-0.38,0.26-0.64,0.26c-0.26,0-0.47-0.09-0.63-0.26c-0.16-0.18-0.23-0.45-0.23-0.79v-8.08
					c0-0.37,0.07-0.65,0.23-0.85c0.15-0.2,0.36-0.29,0.63-0.29c0.29,0,0.51,0.09,0.66,0.28C-166.88,476.04-166.8,476.3-166.8,476.64
					z M-166.71,482.13c0,0.74,0.17,1.3,0.51,1.7c0.33,0.4,0.77,0.6,1.32,0.6c0.46,0,0.86-0.2,1.2-0.61
					c0.34-0.41,0.51-0.98,0.51-1.74c0-0.49-0.07-0.91-0.21-1.26c-0.14-0.35-0.34-0.62-0.6-0.82c-0.25-0.19-0.56-0.29-0.9-0.29
					c-0.35,0-0.66,0.1-0.94,0.29c-0.27,0.2-0.49,0.47-0.65,0.84C-166.63,481.2-166.71,481.64-166.71,482.13z"/>
				<path class="st0" d="M-158.31,486.08l0.17-0.41l-2.28-5.73c-0.14-0.33-0.21-0.56-0.21-0.72s0.04-0.31,0.12-0.44
					c0.08-0.14,0.19-0.24,0.33-0.32c0.14-0.08,0.29-0.12,0.45-0.12c0.27,0,0.46,0.09,0.6,0.25c0.14,0.18,0.26,0.42,0.36,0.73
					l1.57,4.55l1.48-4.24c0.12-0.34,0.23-0.61,0.32-0.8c0.09-0.19,0.2-0.32,0.31-0.39c0.11-0.06,0.25-0.1,0.45-0.1
					c0.14,0,0.27,0.04,0.4,0.11c0.13,0.08,0.23,0.18,0.3,0.3c0.08,0.13,0.11,0.26,0.11,0.4c-0.02,0.08-0.05,0.2-0.09,0.37
					c-0.04,0.16-0.09,0.32-0.15,0.48l-2.41,6.31c-0.21,0.56-0.41,0.99-0.61,1.31c-0.19,0.32-0.46,0.56-0.79,0.73
					c-0.33,0.17-0.77,0.25-1.33,0.25c-0.54,0-0.95-0.06-1.22-0.17c-0.27-0.12-0.41-0.33-0.41-0.64c0-0.21,0.06-0.38,0.19-0.49
					c0.13-0.12,0.32-0.17,0.57-0.17c0.1,0,0.2,0.01,0.29,0.04c0.12,0.03,0.22,0.04,0.31,0.04c0.21,0,0.38-0.03,0.5-0.09
					c0.12-0.06,0.23-0.17,0.33-0.33C-158.55,486.61-158.44,486.38-158.31,486.08z"/>
			</g>
			<g>
				<path class="st0" d="M-124.07,478.49h0.44v-0.55c0-0.58,0.07-1.04,0.23-1.38c0.14-0.35,0.39-0.59,0.74-0.75
					c0.35-0.16,0.83-0.24,1.44-0.24c1.07,0,1.62,0.26,1.62,0.79c0,0.17-0.06,0.32-0.17,0.44c-0.11,0.12-0.24,0.18-0.4,0.18
					c-0.08,0-0.2-0.01-0.38-0.04c-0.17-0.02-0.32-0.04-0.44-0.04c-0.34,0-0.55,0.1-0.65,0.29c-0.09,0.2-0.14,0.48-0.14,0.84v0.44
					h0.46c0.71,0,1.06,0.21,1.06,0.64c0,0.3-0.09,0.49-0.28,0.57c-0.19,0.08-0.44,0.12-0.78,0.12h-0.46v4.9
					c0,0.36-0.09,0.64-0.26,0.84c-0.18,0.2-0.4,0.29-0.68,0.29c-0.26,0-0.48-0.09-0.66-0.29c-0.17-0.2-0.26-0.47-0.26-0.84v-4.9
					h-0.51c-0.28,0-0.48-0.06-0.63-0.19c-0.15-0.12-0.22-0.28-0.22-0.48C-125,478.72-124.69,478.49-124.07,478.49z"/>
				<path class="st0" d="M-117.47,483.18v1.55c0,0.38-0.09,0.66-0.26,0.84c-0.18,0.19-0.4,0.28-0.68,0.28
					c-0.26,0-0.48-0.09-0.65-0.29c-0.18-0.19-0.26-0.47-0.26-0.84v-5.15c0-0.83,0.3-1.25,0.9-1.25c0.3,0,0.53,0.1,0.66,0.29
					c0.14,0.19,0.21,0.48,0.23,0.86c0.22-0.38,0.45-0.67,0.68-0.86c0.23-0.2,0.54-0.29,0.93-0.29c0.39,0,0.76,0.1,1.13,0.29
					c0.37,0.19,0.55,0.45,0.55,0.77c0,0.23-0.07,0.41-0.23,0.57c-0.16,0.14-0.32,0.21-0.51,0.21c-0.07,0-0.23-0.04-0.49-0.12
					c-0.26-0.09-0.49-0.13-0.69-0.13c-0.27,0-0.49,0.07-0.66,0.22c-0.17,0.14-0.3,0.35-0.4,0.63c-0.09,0.28-0.16,0.62-0.2,1
					C-117.45,482.16-117.47,482.63-117.47,483.18z"/>
				<path class="st0" d="M-108.41,482.55h-3.62c0.01,0.42,0.09,0.79,0.26,1.11c0.16,0.32,0.38,0.57,0.66,0.72
					c0.27,0.17,0.57,0.24,0.9,0.24c0.22,0,0.43-0.02,0.61-0.07c0.19-0.05,0.36-0.14,0.53-0.25c0.18-0.11,0.33-0.23,0.47-0.36
					c0.15-0.13,0.34-0.3,0.57-0.51c0.09-0.08,0.23-0.13,0.41-0.13c0.19,0,0.34,0.05,0.46,0.15c0.12,0.11,0.18,0.26,0.18,0.44
					c0,0.17-0.06,0.36-0.2,0.59c-0.13,0.23-0.33,0.44-0.59,0.64c-0.27,0.21-0.6,0.38-1,0.52c-0.4,0.13-0.86,0.2-1.38,0.2
					c-1.19,0-2.12-0.34-2.77-1.02c-0.66-0.68-0.99-1.59-0.99-2.76c0-0.55,0.08-1.06,0.25-1.52c0.16-0.47,0.4-0.87,0.71-1.2
					c0.31-0.34,0.7-0.59,1.15-0.77c0.45-0.18,0.96-0.26,1.52-0.26c0.72,0,1.33,0.15,1.85,0.46c0.52,0.3,0.91,0.7,1.17,1.18
					c0.26,0.48,0.39,0.98,0.39,1.48c0,0.46-0.13,0.77-0.4,0.9C-107.55,482.48-107.92,482.55-108.41,482.55z M-112.03,481.5h3.36
					c-0.05-0.64-0.21-1.1-0.51-1.42c-0.3-0.31-0.69-0.47-1.17-0.47c-0.46,0-0.84,0.16-1.14,0.47
					C-111.78,480.4-111.96,480.87-112.03,481.5z"/>
				<path class="st0" d="M-100.16,482.55h-3.62c0.01,0.42,0.09,0.79,0.26,1.11c0.16,0.32,0.39,0.57,0.66,0.72
					c0.28,0.17,0.58,0.24,0.91,0.24c0.22,0,0.42-0.02,0.6-0.07c0.18-0.05,0.37-0.14,0.53-0.25c0.17-0.11,0.33-0.23,0.48-0.36
					c0.14-0.13,0.34-0.3,0.56-0.51c0.1-0.08,0.23-0.13,0.41-0.13c0.19,0,0.35,0.05,0.46,0.15c0.12,0.11,0.17,0.26,0.17,0.44
					c0,0.17-0.06,0.36-0.19,0.59c-0.13,0.23-0.33,0.44-0.6,0.64c-0.26,0.21-0.6,0.38-0.99,0.52c-0.4,0.13-0.86,0.2-1.38,0.2
					c-1.19,0-2.11-0.34-2.77-1.02c-0.66-0.68-0.99-1.59-0.99-2.76c0-0.55,0.08-1.06,0.24-1.52c0.16-0.47,0.4-0.87,0.71-1.2
					c0.31-0.34,0.7-0.59,1.15-0.77c0.46-0.18,0.96-0.26,1.52-0.26c0.72,0,1.34,0.15,1.86,0.46c0.51,0.3,0.9,0.7,1.16,1.18
					c0.26,0.48,0.38,0.98,0.38,1.48c0,0.46-0.13,0.77-0.4,0.9C-99.3,482.48-99.67,482.55-100.16,482.55z M-103.78,481.5h3.35
					c-0.04-0.64-0.21-1.1-0.51-1.42c-0.29-0.31-0.68-0.47-1.17-0.47c-0.46,0-0.84,0.16-1.14,0.47
					C-103.53,480.4-103.72,480.87-103.78,481.5z"/>
				<path class="st0" d="M-95.55,479.38v0.21c0.35-0.43,0.71-0.74,1.09-0.94c0.38-0.21,0.8-0.3,1.28-0.3c0.57,0,1.09,0.15,1.57,0.44
					c0.48,0.29,0.86,0.72,1.14,1.29c0.28,0.56,0.41,1.23,0.41,2.01c0,0.57-0.08,1.09-0.24,1.57c-0.16,0.48-0.38,0.88-0.66,1.2
					c-0.28,0.32-0.61,0.57-0.99,0.75c-0.38,0.17-0.79,0.26-1.23,0.26c-0.53,0-0.97-0.11-1.33-0.32c-0.36-0.21-0.71-0.53-1.03-0.93
					v2.78c0,0.81-0.3,1.22-0.88,1.22c-0.35,0-0.58-0.11-0.7-0.31c-0.11-0.21-0.17-0.52-0.17-0.92v-7.98c0-0.35,0.08-0.62,0.23-0.79
					c0.15-0.18,0.36-0.26,0.63-0.26c0.26,0,0.47,0.09,0.63,0.27C-95.63,478.78-95.55,479.04-95.55,479.38z M-91.92,482.06
					c0-0.49-0.07-0.91-0.22-1.26c-0.15-0.35-0.36-0.63-0.62-0.81c-0.26-0.19-0.56-0.28-0.88-0.28c-0.51,0-0.94,0.2-1.29,0.61
					c-0.35,0.4-0.53,0.99-0.53,1.77c0,0.73,0.18,1.31,0.53,1.71c0.34,0.41,0.78,0.62,1.29,0.62c0.31,0,0.59-0.09,0.85-0.27
					c0.27-0.18,0.47-0.44,0.63-0.8C-92.01,482.99-91.92,482.56-91.92,482.06z"/>
				<path class="st0" d="M-87.64,477.48c-0.26,0-0.49-0.09-0.67-0.24c-0.18-0.16-0.28-0.38-0.28-0.67c0-0.26,0.1-0.48,0.29-0.65
					c0.18-0.17,0.4-0.25,0.66-0.25c0.23,0,0.45,0.08,0.63,0.23c0.18,0.16,0.28,0.38,0.28,0.67c0,0.28-0.09,0.51-0.27,0.67
					C-87.19,477.39-87.4,477.48-87.64,477.48z M-86.73,479.38v5.35c0,0.37-0.09,0.65-0.27,0.84c-0.17,0.19-0.39,0.29-0.67,0.29
					c-0.27,0-0.49-0.09-0.66-0.29c-0.17-0.19-0.26-0.47-0.26-0.83v-5.29c0-0.37,0.09-0.64,0.26-0.82c0.17-0.19,0.39-0.28,0.66-0.28
					c0.28,0,0.5,0.09,0.67,0.28C-86.82,478.8-86.73,479.05-86.73,479.38z"/>
				<path class="st0" d="M-80.22,485.01l-1.63-2.68l-1,0.95v1.47c0,0.35-0.09,0.63-0.27,0.82c-0.19,0.2-0.41,0.29-0.65,0.29
					c-0.29,0-0.51-0.09-0.67-0.29c-0.17-0.19-0.25-0.47-0.25-0.84v-7.88c0-0.41,0.07-0.72,0.23-0.94c0.16-0.22,0.39-0.32,0.69-0.32
					c0.28,0,0.51,0.09,0.68,0.29c0.17,0.2,0.25,0.48,0.25,0.86v4.48l2.08-2.18c0.26-0.27,0.45-0.46,0.59-0.55
					c0.14-0.1,0.3-0.15,0.5-0.15c0.23,0,0.42,0.07,0.58,0.22c0.15,0.14,0.23,0.33,0.23,0.55c0,0.27-0.25,0.63-0.75,1.08l-0.99,0.9
					l1.9,2.98c0.14,0.22,0.24,0.39,0.3,0.5c0.06,0.11,0.09,0.23,0.09,0.33c0,0.29-0.08,0.53-0.24,0.7
					c-0.16,0.16-0.38,0.25-0.64,0.25c-0.23,0-0.4-0.06-0.52-0.19C-79.84,485.55-80.01,485.32-80.22,485.01z"/>
				<path class="st0" d="M-75.64,485.85c-0.28,0-0.52-0.09-0.72-0.27c-0.21-0.18-0.31-0.43-0.31-0.76c0-0.28,0.1-0.51,0.3-0.71
					c0.2-0.2,0.44-0.3,0.72-0.3c0.28,0,0.53,0.1,0.73,0.29c0.2,0.2,0.3,0.43,0.3,0.71c0,0.32-0.1,0.58-0.3,0.76
					C-75.13,485.76-75.37,485.85-75.64,485.85z"/>
				<path class="st0" d="M-65.89,483.56c0,0.23-0.07,0.47-0.21,0.74c-0.14,0.27-0.35,0.51-0.63,0.75c-0.28,0.24-0.64,0.43-1.07,0.57
					c-0.43,0.15-0.92,0.22-1.45,0.22c-1.14,0-2.04-0.33-2.68-1c-0.64-0.66-0.96-1.56-0.96-2.68c0-0.76,0.15-1.43,0.44-2.01
					c0.29-0.58,0.72-1.03,1.28-1.35c0.56-0.32,1.22-0.47,1.99-0.47c0.48,0,0.92,0.07,1.32,0.21c0.4,0.13,0.74,0.31,1.02,0.54
					c0.28,0.22,0.49,0.46,0.63,0.71c0.15,0.26,0.22,0.49,0.22,0.71c0,0.22-0.08,0.41-0.25,0.56c-0.16,0.15-0.36,0.23-0.6,0.23
					c-0.15,0-0.29-0.04-0.38-0.12c-0.11-0.08-0.21-0.21-0.34-0.38c-0.22-0.34-0.46-0.6-0.71-0.77c-0.25-0.17-0.56-0.26-0.94-0.26
					c-0.54,0-0.98,0.22-1.32,0.64c-0.33,0.43-0.5,1.01-0.5,1.75c0,0.35,0.04,0.67,0.13,0.96c0.08,0.29,0.21,0.54,0.37,0.75
					c0.16,0.2,0.36,0.36,0.59,0.46c0.23,0.11,0.49,0.16,0.76,0.16c0.37,0,0.69-0.09,0.95-0.25c0.26-0.18,0.5-0.43,0.7-0.79
					c0.12-0.21,0.24-0.37,0.37-0.48c0.13-0.12,0.29-0.18,0.48-0.18c0.23,0,0.41,0.08,0.56,0.25
					C-65.97,483.19-65.89,483.37-65.89,483.56z"/>
				<path class="st0" d="M-57.35,482.09c0,0.54-0.08,1.05-0.25,1.52c-0.17,0.47-0.42,0.87-0.75,1.2c-0.32,0.34-0.71,0.6-1.16,0.78
					c-0.45,0.17-0.96,0.26-1.53,0.26c-0.55,0-1.06-0.09-1.51-0.27c-0.44-0.18-0.84-0.44-1.17-0.77c-0.32-0.34-0.58-0.74-0.74-1.2
					c-0.17-0.46-0.25-0.97-0.25-1.52c0-0.56,0.09-1.07,0.26-1.54c0.17-0.46,0.41-0.86,0.73-1.19c0.32-0.33,0.71-0.58,1.17-0.76
					c0.46-0.18,0.96-0.27,1.51-0.27c0.57,0,1.07,0.09,1.53,0.27c0.46,0.18,0.85,0.44,1.17,0.77c0.33,0.33,0.57,0.73,0.74,1.19
					C-57.43,481.03-57.35,481.54-57.35,482.09z M-59.21,482.09c0-0.76-0.17-1.34-0.5-1.76c-0.33-0.42-0.77-0.63-1.34-0.63
					c-0.36,0-0.68,0.09-0.96,0.28c-0.27,0.19-0.49,0.47-0.64,0.83c-0.15,0.37-0.22,0.79-0.22,1.28c0,0.48,0.07,0.9,0.22,1.26
					c0.14,0.36,0.36,0.63,0.63,0.83c0.27,0.19,0.6,0.28,0.96,0.28c0.57,0,1.01-0.2,1.34-0.63
					C-59.38,483.42-59.21,482.83-59.21,482.09z"/>
				<path class="st0" d="M-49.74,482.23v2.46c0,0.39-0.09,0.68-0.26,0.87c-0.18,0.2-0.41,0.29-0.7,0.29c-0.28,0-0.51-0.09-0.68-0.29
					c-0.17-0.19-0.26-0.48-0.26-0.87v-2.95c0-0.47-0.01-0.82-0.04-1.09c-0.03-0.26-0.12-0.47-0.26-0.63
					c-0.14-0.17-0.36-0.25-0.66-0.25c-0.6,0-1,0.21-1.19,0.62c-0.19,0.42-0.29,1.01-0.29,1.79v2.5c0,0.38-0.09,0.67-0.26,0.87
					c-0.17,0.2-0.4,0.3-0.69,0.3c-0.28,0-0.51-0.1-0.69-0.3c-0.18-0.2-0.27-0.48-0.27-0.87v-5.29c0-0.34,0.08-0.61,0.24-0.79
					c0.16-0.18,0.38-0.27,0.63-0.27c0.26,0,0.47,0.09,0.63,0.25c0.18,0.18,0.26,0.41,0.26,0.71v0.17c0.32-0.38,0.66-0.66,1.03-0.84
					c0.36-0.18,0.77-0.27,1.22-0.27c0.47,0,0.87,0.09,1.2,0.28c0.34,0.18,0.61,0.46,0.83,0.83c0.31-0.37,0.65-0.65,1.01-0.84
					c0.35-0.18,0.75-0.27,1.18-0.27c0.51,0,0.94,0.1,1.31,0.29c0.37,0.21,0.64,0.49,0.82,0.85c0.16,0.34,0.24,0.86,0.24,1.58v3.61
					c0,0.39-0.09,0.68-0.27,0.87c-0.17,0.2-0.4,0.29-0.69,0.29c-0.28,0-0.51-0.1-0.69-0.3c-0.18-0.2-0.27-0.48-0.27-0.87v-3.11
					c0-0.39-0.01-0.71-0.05-0.96c-0.04-0.24-0.13-0.44-0.27-0.6c-0.15-0.16-0.38-0.24-0.68-0.24c-0.25,0-0.47,0.07-0.69,0.22
					c-0.22,0.14-0.39,0.34-0.52,0.59C-49.67,480.89-49.74,481.44-49.74,482.23z"/>
			</g>
			<g>
				<path class="st0" d="M-138.65,473.56c-0.03-0.12-0.07-0.24-0.11-0.35c0.62-0.06,1.04-0.8,0.73-1.36
					c-0.28-0.62-1.24-0.7-1.61-0.13c-0.39,0.51-0.09,1.3,0.52,1.46c0.04,0.12,0.07,0.26,0.11,0.38c-0.93,0.07-1.88,0.27-2.66,0.8
					c0.08,0.22,0.16,0.46,0.24,0.68c1.58-0.69,3.34-0.54,5.01-0.38c0.06-0.22,0.11-0.44,0.17-0.66
					C-137.01,473.68-137.83,473.56-138.65,473.56z"/>
				<path class="st0" d="M-129.28,476.11c-0.25,0.13-0.29,0.43-0.28,0.68c-0.28,0.27-0.14,0.68-0.17,1.01
					c-0.06,0.19-0.29,0.21-0.45,0.29c-0.22-0.34-0.45-0.65-0.75-0.93l0.01-0.02c-0.32-0.3-0.66-0.57-1.03-0.8
					c-0.29,0.31-0.6,0.62-0.88,0.94c0.55,0.61,1.07,1.27,1.52,1.96c0.31,0.53,0.56,1.08,0.78,1.66c0.47-0.24,0.93-0.49,1.4-0.74
					c-0.25-0.57-0.53-1.13-0.83-1.68c0.21-0.11,0.49-0.22,0.52-0.49c0.02-0.3-0.04-0.62,0.13-0.89c0.37,0.23,0.92-0.03,0.92-0.47
					C-128.33,476.18-128.9,475.85-129.28,476.11z"/>
				<path class="st0" d="M-131.81,479.51c-0.61-1.01-1.27-2.02-2.17-2.8c-1.03-0.91-2.38-1.53-3.78-1.52
					c-1.77-0.02-3.56,0.26-5.18,0.97c-1.53,0.67-2.87,1.88-3.54,3.43c-0.65,1.39-0.64,3-0.35,4.49c1.62,0.41,3.28,0.77,4.95,0.84
					c1.66,0.05,3.32,0.09,4.97-0.14c2.26-0.3,4.47-1.01,6.45-2.17C-130.48,482.62-130.75,481.13-131.81,479.51z M-139.8,481.51
					c-0.31,0.44-0.75,0.79-1.25,0.98c-0.95,0.36-2.11,0.11-2.79-0.64c-0.48-0.53-0.76-1.23-0.71-1.95c0.04-0.89,0.59-1.72,1.37-2.14
					c0.59-0.32,1.31-0.38,1.97-0.2c0.27,0.07,0.52,0.2,0.75,0.35c0.48,0.34,0.84,0.84,1.01,1.41
					C-139.24,480.06-139.38,480.88-139.8,481.51z M-132.95,479.9c-0.11,0.77-0.84,1.41-1.62,1.36c-0.45,0.04-0.88-0.17-1.19-0.49
					c-0.22-0.27-0.4-0.59-0.43-0.95c-0.11-0.77,0.44-1.57,1.2-1.75c0.33-0.09,0.68-0.04,1.01,0.04
					C-133.27,478.35-132.81,479.16-132.95,479.9z"/>
				<path class="st0" d="M-146.48,477.25c-0.66,0.4-1.2,0.96-1.66,1.58c-0.13-0.25-0.17-0.54-0.34-0.76
					c-0.1-0.13-0.28-0.07-0.41-0.07c-0.18,0.01-0.35-0.03-0.51-0.08c0.19-0.27,0.14-0.69-0.15-0.87c-0.32-0.22-0.81-0.03-0.89,0.35
					c-0.13,0.41,0.31,0.83,0.71,0.72c0.22,0.32,0.61,0.27,0.94,0.28c0.15,0.26,0.26,0.54,0.45,0.78c-0.36,0.7-0.56,1.48-0.57,2.26
					c0.46,0.19,0.91,0.38,1.37,0.58c0.02-0.5,0.08-0.99,0.16-1.47c0.15-1.07,0.77-1.99,1.49-2.75
					C-146.08,477.59-146.29,477.43-146.48,477.25z"/>
				<path class="st0" d="M-135.84,485.25c-1.68,0.37-3.41,0.47-5.12,0.4c-1.16-0.05-2.32-0.17-3.45-0.42
					c-0.8-0.16-1.59-0.4-2.38-0.62c0.13,1.01,0.54,1.97,1.12,2.8c0.69,0.97,1.61,1.85,2.75,2.21c0.89,0.24,1.95,0.55,3.79,0.51
					c1.52-0.02,3-0.21,4.33-0.79c0.86-0.37,1.66-0.87,2.35-1.5c0.6-0.56,1.06-1.26,1.38-2.01c0.31-0.71,0.6-1.99,0.57-2.64
					C-132.14,484.12-133.97,484.93-135.84,485.25z"/>
			</g>
		</g>
	</g>
</g>
<g id="objects">
	<g>
		<g>
			<linearGradient id="SVGID_1_" gradientUnits="userSpaceOnUse" x1="-433.977" y1="-159.0587" x2="-466.5291" y2="-251.629">
				<stop  offset="0" style="stop-color:#006086"/>
				<stop  offset="1" style="stop-color:#32C5F4"/>
			</linearGradient>
			<polygon class="st1" points="-429.04,-240.76 -441.9,-206.61 -483.52,-206.61 -492.1,-229.39 -496.38,-240.76 -462.71,-261.86 
				-433.29,-243.44 			"/>
			<linearGradient id="SVGID_2_" gradientUnits="userSpaceOnUse" x1="-407.9005" y1="-273.1002" x2="-405.3947" y2="-188.9041">
				<stop  offset="0" style="stop-color:#006086"/>
				<stop  offset="1" style="stop-color:#32C5F4"/>
			</linearGradient>
			<polygon class="st2" points="-372.21,-204.32 -375.34,-202.43 -406.35,-183.79 -439.53,-205.45 -425.9,-239.37 -419.26,-239.26 
				-384.29,-238.67 			"/>
			<linearGradient id="SVGID_3_" gradientUnits="userSpaceOnUse" x1="-463.4306" y1="-138.6512" x2="-437.5265" y2="-187.674">
				<stop  offset="0" style="stop-color:#6E6F72"/>
				<stop  offset="1" style="stop-color:#D2D3D4"/>
			</linearGradient>
			<polygon class="st3" points="-408.54,-181.53 -415.3,-165.32 -422.61,-147.75 -464.2,-148.84 -475.85,-183.31 -462.52,-191.14 
				-441.45,-203.51 			"/>
			<linearGradient id="SVGID_4_" gradientUnits="userSpaceOnUse" x1="-406.1693" y1="-95.9923" x2="-370.9397" y2="-182.2793">
				<stop  offset="0" style="stop-color:#006086"/>
				<stop  offset="1" style="stop-color:#32C5F4"/>
			</linearGradient>
			<polygon class="st4" points="-352,-145.42 -386.34,-125.14 -419.32,-147.04 -412.08,-164.58 -405.36,-180.86 -363.75,-179.86 
				-354.83,-153.7 			"/>
			<linearGradient id="SVGID_5_" gradientUnits="userSpaceOnUse" x1="-432.4921" y1="-204.0662" x2="-439.4945" y2="-163.1957">
				<stop  offset="0" style="stop-color:#FFFFFF"/>
				<stop  offset="1" style="stop-color:#FFFFFF;stop-opacity:0"/>
			</linearGradient>
			<path class="st5" d="M-408.54-181.53l-6.75,16.21c-4.43,1.95-9.44,3.05-14.75,3.05c-17.95,0-32.49-12.54-32.49-28.02
				c0-0.29,0.01-0.57,0.02-0.85l21.07-12.37L-408.54-181.53z"/>
			<linearGradient id="SVGID_6_" gradientUnits="userSpaceOnUse" x1="-461.1115" y1="-263.8376" x2="-468.6518" y2="-219.8283">
				<stop  offset="0" style="stop-color:#FFFFFF"/>
				<stop  offset="1" style="stop-color:#FFFFFF;stop-opacity:0"/>
			</linearGradient>
			<path class="st6" d="M-433.29-243.44c-3.62,13.25-17.42,23.11-33.89,23.11c-9.77,0-18.6-3.47-24.92-9.07l-4.28-11.37l33.67-21.1
				L-433.29-243.44z"/>
			<linearGradient id="SVGID_7_" gradientUnits="userSpaceOnUse" x1="-392.7874" y1="-242.2327" x2="-399.8621" y2="-200.9412">
				<stop  offset="0" style="stop-color:#FFFFFF"/>
				<stop  offset="1" style="stop-color:#FFFFFF;stop-opacity:0"/>
			</linearGradient>
			<path class="st7" d="M-372.21-204.32l-3.13,1.88c-4.19,1.69-8.87,2.63-13.8,2.63c-18.1,0-32.78-12.66-32.78-28.28
				c0-3.97,0.95-7.75,2.66-11.18l34.98,0.59L-372.21-204.32z"/>
			<linearGradient id="SVGID_8_" gradientUnits="userSpaceOnUse" x1="-379.0836" y1="-184.6377" x2="-386.3002" y2="-142.5172">
				<stop  offset="0" style="stop-color:#FFFFFF"/>
				<stop  offset="1" style="stop-color:#FFFFFF;stop-opacity:0"/>
			</linearGradient>
			<path class="st8" d="M-354.83-153.7c-5.8,6.94-15.23,11.45-25.9,11.45c-15.56,0-28.53-9.62-31.35-22.33l6.72-16.27l41.61,1
				L-354.83-153.7z"/>
		</g>
		<text transform="matrix(1 0 0 1 -517.7314 -80.5862)" style="fill:#00AEEF; font-family:'nevis-Bold'; font-size:28px;">BeamLight Corp</text>
	</g>
	<g>
		<g>
			<path class="st9" d="M-167.78-163.86c0,0.51-0.01,1.03-0.02,1.54c-0.14,5.27-0.95,10.37-2.35,15.22
				c-3.05,10.52-8.88,19.84-16.66,27.12c-10.74,10.06-25.19,16.22-41.06,16.22c-33.18,0-60.08-26.9-60.08-60.09
				c0-3.96,0.38-7.84,1.12-11.58c0.3-1.54,0.66-3.07,1.08-4.57c0.06-0.25,0.14-0.5,0.21-0.74c0.94-3.23,2.15-6.34,3.6-9.31
				c9.73-20.06,30.29-33.88,54.08-33.88c16.85,0,32.08,6.94,42.99,18.11C-174.29-195-167.78-180.2-167.78-163.86z"/>
			<path class="st10" d="M-167.78-163.86c0,0.51-0.01,1.03-0.02,1.54c-29.42-30.85-76.28-38.33-115.23-19.08
				c-0.91,0.44-1.82,0.91-2.72,1.39c0.06-0.25,0.14-0.5,0.21-0.74c0.94-3.23,2.15-6.34,3.6-9.31
				c28.15-19.29,63.82-24.91,97.07-15.76C-174.29-195-167.78-180.2-167.78-163.86z"/>
			<path class="st10" d="M-170.15-147.11c-3.05,10.52-8.88,19.84-16.66,27.12c-17.39-36.85-57.3-59.61-100.02-55.46
				c0.3-1.54,0.66-3.07,1.08-4.57c0.06-0.25,0.14-0.5,0.21-0.74c0.84-0.23,1.67-0.44,2.51-0.65
				C-242.41-191.4-199.15-178.03-170.15-147.11z"/>
		</g>
		<text transform="matrix(1 0 0 1 -299 -56.5857)" class="st9 st25" style="font-family:'Ancillary-Bold';">BallNet</text>
	</g>
	<g>
		<g>
			
				<linearGradient id="SVGID_9_" gradientUnits="userSpaceOnUse" x1="40.8186" y1="-106.6871" x2="68.2512" y2="-42.7902" gradientTransform="matrix(0.7071 -0.7071 0.7071 0.7071 -122.9831 -81.7666)">
				<stop  offset="0" style="stop-color:#F47F4F"/>
				<stop  offset="1" style="stop-color:#EE3E96"/>
			</linearGradient>
			<path class="st11" d="M-110.89-168.09l-1.28,25.84c-1.18-0.02-2.35-0.48-3.25-1.38l-48.92-48.68c-0.93-0.92-1.39-2.12-1.39-3.33
				l26.07,0.27c0.19,0.83,0.61,1.62,1.27,2.27l23.76,23.65C-113.61-168.43-112.23-167.98-110.89-168.09z"/>
			
				<linearGradient id="SVGID_10_" gradientUnits="userSpaceOnUse" x1="-661.2658" y1="61.0718" x2="-633.8332" y2="124.9687" gradientTransform="matrix(-0.7071 0.7071 -0.7071 -0.7071 -493.8081 298.9939)">
				<stop  offset="0" style="stop-color:#76CEDE"/>
				<stop  offset="1" style="stop-color:#A3D17A"/>
			</linearGradient>
			<path class="st12" d="M-115.88-224.87l1.28-25.84c1.18,0.02,2.35,0.48,3.25,1.38l48.92,48.68c0.93,0.92,1.39,2.12,1.39,3.33
				l-26.07-0.27c-0.19-0.83-0.61-1.62-1.27-2.27l-23.76-23.65C-113.16-224.53-114.54-224.99-115.88-224.87z"/>
			
				<linearGradient id="SVGID_11_" gradientUnits="userSpaceOnUse" x1="30.3303" y1="-88.4352" x2="138.4875" y2="-119.5262" gradientTransform="matrix(0.7071 -0.7071 0.7071 0.7071 -122.9831 -81.7666)">
				<stop  offset="0" style="stop-color:#FAA32D"/>
				<stop  offset="0.5" style="stop-color:#FFCD05"/>
				<stop  offset="0.6889" style="stop-color:#E9D02E"/>
				<stop  offset="1" style="stop-color:#BAD75B"/>
			</linearGradient>
			<path class="st13" d="M-139.4-194.9l-26-0.24c-0.03-1.18,0.39-2.35,1.25-3.29l46.92-50.6c0.89-0.96,2.08-1.46,3.29-1.51
				l0.78,25.93c-0.83,0.23-1.6,0.67-2.23,1.35l-22.79,24.58C-139.17-197.61-139.57-196.22-139.4-194.9z"/>
			
				<linearGradient id="SVGID_12_" gradientUnits="userSpaceOnUse" x1="-399.5405" y1="503.2446" x2="-372.172" y2="566.9922" gradientTransform="matrix(-0.7349 -0.6782 0.6782 -0.7349 -737.8552 -40.0754)">
				<stop  offset="0.0153" style="stop-color:#6457A5"/>
				<stop  offset="0.5102" style="stop-color:#00AFD8"/>
				<stop  offset="1" style="stop-color:#6FCDDE"/>
			</linearGradient>
			<path class="st14" d="M-87.37-198.07l26,0.24c0.03,1.18-0.39,2.35-1.25,3.29l-46.92,50.6c-0.89,0.96-2.08,1.46-3.29,1.51
				l-0.78-25.93c0.83-0.23,1.6-0.67,2.23-1.35l22.79-24.58C-87.6-195.36-87.2-196.75-87.37-198.07z"/>
		</g>
		<text transform="matrix(1 0 0 1 -59.2061 -175.6304)" class="st24 st25" style="fill:#EF4136;">SQR MINING</text>
	</g>
	<g>
		<g>
			
				<linearGradient id="SVGID_13_" gradientUnits="userSpaceOnUse" x1="-555.0744" y1="-279.6396" x2="-438.6242" y2="-279.6396" gradientTransform="matrix(0.2703 0.9628 -0.9628 0.2703 -29.8372 397.1938)">
				<stop  offset="0" style="stop-color:#76CEDE"/>
				<stop  offset="1" style="stop-color:#A3D17A"/>
			</linearGradient>
			<polygon class="st15" points="105.32,-96.34 73.84,-208.46 112.16,-191.25 136.36,-105.06 			"/>
			
				<linearGradient id="SVGID_14_" gradientUnits="userSpaceOnUse" x1="-548.7554" y1="-340.5816" x2="-454.6846" y2="-287.0979" gradientTransform="matrix(0.2703 0.9628 -0.9628 0.2703 -29.8372 397.1938)">
				<stop  offset="0" style="stop-color:#FAA32D"/>
				<stop  offset="0.5" style="stop-color:#FFCD05"/>
				<stop  offset="0.6889" style="stop-color:#E9D02E"/>
				<stop  offset="1" style="stop-color:#BAD75B"/>
			</linearGradient>
			<polygon class="st16" points="165.09,-232.89 136.36,-105.06 105.32,-96.34 134.05,-224.18 			"/>
			
				<linearGradient id="SVGID_15_" gradientUnits="userSpaceOnUse" x1="-524.3817" y1="-341.133" x2="-501.558" y2="-287.9714" gradientTransform="matrix(0.2703 0.9628 -0.9628 0.2703 -29.8372 397.1938)">
				<stop  offset="0" style="stop-color:#931A1D"/>
				<stop  offset="0.8419" style="stop-color:#FFCD05;stop-opacity:0"/>
			</linearGradient>
			<polygon class="st17" points="134.05,-224.18 120.16,-162.76 145.89,-148.32 156.2,-192.97 			"/>
			
				<linearGradient id="SVGID_16_" gradientUnits="userSpaceOnUse" x1="-553.9336" y1="-341.853" x2="-449.2433" y2="-341.853" gradientTransform="matrix(0.2703 0.9628 -0.9628 0.2703 -29.8372 397.1938)">
				<stop  offset="0" style="stop-color:#F47F4F"/>
				<stop  offset="1" style="stop-color:#EE3E96"/>
			</linearGradient>
			<polygon class="st18" points="165.09,-232.89 196.57,-120.78 158.25,-137.99 134.05,-224.18 			"/>
		</g>
		
			<radialGradient id="SVGID_17_" cx="127.5989" cy="-56.0763" r="69.1716" gradientTransform="matrix(1.018 3.677946e-03 -2.473209e-04 0.1189 9.4062 -57.4546)" gradientUnits="userSpaceOnUse">
			<stop  offset="0" style="stop-color:#010101"/>
			<stop  offset="0.9374" style="stop-color:#010101;stop-opacity:0"/>
		</radialGradient>
		<ellipse class="st19" cx="135.21" cy="-64.75" rx="77.75" ry="18.17"/>
	</g>
	<g>
		<g>
			<linearGradient id="SVGID_18_" gradientUnits="userSpaceOnUse" x1="135.0939" y1="135.168" x2="135.0939" y2="-0.6632">
				<stop  offset="0" style="stop-color:#FAA32D"/>
				<stop  offset="0.5" style="stop-color:#FFCD05"/>
				<stop  offset="0.6889" style="stop-color:#E9D02E"/>
				<stop  offset="1" style="stop-color:#BAD75B"/>
			</linearGradient>
			<path class="st20" d="M192.5,66.31l-13.45-50.22L119.01,0L75.06,43.95l16.09,60.03l60.04,16.1l43.95-43.95L192.5,66.31z
				 M158.93,83.87l-32.57,8.73l-23.84-23.84l1.81-6.77l6.92-25.79l32.57-8.73l23.83,23.84l-6.82,25.49L158.93,83.87z"/>
			<linearGradient id="SVGID_19_" gradientUnits="userSpaceOnUse" x1="135.0939" y1="90.8381" x2="135.0939" y2="28.688">
				<stop  offset="0" style="stop-color:#6E6F72"/>
				<stop  offset="1" style="stop-color:#D2D3D4"/>
			</linearGradient>
			<polygon class="st21" points="150.21,51.31 150.21,68.76 135.09,77.49 119.98,68.76 119.98,51.31 135.09,42.59 149.92,51.15 			
				"/>
			<linearGradient id="SVGID_20_" gradientUnits="userSpaceOnUse" x1="146.7285" y1="-0.3585" x2="134.1401" y2="68.1227">
				<stop  offset="0" style="stop-color:#FFFFFF"/>
				<stop  offset="1" style="stop-color:#FFFFFF;stop-opacity:0"/>
			</linearGradient>
			<path class="st22" d="M160.83,76.8l6.82-25.49l-23.83-23.84l-32.57,8.73l-6.92,25.79C93.68,55.04,85.77,46.35,81.8,37.21
				L119.01,0l60.04,16.09l13.45,50.22C184.59,72.31,173.47,75.99,160.83,76.8z"/>
			<linearGradient id="SVGID_21_" gradientUnits="userSpaceOnUse" x1="132.3543" y1="43.1893" x2="136.6104" y2="61.9">
				<stop  offset="0" style="stop-color:#FFFFFF"/>
				<stop  offset="1" style="stop-color:#FFFFFF;stop-opacity:0"/>
			</linearGradient>
			<path class="st23" d="M149.92,51.15c-1.22,7.39-8.17,13.05-16.56,13.05c-5.47,0-10.33-2.41-13.38-6.14v-6.75l15.11-8.72
				L149.92,51.15z"/>
		</g>
		<text transform="matrix(1 0 0 1 0 174.6356)" class="st9 st24 st25">STONE CORP</text>
	</g>
	<g>
		<g>
			<g>
				<linearGradient id="SVGID_22_" gradientUnits="userSpaceOnUse" x1="107.2969" y1="404.8333" x2="160.7983" y2="303.5834">
					<stop  offset="0" style="stop-color:#6E6F72"/>
					<stop  offset="1" style="stop-color:#D2D3D4"/>
				</linearGradient>
				<polygon class="st26" points="195.51,363.83 128.37,395.76 75.91,339.35 88.66,314.83 88.66,314.83 110.64,272.57 184.55,287.7 
					189.8,324.24 189.88,324.76 				"/>
				<radialGradient id="SVGID_23_" cx="135.7101" cy="334.1677" r="59.041" gradientUnits="userSpaceOnUse">
					<stop  offset="0" style="stop-color:#595A5C"/>
					<stop  offset="1" style="stop-color:#1F2020"/>
				</radialGradient>
				<polygon class="st27" points="174.64,297.87 178.3,325.73 182.29,355.92 129.44,381.13 89.13,338.66 99.96,318.71 117.07,287.2 
									"/>
				<linearGradient id="SVGID_24_" gradientUnits="userSpaceOnUse" x1="120.2844" y1="267.8234" x2="75.5297" y2="351.7384">
					<stop  offset="0" style="stop-color:#FAA32D"/>
					<stop  offset="0.5" style="stop-color:#FFCD05"/>
					<stop  offset="0.6889" style="stop-color:#E9D02E"/>
					<stop  offset="1" style="stop-color:#BAD75B"/>
				</linearGradient>
				<polygon class="st28" points="117.07,287.2 95.91,326.18 89.13,338.66 75.91,339.35 88.66,314.83 88.66,314.83 110.64,272.57 
									"/>
				<linearGradient id="SVGID_25_" gradientUnits="userSpaceOnUse" x1="77.4251" y1="330.3385" x2="130.5718" y2="393.2755">
					<stop  offset="0" style="stop-color:#A3D17A"/>
					<stop  offset="1" style="stop-color:#76CEDE"/>
				</linearGradient>
				<polygon class="st29" points="89.13,338.66 75.91,339.35 128.37,395.77 129.44,381.13 				"/>
				<linearGradient id="SVGID_26_" gradientUnits="userSpaceOnUse" x1="123.4733" y1="394.8184" x2="205.2911" y2="347.9655">
					<stop  offset="0" style="stop-color:#6FCDDE"/>
					<stop  offset="0.4898" style="stop-color:#00AFD8"/>
					<stop  offset="0.9847" style="stop-color:#6457A5"/>
				</linearGradient>
				<polygon class="st30" points="182.29,355.92 129.44,381.13 128.37,395.77 195.51,363.83 				"/>
				<linearGradient id="SVGID_27_" gradientUnits="userSpaceOnUse" x1="180.3752" y1="291.8998" x2="190.1649" y2="373.015">
					<stop  offset="0.0459" style="stop-color:#843C97"/>
					<stop  offset="0.449" style="stop-color:#6457A5"/>
					<stop  offset="1" style="stop-color:#2F8CCC"/>
				</linearGradient>
				<polygon class="st31" points="195.51,363.83 182.29,355.92 179.44,334.33 174.64,297.87 184.55,287.7 189.89,324.74 				"/>
				<linearGradient id="SVGID_28_" gradientUnits="userSpaceOnUse" x1="110.6364" y1="285.2206" x2="184.5484" y2="285.2206">
					<stop  offset="0" style="stop-color:#F47F4F"/>
					<stop  offset="1" style="stop-color:#EE3E96"/>
				</linearGradient>
				<polygon class="st32" points="184.55,287.7 174.64,297.87 117.07,287.2 110.64,272.57 				"/>
			</g>
			<linearGradient id="SVGID_29_" gradientUnits="userSpaceOnUse" x1="133.1809" y1="257.5748" x2="141.2225" y2="339.7139">
				<stop  offset="0" style="stop-color:#FFFFFF"/>
				<stop  offset="1" style="stop-color:#FFFFFF;stop-opacity:0"/>
			</linearGradient>
			<path class="st33" d="M189.89,324.74c-0.01,0-0.01,0.01-0.01,0.02c-2.91,3.57-6.42,6.79-10.44,9.57h-0.01
				c-9.94,6.89-22.93,11.06-37.14,11.06c-19.19,0-36.14-7.6-46.38-19.21c-3.05-3.46-5.5-7.27-7.25-11.35v-0.01l21.98-42.26
				l73.91,15.13L189.89,324.74z"/>
		</g>
		
			<radialGradient id="SVGID_30_" cx="128.1216" cy="313.6157" r="69.6165" gradientTransform="matrix(1.018 3.677946e-03 -2.473209e-04 0.1189 9.4976 394.6298)" gradientUnits="userSpaceOnUse">
			<stop  offset="0" style="stop-color:#010101"/>
			<stop  offset="0.9374" style="stop-color:#010101;stop-opacity:0"/>
		</radialGradient>
		<ellipse class="st34" cx="135.71" cy="431.29" rx="78.25" ry="18.29"/>
	</g>
	<g>
		<g>
			
				<linearGradient id="SVGID_31_" gradientUnits="userSpaceOnUse" x1="-59.5816" y1="182.5652" x2="12.0895" y2="254.2362" gradientTransform="matrix(0 -1 1 0 -315.3792 317.797)">
				<stop  offset="0" style="stop-color:#6E6F72"/>
				<stop  offset="1" style="stop-color:#D2D3D4"/>
			</linearGradient>
			<polygon class="st35" points="-81.6,285.25 -81.6,397.84 -112.36,397.84 -112.36,285.25 			"/>
			<g>
				<linearGradient id="SVGID_32_" gradientUnits="userSpaceOnUse" x1="-59.923" y1="368.1738" x2="-61.864" y2="256.9135">
					<stop  offset="0" style="stop-color:#056C94"/>
					<stop  offset="1" style="stop-color:#33C4EA"/>
				</linearGradient>
				<polygon class="st36" points="-45.14,285.25 -45.14,397.32 -45.46,397.68 -75.89,383.37 -75.89,285.25 				"/>
				<linearGradient id="SVGID_33_" gradientUnits="userSpaceOnUse" x1="-79.4112" y1="428.1109" x2="4.6945" y2="308.4939">
					<stop  offset="0" style="stop-color:#4F69B2"/>
					<stop  offset="0.4796" style="stop-color:#00AFD8"/>
					<stop  offset="1" style="stop-color:#6FCDDE"/>
				</linearGradient>
				<polygon class="st37" points="19.22,327.56 -45.14,397.32 -45.46,397.68 -75.89,383.37 -45.14,350.04 -2.46,303.78 				"/>
			</g>
		</g>
		
			<radialGradient id="SVGID_34_" cx="-51.1916" cy="314.4338" r="65.168" gradientTransform="matrix(1.018 3.677946e-03 -2.473209e-04 0.1189 9.4971 396.2897)" gradientUnits="userSpaceOnUse">
			<stop  offset="0" style="stop-color:#010101"/>
			<stop  offset="0.9374" style="stop-color:#010101;stop-opacity:0"/>
		</radialGradient>
		<ellipse class="st38" cx="-46.57" cy="432.46" rx="73.25" ry="17.12"/>
	</g>
	<g>
		<g>
			
				<linearGradient id="SVGID_35_" gradientUnits="userSpaceOnUse" x1="-316.4335" y1="284.7458" x2="-277.7098" y2="284.7458" gradientTransform="matrix(0.7071 0.7071 -0.7071 0.7071 156.3431 267.1711)">
				<stop  offset="0" style="stop-color:#056C94"/>
				<stop  offset="1" style="stop-color:#33C4EA"/>
			</linearGradient>
			<polygon class="st39" points="-255.06,285.84 -282.44,258.46 -255.06,231.07 -227.68,258.46 			"/>
			
				<linearGradient id="SVGID_36_" gradientUnits="userSpaceOnUse" x1="-272.2952" y1="284.7458" x2="-233.5715" y2="284.7458" gradientTransform="matrix(0.7071 0.7071 -0.7071 0.7071 156.3431 267.1711)">
				<stop  offset="0" style="stop-color:#056C94"/>
				<stop  offset="1" style="stop-color:#33C4EA"/>
			</linearGradient>
			<polygon class="st40" points="-223.85,317.05 -251.23,289.67 -223.85,262.28 -196.47,289.67 			"/>
			
				<linearGradient id="SVGID_37_" gradientUnits="userSpaceOnUse" x1="-228.157" y1="284.7458" x2="-189.4333" y2="284.7458" gradientTransform="matrix(0.7071 0.7071 -0.7071 0.7071 156.3431 267.1711)">
				<stop  offset="0" style="stop-color:#F47F4F"/>
				<stop  offset="1" style="stop-color:#EE3E96"/>
			</linearGradient>
			<polygon class="st41" points="-192.64,348.26 -220.02,320.88 -192.64,293.49 -165.26,320.88 			"/>
			
				<linearGradient id="SVGID_38_" gradientUnits="userSpaceOnUse" x1="-272.2952" y1="328.9098" x2="-233.5715" y2="328.9098" gradientTransform="matrix(0.7071 0.7071 -0.7071 0.7071 156.3431 267.1711)">
				<stop  offset="0" style="stop-color:#056C94"/>
				<stop  offset="1" style="stop-color:#33C4EA"/>
			</linearGradient>
			<polygon class="st42" points="-255.08,348.28 -282.46,320.89 -255.08,293.51 -227.7,320.89 			"/>
			
				<linearGradient id="SVGID_39_" gradientUnits="userSpaceOnUse" x1="-228.157" y1="328.9098" x2="-189.4333" y2="328.9098" gradientTransform="matrix(0.7071 0.7071 -0.7071 0.7071 156.3431 267.1711)">
				<stop  offset="0" style="stop-color:#BAD75B"/>
				<stop  offset="0.3111" style="stop-color:#E9D02E"/>
				<stop  offset="0.5" style="stop-color:#FFCD05"/>
				<stop  offset="1" style="stop-color:#FAA32D"/>
			</linearGradient>
			<polygon class="st43" points="-223.87,379.49 -251.25,352.1 -223.87,324.72 -196.49,352.1 			"/>
			
				<linearGradient id="SVGID_40_" gradientUnits="userSpaceOnUse" x1="-228.157" y1="373.0739" x2="-189.4333" y2="373.0739" gradientTransform="matrix(0.7071 0.7071 -0.7071 0.7071 156.3431 267.1711)">
				<stop  offset="0" style="stop-color:#BAD75B"/>
				<stop  offset="0.3111" style="stop-color:#E9D02E"/>
				<stop  offset="0.5" style="stop-color:#FFCD05"/>
				<stop  offset="1" style="stop-color:#FAA32D"/>
			</linearGradient>
			<polygon class="st44" points="-255.1,410.71 -282.48,383.33 -255.1,355.95 -227.71,383.33 			"/>
		</g>
		
			<radialGradient id="SVGID_41_" cx="-224.6321" cy="312.1431" r="77.6238" gradientTransform="matrix(1.018 3.677946e-03 -2.473209e-04 0.1189 9.4959 394.1264)" gradientUnits="userSpaceOnUse">
			<stop  offset="0" style="stop-color:#010101"/>
			<stop  offset="0.9374" style="stop-color:#010101;stop-opacity:0"/>
		</radialGradient>
		<ellipse class="st45" cx="-223.87" cy="429.19" rx="87.25" ry="20.39"/>
	</g>
	<g>
		<g>
			<linearGradient id="SVGID_42_" gradientUnits="userSpaceOnUse" x1="-417.828" y1="407.535" x2="-417.828" y2="230.4127">
				<stop  offset="0.0153" style="stop-color:#6457A5"/>
				<stop  offset="0.5102" style="stop-color:#00AFD8"/>
				<stop  offset="1" style="stop-color:#6FCDDE"/>
			</linearGradient>
			<path class="st46" d="M-417.82,241.17c-41.87,0-75.81,33.94-75.81,75.81c0,41.86,33.94,75.81,75.81,75.81
				c41.86,0,75.8-33.95,75.8-75.81C-342.03,275.11-375.96,241.17-417.82,241.17z M-417.82,352.53c-18.9,0-34.21-15.32-34.21-34.21
				c0-18.9,15.31-34.21,34.21-34.21c18.89,0,34.2,15.31,34.2,34.21C-383.62,337.21-398.93,352.53-417.82,352.53z"/>
			<radialGradient id="SVGID_43_" cx="-419.1646" cy="319.6558" r="72.3748" gradientUnits="userSpaceOnUse">
				<stop  offset="0" style="stop-color:#FFCD05"/>
				<stop  offset="0.3275" style="stop-color:#FFCB07"/>
				<stop  offset="0.4877" style="stop-color:#FEC60F"/>
				<stop  offset="0.6116" style="stop-color:#FDBC17"/>
				<stop  offset="0.7168" style="stop-color:#FBAF1F"/>
				<stop  offset="0.8102" style="stop-color:#F89E26"/>
				<stop  offset="0.8952" style="stop-color:#F6892B"/>
				<stop  offset="0.9722" style="stop-color:#F3702F"/>
				<stop  offset="1" style="stop-color:#F26430"/>
			</radialGradient>
			<path class="st47" d="M-417.82,246.54c-30.01,0-54.34,24.32-54.34,54.34c0,30.01,24.33,54.33,54.34,54.33
				c30.01,0,54.34-24.32,54.34-54.33C-363.48,270.86-387.82,246.54-417.82,246.54z M-417.82,352.53c-18.9,0-34.21-15.32-34.21-34.21
				c0-18.9,15.31-34.21,34.21-34.21c18.89,0,34.2,15.31,34.2,34.21C-383.62,337.21-398.93,352.53-417.82,352.53z"/>
		</g>
		
			<radialGradient id="SVGID_44_" cx="-415.0245" cy="311.7084" r="79.9877" gradientTransform="matrix(1.018 3.677946e-03 -2.473209e-04 0.1189 9.4951 394.2951)" gradientUnits="userSpaceOnUse">
			<stop  offset="0" style="stop-color:#010101"/>
			<stop  offset="0.9374" style="stop-color:#010101;stop-opacity:0"/>
		</radialGradient>
		<ellipse class="st48" cx="-417.83" cy="428.57" rx="89.9" ry="21.01"/>
	</g>
	<g>
		<radialGradient id="SVGID_45_" cx="-94.4675" cy="151.8668" r="69.9748" gradientUnits="userSpaceOnUse">
			<stop  offset="0" style="stop-color:#F47F4F"/>
			<stop  offset="1" style="stop-color:#EE3E96"/>
		</radialGradient>
		<path class="st49" d="M-91.82,144.35c-5.54,0-10.02,4.49-10.02,10.02c0,1.28,0.24,2.5,0.68,3.62c1.45,3.75,5.08,6.4,9.34,6.4
			c4.26,0,7.9-2.66,9.34-6.4c0.44-1.12,0.68-2.34,0.68-3.62C-81.8,148.84-86.29,144.35-91.82,144.35z M-63.54,140.29l29.41-29.41
			L-48.41,96.6l-33.32,33.32V84.65h-20.19v45.6l-32.74-32.74l-14.28,14.28l28.51,28.51h-36.52v20.19h50.49
			c-0.69-1.76-1.07-3.67-1.07-5.67c0-8.66,7.02-15.69,15.69-15.69c8.66,0,15.69,7.03,15.69,15.69c0,2-0.37,3.91-1.07,5.67h50.49
			v-20.19H-63.54z"/>
		
			<radialGradient id="SVGID_46_" cx="-95.6726" cy="176.4048" r="52.5887" gradientTransform="matrix(1.2633 4.609904e-03 -3.069160e-04 0.1491 36.2104 230.8051)" gradientUnits="userSpaceOnUse">
			<stop  offset="0" style="stop-color:#010101"/>
			<stop  offset="0.9374" style="stop-color:#010101;stop-opacity:0"/>
		</radialGradient>
		<ellipse class="st50" cx="-88.58" cy="255.61" rx="73.35" ry="17.31"/>
	</g>
	<g>
		<g>
			<g>
				<linearGradient id="SVGID_47_" gradientUnits="userSpaceOnUse" x1="-273.1505" y1="119.3169" x2="-273.1505" y2="13.1587">
					<stop  offset="0" style="stop-color:#056C94"/>
					<stop  offset="1" style="stop-color:#33C4EA"/>
				</linearGradient>
				<path class="st51" d="M-271.96,127.04h-2.37c-6.6,0-12-5.4-12-12V8.45c0-6.6,5.4-12,12-12h2.37c6.6,0,12,5.4,12,12v106.59
					C-259.96,121.64-265.36,127.04-271.96,127.04z"/>
				<linearGradient id="SVGID_48_" gradientUnits="userSpaceOnUse" x1="-241.63" y1="164.9895" x2="-241.63" y2="17.5654">
					<stop  offset="0" style="stop-color:#6E6F72"/>
					<stop  offset="1" style="stop-color:#D2D3D4"/>
				</linearGradient>
				<path class="st52" d="M-240.44,157.91h-2.37c-6.6,0-12-5.4-12-12V39.33c0-6.6,5.4-12,12-12h2.37c6.6,0,12,5.4,12,12v106.59
					C-228.44,152.51-233.84,157.91-240.44,157.91z"/>
				<linearGradient id="SVGID_49_" gradientUnits="userSpaceOnUse" x1="-210.1094" y1="119.3169" x2="-210.1094" y2="13.1587">
					<stop  offset="0" style="stop-color:#056C94"/>
					<stop  offset="1" style="stop-color:#33C4EA"/>
				</linearGradient>
				<path class="st53" d="M-208.92,127.04h-2.37c-6.6,0-12-5.4-12-12V8.45c0-6.6,5.4-12,12-12h2.37c6.6,0,12,5.4,12,12v106.59
					C-196.92,121.64-202.32,127.04-208.92,127.04z"/>
				<linearGradient id="SVGID_50_" gradientUnits="userSpaceOnUse" x1="-178.5888" y1="119.3169" x2="-178.5888" y2="13.1587">
					<stop  offset="0" style="stop-color:#056C94"/>
					<stop  offset="1" style="stop-color:#33C4EA"/>
				</linearGradient>
				<path class="st54" d="M-177.4,127.04h-2.37c-6.6,0-12-5.4-12-12V8.45c0-6.6,5.4-12,12-12h2.37c6.6,0,12,5.4,12,12v106.59
					C-165.4,121.64-170.8,127.04-177.4,127.04z"/>
			</g>
			<linearGradient id="SVGID_51_" gradientUnits="userSpaceOnUse" x1="-273.4722" y1="-9.7887" x2="-273.4722" y2="56.2113">
				<stop  offset="0" style="stop-color:#FFFFFF"/>
				<stop  offset="1" style="stop-color:#FFFFFF;stop-opacity:0"/>
			</linearGradient>
			<path class="st55" d="M-273.47,46.37L-273.47,46.37c-6.37,0-11.58-5.21-11.58-11.58V9.32c0-6.37,5.21-11.58,11.58-11.58h0
				c6.37,0,11.58,5.21,11.58,11.58v25.47C-261.89,41.16-267.1,46.37-273.47,46.37z"/>
			<linearGradient id="SVGID_52_" gradientUnits="userSpaceOnUse" x1="-178.9104" y1="-9.7887" x2="-178.9104" y2="56.2113">
				<stop  offset="0" style="stop-color:#FFFFFF"/>
				<stop  offset="1" style="stop-color:#FFFFFF;stop-opacity:0"/>
			</linearGradient>
			<path class="st56" d="M-178.91,46.37L-178.91,46.37c-6.37,0-11.58-5.21-11.58-11.58V9.32c0-6.37,5.21-11.58,11.58-11.58l0,0
				c6.37,0,11.58,5.21,11.58,11.58v25.47C-167.33,41.16-172.54,46.37-178.91,46.37z"/>
			<linearGradient id="SVGID_53_" gradientUnits="userSpaceOnUse" x1="-210.431" y1="-9.7887" x2="-210.431" y2="56.2113">
				<stop  offset="0" style="stop-color:#FFFFFF"/>
				<stop  offset="1" style="stop-color:#FFFFFF;stop-opacity:0"/>
			</linearGradient>
			<path class="st57" d="M-210.43,46.37L-210.43,46.37c-6.37,0-11.58-5.21-11.58-11.58V9.32c0-6.37,5.21-11.58,11.58-11.58l0,0
				c6.37,0,11.58,5.21,11.58,11.58v25.47C-198.85,41.16-204.06,46.37-210.43,46.37z"/>
			<linearGradient id="SVGID_54_" gradientUnits="userSpaceOnUse" x1="-241.3083" y1="21.7317" x2="-241.3083" y2="87.7319">
				<stop  offset="0" style="stop-color:#FFFFFF"/>
				<stop  offset="1" style="stop-color:#FFFFFF;stop-opacity:0"/>
			</linearGradient>
			<path class="st58" d="M-241.31,77.89L-241.31,77.89c-6.37,0-11.58-5.21-11.58-11.58V40.84c0-6.37,5.21-11.58,11.58-11.58l0,0
				c6.37,0,11.58,5.21,11.58,11.58v25.47C-229.73,72.68-234.94,77.89-241.31,77.89z"/>
		</g>
		
			<radialGradient id="SVGID_55_" cx="-226.5983" cy="137.6286" r="77.6238" gradientTransform="matrix(1.018 3.677946e-03 -2.473209e-04 0.1189 9.4527 180.7246)" gradientUnits="userSpaceOnUse">
			<stop  offset="0" style="stop-color:#010101"/>
			<stop  offset="0.9374" style="stop-color:#010101;stop-opacity:0"/>
		</radialGradient>
		<ellipse class="st59" cx="-225.87" cy="195.02" rx="87.25" ry="20.39"/>
	</g>
	<g>
		<g>
			<linearGradient id="SVGID_56_" gradientUnits="userSpaceOnUse" x1="-494.3898" y1="47.7438" x2="-447.0566" y2="47.7438">
				<stop  offset="0" style="stop-color:#056C94"/>
				<stop  offset="1" style="stop-color:#33C4EA"/>
			</linearGradient>
			<rect x="-494.39" y="24.08" class="st60" width="47.33" height="47.33"/>
			<linearGradient id="SVGID_57_" gradientUnits="userSpaceOnUse" x1="-440.5482" y1="47.7438" x2="-393.215" y2="47.7438">
				<stop  offset="0" style="stop-color:#056C94"/>
				<stop  offset="1" style="stop-color:#33C4EA"/>
			</linearGradient>
			<rect x="-440.55" y="24.08" class="st61" width="47.33" height="47.33"/>
			<linearGradient id="SVGID_58_" gradientUnits="userSpaceOnUse" x1="-440.5482" y1="100.6978" x2="-393.215" y2="100.6978">
				<stop  offset="0" style="stop-color:#FAA32D"/>
				<stop  offset="0.5" style="stop-color:#FFCD05"/>
				<stop  offset="0.6889" style="stop-color:#E9D02E"/>
				<stop  offset="1" style="stop-color:#BAD75B"/>
			</linearGradient>
			<rect x="-440.55" y="77.03" class="st62" width="47.33" height="47.33"/>
			<linearGradient id="SVGID_59_" gradientUnits="userSpaceOnUse" x1="-387.2983" y1="100.6978" x2="-339.9651" y2="100.6978">
				<stop  offset="0" style="stop-color:#BAD75B"/>
				<stop  offset="0.3111" style="stop-color:#E9D02E"/>
				<stop  offset="0.5" style="stop-color:#FFCD05"/>
				<stop  offset="1" style="stop-color:#FAA32D"/>
			</linearGradient>
			<rect x="-387.3" y="77.03" class="st63" width="47.33" height="47.33"/>
			<linearGradient id="SVGID_60_" gradientUnits="userSpaceOnUse" x1="-416.8816" y1="177.3185" x2="-416.8816" y2="129.9852">
				<stop  offset="0" style="stop-color:#76CEDE"/>
				<stop  offset="1" style="stop-color:#A3D17A"/>
			</linearGradient>
			<rect x="-440.55" y="129.99" class="st64" width="47.33" height="47.33"/>
		</g>
		
			<radialGradient id="SVGID_61_" cx="-414.8868" cy="138.7739" r="71.3959" gradientTransform="matrix(1.018 3.677946e-03 -2.473209e-04 0.1189 9.4523 182.8177)" gradientUnits="userSpaceOnUse">
			<stop  offset="0" style="stop-color:#010101"/>
			<stop  offset="0.9374" style="stop-color:#010101;stop-opacity:0"/>
		</radialGradient>
		<ellipse class="st65" cx="-417.18" cy="196.66" rx="80.25" ry="18.75"/>
	</g>
</g>
</svg>
