<?xml version="1.0" encoding="utf-8"?>
<!-- Generator: Adobe Illustrator 24.1.2, SVG Export Plug-In . SVG Version: 6.00 Build 0)  -->
<svg version="1.1" id="Layer_1" xmlns="http://www.w3.org/2000/svg" xmlns:xlink="http://www.w3.org/1999/xlink" x="0px" y="0px"
	 viewBox="0 0 214.73 93.28" style="enable-background:new 0 0 214.73 93.28;" xml:space="preserve">
<style type="text/css">
	.st0{fill:#018C8C;}
	.st1{fill:#F1C518;}
</style>
<g>
	<path class="st0" d="M29.11,8.73c-6.35,0-9.47,4.44-9.47,13.31v8.39h14.04v6.95H19.64v53h-7.43v-53H1.78v-6.95h10.43v-8.87
		c0-9.47,3.72-15.83,10.43-18.47c2.04-0.84,4.32-1.32,6.71-1.32c11.39,0,17.63,4.2,18.95,12.47v60.19c0,6.36,1.44,10.19,7.19,10.19
		c2.04,0,4.68-0.96,8.03-2.88v7.43c-2.64,1.32-5.16,2.28-8.63,2.28c-9.23,0-14.03-5.52-14.03-16.43V14.49
		C39.31,10.65,34.87,8.73,29.11,8.73z"/>
	<path class="st0" d="M29.11,8.73V6.95c-1.79,0-3.45,0.31-4.91,1c-2.21,1.02-3.87,2.89-4.87,5.28c-1.01,2.4-1.46,5.32-1.46,8.8
		v10.17h14.04v3.4l-14.04,0v53h-3.88v-53H3.55v-3.4l10.43,0V21.56c0-4.51,0.89-8.15,2.46-10.92c1.59-2.77,3.83-4.71,6.84-5.9
		l0.01-0.01l0.01-0.01c1.83-0.75,3.88-1.19,6.04-1.19c5.49,0,9.54,1.02,12.27,2.84c1.37,0.91,2.43,2.01,3.24,3.34
		c0.81,1.33,1.38,2.92,1.68,4.8l1.75-0.28h-1.78v60.19c0,1.66,0.09,3.18,0.34,4.59c0.19,1.05,0.47,2.04,0.89,2.95
		c0.62,1.36,1.61,2.55,2.95,3.32c1.34,0.77,2.95,1.12,4.78,1.12c2.6-0.02,5.43-1.13,8.91-3.11l-0.88-1.54h-1.78v7.43h1.78
		l-0.79-1.59c-1.27,0.64-2.46,1.16-3.7,1.52c-1.25,0.36-2.56,0.57-4.14,0.57c-2.13,0-3.94-0.32-5.44-0.91
		c-2.24-0.9-3.85-2.34-5.01-4.57c-1.15-2.22-1.81-5.28-1.81-9.18v-60.9l-0.13-0.32c-0.96-2.38-2.85-4.16-5.19-5.25
		c-2.34-1.11-5.14-1.61-8.21-1.61V8.73v1.78c2.68,0,4.98,0.45,6.69,1.27c1.71,0.82,2.82,1.92,3.42,3.38l1.65-0.67h-1.78v60.55
		c0,2.86,0.31,5.41,0.96,7.66c0.97,3.37,2.76,6.1,5.32,7.89c2.56,1.8,5.8,2.65,9.52,2.64c1.9,0,3.59-0.27,5.13-0.71
		c1.54-0.45,2.93-1.07,4.3-1.75l0.98-0.49V78.69l-2.66,1.52c-3.23,1.86-5.67,2.66-7.15,2.64c-1.25,0-2.14-0.21-2.78-0.52
		c-0.48-0.24-0.84-0.53-1.16-0.92c-0.48-0.58-0.86-1.43-1.11-2.61c-0.25-1.18-0.37-2.65-0.37-4.36V14.11l-0.02-0.14
		c-0.36-2.26-1.07-4.3-2.15-6.08c-1.62-2.68-4.09-4.7-7.22-5.98C37.56,0.61,33.79,0,29.35,0c-2.64,0-5.14,0.53-7.39,1.45l0.68,1.64
		l-0.65-1.65c-3.71,1.45-6.68,4-8.63,7.44c-1.96,3.44-2.93,7.71-2.93,12.67v7.1H0v10.51h10.43v53h10.99v-53l14.04,0V28.66H21.42
		l0-6.62c0-2.11,0.19-3.92,0.54-5.42c0.53-2.25,1.4-3.73,2.51-4.66c0.56-0.47,1.2-0.82,1.96-1.07c0.76-0.25,1.65-0.38,2.69-0.38
		V8.73z"/>
	<path class="st0" d="M204.65,30.43h7.67l-18.59,59.95h-6.47l-12.83-44.24l-0.12-0.12V45.9v0.12c-4.68,14.51-9.71,29.86-14.39,44.36
		h-6.47l-18.11-59.95h8.15l13.55,46.88c0,0.12,0.12,0.12,0.12,0.24c5.04-15.59,9.95-31.41,14.99-47.12h5.16l13.43,47v-0.12
		C195.17,61.97,200.09,45.78,204.65,30.43z"/>
	<path class="st0" d="M204.65,30.43v1.78h5.26l-17.48,56.4h-3.83l-12.59-43.4l-0.44-0.44l-1.26,1.26h1.78V45.9h-3.55v0.12h1.78
		l-1.69-0.54c-4.67,14.5-9.71,29.85-14.39,44.36l1.69,0.54v-1.78h-5.16l-17.03-56.4h4.43l13.18,45.6l1.71-0.49h-1.78
		c-0.01,0.32,0.11,0.73,0.27,0.99c0.12,0.19,0.23,0.31,0.28,0.36l0.03,0.03l0.67-0.67l-0.68,0.66l0.01,0.01l0.67-0.67l-0.68,0.66
		l1.14-1.1l-1.41,0.72c0.11,0.22,0.24,0.34,0.27,0.38l1.14-1.1l-1.41,0.72l1.46-0.74l-1.64,0c0,0.23,0.06,0.53,0.18,0.74l1.46-0.74
		l-1.64,0v11.28l3.47-10.73c5.04-15.6,9.96-31.43,14.99-47.13l-1.69-0.54v1.78h3.82l16.54,57.91v-12.8h-1.78l1.71,0.49
		c4.43-15.33,9.35-31.52,13.91-46.87L204.65,30.43v1.78V30.43l-1.7-0.51c-4.55,15.34-9.47,31.53-13.91,46.9l-0.07,0.24v0.37h1.78
		l1.71-0.49l-13.8-48.29h-7.79l-0.4,1.23c-5.04,15.72-9.95,31.54-14.99,47.12l1.69,0.55h1.78c0.01-0.32-0.11-0.73-0.27-0.99
		c-0.12-0.19-0.23-0.31-0.28-0.36l-0.03-0.03l-0.67,0.67l0.69-0.66l-0.01-0.01l-0.67,0.67l0.69-0.66l-1.14,1.1l1.41-0.72
		c-0.11-0.22-0.24-0.34-0.27-0.38l-1.14,1.1l1.41-0.72l-1.46,0.74h1.64c0-0.23-0.06-0.53-0.18-0.74l-1.46,0.74h1.64v-0.25
		l-13.99-48.41h-11.88l19.18,63.51h9.09l0.4-1.23c4.67-14.5,9.71-29.85,14.39-44.36l0.09-0.27v-0.4h-3.55v0.12v0.74l0.32,0.32
		l13.07,45.09h9.12l19.69-63.51h-11.41l-0.38,1.27L204.65,30.43z"/>
	<path class="st1" d="M124.39,36.34c-6.02-6.03-14.39-9.77-23.58-9.77c-9.2,0-17.56,3.74-23.58,9.77
		c-6.03,6.02-9.77,14.39-9.77,23.58c0,9.2,3.74,17.56,9.77,23.58c2.54,2.54,5.5,4.67,8.76,6.29c2.58,1.28,5.35,2.24,8.26,2.82v-9.38
		v-18h-8.26v13.84c-0.81-0.63-1.59-1.3-2.31-2.03c-4.39-4.4-7.1-10.43-7.1-17.13c0-6.71,2.71-12.73,7.1-17.13
		c4.4-4.39,10.43-7.1,17.13-7.1c6.71,0,12.73,2.71,17.13,7.1c4.39,4.4,7.09,10.43,7.1,17.13c0,6.71-2.71,12.73-7.1,17.13
		c-0.55,0.55-1.12,1.07-1.71,1.56v-29.8h-8.26v34.26v9.42c2.91-0.64,5.68-1.66,8.26-3c3.02-1.58,5.78-3.6,8.16-5.99
		c6.03-6.02,9.77-14.39,9.77-23.58C134.16,50.73,130.42,42.37,124.39,36.34z"/>
	<path class="st0" d="M96.96,83.85v9.2c1.26,0.15,2.55,0.23,3.85,0.23c1.5,0,2.97-0.11,4.41-0.3v-9.23V58.48h-8.26V83.85z"/>
</g>
</svg>
